<svg version="1.1" id="Layer_1" xmlns="http://www.w3.org/2000/svg" xmlns:xlink="http://www.w3.org/1999/xlink" x="0px" y="0px" viewBox="0 0 500 500" style="width: 151px;" xml:space="preserve" data-imageid="files-and-folder-78" imageName="Files and Folder" class="illustrations_image">
<style type="text/css">
	.st0_files-and-folder-78{fill:#D1D3D4;}
	.st1_files-and-folder-78{fill:#231F20;}
	.st2_files-and-folder-78{fill:#68E1FD;}
	.st3_files-and-folder-78{fill:#FFFFFF;}
</style>
<ellipse class="st0_files-and-folder-78" cx="240.1" cy="390.4" rx="207.1" ry="15.3"/>
<g id="Back_folder_files-and-folder-78">
	<path class="st1_files-and-folder-78" d="M377,184.3c13,0,23.5,10.2,23.5,22.8v159.4c0,10.8-9.1,19.6-20.2,19.6H155.8c-11.2,0-20.2-8.8-20.2-19.6V179.8&#10;&#9;&#9;c0-10.9,9.1-19.6,20.2-19.6h86.7c13.7,0,24.9,10.8,24.9,24.1L377,184.3L377,184.3z"/>
	<polygon class="st2_files-and-folder-78 targetColor" points="172,360 172,111.8 337.5,111.8 376.2,150.5 376.2,355.7 &#9;" style="fill: rgb(144, 51, 43);"/>
	<path class="st1_files-and-folder-78" d="M172,360.7c-0.2,0-0.4-0.1-0.5-0.2c-0.1-0.1-0.2-0.3-0.2-0.5V111.8c0-0.4,0.3-0.8,0.7-0.8c0,0,0,0,0,0h165.5&#10;&#9;&#9;c0.2,0,0.4,0.1,0.5,0.2l38.7,38.7c0.1,0.1,0.2,0.3,0.2,0.5v205.3c0,0.4-0.3,0.7-0.7,0.8L172,360.7L172,360.7z M172.8,112.5v246.7&#10;&#9;&#9;l202.7-4.2V150.8l-38.2-38.2L172.8,112.5z"/>
	<path class="st3_files-and-folder-78" d="M355.7,164.1H189c-0.4,0-0.8-0.3-0.8-0.8s0.3-0.8,0.8-0.8h166.7c0.4,0,0.8,0.3,0.8,0.8&#10;&#9;&#9;S356.1,164.1,355.7,164.1z"/>
	<path class="st3_files-and-folder-78" d="M355.7,190.7H189c-0.4,0-0.8-0.3-0.8-0.8s0.3-0.8,0.8-0.8h166.7c0.4,0,0.8,0.3,0.8,0.8&#10;&#9;&#9;S356.1,190.7,355.7,190.7z"/>
	<path class="st3_files-and-folder-78" d="M355.7,217.3H189c-0.4,0-0.8-0.3-0.8-0.8s0.3-0.8,0.8-0.8h166.7c0.4,0,0.8,0.3,0.8,0.8&#10;&#9;&#9;S356.1,217.3,355.7,217.3z"/>
	<path class="st3_files-and-folder-78" d="M355.7,243.3H189c-0.4,0-0.8-0.3-0.8-0.8s0.3-0.8,0.8-0.8h166.7c0.4,0,0.8,0.3,0.8,0.8&#10;&#9;&#9;S356.1,243.3,355.7,243.3z"/>
	<path class="st1_files-and-folder-78" d="M240.2,136.5c-1.9-0.1-3.7-1.2-4.5-2.9c-1.4-2.7-5.8-18-6.6-24.7c-0.4-2.8,1-4.8,3.9-5.6&#10;&#9;&#9;c3.1-0.9,6.7,0.2,7.5,2.1s2.4,5.6,2.5,5.9c0.2,0.4,0,0.8-0.4,1c-0.4,0.2-0.8,0-1-0.3c0,0,0,0,0,0V112c-0.1-0.3-1.6-3.9-2.5-5.9&#10;&#9;&#9;c-0.5-1.2-3.3-2-5.8-1.3c-2.1,0.6-3,1.9-2.8,3.9c0.8,6.5,5.1,21.5,6.5,24.2c0.6,1.4,2.2,2.3,3.7,2c1.3-0.3,1.5-1.8,1.4-2.6&#10;&#9;&#9;c-0.2-4.8-6.7-22.6-7-23.4l1.4-0.5c0.7,1.9,6.9,18.9,7.1,23.9c0.1,2.1-0.9,3.6-2.6,4.1C240.9,136.5,240.6,136.5,240.2,136.5z"/>
	<path class="st1_files-and-folder-78" d="M375.9,151.2h-38.4c-0.4,0-0.7-0.3-0.8-0.7c0,0,0,0,0,0v-38.3c0-0.4,0.3-0.8,0.8-0.8s0.8,0.3,0.8,0.8v37.6&#10;&#9;&#9;h37.6c0.4,0,0.8,0.3,0.8,0.8S376.3,151.2,375.9,151.2L375.9,151.2z"/>
	<path class="st3_files-and-folder-78" d="M212.1,131.4h-23.3c-0.4,0-0.8-0.3-0.8-0.8s0.3-0.8,0.8-0.8h23.3c0.4,0,0.8,0.3,0.8,0.8&#10;&#9;&#9;S212.5,131.4,212.1,131.4z"/>
</g>
<g id="back_hand_files-and-folder-78">
	<path class="st3_files-and-folder-78" d="M113.7,231c-2.8,1.1-7.4,2.1-8.6-1.8c-0.2-0.7-0.3-1.4-0.2-2.1c0.1-1,0.3-2.1,0.6-3.1c0.8-2.8,1.8-5.6,3-8.3&#10;&#9;&#9;c0.3-0.7,0.9-1.5,1.6-1.2s0.7,1,0.7,1.6c0,1.8-0.3,3.5-0.2,5.3c3.7-0.9,6-4.9,9.6-5.7c1-0.2,2.2-0.3,2.3,1c0.1,1.6-2.7,2.8-3.7,3.7&#10;&#9;&#9;c1.1-0.9,2.3-1.6,3.6-2.1c0.4-0.2,0.8-0.2,1.2-0.2c0.4,0,0.7,0.4,0.8,0.8c0,0.3-0.2,0.6-0.4,0.9c-0.5,0.6-1.2,1.2-1.8,1.7&#10;&#9;&#9;c0.7-0.8,1.6-1.3,2.6-1.5c0.5-0.2,1.1,0,1.4,0.4c0.4,0.7-0.4,1.4-1.1,1.8c0.5-0.5,1.2-0.8,1.9-1c0.7-0.1,1.4,0.4,1.6,1.1&#10;&#9;&#9;c0,0.6-0.3,1.1-0.8,1.4C124,227.1,118.4,229.2,113.7,231z"/>
	<path class="st1_files-and-folder-78" d="M109.2,232.7c-0.9,0-1.8-0.2-2.6-0.5c-1.1-0.6-2-1.6-2.3-2.8c-0.2-0.8-0.3-1.6-0.2-2.4&#10;&#9;&#9;c0.1-1.1,0.3-2.2,0.6-3.2c0.8-2.9,1.8-5.7,3-8.4c0.6-1.4,1.5-2,2.5-1.7c0.6,0.2,1.2,0.8,1.2,2.3c0,0.8-0.1,1.5-0.1,2.3&#10;&#9;&#9;s-0.1,1.3-0.1,2c1.3-0.6,2.5-1.5,3.6-2.4c1.4-1.3,3.1-2.4,5-2.9c0.8-0.3,1.7-0.2,2.5,0.2c0.4,0.3,0.7,0.9,0.7,1.4&#10;&#9;&#9;c0,0.2,0,0.4,0,0.6c0.2,0,0.4,0,0.6,0c0.8,0.1,1.4,0.7,1.4,1.5c0,0.1,0,0.2,0,0.3c0.6,0,1.3,0.2,1.6,0.8c0.1,0.2,0.2,0.3,0.2,0.5&#10;&#9;&#9;c0.6-0.1,1.2,0.1,1.7,0.5c0.4,0.3,0.6,0.8,0.7,1.2c0,0.8-0.4,1.5-1,2c-3.6,3.6-8.9,5.6-13.6,7.4l-0.6,0.2&#10;&#9;&#9;C112.5,232.3,110.9,232.7,109.2,232.7z M109.8,215.1c-0.1,0-0.4,0.3-0.6,0.8c-1.2,2.6-2.2,5.4-2.9,8.2c-0.3,1-0.4,2-0.5,3&#10;&#9;&#9;c-0.1,0.6,0,1.2,0.2,1.8c0.2,0.8,0.7,1.5,1.5,1.9c1.3,0.6,3.5,0.4,6.1-0.5l0,0l0.6-0.2c4.6-1.8,9.7-3.7,13.1-7.1&#10;&#9;&#9;c0.1-0.1,0.6-0.6,0.5-0.8c0-0.1-0.1-0.2-0.1-0.2c-0.2-0.1-0.4-0.2-0.6-0.2c-0.4,0-0.7,0.2-1,0.4c-0.2,0.2-0.4,0.3-0.7,0.5&#10;&#9;&#9;c-0.4,0.2-0.8,0.1-1-0.3c-0.2-0.3-0.1-0.7,0.2-0.9c0.2-0.1,0.4-0.3,0.6-0.4c0.1-0.1,0.2-0.3,0.3-0.4c-0.2-0.1-0.4-0.1-0.6,0&#10;&#9;&#9;c-0.4,0.1-0.8,0.2-1.1,0.4c-0.4,0.4-0.7,0.7-1.1,1c-0.3,0.2-0.8,0.1-1-0.2c-0.2-0.3-0.2-0.6,0-0.9c0.4-0.4,0.8-0.8,1.2-1.1&#10;&#9;&#9;c0.2-0.2,0.4-0.4,0.6-0.6s0.2-0.3,0.2-0.4c-0.1,0-0.1-0.1-0.2-0.1c-0.3,0-0.6,0-0.8,0.2c-0.5,0.2-0.9,0.4-1.3,0.6&#10;&#9;&#9;c-0.4,0.3-0.7,0.5-1.1,0.7c-0.3,0.2-0.7,0.4-1,0.7c-0.3,0.3-0.8,0.2-1.1-0.1c-0.3-0.3-0.2-0.8,0.1-1.1l0,0c0.7-0.6,1.4-1.1,2.2-1.5&#10;&#9;&#9;c0.7-0.5,1.2-1,1.2-1.5c0-0.1,0-0.2-0.1-0.3c-0.1,0-0.3-0.2-1.3,0c-1.6,0.5-3.1,1.4-4.4,2.6c-1.5,1.4-3.2,2.4-5.2,3&#10;&#9;&#9;c-0.2,0.1-0.5,0-0.6-0.1c-0.2-0.1-0.3-0.4-0.3-0.6c0-1.1,0-2.1,0.1-3.1c0.1-0.7,0.1-1.5,0.1-2.2S109.8,215.1,109.8,215.1z"/>
	<path class="st3_files-and-folder-78" d="M110.6,221.4c1.7,2.1,1.8,5.1,0.1,7.3h0.4"/>
	<path class="st1_files-and-folder-78" d="M110.7,229.5c-0.4,0-0.7-0.3-0.7-0.8c0-0.2,0.1-0.3,0.2-0.5c1.4-1.9,1.4-4.5-0.1-6.3c-0.3-0.3-0.2-0.8,0.1-1.1&#10;&#9;&#9;c0.3-0.3,0.8-0.2,1.1,0.1l0,0c1.8,2.1,2,5.1,0.6,7.5c0,0.1,0,0.1,0,0.2c0,0.4-0.3,0.8-0.7,0.8c0,0,0,0,0,0L110.7,229.5L110.7,229.5&#10;&#9;&#9;z"/>
</g>
<g id="file_files-and-folder-78">
	
		<rect x="135.3" y="158.1" transform="matrix(9.549829e-02 -0.9954 0.9954 9.549829e-02 -65.6103 423.8403)" class="st3_files-and-folder-78" width="130.3" height="179.9"/>
	<path class="st1_files-and-folder-78" d="M283.8,322.2L283.8,322.2L104.6,305c-0.4,0-0.7-0.4-0.7-0.8l12.4-129.7c0-0.2,0.1-0.4,0.3-0.5&#10;&#9;&#9;c0.2-0.1,0.4-0.2,0.6-0.2L296.3,191c0.4,0,0.7,0.4,0.7,0.8c0,0,0,0,0,0l-12.4,129.7C284.5,321.9,284.2,322.2,283.8,322.2z&#10;&#9;&#9; M105.5,303.6l177.6,17l12.3-128.2l-177.6-17L105.5,303.6z"/>
	<path class="st0_files-and-folder-78" d="M269.1,309.1L269.1,309.1L121.4,295c-0.4,0-0.7-0.4-0.7-0.8L131,187.6c0-0.2,0.1-0.4,0.3-0.5&#10;&#9;&#9;c0.2-0.1,0.4-0.2,0.6-0.2l147.6,14.1c0.4,0,0.7,0.4,0.7,0.8l-10.2,106.5C269.9,308.8,269.5,309.1,269.1,309.1z M122.3,293.5&#10;&#9;&#9;l146.1,14l10.1-105l-146.1-14L122.3,293.5z"/>
	<path class="st0_files-and-folder-78" d="M238,267c-0.2,0-0.4-0.1-0.6-0.3c-2.1-2.5-52.6-60.2-59.2-64.9c-3.4-2.4-17.2,5.5-28.2,12.5&#10;&#9;&#9;c-9.4,6-18.3,12.5-21.8,15c-0.3,0.2-0.8,0.2-1.1-0.2s-0.2-0.8,0.2-1.1c3.4-2.5,12.4-9,21.8-15c17.2-11.1,26.5-14.9,29.9-12.5&#10;&#9;&#9;c6.8,4.8,57.3,62.7,59.5,65.2c0.3,0.3,0.2,0.8-0.1,1c0,0,0,0,0,0C238.3,267,238.2,267.1,238,267z"/>
	<path class="st0_files-and-folder-78" d="M275.8,257.1c-0.3,0-0.5-0.1-0.6-0.4c-21.3-35.1-25.6-37.2-26.2-37.2c-2.3,0.3-18.2,12.9-31.9,24.3&#10;&#9;&#9;c-0.3,0.3-0.8,0.2-1-0.1c0,0,0,0,0,0c-0.3-0.3-0.2-0.8,0.1-1.1c0,0,0,0,0,0c6.8-5.7,29.2-24.2,32.7-24.7&#10;&#9;&#9;c2.8-0.5,12.1,12.3,27.7,37.9c0.2,0.3,0.1,0.8-0.2,1C276.1,257.1,275.9,257.1,275.8,257.1z"/>
	<path class="st0_files-and-folder-78" d="M221,220c-3.6,0-6.4-2.9-6.4-6.4s2.9-6.4,6.4-6.4c3.6,0,6.4,2.9,6.4,6.4l0,0C227.4,217.1,224.6,220,221,220z&#10;&#9;&#9; M221,208.6c-2.7,0-4.9,2.2-4.9,4.9s2.2,4.9,4.9,4.9s4.9-2.2,4.9-4.9l0,0C226,210.8,223.7,208.6,221,208.6L221,208.6z"/>
</g>
<g id="character_files-and-folder-78">
	<path class="st3_files-and-folder-78" d="M49.5,382.8l-1.1,8.3c0,0,23.1,2.4,22.2,0.4s-5.6-8.3-5.6-8.3"/>
	<path class="st1_files-and-folder-78" d="M65.6,393c-4.6,0-11.4-0.6-17.3-1.2c-0.2,0-0.4-0.1-0.5-0.3c-0.1-0.2-0.2-0.4-0.2-0.6l1.1-8.3&#10;&#9;&#9;c0.1-0.4,0.4-0.7,0.8-0.6c0.4,0.1,0.7,0.4,0.6,0.8l-1,7.5c8.8,0.9,18.2,1.4,20.4,0.9c-1.2-2.3-5.2-7.7-5.3-7.7&#10;&#9;&#9;c-0.2-0.3-0.2-0.8,0.2-1c0.3-0.2,0.8-0.1,1,0.2c0.2,0.3,4.7,6.4,5.7,8.5c0.1,0.3,0.1,0.7-0.1,1C70.7,392.8,68.6,393,65.6,393z"/>
	<path class="st3_files-and-folder-78" d="M106.4,232.1c0,0,15,10,20.8,7c3.4-1.8,6.2-4.3,9.3-6.5c3-2,5.9-4.1,8.6-6.4c0.3-0.3,0.6-0.6,0.8-0.9&#10;&#9;&#9;c0.2-0.4,0.4-0.7,0.5-1.1c0.5-1.5,1.2-3,1.9-4.4c0.2-0.6,0.7-1.1,1.2-1.4c3.1-1.2,1.1,5.2,0.5,6.3c2.4-2.2,4.8-4.5,7.4-6.5&#10;&#9;&#9;c0.3-0.3,0.6-0.4,1-0.4c0.4,0.1,0.6,0.6,0.5,0.9c-0.1,0.4-0.3,0.7-0.6,1l-4.1,4.9c1.2-1.4,2.5-2.8,3.9-4.1c0.5-0.4,1.9-1.8,2.6-1.2&#10;&#9;&#9;c1.2,0.9-3.2,5.9-3.9,6.8c1.2-1.6,2.5-3,4.1-4.3c0.4-0.4,1-0.7,1.5-0.7c0.3,0.3,0,0.8-0.3,1.1l-2.9,3.3c1.4-1.6,3.1-3.3,5.2-3.7&#10;&#9;&#9;c0,0.4-0.1,0.8-0.4,1c-4.2,5-8.5,9.8-12.9,14.6c-6,6.3-12.4,13.6-20.9,16c-10,2.9-19-3-27.3-8.1"/>
	<path class="st1_files-and-folder-78" d="M124.8,255c-7.8,0-14.9-4.4-21.3-8.4l-1-0.6c-0.4-0.2-0.5-0.6-0.3-1s0.6-0.5,1-0.3c0,0,0.1,0,0.1,0.1l1,0.6&#10;&#9;&#9;c8,5,16.4,10.1,25.7,7.4c7.8-2.3,14-8.9,19.5-14.7l1-1.1c4.3-4.5,8.4-9.2,11.9-13.3c-1,0.7-1.9,1.6-2.6,2.5&#10;&#9;&#9;c-0.3,0.3-0.7,0.3-1.1,0.1c-0.3-0.3-0.3-0.7-0.1-1l1.5-1.8c-0.3,0.2-0.5,0.5-0.8,0.8c-0.8,1-1.6,1.9-2.1,2.5&#10;&#9;&#9;c-0.3,0.3-0.7,0.3-1,0.1c-0.3-0.3-0.3-0.7-0.1-1c0.6-0.9,1.3-1.7,2.1-2.4c0.9-1,1.5-2.1,2-3.2c-0.6,0.3-1.1,0.7-1.5,1.1l-0.1,0.1&#10;&#9;&#9;c-1,0.9-1.9,1.8-2.7,2.8l-1,1.2c-0.3,0.3-0.7,0.3-1,0.1c-0.3-0.3-0.4-0.7-0.1-1.1c0.3-0.4,0.7-0.8,1.1-1.2l3.1-3.6&#10;&#9;&#9;c0.2-0.2,0.3-0.4,0.4-0.7l0,0c-0.1,0.1-0.2,0.1-0.2,0.2c-2.7,2.1-5.2,4.4-7.4,6.4c-0.3,0.3-0.8,0.3-1.1,0c-0.2-0.2-0.3-0.6-0.1-0.9&#10;&#9;&#9;c0.6-1.1,1.5-4.7,0.9-5.3c0-0.1-0.2,0-0.5,0.1c-0.4,0.2-0.7,0.6-0.9,1c-0.7,1.4-1.4,2.8-1.9,4.3c-0.1,0.4-0.3,0.9-0.6,1.3&#10;&#9;&#9;c-0.3,0.4-0.6,0.7-1,1c-2.5,2.2-5.2,4.2-7.9,6l-0.7,0.5c-1.1,0.7-2.1,1.5-3.1,2.3c-2,1.6-4.1,3-6.3,4.3c-6.1,3.1-20.9-6.6-21.5-7&#10;&#9;&#9;c-0.3-0.2-0.4-0.7-0.2-1c0.2-0.3,0.7-0.4,1-0.2c4.1,2.7,15.6,9.2,20,6.9c2.2-1.2,4.2-2.6,6.1-4.1c1-0.8,2-1.6,3.1-2.3l0.7-0.5&#10;&#9;&#9;c2.7-1.8,5.3-3.7,7.8-5.9c0.3-0.2,0.5-0.5,0.7-0.7c0.2-0.3,0.3-0.6,0.4-0.9c0.5-1.6,1.2-3.1,2-4.6c0.3-0.8,0.9-1.4,1.6-1.7&#10;&#9;&#9;c0.7-0.4,1.6-0.3,2.2,0.3c0.7,0.9,0.6,2.6,0.2,4.1c1.6-1.5,3.4-3.1,5.3-4.5c0.4-0.4,1-0.6,1.6-0.5c0.6,0.2,1.1,0.8,1.1,1.4&#10;&#9;&#9;c0.5-0.2,1-0.1,1.4,0.2c0.3,0.2,0.5,0.6,0.5,1c0,0.3,0,0.6-0.1,0.8c0.3-0.1,0.6-0.1,0.9-0.1c0.2,0,0.3,0.1,0.5,0.2&#10;&#9;&#9;c0.2,0.2,0.4,0.5,0.4,0.9c0.3-0.1,0.7-0.2,1-0.3c0.4-0.1,0.7,0.2,0.9,0.5c0.1,0.6-0.1,1.2-0.5,1.7c-3.8,4.4-8.3,9.6-13,14.6l-1,1.1&#10;&#9;&#9;c-5.6,6-12,12.8-20.2,15.1C128.6,254.8,126.7,255.1,124.8,255z"/>
	<polygon class="st1_files-and-folder-78" points="101.1,270.5 115.8,384.3 100.1,383.9 80.4,303.4 66.5,384.1 48.8,382.8 58.7,265.1 &#9;"/>
	<path class="st3_files-and-folder-78" d="M75.4,227.5c0.4-9.5-1.4-28.8-1.4-28.8s12.1,0.7,16.2-5.1c5,3.9,6,14.9,5.1,18.2c-1.9,6.5-10.3,5.1-10.3,5.1&#10;&#9;&#9;l1.1,11.9L75.4,227.5z"/>
	<path class="st1_files-and-folder-78" d="M86.1,229.5L86.1,229.5l-10.7-1.2c-0.4,0-0.7-0.4-0.7-0.8c0.4-9.3-1.5-28.5-1.5-28.7c0-0.2,0.1-0.4,0.2-0.6&#10;&#9;&#9;c0.2-0.1,0.4-0.2,0.6-0.2c0.1,0,11.7,0.6,15.5-4.8c0.1-0.2,0.3-0.3,0.5-0.3c0.2,0,0.4,0,0.6,0.2c5.2,4.1,6.3,15.5,5.4,19&#10;&#9;&#9;c-1.4,5.1-6.8,6-10.1,5.7l1,11c0,0.2-0.1,0.4-0.2,0.6C86.4,229.5,86.3,229.5,86.1,229.5z M76.2,226.8l9,1.1l-1-11&#10;&#9;&#9;c0-0.2,0.1-0.5,0.2-0.6c0.2-0.2,0.4-0.2,0.6-0.2c0.3,0.1,7.8,1.2,9.4-4.5c0.8-2.8,0-12.8-4.3-16.9c-3.9,4.6-12.7,4.9-15.4,4.8&#10;&#9;&#9;C75.1,203.2,76.5,218.4,76.2,226.8z"/>
	<path class="st1_files-and-folder-78" d="M85,216.9c0,0-3.5-0.4-5.2-2.2c0,0,2.3,5.8,5.8,6.6L85,216.9z"/>
	<path class="st1_files-and-folder-78" d="M85.6,222.1c-0.1,0-0.1,0-0.2,0c-3.9-0.9-6.3-6.8-6.4-7.1c-0.2-0.4,0-0.8,0.4-1c0.3-0.1,0.6,0,0.8,0.2&#10;&#9;&#9;c1.5,1.5,4.8,2,4.8,2c0.3,0,0.6,0.3,0.7,0.6l0.6,4.5c0,0.2,0,0.5-0.2,0.7C86,222,85.8,222.1,85.6,222.1z M81.6,216.7&#10;&#9;&#9;c0.7,1.3,1.8,2.5,3,3.4l-0.4-2.6C83.4,217.3,82.5,217.1,81.6,216.7L81.6,216.7z"/>
	<path class="st2_files-and-folder-78 targetColor" d="M94.1,222.6l27.6,15.2l-6.7,19.3c0,0-34.8-18.4-35-23.4S94.1,222.6,94.1,222.6z" style="fill: rgb(144, 51, 43);"/>
	<path class="st2_files-and-folder-78 targetColor" d="M102.9,281c0,0,1.1-25-1.3-40c-1.1-6.4-0.7-10.9-2.8-14.4c-7.1-11.6-34.8-8.1-38.9-0.1s-7.2,54.7-7.2,54.7&#10;&#9;&#9;L102.9,281z" style="fill: rgb(144, 51, 43);"/>
	<path class="st3_files-and-folder-78" d="M75.9,205.5c-0.3-1.5-1.4-2.7-2.9-3.2c-0.7-0.2-1.4-0.1-2,0.2c-0.7,0.6-1,1.5-0.9,2.4c0.1,1.4,0.8,2.8,1.8,3.8&#10;&#9;&#9;c1.1,1,2.5,1.5,3.9,1.5"/>
	<path class="st1_files-and-folder-78" d="M75.7,211c-1.6,0-3.1-0.6-4.3-1.7c-1.2-1.1-2-2.7-2.1-4.3c-0.2-1.2,0.3-2.4,1.2-3.1c0.8-0.5,1.7-0.6,2.6-0.3&#10;&#9;&#9;c1.8,0.5,3.1,1.9,3.5,3.8c0.1,0.4-0.2,0.8-0.6,0.9c0,0,0,0,0,0c-0.4,0.1-0.8-0.2-0.9-0.6c0,0,0,0,0,0c-0.3-1.2-1.2-2.2-2.4-2.6&#10;&#9;&#9;c-0.5-0.2-1-0.1-1.4,0.1c-0.5,0.5-0.7,1.1-0.6,1.8c0.1,1.2,0.7,2.4,1.6,3.3c0.9,0.8,2.1,1.3,3.4,1.3c0.4,0,0.7,0.3,0.8,0.7&#10;&#9;&#9;c0,0,0,0,0,0C76.6,210.6,76.2,210.9,75.7,211L75.7,211z"/>
	<ellipse transform="matrix(0.9546 -0.2979 0.2979 0.9546 -55.4012 36.0269)" class="st1_files-and-folder-78" cx="90.5" cy="199.8" rx="0.6" ry="1.1"/>
	<path class="st3_files-and-folder-78" d="M100.1,383.9c0,0-0.4,6.9,0.4,8s23,2.5,21.9-0.2s-7.9-8.3-7.9-8.3"/>
	<path class="st1_files-and-folder-78" d="M113.7,393.9c-6,0-12.9-0.6-13.7-1.6c-1-1.2-0.8-6.3-0.6-8.5c0-0.4,0.4-0.7,0.8-0.7c0.4,0,0.7,0.4,0.7,0.8&#10;&#9;&#9;c-0.2,3-0.1,6.6,0.2,7.4c0.8,0.3,4.9,0.9,10.4,1.1c6.3,0.2,9.4-0.2,10.2-0.6c-1.1-2.1-5.8-6.3-7.6-7.8c-0.3-0.3-0.4-0.7-0.1-1.1&#10;&#9;&#9;c0.3-0.3,0.7-0.4,1.1-0.1c0.7,0.6,7,5.8,8.2,8.6c0.3,0.6,0,1.3-0.7,1.6C121.4,393.7,117.7,393.9,113.7,393.9z M101.1,391.4&#10;&#9;&#9;L101.1,391.4z"/>
	<path class="st3_files-and-folder-78" d="M93.2,200.1c0,0,4.9,5.5,3.7,6.7s-4,0.6-4,0.6"/>
	<path class="st1_files-and-folder-78" d="M94.4,208.3c-0.6,0-1.1-0.1-1.7-0.2c-0.4-0.1-0.7-0.5-0.6-0.9s0.5-0.7,0.9-0.6c0.6,0.1,2.6,0.3,3.3-0.4&#10;&#9;&#9;c0.2-0.6-1.6-3.3-3.7-5.7c-0.3-0.3-0.2-0.8,0.1-1.1c0.3-0.3,0.8-0.2,1.1,0.1c4.4,5,4.4,7,3.6,7.8C96.5,208,95.4,208.4,94.4,208.3z"/>
	<path class="st1_files-and-folder-78" d="M114.5,256.9c-0.2-0.1-19.6-10.9-26.5-14.7"/>
	<path class="st1_files-and-folder-78" d="M114.5,257.6c-0.1,0-0.3,0-0.4-0.1c-0.4-0.3-19.5-10.8-26.5-14.6c-0.4-0.2-0.5-0.6-0.3-1&#10;&#9;&#9;c0.2-0.4,0.6-0.5,1-0.3c6.9,3.8,26.4,14.5,26.6,14.7c0.4,0.2,0.5,0.7,0.3,1C115,257.5,114.8,257.6,114.5,257.6L114.5,257.6z"/>
	<path class="st3_files-and-folder-78" d="M85.8,209c0.6,1.5,2,2.5,3.6,2.6c1.6,0.1,3.1-0.5,4.2-1.7"/>
	<path class="st1_files-and-folder-78" d="M89.8,212.3c-0.2,0-0.3,0-0.5,0c-1.9-0.1-3.5-1.3-4.2-3.1c-0.2-0.4,0-0.8,0.4-1c0.4-0.2,0.8,0,1,0.4&#10;&#9;&#9;c0.5,1.2,1.7,2,2.9,2.1c1.3,0.1,2.6-0.5,3.5-1.5c0.3-0.3,0.8-0.3,1.1,0c0.3,0.3,0.3,0.8,0,1.1C92.9,211.6,91.4,212.3,89.8,212.3z"/>
	<path class="st1_files-and-folder-78" d="M70.6,216.9c-2.8,0-5.5-0.7-8-1.9c-1.3-0.6-2.4-1.6-3.2-2.8c-0.3-0.5-0.5-1.1-0.5-1.8c-0.9,0-1.9-0.2-2.7-0.7&#10;&#9;&#9;c-1.5-0.8-2.8-2-3.8-3.4c-0.9-1-0.9-2.5,0.1-3.4c0,0,0,0,0,0l0.9-1c1.6-1.6,3-3.4,4.2-5.3c0.7-1.4,1.3-2.9,1.7-4.4&#10;&#9;&#9;c0.4-1.1,0.8-2.4,1.3-3.6c3.8-8.5,10.7-9.9,17-10.1c3.9-0.1,8.9,1,11.5,4.6c0.9-0.3,1.9-0.3,2.8,0.1c1.1,0.6,2,1.6,2.5,2.8&#10;&#9;&#9;c2.3,4.2,3.4,8.9,3,13.7c-0.1,0.4-0.5,0.7-0.9,0.6c-0.4-0.1-0.6-0.4-0.6-0.7c0.3-4.5-0.6-8.9-2.8-12.9c-0.4-0.9-1.1-1.6-1.9-2.1&#10;&#9;&#9;c-0.5-0.2-1.1-0.3-1.6-0.1c-0.1,0-0.2,0.1-0.3,0.2c-0.2,0.1-0.4,0.2-0.6,0.1c-0.2,0-0.4-0.2-0.5-0.4c-2.1-3.5-7-4.6-10.5-4.5&#10;&#9;&#9;c-5.8,0.2-12.2,1.5-15.6,9.2c-0.5,1.1-0.9,2.3-1.3,3.4c-0.5,1.6-1.1,3.1-1.8,4.6c-1.2,2.1-2.7,4-4.4,5.6l-0.9,1&#10;&#9;&#9;c-0.2,0.2-0.4,0.5-0.4,0.8c0,0.3,0.2,0.6,0.4,0.8c0.8,1.2,1.9,2.3,3.2,3c0.8,0.4,1.8,0.6,2.7,0.5c0.2,0,0.5,0,0.7,0.2&#10;&#9;&#9;c0.2,0.2,0.2,0.4,0.2,0.6c-0.1,0.6,0,1.2,0.3,1.7c0.6,1,1.5,1.7,2.6,2.2c2.5,1.3,5.4,1.9,8.2,1.7c0.4,0,0.8,0.3,0.8,0.7&#10;&#9;&#9;c0,0.4-0.3,0.8-0.7,0.8l0,0L70.6,216.9z"/>
	<path class="st3_files-and-folder-78" d="M80.3,302.8c-0.2,0-0.4-0.1-0.6-0.2c-4.5-4.8-5.6-12-5.6-12.3c-0.1-0.4,0.2-0.8,0.6-0.9&#10;&#9;&#9;c0.4-0.1,0.8,0.2,0.8,0.6c0,0.1,1,7.1,5.2,11.5c0.3,0.3,0.3,0.8,0,1.1C80.7,302.7,80.5,302.8,80.3,302.8z"/>
</g>
<g id="Front_folder_files-and-folder-78">
	<path class="st3_files-and-folder-78" d="M225.2,229h229c10,0,15.2,6.9,11.8,15.4l-51.5,127.4c-3.5,8.5-14.3,15.5-24.3,15.5h-229&#10;&#9;&#9;c-10,0-15.2-6.9-11.8-15.5l51.5-127.4C204.3,235.9,215.2,229,225.2,229z"/>
	<path class="st1_files-and-folder-78" d="M390.2,388.1h-229c-5.3,0-9.6-1.9-11.9-5.3c-2.1-3.1-2.3-7-0.6-11.2l51.5-127.4c3.6-8.8,14.8-15.9,25-15.9h229&#10;&#9;&#9;c5.3,0,9.6,1.9,11.9,5.3c2.1,3.1,2.3,7.1,0.6,11.2l-51.5,127.4C411.6,380.9,400.4,388.1,390.2,388.1z M225.2,229.8&#10;&#9;&#9;c-9.7,0-20.2,6.7-23.6,15l-51.5,127.4c-1.5,3.6-1.3,7.1,0.5,9.8c2,2.9,5.9,4.6,10.6,4.6h229c9.7,0,20.2-6.7,23.6-15l51.5-127.4&#10;&#9;&#9;c1.5-3.7,1.3-7.1-0.5-9.8c-2-2.9-5.9-4.6-10.6-4.6L225.2,229.8z"/>
	<path class="st0_files-and-folder-78" d="M427.7,271.9h-78.4c-1.9,0.1-3.7-0.8-4.9-2.4c-1.1-1.9-1.2-4.2-0.2-6.1l2.7-6.4c1.7-4,6.4-7.3,10.5-7.3h78.4&#10;&#9;&#9;c1.9-0.1,3.7,0.8,4.9,2.4c1.1,1.9,1.2,4.2,0.2,6.1l-2.7,6.5C436.5,268.6,431.8,271.9,427.7,271.9z M357.3,251.2&#10;&#9;&#9;c-3.5,0-7.6,2.9-9.1,6.4l-2.7,6.4c-0.8,1.5-0.7,3.2,0.1,4.7c0.8,1.1,2.2,1.8,3.6,1.7h78.4c3.5,0,7.6-2.9,9.1-6.4l2.7-6.4&#10;&#9;&#9;c0.8-1.5,0.7-3.2-0.1-4.7c-0.8-1.1-2.2-1.8-3.6-1.7L357.3,251.2z"/>
</g>
</svg>