<svg id="_0396_day_dreaming" xmlns="http://www.w3.org/2000/svg" viewBox="0 0 500 500" data-imageid="day-dreaming-61" imageName="Day Dreaming" class="illustrations_image" style="width: 151px;"><defs><style>.cls-1_day-dreaming-61{opacity:.18;}.cls-1_day-dreaming-61,.cls-2_day-dreaming-61,.cls-3_day-dreaming-61{fill:#000001;}.cls-4_day-dreaming-61{fill:#f4a28c;}.cls-2_day-dreaming-61{opacity:.03;}.cls-5_day-dreaming-61{fill:#e6e6e6;}.cls-3_day-dreaming-61{opacity:.09;}.cls-6_day-dreaming-61{fill:#ce8172;opacity:.31;}.cls-7_day-dreaming-61{opacity:.58;}.cls-7_day-dreaming-61,.cls-8_day-dreaming-61,.cls-9_day-dreaming-61{fill:#68e1fd;}.cls-10_day-dreaming-61{fill:#24285b;}.cls-8_day-dreaming-61{opacity:.73;}.cls-11_day-dreaming-61{fill:#ffd200;}</style></defs><ellipse id="sd_day-dreaming-61" class="cls-2_day-dreaming-61" cx="255.6" cy="429.11" rx="222.58" ry="36.24"/><g id="plant_day-dreaming-61"><path class="cls-7_day-dreaming-61 targetColor" d="m445.77,406.29s-18.06-4.93-21.99-21.74c0,0,27.98-5.66,28.78,23.23l-6.79-1.49Z" style="fill: rgb(144, 51, 43);"/><path class="cls-8_day-dreaming-61 targetColor" d="m447.98,404.5s-12.62-19.95-1.51-38.6c0,0,21.28,13.51,11.82,38.64l-10.31-.04Z" style="fill: rgb(144, 51, 43);"/><path class="cls-9_day-dreaming-61 targetColor" d="m451.24,404.52s6.67-21.07,26.82-25.06c0,0,3.78,13.68-13.05,25.11l-13.77-.06Z" style="fill: rgb(144, 51, 43);"/><polygon class="cls-10_day-dreaming-61" points="438.14 404.04 441.8 429.09 464.86 429.19 468.25 404.17 438.14 404.04"/></g><g id="person_day-dreaming-61"><path class="cls-11_day-dreaming-61" d="m127.83,120.16s-84.16-6.6-99.98,123.04c-6.36,52.09-31.55,175.36,96.28,185.32,192.64,15.02,287.33-65.59,169.54-107.02-96.63-33.99-165.84-201.34-165.84-201.34Z"/><path class="cls-3_day-dreaming-61" d="m71.77,233.67c-1.41,8.48-1.67,17.68.63,24.49,3.52,10.43,17.09,16.65,24.54,24.3,19.09,19.59,33.71,43.15,53.13,62.44,6.55,6.51,10.28,15.32,10.12,24.55-.06,3.7,1.51,7.82,6.4,11.83,14.41,11.78,74.87,17.67,108.68-18.57,33.81-36.25-10.76-54.18-10.76-54.18-10.3-5.58-20.6-11.15-30.9-16.73-9.15-4.95-18.83-12.08-28.61-15.53-8.71-3.07-14.01-3.79-20.22-11.91-16.52-21.62-26.06-48.49-26.85-75.69-.58-19.74,3.11-40.61-5.35-58.45-2.6-5.47-6.64-10.7-12.39-12.62-3.61-1.2-7.52-.98-11.32-.64-18.7,1.7-29.23,9.46-36.04,26.81-6.74,17.2-1.93,36.58-7.81,54.03-2.6,7.71-7.17,14.63-9.85,22.31-1.35,3.85-2.57,8.58-3.4,13.55Z"/><path class="cls-4_day-dreaming-61" d="m396.65,411.27s3.17,7.95,11.07,9.75c7.9,1.81,12.2,11.52-5.08,9.94-17.28-1.58-26.76,1.13-24.28-8.36,2.48-9.49,1.35-10.92,1.35-10.92l16.93-.42Z"/><path class="cls-4_day-dreaming-61" d="m280.63,404.59s-1.32,8.45,4.57,14.03c5.88,5.58,4.64,16.12-9.43,5.97-14.07-10.15-23.61-12.65-16.65-19.55,6.97-6.9,6.72-8.71,6.72-8.71l14.79,8.26Z"/><path class="cls-10_day-dreaming-61" d="m295.65,284.58s105.65,1.07,104.63,127.08l-24.93,4.22s-4.78-133.06-142.09-69.68l7.17-52.41,55.22-9.22Z"/><path class="cls-3_day-dreaming-61" d="m295.65,284.58s105.65,1.07,104.63,127.08l-24.93,4.22s-4.78-133.06-142.09-69.68l7.17-52.41,55.22-9.22Z"/><path class="cls-9_day-dreaming-61 targetColor" d="m138.77,150.09l15.49,1.72s95.93,13.56,76.44,68.21c-14.37,40.29,16.39,78.9,16.39,78.9l-64.74,45.6s-84.56-42.01-71.9-157.54c0,0,9.31-31.96,28.32-36.89Z" style="fill: rgb(144, 51, 43);"/><path class="cls-4_day-dreaming-61" d="m236.47,253.77c1.89-5.66,2.38-11.97.23-17.53-.85-2.2-2.15-4.3-4.05-5.7s-4.48-2-6.7-1.19c-1.08.4-2.02,1.1-2.84,1.9-.83.81-1.57,1.77-1.83,2.9-.56,2.4,1.12,4.69,2.76,6.53,4.2,4.71,3,9.09,2.67,15-.15,2.79.44,11.53,4.27,9.29,2.99-1.75,4.47-8.16,5.49-11.2Z"/><path class="cls-1_day-dreaming-61" d="m236.47,253.77c1.89-5.66,2.38-11.97.23-17.53-.85-2.2-2.15-4.3-4.05-5.7s-4.48-2-6.7-1.19c-1.08.4-2.02,1.1-2.84,1.9-.83.81-1.57,1.77-1.83,2.9-.56,2.4,1.12,4.69,2.76,6.53,4.2,4.71,3,9.09,2.67,15-.15,2.79.44,11.53,4.27,9.29,2.99-1.75,4.47-8.16,5.49-11.2Z"/><polygon class="cls-4_day-dreaming-61" points="134.51 113.56 137.86 162.56 162.63 153.35 151.5 124.65 134.51 113.56"/><path class="cls-6_day-dreaming-61" d="m154.72,132s-5.1.13-9.72-3.13c0,0,2.39,8.67,13.99,15.1l-4.27-11.97Z"/><path class="cls-4_day-dreaming-61" d="m160.87,105.57s3.79,14.5,2.98,24.71c-.33,4.14-4.01,7.28-8.15,6.89-5.14-.48-11.94-2.62-14.92-10.15l-6.61-12.15s-3.88-7.76,3.43-15.17c7.31-7.41,21.41-3.09,23.27,5.86Z"/><path class="cls-4_day-dreaming-61" d="m147.33,120.89s-1.08-5.67-5.28-4.5c-4.2,1.17-2.69,9.37,3.25,9.14l2.03-4.64Z"/><path class="cls-4_day-dreaming-61" d="m162.79,114.83l5.09,4.99c1.26,1.23.8,3.35-.85,3.96l-5.47,2.03,1.23-10.98Z"/><path class="cls-1_day-dreaming-61" d="m197.19,319.41l-14.84,25.11s-53.84-26.03-69.26-96.69,35.47-43.07,35.47-43.07l48.63,114.65Z"/><path class="cls-4_day-dreaming-61" d="m126.92,151.25c-8.95,3.96-68.93,117.52-28.25,157.07,50.61,49.2,95.53-60.54,117.33-68.36,7.87-2.82,19.23-3.91,12.54-12.03-6.7-8.12-17.12-5.2-24.12-.68s-57.69,56.78-69.48,48.02c-11.79-8.75,14.83-57.32,21.74-85.9,6.92-28.58-8.68-47.44-29.76-38.11Z"/><path class="cls-10_day-dreaming-61" d="m182.35,344.52s49.88-101.7,123.66-101.32c73.78.39-22.06,164.1-22.06,164.1l-24.36-9.89s36.22-70.25,26.94-92.86-23.25,133.38-104.19,39.96Z"/><path class="cls-10_day-dreaming-61" d="m154.42,87.31s19.52,11.22,2.97,20.98c-16.56,9.76-19.07,14.26-10.9,31.67,1.82,3.88,2.68,8.75,5.26,12.21,1.84,2.47,4.52,4.14,6.4,6.68,5.07,6.86,8.48,15.22,10.18,23.54,2.07,10.09,1,21.98-6.92,28.58-7.72,6.44-19.17,5.6-28.8,2.69-7.46-2.25-15.09-5.94-18.93-12.73-3.16-5.58-3.25-12.33-3.11-18.74.33-15.18.06-32.19,3.6-47.02,1.43-6.01.78-9.88-.93-15.98-1.67-5.94-3.28-11.92-1.5-18.05,5.38-18.58,27.32-20.57,42.69-13.84Z"/></g><g id="speech_day-dreaming-61"><path class="cls-5_day-dreaming-61" d="m434.07,95.2c1.23,7.04.36,14.45-2.58,20.97-3.87,8.61-11.29,15.57-20.13,18.88-1.58.59-3.22,1.08-4.66,1.96-1.34.82-2.46,1.94-3.57,3.05-3.59,3.57-7.31,7.13-11.75,9.55-5.71,3.11-11.24,2.49-17.39,2.81-6.33.33-12.06.05-18.04-2.35-1.84-.74-3.67-1.62-5.64-1.77-1.88-.14-3.73.4-5.58.77-14.75,2.96-30.99-6.1-36.22-20.2-.67-1.82-1.21-3.74-2.42-5.25-1.14-1.42-2.77-2.34-4.3-3.33-16.31-10.62-16.61-46.68,7.71-47.9-.17,0,5.66-11.85,6.52-12.96,5.4-7.02,12.78-11.59,19.89-16.61,8.59-6.06,19.37-8.95,29.84-8.01s20.55,5.72,27.92,13.22c8.32,1.64,16.71,3.96,23.71,8.76,6.99,4.81,12.45,12.5,12.7,20.98.05,1.63-.09,3.27.16,4.87.31,2.07,1.24,3.98,2,5.93.82,2.14,1.43,4.36,1.83,6.61Z"/><circle class="cls-1_day-dreaming-61" cx="327.29" cy="94.58" r="9.06"/><circle class="cls-1_day-dreaming-61" cx="362.31" cy="94.58" r="9.06"/><circle class="cls-1_day-dreaming-61" cx="397.34" cy="94.58" r="9.06"/><path class="cls-5_day-dreaming-61" d="m261.29,136.88c-1.47,2.84-1.01,6.72,1.22,9.12,2.79,3.01,7.69,3.57,11.34,1.7-.05,1.74,1.64,3.17,3.38,3.32s3.42-.67,4.81-1.72c2.42-1.81,4.35-4.52,4.5-7.54.15-3.02-1.9-6.21-4.88-6.69,1.73.28-.21-5.43-.46-5.86-.92-1.53-2.11-2.66-3.77-3.23-4.68-1.61-7.9,1.86-10.18,5.38-1.05,1.61-3.03,2.32-4.47,3.59-.62.55-1.11,1.2-1.49,1.92Z"/><path class="cls-5_day-dreaming-61" d="m240.73,133.79c-.66-3.61-4.22-5.06-7.43-4.44-1.1.21-2.24.44-3.17,1.07-1.31.9-2.21,3.62-1.77,5.16.38,1.33,1.84,2.33,3.19,2,1.4,1.57,3.76,2.21,5.76,1.56,2.2-.71,3.83-3.08,3.41-5.35Z"/></g></svg>