<svg id="_0023_mobile_phone" xmlns="http://www.w3.org/2000/svg" viewBox="0 0 500 500" data-imageid="mobile-phone-89" imageName="Mobile Phone" class="illustrations_image" style="width: 166px;"><defs><style>.cls-1_mobile-phone-89,.cls-2_mobile-phone-89,.cls-3_mobile-phone-89,.cls-4_mobile-phone-89{fill:#fff;}.cls-5_mobile-phone-89{fill:#f4a28c;}.cls-6_mobile-phone-89{fill:#a5a5a5;}.cls-7_mobile-phone-89{opacity:.03;}.cls-7_mobile-phone-89,.cls-8_mobile-phone-89,.cls-9_mobile-phone-89{fill:#000001;}.cls-2_mobile-phone-89{opacity:.24;}.cls-10_mobile-phone-89{fill:#e6e6e6;}.cls-8_mobile-phone-89{opacity:.12;}.cls-11_mobile-phone-89{opacity:.58;}.cls-11_mobile-phone-89,.cls-12_mobile-phone-89,.cls-13_mobile-phone-89{fill:#68e1fd;}.cls-3_mobile-phone-89{opacity:.2;}.cls-4_mobile-phone-89{opacity:.46;}.cls-14_mobile-phone-89{fill:#24285b;}.cls-9_mobile-phone-89{opacity:.08;}.cls-12_mobile-phone-89{opacity:.73;}.cls-15_mobile-phone-89{fill:#ffd200;}</style></defs><ellipse id="sd_mobile-phone-89" class="cls-7_mobile-phone-89" cx="260.56" cy="432.82" rx="208.64" ry="40.45"/><g id="plant_mobile-phone-89"><path class="cls-11_mobile-phone-89 targetColor" d="m422.88,400.88s-20.14-5.41-24.59-24.11c0,0,31.14-6.43,32.16,25.73l-7.57-1.62Z" style="fill: rgb(153, 51, 51);"/><path class="cls-12_mobile-phone-89 targetColor" d="m425.34,398.87s-14.15-22.16-1.87-42.98c0,0,23.76,14.95,13.35,42.98h-11.48Z" style="fill: rgb(153, 51, 51);"/><path class="cls-13_mobile-phone-89 targetColor" d="m428.96,398.87s7.33-23.49,29.75-28.03c0,0,4.27,15.22-14.42,28.03h-15.34Z" style="fill: rgb(153, 51, 51);"/><polygon class="cls-14_mobile-phone-89" points="414.37 398.4 418.57 426.28 444.25 426.28 447.92 398.4 414.37 398.4"/></g><g id="phone_mobile-phone-89"><rect class="cls-10_mobile-phone-89" x="162.53" y="26.72" width="222.79" height="399.56"/><rect class="cls-1_mobile-phone-89" x="180.96" y="72.27" width="184.4" height="281.2"/><circle class="cls-6_mobile-phone-89" cx="274.59" cy="389.48" r="21.8"/><path class="cls-9_mobile-phone-89" d="m246.09,179.7l36.63,5.48-1.13,2.43c-3.81,8.18-5.59,17.06-6.18,26.06-.29,4.38-2.76,10.34-11,17.38-14.05,11.99-23.1,50.58-41.75,65.66-11.29,9.12-17.66,23.01-18.23,37.51l-3.63,92.08h-36.11l7.98-140.77,9.42-48.62,23.58-24.02,21.48-27.7,9.76-5.48h9.19Z"/><rect class="cls-8_mobile-phone-89" x="255.07" y="42.34" width="62.47" height="9.11"/><circle class="cls-1_mobile-phone-89" cx="232.45" cy="47.89" r="10.17"/></g><g id="person_mobile-phone-89"><polygon class="cls-13_mobile-phone-89 targetColor" points="182.08 232.08 217.16 188.37 224.73 195.01 194.84 244.97 182.08 232.08" style="fill: rgb(153, 51, 51);"/><polygon class="cls-5_mobile-phone-89" points="124.01 160.09 130.48 179.5 115.12 189.26 109.59 155.61 124.01 160.09"/><path class="cls-5_mobile-phone-89" d="m104.31,136.85c3.3-8.07,14.04-9.71,20-3.35,6.54,6.98,14.42,18.08,5.5,24.13-13.65,9.25-26.18-8.03-26.18-8.03,0,0-1.83-6.62.67-12.74Z"/><path class="cls-5_mobile-phone-89" d="m114.29,148.76s-3.5-2.93-5.08,1.23c-1.58,4.15,4.59,6.16,6.44,4.06,1.85-2.1-1.36-5.29-1.36-5.29Z"/><path class="cls-13_mobile-phone-89 targetColor" d="m97.18,198.79c4.64-10.42,13.71-18.22,24.63-21.51,20.87-6.27,59.31.59,71.03,20.12,16.04,26.73-7.44,111.65-7.44,111.65l-70.15,5.45s-38.59-69.6-18.07-115.71Z" style="fill: rgb(153, 51, 51);"/><polygon class="cls-14_mobile-phone-89" points="185.4 309.05 176.17 429.66 161.58 429.66 148.56 335.96 116.31 314.5 185.4 309.05"/><polygon class="cls-14_mobile-phone-89" points="116.31 314.5 96.18 429.66 111.82 429.66 145.6 333.99 116.31 314.5"/><path class="cls-9_mobile-phone-89" d="m127.88,175.45s-32.82,105.69,61.94,112.7l-4.42,20.91-70.15,5.45s-24.72-38.81-23.67-93.33c0,0,.6-26.96,19.57-38.87,0,0,7.24-5.34,16.73-6.85Z"/><path class="cls-13_mobile-phone-89 targetColor" d="m99.85,429.41l-9.42,6.94c-1.61,1.19-.77,3.74,1.23,3.74h15.79c1.14,0,2.07-.93,2.07-2.07v-8.61h-9.66Z" style="fill: rgb(153, 51, 51);"/><path class="cls-13_mobile-phone-89 targetColor" d="m174.35,429.41l8.87,6.94c1.57,1.23.7,3.74-1.29,3.74h-11.24c-3.31,0-6-2.69-6-6v-4.68h9.66Z" style="fill: rgb(153, 51, 51);"/><path class="cls-13_mobile-phone-89 targetColor" d="m156.49,176.72s-12.04,17.09,0,37.42c7.65,12.91,29.91,38.06,45.13,54.68,7.41,8.09,20.56,6.56,25.9-3.02l32.69-57.63-11.09-7.11-29.96,43.92s-20.5-67.4-62.66-68.25Z" style="fill: rgb(153, 51, 51);"/><path class="cls-3_mobile-phone-89" d="m156.49,176.72s-12.04,17.09,0,37.42c7.65,12.91,29.91,38.06,45.13,54.68,7.41,8.09,20.56,6.56,25.9-3.02l32.69-57.63-11.09-7.11-29.96,43.92s-20.5-67.4-62.66-68.25Z"/><path class="cls-5_mobile-phone-89" d="m256.34,205.68s18.56-6.82,10.99-17.32c-7.57-10.5-18.22,12.68-18.22,12.68l7.23,4.63Z"/><rect class="cls-15_mobile-phone-89" x="250.24" y="170.26" width="18.33" height="26.73" transform="translate(97.72 -89.99) rotate(24.13)"/><path class="cls-14_mobile-phone-89" d="m110.6,161.79l-10.39-10.76c-2.18-2.26-3.31-5.31-3.17-8.44.25-5.47,1.42-14.2,5.95-20.75,7.11-10.28,16.57-14.16,18.92-5.28,2.35,8.89,2.84-1.67,8.56,3.06,5.73,4.72,4.55,7.49,0,9.99-4.55,2.51-13.98,6.12-14.82,13.61-.84,7.5,6.27,13.54-5.06,18.57Z"/><path class="cls-5_mobile-phone-89" d="m218.92,189.92s2.32-16.02,17.86-14.47c15.54,1.55,9.86,5.51,3.59,5.81h-.05c-2.62.51-4.63,2.47-5.46,5-.92,2.81-3.44,6.45-10.13,8.75l-5.8-5.09Z"/></g><g id="account_mobile-phone-89"><rect class="cls-9_mobile-phone-89" x="296.39" y="105.96" width="88.92" height="78.02"/><rect class="cls-15_mobile-phone-89" x="296.39" y="94.42" width="186.48" height="78.02"/><rect class="cls-1_mobile-phone-89" x="317.54" y="111.33" width="61.87" height="39.65"/><polygon class="cls-14_mobile-phone-89" points="317.54 111.33 348.47 140.29 379.41 111.33 317.54 111.33"/><rect class="cls-1_mobile-phone-89" x="402.18" y="115.56" width="56.93" height="11.71"/><rect class="cls-4_mobile-phone-89" x="402.18" y="134.43" width="56.93" height="11.71"/></g><g id="email_mobile-phone-89"><rect class="cls-9_mobile-phone-89" x="282.72" y="220.32" width="102.59" height="78.02"/><rect class="cls-15_mobile-phone-89" x="282.72" y="209.59" width="186.48" height="78.02"/><rect class="cls-1_mobile-phone-89" x="380.55" y="231.04" width="61.7" height="11.71"/><rect class="cls-4_mobile-phone-89" x="380.55" y="249.91" width="61.7" height="11.71"/><circle class="cls-14_mobile-phone-89" cx="334.29" cy="247.97" r="28.87"/><circle class="cls-1_mobile-phone-89" cx="335" cy="240.72" r="11.09"/><path class="cls-2_mobile-phone-89" d="m314.96,269.41s2.4-16.94,19.34-17.81c17.97-.92,19.34,17.81,19.34,17.81,0,0-6.79,7.19-19.62,7.43,0,0-10.74.39-19.05-7.43Z"/></g><g id="phone-2_mobile-phone-89"><polygon class="cls-10_mobile-phone-89" points="96.11 174.24 80.09 167.69 80.09 152.46 17.14 152.46 17.14 191.68 80.09 191.68 80.09 178.47 96.11 174.24"/><circle class="cls-8_mobile-phone-89" cx="34.53" cy="172.07" r="4.78"/><circle class="cls-8_mobile-phone-89" cx="48.49" cy="172.07" r="4.78"/><circle class="cls-8_mobile-phone-89" cx="62.14" cy="172.07" r="4.78"/></g></svg>