<svg id="_0310_slot_machine" data-name="0310_slot_machine" xmlns="http://www.w3.org/2000/svg" viewBox="0 0 500 500" data-imageid="slot-machine-25" imageName="Slot Machine" class="illustrations_image" style="width: 151px;"><defs><style>.cls-1_slot-machine-25{fill:#68e1fd;}.cls-2_slot-machine-25{fill:#093f68;}.cls-3_slot-machine-25{fill:#fff;}.cls-4_slot-machine-25{fill:#f56132;}.cls-5_slot-machine-25{fill:#ffbc0e;}</style></defs><g id="mechine_slot-machine-25"><rect class="cls-1_slot-machine-25 targetColor" x="80.61" y="110.68" width="293.33" height="278.92" rx="41.11" style="fill: rgb(144, 51, 43);"/><path class="cls-2_slot-machine-25" d="M332.7,391.47H121.86a43.16,43.16,0,0,1-43.12-43.12V151.93a43.16,43.16,0,0,1,43.12-43.12H332.7a43.17,43.17,0,0,1,43.12,43.12V348.35A43.17,43.17,0,0,1,332.7,391.47ZM121.86,112.56a39.41,39.41,0,0,0-39.37,39.37V348.35a39.41,39.41,0,0,0,39.37,39.37H332.7a39.41,39.41,0,0,0,39.36-39.37V151.93a39.41,39.41,0,0,0-39.36-39.37Z"/><path class="cls-1_slot-machine-25 targetColor" d="M323.36,110.68H131.2l11.44-11.05a15.93,15.93,0,0,1,11.09-4.49H300.82a16,16,0,0,1,11.1,4.49Z" style="fill: rgb(144, 51, 43);"/><path class="cls-2_slot-machine-25" d="M323.36,112.56H131.2a1.88,1.88,0,0,1-1.31-3.22l11.44-11.06a17.78,17.78,0,0,1,12.4-5H300.82a17.76,17.76,0,0,1,12.4,5l11.44,11.06a1.87,1.87,0,0,1-1.3,3.22Zm-187.52-3.75H318.72L310.61,101a14,14,0,0,0-9.79-4H153.73a14,14,0,0,0-9.79,4Z"/><rect class="cls-1_slot-machine-25 targetColor" x="113.31" y="388.62" width="227.93" height="16.24" rx="5.64" style="fill: rgb(144, 51, 43);"/><path class="cls-2_slot-machine-25" d="M335,406.73H119.55a8.11,8.11,0,0,1-8.11-8.11v-3.76a8.11,8.11,0,0,1,8.11-8.11H335a8.12,8.12,0,0,1,8.11,8.11v3.76A8.12,8.12,0,0,1,335,406.73ZM119.55,390.5a4.36,4.36,0,0,0-4.36,4.36v3.76a4.36,4.36,0,0,0,4.36,4.36H335a4.36,4.36,0,0,0,4.36-4.36v-3.76A4.36,4.36,0,0,0,335,390.5Z"/><rect class="cls-2_slot-machine-25" x="163.86" y="333.08" width="126.83" height="24.96" rx="7.72"/><path class="cls-2_slot-machine-25" d="M282,359.92H172.55A10.57,10.57,0,0,1,162,349.36v-7.59a10.56,10.56,0,0,1,10.56-10.56H282a10.57,10.57,0,0,1,10.56,10.56v7.59A10.58,10.58,0,0,1,282,359.92ZM172.55,335a6.81,6.81,0,0,0-6.81,6.81v7.59a6.81,6.81,0,0,0,6.81,6.81H282a6.82,6.82,0,0,0,6.81-6.81v-7.59A6.82,6.82,0,0,0,282,335Z"/><rect class="cls-3_slot-machine-25" x="95.21" y="126.54" width="264.13" height="189.23" rx="19.05"/><path class="cls-2_slot-machine-25" d="M338.63,317.65H115.92a22.61,22.61,0,0,1-22.58-22.59V147.26a22.61,22.61,0,0,1,22.58-22.59H338.63a22.61,22.61,0,0,1,22.59,22.59v147.8A22.61,22.61,0,0,1,338.63,317.65ZM115.92,128.42a18.86,18.86,0,0,0-18.83,18.84v147.8a18.86,18.86,0,0,0,18.83,18.84H338.63a18.86,18.86,0,0,0,18.84-18.84V147.26a18.86,18.86,0,0,0-18.84-18.84Z"/><rect class="cls-3_slot-machine-25" x="105.76" y="137.06" width="243.03" height="168.19" rx="15.5"/><path class="cls-2_slot-machine-25" d="M334,307.13H120.55a16.67,16.67,0,0,1-16.66-16.66V151.85a16.67,16.67,0,0,1,16.66-16.66H334a16.68,16.68,0,0,1,16.67,16.66V290.47A16.68,16.68,0,0,1,334,307.13ZM120.55,138.94a12.92,12.92,0,0,0-12.91,12.91V290.47a12.92,12.92,0,0,0,12.91,12.91H334a12.92,12.92,0,0,0,12.91-12.91V151.85A12.92,12.92,0,0,0,334,138.94Z"/><path class="cls-2_slot-machine-25" d="M187.15,307.13a1.88,1.88,0,0,1-1.88-1.87V137.06a1.88,1.88,0,0,1,3.75,0v168.2A1.87,1.87,0,0,1,187.15,307.13Z"/><path class="cls-2_slot-machine-25" d="M267.41,307.13a1.88,1.88,0,0,1-1.88-1.87V137.06a1.88,1.88,0,0,1,3.75,0v168.2A1.87,1.87,0,0,1,267.41,307.13Z"/><rect class="cls-2_slot-machine-25" x="373.94" y="169.18" width="17.38" height="122.08" rx="5.44"/><path class="cls-2_slot-machine-25" d="M386.25,293.13H379a7,7,0,0,1-6.95-6.95V174.25A7,7,0,0,1,379,167.3h7.24a7,7,0,0,1,6.95,6.95V286.18A7,7,0,0,1,386.25,293.13ZM379,171.06a3.19,3.19,0,0,0-3.19,3.19V286.18a3.19,3.19,0,0,0,3.19,3.2h7.24a3.19,3.19,0,0,0,3.19-3.2V174.25a3.19,3.19,0,0,0-3.19-3.19Z"/><rect class="cls-1_slot-machine-25 targetColor" x="391.32" y="185.71" width="19.46" height="78.84" rx="5.66" style="fill: rgb(144, 51, 43);"/><path class="cls-2_slot-machine-25" d="M405.31,266.43h-8.52a7.36,7.36,0,0,1-7.35-7.35v-67.9a7.36,7.36,0,0,1,7.35-7.35h8.52a7.36,7.36,0,0,1,7.35,7.35v67.9A7.36,7.36,0,0,1,405.31,266.43Zm-8.52-78.84a3.59,3.59,0,0,0-3.59,3.59v67.9a3.6,3.6,0,0,0,3.59,3.6h8.52a3.6,3.6,0,0,0,3.6-3.6v-67.9a3.6,3.6,0,0,0-3.6-3.59Z"/><rect class="cls-3_slot-machine-25" x="397.56" y="146.13" width="6.99" height="62.31"/><path class="cls-2_slot-machine-25" d="M404.55,210.32h-7a1.88,1.88,0,0,1-1.87-1.88V146.13a1.87,1.87,0,0,1,1.87-1.87h7a1.88,1.88,0,0,1,1.88,1.87v62.31A1.88,1.88,0,0,1,404.55,210.32Zm-5.12-3.75h3.24V148h-3.24Z"/><circle class="cls-4_slot-machine-25" cx="401.05" cy="133.31" r="18.33"/><path class="cls-2_slot-machine-25" d="M401.05,153.52a20.21,20.21,0,1,1,20.21-20.21A20.24,20.24,0,0,1,401.05,153.52Zm0-36.67a16.46,16.46,0,1,0,16.46,16.46A16.48,16.48,0,0,0,401.05,116.85Z"/></g><g id="number-3_slot-machine-25"><path class="cls-5_slot-machine-25" d="M155.7,203H125V190.86h45.41v11.56l-24.81,50.49H130.28Z"/><path class="cls-2_slot-machine-25" d="M170.43,190.86v11.56l-24.81,50.49H130.28l25.42-50H125V190.86h45.41m0-3.76H125a3.75,3.75,0,0,0-3.75,3.76V203A3.75,3.75,0,0,0,125,206.7h24.56l-22.64,44.51a3.75,3.75,0,0,0,3.34,5.45h15.34a3.75,3.75,0,0,0,3.37-2.1l24.8-50.48a3.68,3.68,0,0,0,.39-1.66V190.86a3.75,3.75,0,0,0-3.75-3.76Z"/></g><g id="number-2_slot-machine-25"><path class="cls-5_slot-machine-25" d="M232.67,203H202V190.86h45.4v11.56l-24.81,50.49H207.25Z"/><path class="cls-2_slot-machine-25" d="M247.4,190.86v11.56l-24.81,50.49H207.25l25.42-50H202V190.86h45.4m0-3.76H202a3.76,3.76,0,0,0-3.76,3.76V203A3.75,3.75,0,0,0,202,206.7h24.55l-22.64,44.51a3.75,3.75,0,0,0,3.34,5.45h15.34a3.75,3.75,0,0,0,3.37-2.1l24.8-50.48a3.68,3.68,0,0,0,.39-1.66V190.86a3.75,3.75,0,0,0-3.75-3.76Z"/></g><g id="number-1_slot-machine-25"><path class="cls-5_slot-machine-25" d="M314.8,185.16H284.13V173.07h45.4v11.57l-24.81,50.48H289.39Z"/><path class="cls-2_slot-machine-25" d="M329.53,173.07v11.57l-24.81,50.48H289.39l25.41-50H284.13V173.07h45.4m0-3.75h-45.4a3.75,3.75,0,0,0-3.75,3.75v12.09a3.74,3.74,0,0,0,3.75,3.75h24.56L286,233.42a3.75,3.75,0,0,0,3.35,5.45h15.33a3.76,3.76,0,0,0,3.37-2.09l24.81-50.49a3.77,3.77,0,0,0,.38-1.65V173.07a3.75,3.75,0,0,0-3.75-3.75Z"/></g></svg>