<svg version="1.1" id="Layer_1" xmlns="http://www.w3.org/2000/svg" xmlns:xlink="http://www.w3.org/1999/xlink" x="0px" y="0px" viewBox="0 0 500 500" style="width: 151px;" xml:space="preserve" data-imageid="time-39" imageName="Time" class="illustrations_image">
<style type="text/css">
	.st0_time-39{fill:#D1D3D4;}
	.st1_time-39{fill:#FFFFFF;}
	.st2_time-39{fill:#231F20;}
	.st3_time-39{fill:#68E1FD;}
</style>
<ellipse id="Shadow_time-39" class="st0_time-39" cx="250.4" cy="401.2" rx="158.6" ry="10.1"/>
<g id="Hourglass_time-39">
	<path class="st1_time-39" d="M405.5,332c7.3,33.6-16.9,58-16.9,58H217.9c0,0-24.2-24.4-16.9-58s58.7-52,74.3-65.8s10.1-37.3-14.5-55.2&#10;&#9;&#9;s-57.9-29.3-57-68.1c0.6-24.8,20.1-41,20.1-41h158.7c0,0,19.6,16.1,20.1,41c0.9,38.8-32.4,50.2-57,68.1s-30.2,41.4-14.5,55.2&#10;&#9;&#9;C346.8,280,398.2,298.4,405.5,332z"/>
	<path class="st2_time-39" d="M388.5,390.6H217.9c-0.2,0-0.3-0.1-0.5-0.2c-0.2-0.2-24.4-25-17.1-58.6c5.3-24.3,33.7-41,54.4-53.1&#10;&#9;&#9;c8.4-4.9,15.7-9.2,20.1-13.1c5.7-4.8,8.9-12.1,8.5-19.6c-0.5-11.7-8.9-24.4-23-34.6c-4.8-3.5-10.1-6.9-15.2-10.1&#10;&#9;&#9;c-21-13.3-42.7-27.1-42-58.6c0.6-24.9,20.2-41.3,20.4-41.5c0.1-0.1,0.3-0.2,0.4-0.2h158.7c0.2,0,0.3,0,0.4,0.2&#10;&#9;&#9;c0.2,0.2,19.8,16.6,20.4,41.5c0.7,31.5-21,45.3-42,58.6c-5.1,3.2-10.4,6.6-15.2,10.1c-14.1,10.3-22.4,22.9-23,34.6&#10;&#9;&#9;c-0.4,7.5,2.8,14.7,8.5,19.6c4.4,3.9,11.7,8.1,20.1,13.1c20.7,12.1,49.1,28.8,54.4,53.1c7.3,33.6-16.9,58.4-17.1,58.6&#10;&#9;&#9;C388.9,390.6,388.7,390.6,388.5,390.6z M388.5,389.9L388.5,389.9z M218.2,389.3h170.1c2.2-2.4,23.3-25.9,16.6-57.2&#10;&#9;&#9;c-5.1-23.7-33.2-40.2-53.8-52.2c-8.5-5-15.8-9.3-20.3-13.2c-6.1-5.1-9.4-12.7-9-20.6c0.6-12.1,9.1-25.1,23.5-35.6&#10;&#9;&#9;c4.9-3.6,10.2-6.9,15.3-10.2c20.7-13.1,42.1-26.7,41.4-57.4c-0.5-23-17.7-38.6-19.7-40.3H224.1c-1.9,1.7-19.2,17.3-19.7,40.3&#10;&#9;&#9;c-0.7,30.8,20.7,44.3,41.4,57.4c5.1,3.2,10.4,6.6,15.3,10.2c14.4,10.5,23,23.5,23.5,35.6c0.4,7.9-2.9,15.5-9,20.6&#10;&#9;&#9;c-4.5,4-11.8,8.3-20.3,13.2c-20.5,12-48.6,28.5-53.8,52.2C194.9,363.4,216,386.9,218.2,389.3L218.2,389.3z"/>
	<path class="st3_time-39 targetColor" d="M252.8,193c5.3,3.3,10.7,6.8,15.9,10.6c13.3,9.7,21.3,20.9,26.2,34.7c4.8,13.5,3.5,27.8,6.4,41.8&#10;&#9;&#9;c-0.1,1.7,1.2,3.1,2.8,3.2c1.1,0.1,2.1-0.5,2.7-1.4c0.8-1,1.2-2.2,1.3-3.5c1.8-11.2,1.8-21.7,2.5-33.1&#10;&#9;&#9;c0.8-14.5,10.8-29.7,27.2-41.7c5.2-3.8,10.6-7.2,15.9-10.6c11.9-7.5,58.4-40.8,27.5-50.7c-6.6-2.1-14-1.6-21-0.9l-110.6,9.5&#10;&#9;&#9;c-6.4,0.6-12.9,1.1-18.8,3.4s-11,6.4-12,11.6C216.8,175.9,244.1,187.5,252.8,193z" style="fill: rgb(144, 51, 43);"/>
	<path class="st3_time-39 targetColor" d="M388.7,329.1c-5.8-4.8-14.2-7.4-22.6-7.1c-11.3,0.4-22.3,4.1-33.6,3.6c-13.4-0.6-26.1-7.3-39.5-5.9&#10;&#9;&#9;c-15.7,1.5-27.1,13.5-42.3,17c-8.1,1.9-16.9,1.3-24.8,3.7c-9.3,2.9-13.4,10.8-12.3,18.5c0.3,2.4,6.9,21.3,10.6,21.3h158.1&#10;&#9;&#9;c8.1,0,14.2-34.7,13.4-39.6C394.9,336,392.3,332,388.7,329.1z" style="fill: rgb(144, 51, 43);"/>
	<path class="st2_time-39" d="M221,89.4h164.5c3.4,0,6.2,2.8,6.2,6.2v0c0,3.4-2.8,6.2-6.2,6.2H221c-3.4,0-6.2-2.8-6.2-6.2v0&#10;&#9;&#9;C214.8,92.2,217.6,89.4,221,89.4z"/>
	<path class="st2_time-39" d="M385.5,102.4H221c-3.8,0.1-7-2.8-7.1-6.6s2.8-7,6.6-7.1c0.2,0,0.3,0,0.5,0h164.5c3.8-0.1,7,2.8,7.1,6.6&#10;&#9;&#9;s-2.8,7-6.6,7.1C385.8,102.5,385.6,102.5,385.5,102.4z M221,90c-3.1,0-5.6,2.5-5.6,5.6c0,3.1,2.5,5.6,5.6,5.6h164.5&#10;&#9;&#9;c3.1,0,5.6-2.5,5.6-5.6c0-3.1-2.5-5.6-5.6-5.6c0,0,0,0,0,0H221z"/>
	<path class="st2_time-39" d="M217.8,390h170.8c3.4,0,6.2,2.8,6.2,6.2v0c0,3.4-2.8,6.2-6.2,6.2H217.8c-3.4,0-6.2-2.8-6.2-6.2v0&#10;&#9;&#9;C211.6,392.7,214.4,390,217.8,390z"/>
	<path class="st2_time-39" d="M388.6,403H217.8c-3.8,0.1-7-2.8-7.1-6.6c-0.1-3.8,2.8-7,6.6-7.1c0.2,0,0.3,0,0.5,0h170.8&#10;&#9;&#9;c3.8-0.1,7,2.8,7.1,6.6s-2.8,7-6.6,7.1C389,403,388.8,403,388.6,403z M217.8,390.6c-3.1,0-5.6,2.5-5.6,5.6s2.5,5.6,5.6,5.6l0,0&#10;&#9;&#9;h170.8c3.1,0,5.6-2.5,5.6-5.6s-2.5-5.6-5.6-5.6l0,0H217.8z"/>
	<path class="st3_time-39 targetColor" d="M300.7,288.2c-4.7,0-4.7,15.6,0,15.6S305.5,288.2,300.7,288.2z" style="fill: rgb(144, 51, 43);"/>
	<path class="st3_time-39 targetColor" d="M309,303.9c-1.9,0-1.9,5.5,0,5.5S310.9,303.9,309,303.9z" style="fill: rgb(144, 51, 43);"/>
	<path class="st2_time-39" d="M297.3,178.4c-21.7-0.2-43.3-3.5-64.1-9.7c-0.3-0.1-0.5-0.5-0.4-0.8s0.5-0.5,0.8-0.4&#10;&#9;&#9;c0.9,0.3,91.5,29.7,140.1-15.7c0.3-0.3,0.7-0.3,0.9,0c0,0,0,0,0,0c0.3,0.3,0.3,0.7,0,0.9C353.2,172.7,323.8,178.4,297.3,178.4z"/>
	<path class="st2_time-39" d="M276.9,354.9c-17.1,0-34-2.5-50.4-7.3c-0.4-0.1-0.5-0.5-0.4-0.8c0,0,0,0,0,0c0.1-0.3,0.5-0.5,0.8-0.4&#10;&#9;&#9;c0,0,0,0,0,0c0.5,0.2,49.8,16.3,94.3,0L374,327c0.3-0.1,0.7,0.1,0.9,0.4c0.1,0.3-0.1,0.7-0.4,0.9l-52.8,19.3&#10;&#9;&#9;C306.5,353,291,354.9,276.9,354.9z"/>
	<path class="st2_time-39" d="M342.8,330.3h-0.2c-15.2-3.8-41.8-10.1-42-10.2c-0.4-0.1-0.6-0.4-0.5-0.8c0.1-0.4,0.5-0.6,0.8-0.5&#10;&#9;&#9;c0.3,0.1,26.8,6.4,42,10.2c0.4,0.1,0.6,0.5,0.5,0.8C343.3,330.1,343,330.3,342.8,330.3L342.8,330.3z"/>
</g>
<g id="Character_time-39">
	<path class="st1_time-39" d="M144.6,373.4l-18.5,21.6c0,0-35.7-20.1-34.4-24.1s24.5,2,24.5,2l11.5-15"/>
	<path class="st2_time-39" d="M126.2,395.8c-0.1,0-0.2,0-0.3-0.1c-10.9-6.1-36.1-20.8-34.8-24.9s18.9-0.1,25,1.4l11.2-14.6&#10;&#9;&#9;c0.2-0.3,0.7-0.4,1-0.2c0.3,0.2,0.4,0.7,0.2,1c0,0-0.1,0.1-0.1,0.1l-11.5,15c-0.2,0.2-0.5,0.3-0.8,0.3c-10.9-2.8-23-4.5-23.7-2.5&#10;&#9;&#9;c-0.3,2.3,17.1,13.6,33.6,22.9l18.1-21.2c0.3-0.3,0.7-0.3,1-0.1c0.3,0.3,0.3,0.7,0.1,1l0,0l-18.5,21.6&#10;&#9;&#9;C126.6,395.7,126.4,395.8,126.2,395.8z"/>
	<path class="st1_time-39" d="M204.1,167.9c-2-1.8-4.4-3.4-7-3.8c-2.3-0.3-3.5,0.6-5.4,1.5c-0.8,0.3-0.8,1.5-1.6,1.8s-2.4-0.5-3.4-0.5&#10;&#9;&#9;c-5-0.1-9.8,1.6-13,5.6c-2.1,2.6-3.3,5.9-4.6,9c-5.5,13.8-13.8,27.6-27.4,33.6c12.3,8.8,27.3,14.3,42.3,13.4&#10;&#9;&#9;c7.4-0.4,14.5-2.5,21-5.9c5.1-2.8,14.3-8.5,15.3-14.8c0.9-6-2-15.1-3.8-20.7C214.1,179.7,209.9,173.1,204.1,167.9z"/>
	<path class="st2_time-39" d="M180.9,229.3c-13.3,0-27.3-4.8-39.7-13.7c-0.3-0.2-0.4-0.7-0.1-1c0.1-0.1,0.2-0.2,0.3-0.2&#10;&#9;&#9;c11.3-4.9,20.1-15.8,27-33.2l0.3-0.8c1-3,2.5-5.9,4.4-8.4c3.1-3.9,8-6,13.6-5.9c0.5,0,1,0.1,1.5,0.3c0.5,0.2,1,0.3,1.6,0.2&#10;&#9;&#9;c0.2-0.1,0.3-0.3,0.5-0.6c0.2-0.5,0.6-0.9,1.1-1.2c0.4-0.2,0.7-0.3,1-0.5c1.4-0.9,3.1-1.3,4.8-1.1c3.1,0.4,5.7,2.5,7.4,3.9l0,0&#10;&#9;&#9;c5.8,5.3,10.1,12,12.5,19.5c2.1,6.2,4.7,15.1,3.9,21c-0.9,6.2-9,11.7-15.6,15.3c-6.6,3.5-13.8,5.6-21.3,6&#10;&#9;&#9;C183,229.3,181.9,229.3,180.9,229.3z M143.1,215.2c12.8,8.9,27.3,13.4,40.9,12.6c7.2-0.4,14.3-2.4,20.7-5.8&#10;&#9;&#9;c9-4.9,14.3-9.9,14.9-14.3c0.8-5.6-1.8-14.3-3.8-20.3c-2.3-7.3-6.5-13.8-12.1-18.9l0,0c-1.6-1.4-3.9-3.2-6.7-3.6&#10;&#9;&#9;c-1.4-0.2-2.8,0.2-4,0.9c-0.3,0.2-0.7,0.3-1.1,0.5c-0.2,0.2-0.4,0.4-0.4,0.6c-0.2,0.6-0.7,1-1.3,1.2c-0.8,0.2-1.7,0.1-2.4-0.2&#10;&#9;&#9;c-0.4-0.1-0.8-0.2-1.2-0.2c-5.2-0.1-9.6,1.8-12.4,5.3c-1.8,2.4-3.2,5.1-4.1,8l-0.3,0.8C162.9,199,154.2,209.9,143.1,215.2z"/>
	<path class="st1_time-39" d="M178.8,214.5c2.4-2.6-6.3-0.6-7.2,16.2c-0.6,12.8,3.5,33.7,3.5,33.7l-27.5,23l17,4.9c0,0,31-22.5,31-24.2&#10;&#9;&#9;S178.8,214.5,178.8,214.5z"/>
	<path class="st2_time-39" d="M164.6,292.8h-0.2l-17-4.9c-0.2-0.1-0.4-0.3-0.5-0.5c0-0.2,0-0.5,0.2-0.6l27.2-22.7c-0.6-2.9-4-21.7-3.4-33.4&#10;&#9;&#9;c0.6-12.1,5.4-17.2,7.6-17.7c0.4-0.2,0.9,0,1.2,0.4c0.2,0.4,0.1,1-0.2,1.3c3.1,9.4,16.7,51.7,16.7,53.4s-17,14.3-31.2,24.7&#10;&#9;&#9;C164.9,292.8,164.7,292.8,164.6,292.8z M149,287l15.4,4.4c11.3-8.2,29.1-21.5,30.4-23.5c-0.5-2.5-10.2-33-16.8-53.2l0,0&#10;&#9;&#9;c-1.7,1.3-5.4,5.6-5.9,16.1c-0.6,12.6,3.5,33.3,3.5,33.5c0,0.2,0,0.5-0.2,0.6L149,287z M195.5,268.1L195.5,268.1z"/>
	<path class="st3_time-39 targetColor" d="M227.1,200.6c-1-0.8-45.7,2-53.3,16.9s20,59.9,20,59.9l56.5-16.9C250.2,260.4,254.3,221.8,227.1,200.6z" style="fill: rgb(144, 51, 43);"/>
	<path class="st1_time-39" d="M205,203.1l3.1,9.9c0,0,0.2,4.9-6.9,5.5s-9.5-3.6-9.5-3.6l-5.2-18.6c0,0,8.5-8.9,3.6-19&#10;&#9;&#9;c4.3,4.1,10.7,5.2,16.1,2.6c0,0,3.2,9.4,4.1,14.7S205,203.1,205,203.1z"/>
	<path class="st2_time-39" d="M199.9,219.2c-6.4,0-8.8-3.9-8.9-4.1c0-0.1,0-0.1-0.1-0.2l-5.2-18.6c-0.1-0.2,0-0.5,0.2-0.7&#10;&#9;&#9;c0.1-0.1,8.1-8.6,3.5-18.1c-0.1-0.3,0-0.7,0.2-0.9c0.3-0.2,0.7-0.2,0.9,0.1c4.1,3.9,10.2,4.9,15.2,2.4c0.2-0.1,0.4-0.1,0.6,0&#10;&#9;&#9;c0.2,0.1,0.3,0.2,0.4,0.4c0.1,0.4,3.3,9.5,4.1,14.9c0.8,4.9-3.5,8-5.1,9l3,9.3c0,0.1,0,0.1,0,0.2c0,0.1,0.1,5.6-7.6,6.2&#10;&#9;&#9;C200.8,219.2,200.4,219.2,199.9,219.2z M192.4,214.5c0.4,0.5,2.7,3.7,8.8,3.2c5.9-0.5,6.2-4,6.3-4.6l-3.1-9.8&#10;&#9;&#9;c-0.1-0.3,0.1-0.7,0.4-0.9c0.1,0,5.6-3,4.9-7.8c-1-4.7-2.3-9.3-3.8-13.9c-4.6,2-9.9,1.5-14-1.4c2.4,8.3-3.1,15.4-4.4,16.9&#10;&#9;&#9;L192.4,214.5z"/>
	<path class="st1_time-39" d="M189.4,194.7c-0.5-0.8-1.3-1.5-2.2-1.8c-0.9-0.3-1.8-0.4-2.7-0.4c-0.5,0-1,0-1.5,0.2c-0.3,0.2-0.6,0.4-0.8,0.6&#10;&#9;&#9;c-0.6,0.6-0.9,1.4-1,2.2c0,0.7,0.2,1.3,0.5,1.9c0.3,0.7,0.7,1.3,1.2,1.8c2,2.3,5.5,2.5,7.7,0.5c0,0,0,0,0,0"/>
	<path class="st2_time-39" d="M187,201.8h-0.4c-1.7-0.1-3.2-0.9-4.3-2.1c-0.5-0.6-0.9-1.3-1.3-2c-0.4-0.7-0.6-1.5-0.6-2.2&#10;&#9;&#9;c0.1-1,0.5-1.9,1.2-2.7c0.3-0.3,0.7-0.6,1.1-0.8c0.6-0.2,1.2-0.3,1.8-0.3c1,0,2,0.1,2.9,0.4c1.1,0.4,2,1.1,2.6,2.1&#10;&#9;&#9;c0.2,0.3,0.1,0.8-0.3,1c-0.3,0.2-0.8,0.1-1-0.2c-0.4-0.7-1.1-1.2-1.9-1.5c-0.8-0.3-1.6-0.4-2.4-0.4c-0.4,0-0.8,0-1.1,0.1&#10;&#9;&#9;c-0.2,0.1-0.4,0.3-0.6,0.5c-0.5,0.4-0.8,1.1-0.9,1.7c0,0.5,0.2,1.1,0.5,1.6c0.3,0.6,0.6,1.2,1.1,1.7c0.8,0.9,2,1.5,3.3,1.6&#10;&#9;&#9;c1.3,0.1,2.5-0.4,3.5-1.2c0.3-0.3,0.8-0.3,1,0s0.3,0.8,0,1l0,0C190,201.3,188.5,201.8,187,201.8z"/>
	<path class="st1_time-39" d="M199.4,187.3c0,0,5.3,3.8,4.8,5s-2.9,1.4-2.9,1.4"/>
	<path class="st2_time-39" d="M201.2,194.5c-0.4,0-0.7-0.3-0.7-0.7c0-0.4,0.3-0.8,0.6-0.8c0.9-0.1,2.1-0.5,2.4-1c-0.1-0.5-2.2-2.4-4.5-4.1&#10;&#9;&#9;c-0.3-0.2-0.4-0.7-0.2-1c0.2-0.3,0.7-0.4,1-0.2c3.8,2.8,5.5,4.7,5,5.9C204.2,194.1,201.8,194.4,201.2,194.5L201.2,194.5z"/>
	<ellipse transform="matrix(0.8412 -0.5408 0.5408 0.8412 -69.0265 135.0579)" class="st2_time-39" cx="195.4" cy="185" rx="0.9" ry="1.3"/>
	
		<ellipse transform="matrix(0.8437 -0.5369 0.5369 0.8437 -67.4939 136.8053)" class="st2_time-39" cx="201.2" cy="184.3" rx="0.9" ry="1.3"/>
	<path class="st1_time-39" d="M205.8,194.9c0,0-7.1,7.5-10.8,0"/>
	<path class="st2_time-39" d="M199.5,198.9c-0.3,0-0.5,0-0.8-0.1c-1.8-0.3-3.3-1.5-4.3-3.7c-0.2-0.4,0-0.8,0.4-1c0.3-0.1,0.7,0,0.9,0.3&#10;&#9;&#9;c0.8,1.7,1.9,2.7,3.2,2.9c3,0.5,6.3-3,6.3-3.1c0.3-0.3,0.7-0.3,1,0c0.3,0.3,0.3,0.7,0,1C206.2,195.6,202.9,198.9,199.5,198.9z"/>
	<path class="st2_time-39" d="M205,203.1c0,0-5.2,1.5-8,0.8c0,0,3.7,5.3,9.8,5.1L205,203.1z"/>
	<path class="st2_time-39" d="M206.5,209.8c-6.2,0-9.9-5.2-10.1-5.4c-0.2-0.2-0.2-0.6,0-0.8c0.2-0.2,0.5-0.4,0.8-0.3&#10;&#9;&#9;c2.6,0.6,7.5-0.8,7.6-0.8c0.4-0.1,0.8,0.1,0.9,0.5l1.8,6c0.1,0.2,0,0.5-0.1,0.6c-0.1,0.2-0.3,0.3-0.6,0.3L206.5,209.8z&#10;&#9;&#9; M198.8,204.8c1.9,1.9,4.3,3.2,7,3.5l-1.3-4.3C202.6,204.5,200.7,204.7,198.8,204.8L198.8,204.8z"/>
	<path class="st2_time-39" d="M250.2,260.5c0,0,0,28.5-3.3,40.5c-9.4,34.1-78.3,88.6-78.3,88.6l-15.2-15.1l41.9-60.4l-50.7,59.4l-16.8-15.3&#10;&#9;&#9;l66-80.7L250.2,260.5z"/>
	<path class="st2_time-39" d="M168.7,390.3c-0.2,0-0.4-0.1-0.5-0.2L152.9,375c-0.3-0.2-0.3-0.6-0.1-0.9l33.6-48.5l-41.2,48.3&#10;&#9;&#9;c-0.3,0.3-0.7,0.3-1,0.1l-16.8-15.3c-0.3-0.3-0.3-0.7-0.1-1l66-80.7c0.1-0.1,0.2-0.2,0.4-0.2l56.3-16.9c0.2-0.1,0.5,0,0.6,0.1&#10;&#9;&#9;c0.2,0.1,0.3,0.3,0.3,0.6c0,1.2,0,28.7-3.3,40.7c-3.9,14.3-18.4,33.6-42.9,57.4c-18.2,17.7-35.5,31.4-35.7,31.5&#10;&#9;&#9;C169,390.2,168.8,390.3,168.7,390.3z M154.4,374.4l14.4,14.2c6.3-5,68.7-55.8,77.5-87.8c2.9-10.6,3.2-34.2,3.3-39.4L194.2,278&#10;&#9;&#9;l-65.4,80l15.8,14.4l50.2-58.8c0.2-0.3,0.7-0.4,1-0.1c0.3,0.2,0.4,0.7,0.1,1L154.4,374.4z"/>
	<path class="st1_time-39" d="M153.4,374.5l-10.9,12.1c0,0-17.9-6-17.2-2.6s24.1,22.4,25.3,22.8s18-17.2,18-17.2"/>
	<path class="st2_time-39" d="M150.6,407.5c-0.1,0-0.1,0-0.2,0c-1.4-0.5-24.9-19.6-25.8-23.3c-0.1-0.5,0-1,0.4-1.4c2-1.8,13.2,1.6,17.2,3&#10;&#9;&#9;l10.6-11.8c0.3-0.3,0.7-0.3,1,0c0.3,0.3,0.3,0.7,0,1l0,0L143,387.1c-0.2,0.2-0.5,0.3-0.8,0.2c-7.9-2.7-15.4-4.2-16.2-3.5&#10;&#9;&#9;c0.7,2.9,22.1,20.5,24.7,22.1c1.7-1,10.1-9.3,17.4-16.9c0.3-0.3,0.7-0.3,1,0c0.3,0.3,0.3,0.7,0,1&#10;&#9;&#9;C153.9,406,151.4,407.5,150.6,407.5z"/>
	<path class="st1_time-39" d="M170.4,380.1c-0.2,0-0.4-0.1-0.5-0.2c-0.2-0.3-0.2-0.6,0.1-0.9c0.6-0.5,56.7-48.4,67.9-75.5&#10;&#9;&#9;c11.1-26.8,5.2-37.5,5.2-37.6c-0.2-0.3-0.1-0.7,0.2-0.9c0,0,0,0,0,0c0.3-0.2,0.7-0.1,0.9,0.2c0,0,0,0,0,0&#10;&#9;&#9;c0.3,0.4,6.2,11.2-5.1,38.7c-11.3,27.3-67.7,75.5-68.2,76C170.7,380.1,170.6,380.1,170.4,380.1z"/>
	<path class="st1_time-39" d="M199.4,291c-0.2,0-0.3-0.1-0.4-0.2c-0.2-0.3-0.2-0.7,0-0.9l14.1-15.4c0.2-0.3,0.6-0.3,0.9-0.1&#10;&#9;&#9;c0.1,0.1,0.2,0.3,0.2,0.5v11.5c0,0.4-0.2,0.7-0.6,0.7c-0.4,0-0.7-0.2-0.7-0.6c0-0.1,0-0.1,0-0.2v-9.8l-13,14.2&#10;&#9;&#9;C199.8,290.9,199.6,291,199.4,291z"/>
	<polygon class="st1_time-39" points="185.4,298.6 204.2,277.4 157.6,277.4 132.6,302.1 &#9;"/>
	<path class="st2_time-39" d="M132.6,302.8c-0.4,0-0.7-0.3-0.7-0.7c0-0.2,0.1-0.3,0.2-0.5l25-24.8c0.1-0.1,0.3-0.2,0.5-0.2h46.6&#10;&#9;&#9;c0.4,0,0.7,0.3,0.7,0.7c0,0.2-0.1,0.3-0.2,0.4l-18.8,21.3c-0.1,0.1-0.3,0.2-0.4,0.2L132.6,302.8L132.6,302.8z M157.9,278&#10;&#9;&#9;l-23.6,23.3l50.8-3.3l17.6-20H157.9z M185.4,298.6L185.4,298.6z"/>
	<path class="st1_time-39" d="M220.2,207.8c0,0,11.5,46,8.3,47.5c-3.2,1.5-42.9,14.2-45.1,15.1s-7.6,4.8-8.5,6.9s-1.9,10.4,0,9.9&#10;&#9;&#9;s6.6-1.6,8.1-2.4s3.6-5.2,3.6-5.2s-0.2,4.3,1.8,3.4s5.6-5.7,5.6-5.7s50.1-1.7,55-11.8s2.2-31.8-5.9-48.4S221,197.6,220.2,207.8z"/>
	<path class="st2_time-39" d="M174.7,288c-0.4,0-0.7-0.2-0.9-0.4c-1.4-1.6-0.4-8.7,0.5-10.4c1.1-2.3,6.5-6.2,8.9-7.3c1-0.4,9-3.1,18.3-6.1&#10;&#9;&#9;c11.8-3.9,25.1-8.2,26.8-9c1.4-1.7-3.3-25.1-8.7-46.7c0-0.1,0-0.1,0-0.2c0.2-3.5,2-5.8,4.9-6.4c5.2-1,13.5,4,19.1,15.6&#10;&#9;&#9;c8.2,16.8,10.8,38.8,5.9,49c-4.8,10-50.6,12-55.3,12.1c-0.8,1.1-3.7,4.8-5.6,5.6c-0.5,0.3-1.1,0.2-1.6-0.1c-0.5-0.4-0.8-1-0.9-1.7&#10;&#9;&#9;c-0.8,1.4-1.8,2.9-2.8,3.4c-2,0.8-4.1,1.5-6.2,1.9l-1.9,0.5C174.9,287.9,174.8,288,174.7,288z M220.9,207.8&#10;&#9;&#9;c0.3,1.2,3,12.1,5.3,23.1c5.1,23.9,3.4,24.6,2.6,25c-1.8,0.8-15.2,5.2-27,9.1c-8.9,2.9-17.2,5.6-18.2,6.1c-2.3,1-7.4,4.8-8.2,6.6&#10;&#9;&#9;c-0.9,2-1.4,8.3-0.7,9c0.6-0.2,1.2-0.4,1.9-0.6c2-0.5,4-1.1,6-1.8c0.9-0.5,2.5-3.2,3.3-4.9c0.1-0.3,0.5-0.4,0.8-0.4&#10;&#9;&#9;c0.3,0.1,0.5,0.4,0.5,0.7c-0.1,1.1,0.1,2.5,0.5,2.8c0.1,0,0.2,0,0.3,0c1.5-0.7,4.3-4.2,5.3-5.5c0.1-0.2,0.3-0.3,0.5-0.3&#10;&#9;&#9;c0.1,0,12.7-0.5,25.6-2.1c21.4-2.7,27.5-6.6,28.8-9.3c4.8-9.9,2.1-31.3-5.9-47.8c-5.2-10.8-13-15.7-17.6-14.8&#10;&#9;&#9;C222.5,203.1,221.1,204.9,220.9,207.8L220.9,207.8z"/>
	<path class="st1_time-39" d="M185.4,298.6c-1.8-2.6-25-40.9-25-40.9l-54.7,5.4l26.8,39L185.4,298.6z"/>
	<path class="st2_time-39" d="M132.6,302.8c-0.2,0-0.4-0.1-0.6-0.3l-26.8-39c-0.1-0.2-0.2-0.4-0.1-0.7c0.1-0.2,0.3-0.4,0.5-0.4l54.7-5.4&#10;&#9;&#9;c0.3,0,0.5,0.1,0.6,0.3c0.2,0.4,23.2,38.4,25,40.9c0.1,0.2,0.2,0.5,0.1,0.7c-0.1,0.2-0.3,0.4-0.6,0.4L132.6,302.8L132.6,302.8z&#10;&#9;&#9; M107,263.7l26,37.8l51.3-3.4c-3.9-6.1-21.8-35.8-24.2-39.6L107,263.7z"/>
	<path class="st1_time-39" d="M151.6,282.1c-0.8-1.8-2.1-3.3-3.7-4.5c-1-0.8-2.2-1.3-3.4-1.4c-1.3-0.1-2.5,0.4-3.3,1.4&#10;&#9;&#9;c-0.5,0.9-0.7,1.9-0.5,2.8c0.2,2.3,1.4,4.4,3.3,5.8C147.4,288.5,154.1,287.3,151.6,282.1z"/>
	<path class="st2_time-39" d="M147.9,288c-1.5,0-2.9-0.4-4.1-1.2c-2.1-1.5-3.4-3.8-3.6-6.3c-0.2-1.1,0.1-2.3,0.6-3.3&#10;&#9;&#9;c0.9-1.2,2.4-1.9,3.9-1.7c1.4,0.2,2.7,0.7,3.8,1.5c1.7,1.2,3,2.8,3.9,4.7l0,0c1.3,2.8,0.2,4.4-0.6,5&#10;&#9;&#9;C150.5,287.6,149.2,288,147.9,288z M144.3,276.8c-0.9,0-1.9,0.4-2.4,1.2c-0.4,0.7-0.6,1.6-0.4,2.4c0.2,2.1,1.3,4.1,3,5.3&#10;&#9;&#9;c1.8,1.2,4.9,1.3,6.3,0.1c0.9-0.8,1-1.9,0.3-3.5c-0.8-1.7-2-3.1-3.4-4.2c-0.9-0.7-1.9-1.2-3.1-1.3L144.3,276.8z"/>
	<path class="st1_time-39" d="M144.7,279.9c0.1,0,1.8,2.7,1.8,2.7l1.2-2.7"/>
	<path class="st2_time-39" d="M146.5,283.4c-0.2,0-0.4-0.1-0.6-0.3c-0.6-1-1.4-2.3-1.6-2.6c-0.1-0.1-0.2-0.3-0.2-0.5c0-0.4,0.3-0.7,0.7-0.7&#10;&#9;&#9;c0.4,0,0.5,0,1.6,1.9l0.6-1.5c0.1-0.3,0.5-0.5,0.9-0.4c0.3,0.1,0.5,0.5,0.4,0.9c0,0,0,0,0,0l-1.2,2.7&#10;&#9;&#9;C147,283.2,146.8,283.3,146.5,283.4L146.5,283.4z"/>
</g>
</svg>