<svg version="1.1" id="Layer_1" xmlns="http://www.w3.org/2000/svg" xmlns:xlink="http://www.w3.org/1999/xlink" x="0px" y="0px" viewBox="0 0 500 500" style="width: 151px;" xml:space="preserve" data-imageid="calculator-94" imageName="Calculator" class="illustrations_image">
<style type="text/css">
	.st0_calculator-94{fill:#68E1FD;}
	.st1_calculator-94{fill:#231F20;}
	.st2_calculator-94{fill:#FFFFFF;}
	.st3_calculator-94{fill:#D1D3D4;}
</style>
<path id="Left_Arm_calculator-94" class="st0_calculator-94 targetColor" d="M166.5,185.6c2-2.9,4.3-5.7,6.9-8.2c0.3-0.3,0.6-0.5,1-0.6c1.1-0.2,1.8,1.2,1.9,2.4&#10;&#9;c1,7.3,0.1,14.7-2.7,21.6c-2.5,6.1-4.4,12.8-10.4,16.5c-0.9,0.6-1.9,0.9-3,0.8c-1.2-0.4-2.1-1.4-2.2-2.6c-0.8-4.1-6-0.1-5-4.1&#10;&#9;c1.5-5.9,5.5-11.1,8.2-16.5C162.7,191.5,164.5,188.5,166.5,185.6L166.5,185.6z" style="fill: rgb(153, 51, 51);"/>
<g id="Calculator_calculator-94">
	<polygon class="st0_calculator-94 targetColor" points="195.9,67.2 186.2,134.4 156.5,283.9 166.6,291.2 315.8,291.9 338.4,134.4 347.2,73 339.7,67.2 &#9;" style="fill: rgb(153, 51, 51);"/>
	<path class="st1_calculator-94" d="M315.8,292.7L315.8,292.7l-149.2-0.7c-0.2,0-0.3-0.1-0.5-0.2l-10.1-7.3c-0.3-0.2-0.4-0.5-0.3-0.9l29.8-149.5&#10;&#9;&#9;l9.6-67.1c0.1-0.4,0.4-0.7,0.8-0.7h143.8c0.2,0,0.4,0.1,0.5,0.2l7.5,5.8c0.2,0.2,0.4,0.5,0.3,0.8L316.7,292&#10;&#9;&#9;C316.6,292.4,316.2,292.7,315.8,292.7L315.8,292.7z M166.9,290.4l148.2,0.7l31.2-217.6l-6.9-5.3H196.6l-9.5,66.4l-29.7,149&#10;&#9;&#9;L166.9,290.4L166.9,290.4z"/>
	<polygon class="st0_calculator-94 targetColor" points="330.1,134.4 177.9,134.4 187.5,67.2 339.7,67.2 &#9;" style="fill: rgb(153, 51, 51);"/>
	<path class="st1_calculator-94" d="M330.1,135.3H177.9c-0.5,0-0.9-0.4-0.9-0.8c0-0.1,0-0.1,0-0.2l9.6-67.2c0.1-0.4,0.4-0.7,0.8-0.7h152.2&#10;&#9;&#9;c0.5,0,0.9,0.4,0.9,0.8c0,0.1,0,0.1,0,0.2l-9.6,67.2C330.8,135,330.5,135.3,330.1,135.3z M178.9,133.6h150.4l9.4-65.5H188.3&#10;&#9;&#9;L178.9,133.6z"/>
	<polygon class="st2_calculator-94" points="330.1,134.4 177.9,134.4 156.5,283.9 308.6,283.9 &#9;"/>
	<path class="st1_calculator-94" d="M308.6,284.7H156.5c-0.5,0-0.9-0.4-0.9-0.8c0-0.1,0-0.1,0-0.2l21.4-149.5c0.1-0.4,0.4-0.7,0.8-0.7h152.2&#10;&#9;&#9;c0.5,0,0.9,0.4,0.9,0.8c0,0.1,0,0.1,0,0.2L309.5,284C309.4,284.4,309.1,284.7,308.6,284.7L308.6,284.7z M157.4,283h150.5&#10;&#9;&#9;l21.2-147.8H178.6L157.4,283z"/>
	<polygon class="st2_calculator-94" points="318,119.2 194.3,119.2 199.4,84 323,84 &#9;"/>
	<path class="st1_calculator-94" d="M318,120H194.3c-0.5,0-0.9-0.4-0.9-0.8c0-0.1,0-0.1,0-0.2l5-35.1c0.1-0.4,0.4-0.7,0.8-0.7H323&#10;&#9;&#9;c0.5,0,0.9,0.4,0.9,0.8c0,0.1,0,0.1,0,0.2l-5,35.1C318.8,119.7,318.4,120,318,120z M195.3,118.3h122l4.8-33.4h-122L195.3,118.3z"/>
	<path class="st3_calculator-94" d="M207.9,173.2h-17.5c-2.1,0.1-3.9-1.6-3.9-3.7c0-0.3,0-0.5,0.1-0.8l1.4-10c0.4-2.5,2.6-4.4,5.1-4.5h17.5&#10;&#9;&#9;c2.1-0.1,3.9,1.6,3.9,3.7c0,0.3,0,0.5-0.1,0.8l-1.4,10C212.6,171.3,210.5,173.2,207.9,173.2L207.9,173.2z"/>
	<path class="st3_calculator-94" d="M240.7,173.2h-17.5c-2.1,0.1-3.9-1.6-3.9-3.7c0-0.3,0-0.5,0.1-0.8l1.4-10c0.4-2.5,2.6-4.4,5.1-4.5h17.5&#10;&#9;&#9;c2.1-0.1,3.9,1.6,3.9,3.7c0,0.3,0,0.5-0.1,0.8l-1.4,10C245.5,171.3,243.3,173.2,240.7,173.2z"/>
	<path class="st3_calculator-94" d="M273.5,173.2h-17.5c-2.1,0.1-3.9-1.6-3.9-3.7c0-0.3,0-0.5,0.1-0.8l1.4-10c0.4-2.5,2.6-4.4,5.2-4.5h17.5&#10;&#9;&#9;c2.1-0.1,3.9,1.6,3.9,3.7c0,0.3,0,0.5-0.1,0.8l-1.4,10C278.3,171.3,276.1,173.2,273.5,173.2z"/>
	<path class="st3_calculator-94" d="M306.4,173.2h-17.5c-2.1,0.1-3.9-1.6-3.9-3.7c0-0.3,0-0.5,0.1-0.8l1.4-10c0.4-2.5,2.6-4.4,5.1-4.5h17.5&#10;&#9;&#9;c2.1-0.1,3.9,1.6,3.9,3.7c0,0.3,0,0.5-0.1,0.8l-1.4,10C311.1,171.3,309,173.2,306.4,173.2z"/>
	<path class="st3_calculator-94" d="M204.6,196h-17.5c-2.1,0.1-3.9-1.6-3.9-3.7c0-0.3,0-0.5,0.1-0.8l1.4-10c0.4-2.5,2.6-4.4,5.1-4.5h17.5&#10;&#9;&#9;c2.1-0.1,3.9,1.6,3.9,3.7c0,0.3,0,0.5-0.1,0.8l-1.4,10C209.4,194,207.2,195.9,204.6,196L204.6,196z"/>
	<path class="st3_calculator-94" d="M237.5,196H220c-2.1,0.1-3.9-1.6-3.9-3.7c0-0.3,0-0.5,0.1-0.8l1.4-10c0.4-2.5,2.6-4.4,5.1-4.5h17.5&#10;&#9;&#9;c2.1-0.1,3.9,1.6,3.9,3.7c0,0.3,0,0.5-0.1,0.8l-1.4,10C242.2,194,240,195.9,237.5,196L237.5,196z"/>
	<path class="st3_calculator-94" d="M270.3,196h-17.5c-2.1,0.1-3.9-1.6-3.9-3.7c0-0.3,0-0.5,0.1-0.8l1.4-10c0.4-2.5,2.6-4.4,5.1-4.5H273&#10;&#9;&#9;c2.1-0.1,3.9,1.6,3.9,3.7c0,0.3,0,0.5-0.1,0.8l-1.4,10C275,194,272.9,195.9,270.3,196z"/>
	<path class="st3_calculator-94" d="M303.1,196h-17.5c-2.1,0.1-3.9-1.6-3.9-3.7c0-0.3,0-0.5,0.1-0.8l1.4-10c0.4-2.5,2.6-4.4,5.1-4.5h17.5&#10;&#9;&#9;c2.1-0.1,3.9,1.6,3.9,3.7c0,0.3,0,0.5-0.1,0.8l-1.4,10C307.9,194,305.7,195.9,303.1,196z"/>
	<path class="st3_calculator-94" d="M201.4,218.7h-17.5c-2.1,0.1-3.9-1.6-3.9-3.7c0-0.3,0-0.5,0.1-0.8l1.4-10c0.4-2.5,2.6-4.4,5.1-4.5h17.5&#10;&#9;&#9;c2.1-0.1,3.9,1.6,3.9,3.7c0,0.3,0,0.5-0.1,0.8l-1.4,10C206.1,216.7,204,218.6,201.4,218.7L201.4,218.7z"/>
	<path class="st3_calculator-94" d="M234.2,218.7h-17.5c-2.1,0.1-3.9-1.6-3.9-3.7c0-0.3,0-0.5,0.1-0.8l1.4-10c0.4-2.5,2.6-4.4,5.1-4.5h17.5&#10;&#9;&#9;c2.1-0.1,3.9,1.6,3.9,3.7c0,0.3,0,0.5-0.1,0.8l-1.4,10C239,216.7,236.8,218.6,234.2,218.7L234.2,218.7z"/>
	<path class="st3_calculator-94" d="M267,218.7h-17.4c-2.1,0.1-3.9-1.6-3.9-3.7c0-0.3,0-0.5,0.1-0.8l1.4-10c0.4-2.5,2.6-4.4,5.1-4.5h17.5&#10;&#9;&#9;c2.1-0.1,3.9,1.6,3.9,3.7c0,0.3,0,0.5-0.1,0.8l-1.4,10C271.8,216.7,269.6,218.6,267,218.7z"/>
	<path class="st3_calculator-94" d="M299.9,218.7h-17.5c-2.1,0.1-3.9-1.6-3.9-3.7c0-0.3,0-0.5,0.1-0.8l1.4-10c0.4-2.5,2.6-4.4,5.1-4.5h17.5&#10;&#9;&#9;c2.1-0.1,3.9,1.6,3.9,3.7c0,0.3,0,0.5-0.1,0.8l-1.4,10C304.6,216.7,302.4,218.6,299.9,218.7z"/>
	<path class="st3_calculator-94" d="M198.1,241.4h-17.5c-2.1,0.1-3.9-1.6-3.9-3.7c0-0.3,0-0.5,0.1-0.8l1.4-10c0.4-2.5,2.6-4.4,5.1-4.5h17.5&#10;&#9;&#9;c2.1-0.1,3.9,1.6,3.9,3.7c0,0.3,0,0.5-0.1,0.8l-1.4,10C202.9,239.4,200.7,241.3,198.1,241.4z"/>
	<path class="st3_calculator-94" d="M231,241.4h-17.5c-2.1,0.1-3.9-1.6-3.9-3.7c0-0.3,0-0.5,0.1-0.8l1.4-10c0.4-2.5,2.6-4.4,5.1-4.5h17.5&#10;&#9;&#9;c2.1-0.1,3.9,1.6,3.9,3.7c0,0.3,0,0.5-0.1,0.8l-1.4,10C235.7,239.4,233.6,241.3,231,241.4z"/>
	<path class="st3_calculator-94" d="M263.8,241.4h-17.5c-2.1,0.1-3.9-1.6-3.9-3.7c0-0.3,0-0.5,0.1-0.8l1.4-10c0.4-2.5,2.6-4.4,5.1-4.5h17.5&#10;&#9;&#9;c2.1-0.1,3.9,1.6,3.9,3.7c0,0.3,0,0.5-0.1,0.8l-1.4,10C268.5,239.4,266.4,241.3,263.8,241.4z"/>
	<path class="st3_calculator-94" d="M296.6,241.4h-17.5c-2.1,0.1-3.9-1.6-3.9-3.7c0-0.3,0-0.5,0.1-0.8l1.4-10c0.4-2.5,2.6-4.4,5.1-4.5h17.5&#10;&#9;&#9;c2.1-0.1,3.9,1.6,3.9,3.7c0,0.3,0,0.5-0.1,0.8l-1.4,10C301.3,239.4,299.2,241.3,296.6,241.4z"/>
	<path class="st3_calculator-94" d="M230.4,245.1h-50.3c-2.6,0.1-4.7,2-5.1,4.5l-1.4,10c-0.4,2.1,1,4.1,3.1,4.4c0.3,0,0.5,0.1,0.8,0.1h50.3&#10;&#9;&#9;c2.6-0.1,4.7-2,5.1-4.5l1.4-10c0.4-2.1-1-4.1-3.1-4.4C231,245.1,230.7,245.1,230.4,245.1z"/>
	<path class="st3_calculator-94" d="M260.5,264.1h-17.5c-2.1,0.1-3.9-1.6-3.9-3.7c0-0.3,0-0.5,0.1-0.8l1.4-10c0.4-2.5,2.6-4.4,5.1-4.5h17.5&#10;&#9;&#9;c2.1-0.1,3.9,1.6,3.9,3.7c0,0.3,0,0.5-0.1,0.8l-1.4,10C265.3,262.1,263.1,264,260.5,264.1z"/>
	<path class="st3_calculator-94" d="M293.4,264.1h-17.5c-2.1,0.1-3.9-1.6-3.9-3.7c0-0.3,0-0.5,0.1-0.8l1.4-10c0.4-2.5,2.6-4.4,5.1-4.5h17.5&#10;&#9;&#9;c2.1-0.1,3.9,1.6,3.9,3.7c0,0.3,0,0.5-0.1,0.8l-1.4,10C298.1,262.1,295.9,264,293.4,264.1z"/>
	<path class="st3_calculator-94" d="M301.6,91.4h4.1c1.1,0,2.1,0.4,2.7,1.2c0.7,0.8,1,1.9,0.8,2.9l-1.5,10.3c-0.2,1.1-0.7,2.2-1.6,2.9&#10;&#9;&#9;c-0.8,0.8-1.9,1.2-3.1,1.2H299c-1.1,0-2.1-0.4-2.7-1.2c-0.7-0.8-1-1.9-0.8-2.9l1.5-10.3c0.2-1.1,0.7-2.2,1.6-2.9&#10;&#9;&#9;C299.4,91.8,300.5,91.4,301.6,91.4z M305.2,95.2c0-0.9-0.7-1.7-1.6-1.7c-0.1,0-0.1,0-0.2,0c-0.6,0-1.1,0.2-1.5,0.6&#10;&#9;&#9;c-0.4,0.4-0.7,0.9-0.8,1.4l-1,7L305.2,95.2z M299.6,106.2c0,0.5,0.2,0.9,0.5,1.3c0.4,0.3,0.8,0.5,1.3,0.4c1.2,0,2.2-0.9,2.4-2.1&#10;&#9;&#9;l1-7L299.6,106.2L299.6,106.2z"/>
	<path class="st1_calculator-94" d="M315.8,292.7c-0.2,0-0.5-0.1-0.6-0.3l-7.2-8c-0.3-0.3-0.3-0.9,0.1-1.2s0.9-0.3,1.2,0.1l7.2,8&#10;&#9;&#9;c0.3,0.3,0.3,0.9-0.1,1.2C316.2,292.7,316,292.7,315.8,292.7z"/>
</g>
<g id="Character-2_calculator-94">
	<path class="st0_calculator-94 targetColor" d="M194.6,163.1c0,0-25.6,28.3-38.1,42.3c-5.2,5.9-7.6,19.4,2.6,19.4s29.3-16.8,35.5-23.3&#10;&#9;&#9;S194.6,163.1,194.6,163.1z" style="fill: rgb(153, 51, 51);"/>
	<polygon class="st2_calculator-94" points="253,396.5 262.6,419 277.3,414.2 269.1,391.8 &#9;"/>
	<path class="st1_calculator-94" d="M262.6,419.8c-0.3,0-0.6-0.2-0.8-0.5l-9.6-22.4c-0.1-0.2-0.1-0.5,0-0.7c0.1-0.2,0.3-0.4,0.5-0.5l16.1-4.7&#10;&#9;&#9;c0.4-0.1,0.9,0.1,1,0.5l8.2,22.5c0.1,0.2,0.1,0.4,0,0.7c-0.1,0.2-0.3,0.4-0.5,0.4l-14.6,4.7C262.8,419.8,262.7,419.8,262.6,419.8&#10;&#9;&#9;L262.6,419.8z M254.1,397.1l9,20.9l13.1-4.2l-7.6-20.8L254.1,397.1z"/>
	<path class="st1_calculator-94" d="M262.6,419c0,0,3.5,12,4.8,12.1s30.5-6.6,29.3-9.7s-19.4-7.1-19.4-7.1L262.6,419L262.6,419z"/>
	<path class="st1_calculator-94" d="M267.4,431.9L267.4,431.9c-0.6,0-1.8-0.1-5.5-12.7c-0.1-0.4,0.1-0.9,0.5-1l14.6-4.8c0.1,0,0.3,0,0.4,0&#10;&#9;&#9;c4.4,0.9,18.7,4.3,20,7.6c0.2,0.5,0.1,1-0.2,1.5C294.6,426.1,268.9,431.9,267.4,431.9z M263.7,419.5c1.4,4.6,3.2,9.6,3.9,10.6&#10;&#9;&#9;c3.3-0.4,26.7-6.1,28.2-8.7c-1-1.7-10.2-4.6-18.5-6.4L263.7,419.5L263.7,419.5z"/>
	<polygon class="st2_calculator-94" points="180.5,386.2 174.7,409.9 189.2,414.9 196.2,392.1 &#9;"/>
	<path class="st1_calculator-94" d="M189.2,415.8c-0.1,0-0.2,0-0.3,0l-14.5-5c-0.4-0.1-0.6-0.6-0.5-1l5.8-23.7c0.1-0.2,0.2-0.4,0.4-0.5&#10;&#9;&#9;c0.2-0.1,0.5-0.1,0.7,0l15.7,6c0.4,0.2,0.6,0.6,0.5,1l-7,22.8c-0.1,0.2-0.2,0.4-0.4,0.5C189.4,415.8,189.3,415.8,189.2,415.8&#10;&#9;&#9;L189.2,415.8z M175.7,409.3l13,4.5l6.5-21.2l-14-5.3L175.7,409.3L175.7,409.3z"/>
	<path class="st1_calculator-94" d="M174.7,409.9c0,0-4.4,11.7-3.5,12.5s28.3,13.1,29.2,9.9s-11.2-17.3-11.2-17.3L174.7,409.9L174.7,409.9z"/>
	<path class="st1_calculator-94" d="M199.2,433.6c-6.1,0-27.6-9.8-28.6-10.6c-0.5-0.4-1.4-1.1,3.2-13.5c0.2-0.4,0.6-0.6,1.1-0.5l14.5,5&#10;&#9;&#9;c0.1,0,0.3,0.1,0.4,0.2c2.9,3.4,12.4,14.7,11.4,18.1c-0.2,0.5-0.6,0.9-1.1,1C199.8,433.5,199.5,433.6,199.2,433.6L199.2,433.6z&#10;&#9;&#9; M171.9,421.8c2.9,1.7,25,11.2,27.7,10.1c0.2-1.9-5.4-9.8-10.9-16.2l-13.5-4.7C173.5,415.5,171.9,420.5,171.9,421.8z M171.9,422&#10;&#9;&#9;L171.9,422z"/>
	<path class="st1_calculator-94" d="M243.6,251.3c0,0,26.6,109.4,33.2,151l-20.3,9.4c0,0-29.2-72.7-39.3-98.4c0,0-9,69.4-20.3,89.5l-22.1-3.3&#10;&#9;&#9;c0,0,10.4-52,12.2-93.4s1.2-51,1.2-51L243.6,251.3L243.6,251.3z"/>
	<path class="st1_calculator-94" d="M256.6,412.6c-0.3,0-0.7-0.2-0.8-0.5c-0.3-0.7-27.2-67.7-38.2-95.4c-1.9,14-10,68.9-20,86.6&#10;&#9;&#9;c-0.2,0.3-0.5,0.5-0.9,0.4l-22.1-3.3c-0.2,0-0.4-0.2-0.6-0.4c-0.1-0.2-0.2-0.4-0.1-0.6c0.1-0.5,10.4-52.5,12.2-93.2&#10;&#9;&#9;s1.2-50.8,1.2-50.9c0-0.5,0.3-0.9,0.8-0.9l55.4-3.9c0.4,0,0.8,0.2,0.9,0.6c0.3,1.1,26.7,109.9,33.2,151.1c0.1,0.4-0.1,0.7-0.5,0.9&#10;&#9;&#9;l-20.3,9.4C256.8,412.6,256.7,412.6,256.6,412.6L256.6,412.6z M217.2,312.5c0.3,0,0.7,0.2,0.8,0.5c9.4,24,35.8,89.5,39,97.6l19-8.8&#10;&#9;&#9;c-6.5-39.9-30.7-140.3-33-149.6l-53.9,3.8c0.1,3.1,0.2,15.6-1.3,50.2c-1.6,38-10.7,85.6-12.1,92.6l20.7,3.2&#10;&#9;&#9;c11-20.3,19.8-88,19.9-88.7c0.1-0.4,0.3-0.7,0.7-0.7L217.2,312.5L217.2,312.5z"/>
	<path class="st2_calculator-94" d="M281.8,180.7c0,0,6.2-7,6.8-7.6s1.1-5.7,4-7.3c1.3-0.8,2.7-1.4,4.2-1.7c0,0,8.2-7.9,9.3-6.5s-4.6,7.7-4.6,7.7&#10;&#9;&#9;s2.9,4.6,1.4,8.7s-3.8,6.8-6.3,7.3s-9.3,10.6-9.3,10.6L281.8,180.7L281.8,180.7z"/>
	<path class="st1_calculator-94" d="M287.2,192.8L287.2,192.8c-0.4,0-0.6-0.2-0.8-0.5l-5.5-11.2c-0.1-0.3-0.1-0.7,0.1-0.9c0.6-0.7,6.2-7.1,6.9-7.6&#10;&#9;&#9;l0.3-1.1c0.5-1.9,1.5-5,3.9-6.3c1.3-0.8,2.8-1.4,4.2-1.8c2.3-2.2,7.5-6.8,9.5-6.7c0.4,0,0.7,0.2,1,0.5c1.2,1.5-1.5,5.3-4.3,8.3&#10;&#9;&#9;c0.8,1.4,2.5,5.3,1.1,8.9c-1.7,4.5-4.1,7.2-6.9,7.9c-1.5,0.4-6.1,6.2-8.8,10.2C287.8,192.6,287.5,192.8,287.2,192.8L287.2,192.8z&#10;&#9;&#9; M282.8,180.8l4.6,9.4c2-2.9,6.7-9.2,9-9.7s4.2-2.9,5.7-6.8c1.4-3.6-1.2-7.9-1.3-7.9c-0.2-0.3-0.2-0.7,0.1-1&#10;&#9;&#9;c2.3-2.5,4.2-5.2,4.5-6.3c-1.4,0.5-5.1,3.5-8,6.3c-0.1,0.1-0.3,0.2-0.5,0.2c-1.4,0.3-2.7,0.9-3.9,1.6c-1.8,1-2.6,3.7-3.1,5.3&#10;&#9;&#9;c-0.1,0.7-0.4,1.3-0.8,1.9C288.7,174.1,285.2,178.1,282.8,180.8L282.8,180.8z"/>
	<path class="st2_calculator-94" d="M203.9,154.7c-3.2,1.3-6.7,1.7-10.1,1.1c-1.5-0.2-3-0.9-4.1-1.9c-1.1-1.1-1.4-2.8-0.7-4.2&#10;&#9;&#9;c-1.7,0.1-3.4-0.6-4.5-2c-1.1-1.3-1.8-2.9-2-4.6c-0.4-2.2-0.1-4.7,1.6-6.1c-1.7-0.9-3.5-2-4-3.8c-0.2-0.9-0.1-1.9,0.2-2.8&#10;&#9;&#9;c0.5-1.8,1.1-3.6,1.9-5.2c0.4-0.9,1.1-1.9,2.1-1.9c-1.4-3.4-0.7-7.3,1.8-10c1.2-1.4,2.8-2.3,4.5-2.6c1.9,0,3.7,0.1,5.6,0.4&#10;&#9;&#9;c1.6-2.2,5.2-4.1,7.9-3.7c2.4,0.4,4.4,2,5.2,4.3c2.1-0.3,4.2-0.1,6.3,0.5c2,0.6,3.7,2.1,4.5,4.1c0.7,2,0,4.3-1.8,5.6&#10;&#9;&#9;c2.5,0.4,4.3,2.6,4.2,5.2c-0.2,2.5-1.9,4.7-4.3,5.4c-0.3,0.1-0.7,0.2-0.9,0.4c-0.3,0.3-0.4,0.7-0.5,1.2c-0.4,1.3-1.6,1.9-2.2,3&#10;&#9;&#9;c-0.7,1.7-1.2,3.4-1.6,5.2c-0.6,1.7-1.2,3.3-1.9,4.9c-0.8,1.8-1.2,3.9-2.4,5.5c-1,1.4-2.2,1.4-3.8,2l-1.2,0.4L203.9,154.7z"/>
	<path class="st1_calculator-94" d="M196.8,156.9c-1.1,0-2.1-0.1-3.2-0.3c-1.7-0.2-3.3-1-4.6-2.2c-1-1.1-1.5-2.5-1.3-4c-1.5-0.3-2.9-1-3.9-2.2&#10;&#9;&#9;c-1.2-1.4-1.9-3.2-2.1-5c-0.5-2.1-0.1-4.2,1.1-6c-1.5-0.9-3-2-3.4-3.8c-0.2-1.1-0.1-2.2,0.2-3.2c0.5-1.9,1.1-3.7,1.9-5.4&#10;&#9;&#9;c0.3-0.9,0.9-1.6,1.7-2.1c-1-3.5-0.2-7.3,2.2-10c1.3-1.5,3.1-2.5,5-2.9c1.8-0.1,3.6,0,5.4,0.3c1.8-2.2,5.4-4.1,8.4-3.6&#10;&#9;&#9;c2.5,0.4,4.6,2,5.6,4.2c2-0.2,4.1,0,6,0.6c2.3,0.7,4.1,2.4,5,4.7c0.6,1.9,0.3,3.9-0.9,5.5c2.1,1,3.5,3.2,3.4,5.6&#10;&#9;&#9;c-0.2,2.9-2.2,5.3-4.9,6.2c-0.2,0-0.4,0.1-0.6,0.2c-0.1,0.2-0.1,0.3-0.2,0.5l-0.1,0.3c-0.3,0.8-0.8,1.6-1.4,2.1&#10;&#9;&#9;c-0.3,0.3-0.6,0.7-0.8,1.1c-0.5,1.1-0.9,2.2-1.1,3.3c-0.2,0.6-0.3,1.2-0.5,1.7c-0.6,1.7-1.2,3.4-1.9,5c-0.3,0.6-0.5,1.2-0.7,1.8&#10;&#9;&#9;c-0.4,1.3-1,2.6-1.8,3.8c-0.8,1-1.9,1.7-3.1,1.9c-0.3,0.1-0.7,0.2-1,0.3l-1.2,0.4l0,0c-2.4,0.9-4.9,1.4-7.4,1.4L196.8,156.9z&#10;&#9;&#9; M188.9,148.8c0.3,0,0.6,0.2,0.7,0.4c0.2,0.3,0.2,0.6,0,0.9c-0.5,1.1-0.3,2.4,0.6,3.2c1,0.9,2.3,1.5,3.7,1.7c3.3,0.5,6.6,0.2,9.7-1&#10;&#9;&#9;l0,0l1.1-0.4c0.4-0.1,0.8-0.3,1.1-0.4c0.9-0.1,1.7-0.6,2.2-1.3c0.7-1,1.2-2.2,1.5-3.3c0.2-0.7,0.5-1.3,0.7-2&#10;&#9;&#9;c0.7-1.6,1.3-3.2,1.9-4.8c0.2-0.5,0.3-1.1,0.5-1.6c0.3-1.3,0.7-2.5,1.3-3.7c0.3-0.5,0.7-1,1.1-1.4c0.4-0.4,0.8-0.9,1-1.4l0.1-0.2&#10;&#9;&#9;c0.1-0.5,0.3-0.9,0.6-1.3c0.3-0.3,0.7-0.5,1.2-0.6c2.1-0.6,3.6-2.5,3.8-4.7c0.1-2.1-1.4-3.9-3.5-4.3c-0.5-0.1-0.8-0.5-0.8-0.9&#10;&#9;&#9;c0-0.3,0.2-0.5,0.4-0.6c1.4-1,2-2.9,1.4-4.6c-0.7-1.7-2.2-3.1-4-3.6c-1.9-0.6-3.9-0.7-5.9-0.4c-0.4,0-0.8-0.2-0.9-0.6&#10;&#9;&#9;c-0.7-2-2.5-3.4-4.6-3.7c-2.4-0.3-5.8,1.5-7.1,3.4l0,0c-0.2,0.3-0.7,0.4-1.1,0.2c-1.7-0.2-3.4-0.3-5.1-0.3c-1.6,0.3-3,1.2-4,2.4&#10;&#9;&#9;c-2.2,2.5-2.9,6-1.6,9.1c0.2,0.4,0,0.9-0.4,1.1c-0.1,0-0.2,0.1-0.3,0.1c-0.5,0-1,0.8-1.3,1.4c-0.8,1.6-1.4,3.3-1.8,5.1&#10;&#9;&#9;c-0.3,0.8-0.3,1.6-0.2,2.4c0.3,1.5,2,2.4,3.5,3.2c0.4,0.2,0.6,0.7,0.4,1.1c-0.1,0.1-0.1,0.2-0.2,0.3c-1.7,1.4-1.5,4.2-1.3,5.3&#10;&#9;&#9;c0.2,1.5,0.8,3,1.8,4.2C186.1,148.2,187.5,148.8,188.9,148.8L188.9,148.8z M203.9,154.8L203.9,154.8z"/>
	<path class="st2_calculator-94" d="M218.1,133.7c0,0,7,5.2,6.6,6.9s-3.9,1.9-3.9,1.9"/>
	<path class="st1_calculator-94" d="M220.8,143.4c-0.5-0.1-0.8-0.5-0.8-0.9c0-0.4,0.4-0.7,0.8-0.8c1.1-0.1,2.9-0.5,3.1-1.3c0-0.8-2.9-3.6-6.2-6&#10;&#9;&#9;c-0.4-0.3-0.5-0.8-0.2-1.2c0.3-0.4,0.8-0.5,1.2-0.2c2.8,2.1,7.4,5.8,6.9,7.8C224.9,143.1,221.3,143.4,220.8,143.4L220.8,143.4&#10;&#9;&#9;L220.8,143.4z"/>
	<path class="st2_calculator-94" d="M211.2,119.3c0.5,0.1,1,0.3,1.3,0.7c1.3,1.3,2.3,2.9,3.1,4.6c1.5,3.3,2.9,6.7,4,10.1c1.6,4.5,3.1,9.1,4.5,13.7&#10;&#9;&#9;c0.9,2.9-6.5,5.7-8.1,5.3l5.3,10.9c0,0-3.2,2.3-10.2,1.7s-7.6-2-7.6-2l-4.3-13.2c0,0,4.9-1.8,5.7-8.6c0.1-1.1-0.2-2.6,0.1-3.6&#10;&#9;&#9;c0.4-1.2,1.5-1.9,1.6-3.4c0.1-1.4-0.5-2.7-1.6-3.6c-0.2-0.2-0.5-0.4-0.5-0.7c0.1-0.2,0.2-0.3,0.3-0.4c1.4-1.5,1.3-3.9-0.2-5.3&#10;&#9;&#9;c0,0,0,0,0,0c1.9-0.7,2.4-3,2.7-5c-0.1,0.6,3-0.9,3-0.9C210.7,119.3,210.9,119.3,211.2,119.3L211.2,119.3z"/>
	<path class="st1_calculator-94" d="M213.4,167.3c-0.7,0-1.5,0-2.4-0.1c-6.5-0.6-8-1.8-8.3-2.5l-4.3-13.3c-0.1-0.4,0.1-0.8,0.5-1&#10;&#9;&#9;c0.2-0.1,4.4-1.7,5.1-7.9c0-0.4,0-0.9,0-1.3c-0.1-0.8,0-1.7,0.2-2.5c0.2-0.6,0.5-1.1,0.9-1.6c0.4-0.5,0.6-1,0.7-1.6&#10;&#9;&#9;c0.1-1.1-0.4-2.2-1.2-2.9c-0.5-0.3-0.8-0.9-0.7-1.5c0.1-0.3,0.2-0.6,0.5-0.8c0.5-0.6,0.8-1.3,0.8-2.1c0-0.8-0.4-1.5-0.9-2&#10;&#9;&#9;c-0.4-0.3-0.4-0.8-0.1-1.2c0.1-0.1,0.2-0.2,0.4-0.3c1.4-0.5,1.9-2.6,2.2-4.3l0,0c0.1-0.5,0.5-0.8,0.9-0.7c0,0,0.1,0,0.1,0&#10;&#9;&#9;c0.1,0,0.2,0,0.3,0.1c0.7-0.2,1.5-0.5,2.1-0.9l0.3-0.1c0.3-0.1,0.7-0.1,1-0.1l0,0c0.7,0.1,1.3,0.4,1.8,0.9c1.4,1.4,2.5,3,3.3,4.8&#10;&#9;&#9;c1.4,3,2.7,6.1,3.7,9.3l0.4,1c1.6,4.5,3.1,9.1,4.5,13.7c0.3,1.1-0.1,2.3-0.9,3c-1.9,1.7-4.2,2.9-6.7,3.3l4.7,9.7&#10;&#9;&#9;c0.2,0.4,0.1,0.8-0.3,1.1C221.7,165.5,219,167.4,213.4,167.3L213.4,167.3z M204.3,164c0.2,0.2,1.6,1.1,6.9,1.6&#10;&#9;&#9;c4.9,0.4,7.8-0.6,9-1.2l-4.9-10.2c-0.1-0.3-0.1-0.6,0.1-0.9c0.2-0.3,0.5-0.4,0.9-0.3c0.8,0.2,4.9-1.1,6.6-2.9&#10;&#9;&#9;c0.5-0.5,0.7-1,0.6-1.4c-1.4-4.6-2.9-9.2-4.5-13.7l-0.4-1c-1-3.1-2.2-6.1-3.6-9.1c-0.7-1.6-1.6-3.1-2.9-4.4&#10;&#9;&#9;c-0.4-0.4-0.6-0.5-0.8-0.5l0,0c-0.1,0-0.2,0-0.4,0.1c-0.8,0.4-1.7,0.7-2.6,1c-0.2,1.6-0.9,3.2-2.1,4.3c0.5,0.7,0.7,1.5,0.8,2.3&#10;&#9;&#9;c0.1,1.2-0.3,2.4-1.1,3.2l0,0c1.3,1.1,1.9,2.7,1.9,4.4c-0.1,0.9-0.4,1.8-1,2.5c-0.3,0.3-0.5,0.7-0.6,1.1c-0.1,0.6-0.1,1.2-0.1,1.9&#10;&#9;&#9;c0,0.5,0,1.1,0,1.6c-0.6,5.7-4,8.2-5.5,9l4,12.4L204.3,164z"/>
	<path class="st2_calculator-94" d="M222.8,145.2c-2.4,1.4-5.5,0.9-7.3-1.2"/>
	<path class="st1_calculator-94" d="M220,146.8c-1.9,0-3.7-0.8-5-2.3c-0.3-0.3-0.3-0.9,0-1.2c0.3-0.3,0.9-0.3,1.2,0l0,0c3.1,3.1,6.1,1.2,6.2,1.1&#10;&#9;&#9;c0.4-0.2,0.9-0.1,1.2,0.3c0.2,0.4,0.1,0.8-0.2,1.1C222.3,146.5,221.2,146.8,220,146.8z"/>
	<path class="st2_calculator-94" d="M210.5,139.7c-0.5-1.1-1.4-2-2.4-2.6c-0.7-0.6-1.5-1.1-2.4-1.5c-0.9-0.4-1.9-0.3-2.7,0.1&#10;&#9;&#9;c-0.7,0.5-1.1,1.2-1.3,2.1c-0.1,0.8,0,1.7,0.2,2.4c1.1,3.5,4,6.2,7.6,7l-0.4-0.2"/>
	<path class="st1_calculator-94" d="M209.6,148.1c-0.1,0-0.1,0-0.2,0c-3.9-0.9-7-3.8-8.2-7.6c-0.3-0.9-0.4-1.9-0.3-2.8c0.1-1.1,0.7-2,1.6-2.6&#10;&#9;&#9;c1.1-0.6,2.3-0.7,3.4-0.2c0.9,0.4,1.8,0.9,2.6,1.6c1.2,0.7,2.1,1.8,2.7,3c0.2,0.4,0,0.9-0.4,1.1c-0.4,0.2-0.9,0-1.1-0.4&#10;&#9;&#9;c0-0.1,0-0.1-0.1-0.2c-0.5-0.9-1.2-1.7-2.1-2.3c-0.6-0.6-1.4-1-2.2-1.3c-0.6-0.3-1.4-0.3-2,0.1c-0.5,0.3-0.8,0.9-0.9,1.5&#10;&#9;&#9;c-0.1,0.7,0,1.4,0.2,2.1c0.9,3,3.3,5.3,6.3,6.2c0.2,0,0.4,0,0.6,0.1l0.4,0.2c0.4,0.2,0.6,0.7,0.4,1.1&#10;&#9;&#9;C210.2,147.9,209.9,148.1,209.6,148.1L209.6,148.1z"/>
	<path class="st1_calculator-94" d="M216,153.8c0,0-4.3,0.2-7-1.8c0,0,2.8,6.8,9.4,6.6L216,153.8z"/>
	<path class="st1_calculator-94" d="M218.2,159.5c-6.9,0-9.8-6.9-9.9-7.2c-0.2-0.4,0-0.8,0.3-1c0.3-0.2,0.7-0.2,1,0c2.5,1.8,6.5,1.7,6.5,1.7&#10;&#9;&#9;c0.3,0,0.7,0.2,0.8,0.5l2.4,4.9c0.2,0.4,0,0.9-0.4,1.1c-0.1,0.1-0.2,0.1-0.4,0.1L218.2,159.5L218.2,159.5z M211.2,154&#10;&#9;&#9;c1.4,2,3.5,3.3,5.9,3.8l-1.5-3.1C214.1,154.6,212.6,154.4,211.2,154L211.2,154z"/>
	
		<ellipse transform="matrix(0.9519 -0.3064 0.3064 0.9519 -29.9066 71.6865)" class="st1_calculator-94" cx="213.4" cy="131.1" rx="0.7" ry="1.7"/>
	<path class="st0_calculator-94 targetColor" d="M227.3,159.9c-2.1-1.5-26.2-7.4-32.8,3.1s-14.1,80.1-10,96.9l62.3-8.7C246.9,251.3,239,168.2,227.3,159.9&#10;&#9;&#9;L227.3,159.9z" style="fill: rgb(153, 51, 51);"/>
	<path class="st0_calculator-94 targetColor" d="M224.5,194.4c0,0,12.8,17.9,29,17.2s41.1-25.1,41.1-25.1l-9.6-11.2c0,0-14.9,13.1-24,11.8&#10;&#9;&#9;c-12.8-1.8-30.3-24-30.3-24L224.5,194.4L224.5,194.4z" style="fill: rgb(153, 51, 51);"/>
	<path class="st1_calculator-94" d="M253.4,212.9c-6.5,0-13.7-2.8-21.4-8.3c-5.2-3.8-10-8.2-14.3-13.1c-0.3-0.3-0.3-0.9,0-1.2&#10;&#9;&#9;c0.3-0.3,0.9-0.3,1.2,0c0,0,0.1,0.1,0.1,0.1c0.2,0.3,23.2,27.4,41.9,19.2c19.3-8.5,28.6-19.6,28.7-19.7c0.3-0.3,0.9-0.3,1.2,0&#10;&#9;&#9;c0.3,0.3,0.3,0.7,0.1,1.1c-0.4,0.5-9.5,11.5-29.3,20.2C259,212.4,256.2,212.9,253.4,212.9L253.4,212.9z"/>
	<path class="st1_calculator-94" d="M254.8,185.2c-0.1,0-0.3,0-0.4-0.1c-3.2-1.6-19.1-14-23-19.4c-3.4-4.7-7.4-5.3-7.4-5.3c-0.5-0.1-0.7-0.6-0.6-1&#10;&#9;&#9;c0.1-0.4,0.4-0.7,0.9-0.7c0.2,0,4.7,0.6,8.6,6c3.7,5.1,19.6,17.4,22.4,18.8c0.4,0.2,0.6,0.7,0.4,1.1&#10;&#9;&#9;C255.4,185.1,255.1,185.3,254.8,185.2L254.8,185.2z"/>
	<path class="st1_calculator-94" d="M185.1,243.4c-0.4,0-0.8-0.3-0.8-0.8c-2.3-23.7,3.5-63.9,3.5-64.4c0.1-0.5,0.5-0.8,0.9-0.7c0,0,0.1,0,0.1,0&#10;&#9;&#9;c0.5,0.1,0.8,0.5,0.7,1c0,0,0,0,0,0c-0.1,0.4-5.9,40.5-3.5,63.9c0,0.5-0.3,0.9-0.8,0.9c0,0,0,0,0,0L185.1,243.4z"/>
	<path class="st1_calculator-94" d="M161.6,200.5c-0.2,0-0.4-0.1-0.6-0.2c-0.3-0.3-0.4-0.8-0.1-1.2c0,0,0,0,0,0l14.9-16.6c0.3-0.3,0.8-0.4,1.2-0.1&#10;&#9;&#9;s0.4,0.8,0.1,1.2l-14.9,16.6C162,200.4,161.8,200.5,161.6,200.5z"/>
</g>
</svg>