<svg version="1.1" id="Layer_1" xmlns="http://www.w3.org/2000/svg" xmlns:xlink="http://www.w3.org/1999/xlink" x="0px" y="0px" viewBox="0 0 500 500" style="width: 151px;" xml:space="preserve" data-imageid="computer-22" imageName="Computer" class="illustrations_image">
<style type="text/css">
	.st0_computer-22{fill:#093F68;}
	.st1_computer-22{fill:#68E1FD;}
	.st2_computer-22{fill:#F56132;}
	.st3_computer-22{fill:#FFFFFF;}
	.st4_computer-22{fill:#70CC40;}
	.st5_computer-22{fill:#FFBC0E;}
</style>
<g id="device_computer-22">
	<path class="st0_computer-22" d="M81,106.9h337.9c5.7,0,10.4,4.6,10.4,10.3v216.1c0,5.7-4.6,10.4-10.4,10.4H81c-5.7,0-10.3-4.6-10.3-10.4V117.3&#10;&#9;&#9;C70.7,111.6,75.3,106.9,81,106.9z"/>
	<path class="st0_computer-22" d="M420.9,345.5H79.1c-5.7,0-10.2-4.6-10.2-10.3V115.3c0-5.7,4.6-10.2,10.2-10.2h341.7c5.7,0,10.2,4.6,10.2,10.2&#10;&#9;&#9;v219.9C431.1,340.9,426.5,345.5,420.9,345.5z M79.1,108.7c-3.7,0-6.6,3-6.6,6.6v219.9c0,3.7,3,6.6,6.6,6.6h341.7&#10;&#9;&#9;c3.7,0,6.6-3,6.6-6.6V115.3c0-3.7-3-6.6-6.6-6.6L79.1,108.7z"/>
	<path class="st1_computer-22 targetColor" d="M85.3,117.1h329.4c1.1,0,2,0.9,2,2v191.2c0,1.1-0.9,2-2,2H85.3c-1.1,0-2-0.9-2-2V119.1&#10;&#9;&#9;C83.3,118,84.2,117.1,85.3,117.1z" style="fill: rgb(144, 51, 43);"/>
	<path class="st0_computer-22" d="M413.1,314H86.9c-3,0-5.4-2.4-5.4-5.4v-188c0-3,2.4-5.4,5.4-5.4h326.2c3,0,5.4,2.4,5.4,5.4v188&#10;&#9;&#9;C418.5,311.6,416.1,314,413.1,314z M86.9,118.9c-1,0-1.7,0.8-1.7,1.7v188c0,1,0.8,1.7,1.7,1.7c0,0,0,0,0,0h326.2&#10;&#9;&#9;c1,0,1.7-0.8,1.7-1.7c0,0,0,0,0,0v-188c0-1-0.8-1.7-1.7-1.7L86.9,118.9z"/>
	<rect x="216.5" y="343.7" class="st0_computer-22" width="67" height="32.2"/>
	<path class="st0_computer-22" d="M283.5,377.7h-67c-1,0-1.8-0.8-1.8-1.8l0,0v-32.2c0-1,0.8-1.8,1.8-1.8h67c1,0,1.8,0.8,1.8,1.8v32.2&#10;&#9;&#9;C285.3,376.9,284.5,377.7,283.5,377.7z M218.3,374.1h63.4v-28.6h-63.4V374.1z"/>
	<path class="st0_computer-22" d="M166,375.9h168c3.7,0,6.6,3,6.6,6.6v2.4c0,3.7-3,6.6-6.6,6.6H166c-3.7,0-6.6-3-6.6-6.6v-2.4&#10;&#9;&#9;C159.4,378.9,162.3,375.9,166,375.9z"/>
	<path class="st0_computer-22" d="M333.5,393.5H166.5c-4.9,0-8.9-4-8.9-8.9V383c0-4.9,4-8.9,8.9-8.9h167.1c4.9,0,8.9,4,8.9,8.9v1.5&#10;&#9;&#9;C342.4,389.4,338.5,393.4,333.5,393.5L333.5,393.5z M166.5,377.7c-2.9,0-5.3,2.4-5.3,5.3v1.5c0,2.9,2.4,5.3,5.3,5.3h167.1&#10;&#9;&#9;c2.9,0,5.3-2.4,5.3-5.3V383c0-2.9-2.4-5.3-5.3-5.3L166.5,377.7z"/>
	<circle class="st2_computer-22" cx="397" cy="328" r="6.1"/>
	<path class="st0_computer-22" d="M397,335.9c-4.4,0-8-3.6-8-8s3.6-8,8-8s8,3.6,8,8S401.4,335.9,397,335.9z M397,323.6c-2.4,0-4.4,1.9-4.4,4.3&#10;&#9;&#9;c0,2.4,1.9,4.4,4.3,4.4c2.4,0,4.4-1.9,4.4-4.3c0,0,0,0,0,0C401.3,325.6,399.4,323.7,397,323.6z"/>
</g>
<g id="screen_computer-22">
	<rect x="217.2" y="178.9" class="st3_computer-22" width="157.3" height="105.8"/>
	<path class="st0_computer-22" d="M374.5,286.5H217.2c-1,0-1.8-0.8-1.8-1.8c0,0,0,0,0,0V178.9c0-1,0.8-1.8,1.8-1.8h0h157.3c1,0,1.8,0.8,1.8,1.8&#10;&#9;&#9;v0v105.8C376.3,285.7,375.5,286.5,374.5,286.5C374.5,286.5,374.5,286.5,374.5,286.5z M219,282.8h153.7V180.7H219V282.8z"/>
	<rect x="217.2" y="178.9" class="st4_computer-22" width="157.3" height="12.5"/>
	<path class="st0_computer-22" d="M374.5,193.2H217.2c-1,0-1.8-0.8-1.8-1.8v0v-12.5c0-1,0.8-1.8,1.8-1.8h0h157.3c1,0,1.8,0.8,1.8,1.8v0v12.5&#10;&#9;&#9;C376.3,192.4,375.5,193.2,374.5,193.2L374.5,193.2z M219,189.6h153.7v-8.9H219V189.6z"/>
	<rect x="125.5" y="145.2" class="st3_computer-22" width="157.3" height="105.8"/>
	<path class="st0_computer-22" d="M282.8,252.8H125.5c-1,0-1.8-0.8-1.8-1.8l0,0V145.2c0-1,0.8-1.8,1.8-1.8c0,0,0,0,0,0h157.3&#10;&#9;&#9;c1,0,1.8,0.8,1.8,1.8c0,0,0,0,0,0v105.8C284.6,251.9,283.8,252.8,282.8,252.8z M127.3,249.1H281V147H127.3L127.3,249.1z"/>
	<rect x="125.5" y="145.2" class="st5_computer-22" width="157.3" height="12.5"/>
	<path class="st0_computer-22" d="M282.8,159.5H125.5c-1,0-1.8-0.8-1.8-1.8c0,0,0,0,0,0v-12.5c0-1,0.8-1.8,1.8-1.8c0,0,0,0,0,0h157.3&#10;&#9;&#9;c1,0,1.8,0.8,1.8,1.8c0,0,0,0,0,0v12.5C284.6,158.7,283.8,159.5,282.8,159.5C282.8,159.5,282.8,159.5,282.8,159.5z M127.3,155.9&#10;&#9;&#9;H281V147H127.3L127.3,155.9z"/>
</g>
</svg>