<svg version="1.1" id="Layer_1" xmlns="http://www.w3.org/2000/svg" xmlns:xlink="http://www.w3.org/1999/xlink" x="0px" y="0px" viewBox="0 0 500 500" style="width: 166px;" xml:space="preserve" data-imageid="video-tutorial-68" imageName="Video Tutorial" class="illustrations_image">
<style type="text/css">
	.st0_video-tutorial-68{fill:#093F68;}
	.st1_video-tutorial-68{fill:#68E1FD;}
	.st2_video-tutorial-68{fill:#FFFFFF;}
	.st3_video-tutorial-68{fill:#DFEAEF;}
	.st4_video-tutorial-68{fill:#70CC40;}
	.st5_video-tutorial-68{fill:#F56132;}
	.st6_video-tutorial-68{fill:#FFC9B0;}
	.st7_video-tutorial-68{fill:#725858;}
	.st8_video-tutorial-68{fill:#FFBC0E;}
</style>
<g id="device_video-tutorial-68">
	<path class="st0_video-tutorial-68" d="M77.8,128.8h346.1c4,0,7.2,3.2,7.2,7.2v209.1c0,4-3.2,7.2-7.2,7.2H77.8c-4,0-7.2-3.2-7.2-7.2V136.1&#10;&#9;&#9;C70.6,132.1,73.8,128.8,77.8,128.8z"/>
	<path class="st0_video-tutorial-68" d="M417.6,354.3H84.1c-8.5,0-15.4-6.9-15.4-15.4V142.3c0-8.5,6.9-15.3,15.4-15.3h333.6c8.5,0,15.3,6.9,15.4,15.3&#10;&#9;&#9;v196.6C433,347.4,426.1,354.3,417.6,354.3z M84.1,130.7c-6.4,0-11.6,5.2-11.6,11.6v196.6c0,6.4,5.2,11.6,11.6,11.6h333.6&#10;&#9;&#9;c6.4,0,11.6-5.2,11.6-11.6V142.3c0-6.4-5.2-11.6-11.6-11.6L84.1,130.7z"/>
	<path class="st1_video-tutorial-68 targetColor" d="M52.8,345.5h396.1l0,0v32.6c0,3.9-3.1,7-7,7H59.8c-3.9,0-7-3.1-7-7L52.8,345.5L52.8,345.5z" style="fill: rgb(153, 51, 51);"/>
	<path class="st0_video-tutorial-68" d="M435.9,387H65.8c-8.2,0-14.9-6.7-14.9-14.9v-26.6c0-1,0.8-1.9,1.9-1.9h396.1c1,0,1.9,0.8,1.9,1.9v26.6&#10;&#9;&#9;C450.7,380.4,444.1,387,435.9,387z M54.6,347.4v24.8c0,6.1,5,11.1,11.1,11.1h370.1c6.1,0,11.1-5,11.1-11.1v-24.8H54.6z"/>
	<rect x="88" y="143.4" class="st2_video-tutorial-68" width="325.7" height="194.3"/>
	<path class="st0_video-tutorial-68" d="M413.7,339.6H88c-1,0-1.9-0.8-1.9-1.9V143.4c0-1,0.8-1.9,1.9-1.9h325.7c1,0,1.9,0.8,1.9,1.9v194.3&#10;&#9;&#9;C415.5,338.7,414.7,339.6,413.7,339.6z M89.9,335.8h321.9V145.3H89.9L89.9,335.8z"/>
	<polygon class="st0_video-tutorial-68" points="279.1,359 222.5,359 219.1,342.7 282.6,342.7 &#9;"/>
	<path class="st0_video-tutorial-68" d="M279.1,360.9h-56.6c-0.9,0-1.6-0.6-1.8-1.5l-3.4-16.3c-0.1-0.6,0-1.1,0.4-1.6c0.4-0.4,0.9-0.7,1.4-0.7h63.4&#10;&#9;&#9;c0.6,0,1.1,0.3,1.5,0.7c0.4,0.4,0.5,1,0.4,1.6l-3.4,16.3C280.8,360.3,280,360.9,279.1,360.9z M224.1,357.2h53.6l2.6-12.5h-58.9&#10;&#9;&#9;L224.1,357.2z"/>
</g>
<g id="speech-bubble_video-tutorial-68">
	<path class="st2_video-tutorial-68" d="M435.2,116.8h-122c-6.2,0-11.3,5.1-11.3,11.3v78.2l-21.7,11.5l21.7,1.4v11.1c0,6.2,5,11.3,11.3,11.3&#10;&#9;&#9;c0,0,0,0,0,0h122c6.2,0,11.3-5.1,11.3-11.3V128.1C446.5,121.9,441.4,116.9,435.2,116.8z"/>
	<path class="st0_video-tutorial-68" d="M435.2,243.5h-122c-7.3,0-13.2-5.9-13.2-13.2V221l-19.9-1.2c-1-0.1-1.8-1-1.7-2c0-0.6,0.4-1.2,1-1.5l20.7-11&#10;&#9;&#9;v-77.1c0-7.3,5.9-13.1,13.2-13.1h122c7.3,0,13.2,5.9,13.2,13.2v102.1C448.3,237.6,442.4,243.4,435.2,243.5z M286.9,216.5l15.1,1&#10;&#9;&#9;c1,0.1,1.8,0.9,1.8,1.9v11.1c0,5.2,4.2,9.4,9.4,9.4h122c5.2,0,9.4-4.2,9.4-9.4l0,0V128.1c0-5.2-4.2-9.4-9.4-9.4l0,0h-122&#10;&#9;&#9;c-5.2,0-9.4,4.2-9.4,9.4v78.2c0,0.7-0.4,1.3-1,1.6L286.9,216.5z"/>
	<path class="st3_video-tutorial-68" d="M433.4,143.4h-94.7c-1,0.1-1.9-0.7-2-1.7c-0.1-1,0.7-1.9,1.7-2c0.1,0,0.2,0,0.3,0h94.7c1,0.1,1.8,1,1.7,2&#10;&#9;&#9;C435,142.6,434.3,143.3,433.4,143.4z"/>
	<path class="st3_video-tutorial-68" d="M419.1,162.5h-102c-1-0.1-1.8-1-1.7-2c0.1-0.9,0.8-1.7,1.7-1.7h102c1,0.1,1.8,1,1.7,2&#10;&#9;&#9;C420.8,161.7,420,162.4,419.1,162.5z"/>
	<path class="st3_video-tutorial-68" d="M433.4,181.6h-49.4c-1-0.1-1.8-1-1.7-2c0.1-0.9,0.8-1.7,1.7-1.7h49.5c1,0.1,1.8,1,1.7,2&#10;&#9;&#9;C435,180.8,434.3,181.5,433.4,181.6L433.4,181.6z"/>
	<path class="st3_video-tutorial-68" d="M363.3,181.6h-46.2c-1-0.1-1.8-1-1.7-2c0.1-0.9,0.8-1.7,1.7-1.7h46.2c1,0.1,1.8,1,1.7,2&#10;&#9;&#9;C365,180.8,364.3,181.5,363.3,181.6z"/>
	<path class="st3_video-tutorial-68" d="M417.2,200.7h-84.6c-1,0.1-1.9-0.7-2-1.7c-0.1-1,0.7-1.9,1.7-2c0.1,0,0.2,0,0.3,0h84.6c1,0.1,1.8,1,1.7,2&#10;&#9;&#9;C418.9,199.9,418.2,200.6,417.2,200.7z"/>
	<path class="st3_video-tutorial-68" d="M398.1,219.8h-81c-1-0.1-1.8-1-1.7-2c0.1-0.9,0.8-1.7,1.7-1.7h81c1,0.1,1.8,1,1.7,2&#10;&#9;&#9;C399.8,219,399.1,219.7,398.1,219.8z"/>
</g>
<g id="screen_video-tutorial-68">
	<path class="st4_video-tutorial-68" d="M413.7,270.9v66.9h-23.3c-1-1.8-2-3.6-3-5.2c-5.1-7.7-8.4-16.5-9.7-25.7c-0.2-1.5-0.3-3.3,0.9-4.4&#10;&#9;&#9;c1.9-1.7,4.9,0.1,6.5,2.1c4.1,4.7,7.1,10.2,9,16.2c-1.8-6-2.9-12.2-4.5-18.2c-1.1-4.1-2.8-9.1-0.6-13.2&#10;&#9;&#9;c4.4-8.3,11.2,13.5,11.4,16.8c-0.3-6.6,0-13.2,1-19.6c0.8-5.1,2.2-10.6,6.1-14c1.2-1.2,2.8-1.9,4.5-1.9&#10;&#9;&#9;C412.6,270.5,413.2,270.6,413.7,270.9z"/>
	<path class="st0_video-tutorial-68" d="M413.7,339.6h-23.3c-0.7,0-1.3-0.4-1.6-1c-1-1.7-2-3.5-3-5.1c-5.3-7.9-8.7-17-10-26.4c-0.2-1.2-0.5-4.1,1.4-6&#10;&#9;&#9;c0.9-0.8,2.1-1.3,3.3-1.2c2.9,0.2,5.2,2.6,5.9,3.4s1.4,1.7,2.1,2.6c-0.2-1-0.5-2-0.8-3l-0.3-1c-1.1-4.1-2.5-9.2-0.2-13.6&#10;&#9;&#9;c1.6-3,3.6-3,4.6-2.8c2.6,0.6,4.9,4.3,6.7,8.4c0.2-2.7,0.5-5.3,0.9-7.9c0.8-4.9,2.2-11.1,6.7-15.1c1.5-1.5,3.6-2.4,5.8-2.4&#10;&#9;&#9;c0.8,0,1.6,0.2,2.3,0.5c0.7,0.3,1.1,1,1.1,1.7v66.9C415.5,338.7,414.7,339.5,413.7,339.6z M391.5,335.8h20.3v-63.5&#10;&#9;&#9;c-1.1,0.1-2.2,0.7-3,1.5c-3.6,3.2-4.8,8.6-5.5,12.9c-1,6.4-1.3,12.8-1,19.3c0.1,1-0.7,1.9-1.8,2c-1,0.1-1.9-0.7-2-1.8l0,0&#10;&#9;&#9;c-0.2-3.2-4.9-16.3-7.3-16.9c-0.2,0.3-0.4,0.6-0.6,0.9c-1.7,3.1-0.5,7.3,0.5,10.9l0.3,1c0.7,2.7,1.3,5.4,1.9,8.1&#10;&#9;&#9;c0.8,3.3,1.5,6.8,2.5,10.1c0.3,1-0.3,2-1.2,2.3c-1,0.3-2-0.3-2.3-1.2l0,0c-1.8-5.7-4.7-11-8.7-15.5c-0.8-1.1-2-1.8-3.3-2.1&#10;&#9;&#9;c-0.2,0-0.4,0-0.6,0.2c-0.5,0.5-0.4,1.8-0.3,2.7c1.2,8.9,4.5,17.4,9.4,24.9C389.8,332.9,390.7,334.4,391.5,335.8L391.5,335.8z"/>
	<path class="st1_video-tutorial-68 targetColor" d="M259,336.1V302c0-14.9-12-26.9-26.9-26.9h-42.4c-14.9,0-26.9,12-26.9,26.9c0,0,0,0,0,0v34.2L259,336.1z" style="fill: rgb(153, 51, 51);"/>
	<path class="st0_video-tutorial-68" d="M259,338h-96.2c-1,0-1.9-0.8-1.9-1.9V302c0-15.9,12.9-28.7,28.8-28.8h42.4c15.9,0,28.7,12.9,28.8,28.8v34.2&#10;&#9;&#9;C260.9,337.2,260,338,259,338z M164.6,334.3h92.5V302c0-13.8-11.2-25-25-25h-42.4c-13.8,0-25,11.2-25,25L164.6,334.3z"/>
	<polygon class="st5_video-tutorial-68" points="228.4,275 211.2,319 193.6,275 &#9;"/>
	<path class="st0_video-tutorial-68" d="M211.2,320.9c-0.8,0-1.4-0.5-1.7-1.2l-17.6-43.9c-0.4-0.9,0.1-2,1-2.4c0.2-0.1,0.5-0.1,0.7-0.1h34.8&#10;&#9;&#9;c1,0,1.9,0.8,1.9,1.9c0,0.2,0,0.5-0.1,0.7L213,319.7C212.7,320.4,212,320.8,211.2,320.9L211.2,320.9z M196.4,276.9l14.8,37l14.5-37&#10;&#9;&#9;H196.4z"/>
	<path class="st6_video-tutorial-68" d="M205.2,269.9h13.5l0,0v10.4c0,1.7-1.4,3.1-3.1,3.1h0h-7.3c-1.7,0-3.1-1.4-3.1-3.1l0,0L205.2,269.9L205.2,269.9&#10;&#9;&#9;z"/>
	<path class="st0_video-tutorial-68" d="M212.9,285.3h-2c-4.2,0-7.6-3.4-7.6-7.6v-7.7c0-1,0.8-1.9,1.9-1.9h13.5c1,0,1.9,0.8,1.9,1.9v7.7&#10;&#9;&#9;C220.5,281.9,217.1,285.3,212.9,285.3C212.9,285.3,212.9,285.3,212.9,285.3z M207,271.8v5.9c0,2.1,1.7,3.9,3.9,3.9h2&#10;&#9;&#9;c2.1,0,3.9-1.7,3.9-3.9v-5.9H207z"/>
	<path class="st7_video-tutorial-68" d="M165.3,232.9c-1.4-1.1-2.3-2.8-2.4-4.6c-0.9-8.4-1.3-16.8-1.4-25.3c0-8.5,0.4-17.3,4.2-24.9&#10;&#9;&#9;c4.2-8.5,12.7-18.3,23-12.1c0.5,0.4,1,0.6,1.6,0.5c0.5-0.2,0.9-0.5,1.1-1c16.3-21.6,48.7-13.1,63.2,5.4c6.9,8.7,10.4,21.2,11,32.2&#10;&#9;&#9;c0.2,3.5-4.9,30.8-6.1,30.6l-8.4-1.5c-3.5-0.6-7.9,0.2-11.4,0.4l-26.1,0.8c-9.9,0.3-19.8,1.9-29.7,1.9&#10;&#9;&#9;C178.9,235.3,169.7,236.4,165.3,232.9z"/>
	<path class="st0_video-tutorial-68" d="M176.8,237.3c-4.6,0-9.4-0.5-12.6-3l0,0c-1.8-1.4-2.9-3.6-3.1-5.9c-0.9-8.4-1.4-17-1.4-25.5&#10;&#9;&#9;c0-8.7,0.4-17.9,4.4-25.8c1.8-3.6,6.9-12.3,14.5-14.6c3.8-1.1,7.8-0.5,11.1,1.7l0.2,0.1c0,0,0.1-0.1,0.1-0.1&#10;&#9;&#9;c6.6-8.7,16-13.4,27.3-13.5h0.5c14.3,0,29.3,7.4,38.4,18.8c6.5,8.2,10.6,20.3,11.5,33.3c0.2,2.7-4.3,30-6.6,32.1&#10;&#9;&#9;c-0.5,0.4-1.1,0.6-1.7,0.5l-8.4-1.4c-2.4-0.3-4.9-0.2-7.3,0.1c-1.3,0.1-2.6,0.2-3.8,0.3l-26.1,0.8c-4.3,0.1-8.8,0.5-13,0.9&#10;&#9;&#9;c-5.4,0.5-11,1-16.5,1H184c-0.9,0-1.9,0-3,0.1C179.7,237.3,178.2,237.3,176.8,237.3z M182.3,165.9c-0.9,0-1.8,0.1-2.6,0.4&#10;&#9;&#9;c-6.2,1.8-10.6,9.4-12.2,12.6c-3.4,6.8-4.1,14.6-4,24.1c0,8.4,0.5,16.8,1.4,25.1c0.1,1.3,0.7,2.5,1.7,3.3l0,0&#10;&#9;&#9;c3.1,2.4,9.6,2.2,14.4,2.1c1.2,0,2.3-0.1,3.2-0.1c5.5,0,11-0.5,16.4-1c4.3-0.4,8.8-0.8,13.2-0.9l26.1-0.8c1.1,0,2.3-0.1,3.6-0.3&#10;&#9;&#9;c2.7-0.4,5.5-0.4,8.2-0.1l0,0c1.1,0.2,4.7,0.8,7,1.2c1.6-5,5.5-25.4,5.3-28.4c-0.8-12-4.8-23.7-10.7-31.2&#10;&#9;&#9;c-8.3-10.6-22.7-17.6-35.9-17.4c-7,0.1-17,2.2-24.4,12c-0.5,0.8-1.3,1.4-2.2,1.7c-1.1,0.2-2.1-0.1-3-0.7&#10;&#9;&#9;C186.2,166.5,184.2,165.9,182.3,165.9L182.3,165.9z M259.8,231.8l0.3,0.1l0,0L259.8,231.8z"/>
	<ellipse class="st6_video-tutorial-68" cx="173.4" cy="235" rx="13.1" ry="11.3"/>
	<path class="st0_video-tutorial-68" d="M173.4,248.1c-8.2,0-14.9-5.9-14.9-13.1s6.7-13.1,14.9-13.1s15,5.9,15,13.1S181.7,248.1,173.4,248.1z&#10;&#9;&#9; M173.4,225.6c-6.2,0-11.2,4.2-11.2,9.4s5,9.4,11.2,9.4s11.2-4.2,11.2-9.4S179.6,225.6,173.4,225.6z"/>
	<ellipse class="st6_video-tutorial-68" cx="249.7" cy="235" rx="13.1" ry="11.3"/>
	<path class="st0_video-tutorial-68" d="M249.7,248.1c-8.2,0-14.9-5.9-14.9-13.1s6.7-13.1,14.9-13.1s15,5.9,15,13.1S257.9,248.1,249.7,248.1z&#10;&#9;&#9; M249.7,225.6c-6.2,0-11.2,4.2-11.2,9.4s5,9.4,11.2,9.4s11.2-4.2,11.2-9.4S255.9,225.6,249.7,225.6z"/>
	<path class="st6_video-tutorial-68" d="M211.9,271.7L211.9,271.7c-21.8,0-39.4-17.7-39.4-39.4v-28.6c2.3,3.8,10,2.3,21.2-17&#10;&#9;&#9;c42,21.3,57.7,9.1,57.7,9.1v36.5C251.4,254,233.7,271.7,211.9,271.7C211.9,271.7,211.9,271.7,211.9,271.7z"/>
	<path class="st0_video-tutorial-68" d="M211.9,273.6c-22.8,0-41.3-18.5-41.3-41.3v-28.6c0-1,0.8-1.9,1.8-1.9c0.7,0,1.3,0.3,1.6,0.9&#10;&#9;&#9;c0.3,0.5,0.8,0.8,1.4,0.8l0,0c3,0,8.9-4.7,16.5-17.7c0.5-0.9,1.6-1.2,2.4-0.7c21.1,10.7,35.1,12.6,43.2,12.3&#10;&#9;&#9;c8.7-0.3,12.5-3,12.5-3.1c0.8-0.6,2-0.5,2.6,0.4c0.2,0.3,0.4,0.7,0.4,1.1v36.5C253.2,255,234.7,273.5,211.9,273.6z M174.3,207v25.2&#10;&#9;&#9;c-0.3,20.8,16.2,37.9,37,38.2c20.8,0.3,37.9-16.2,38.2-37c0-0.4,0-0.8,0-1.2v-33.4c-6.4,2.6-23.2,6.1-55.1-9.7&#10;&#9;&#9;c-7,11.6-13.6,18-18.8,18.1C175.1,207.1,174.7,207.1,174.3,207z"/>
	<circle class="st0_video-tutorial-68" cx="194.9" cy="226.5" r="3.6"/>
	<circle class="st0_video-tutorial-68" cx="228.9" cy="226.5" r="3.6"/>
	<path class="st0_video-tutorial-68" d="M211.8,243.5c-1.2,0-2.4-0.1-3.7-0.3c-1-0.2-1.7-1.1-1.5-2.2c0,0,0,0,0,0c0.2-1,1.1-1.7,2.1-1.5c0,0,0,0,0,0&#10;&#9;&#9;c1.5,0.2,3,0.3,4.6,0.2c-0.6-2.7-1.7-5.3-3-7.7c-0.5-0.9-0.1-2,0.8-2.5c0.9-0.5,2-0.1,2.5,0.8c1.6,3.2,4.2,8.8,3.1,11.4&#10;&#9;&#9;c-0.3,0.8-1,1.3-1.8,1.5C213.9,243.4,212.8,243.5,211.8,243.5z"/>
	<path class="st0_video-tutorial-68" d="M184.7,338c-1,0-1.9-0.8-1.9-1.9v-38c0-1,0.8-1.9,1.9-1.9s1.9,0.8,1.9,1.9v38C186.6,337.2,185.8,338,184.7,338&#10;&#9;&#9;z"/>
	<path class="st0_video-tutorial-68" d="M237.1,338c-1,0-1.9-0.8-1.9-1.9v-38c0-1,0.8-1.9,1.9-1.9s1.9,0.8,1.9,1.9v38C239,337.2,238.1,338,237.1,338z"/>
	<path class="st0_video-tutorial-68" d="M201.7,218.9h-19c-2.1,0.1-3.8-1.5-3.9-3.5c-0.1-2.1,1.5-3.8,3.5-3.9c0.1,0,0.3,0,0.4,0h19&#10;&#9;&#9;c2.1-0.1,3.8,1.5,3.9,3.5c0.1,2.1-1.5,3.8-3.5,3.9C201.9,218.9,201.8,218.9,201.7,218.9z"/>
	<path class="st0_video-tutorial-68" d="M241.1,218.9h-19c-2.1-0.1-3.6-1.9-3.5-3.9c0.1-1.9,1.6-3.4,3.5-3.5h19c2.1-0.1,3.8,1.5,3.9,3.5&#10;&#9;&#9;c0.1,2.1-1.5,3.8-3.5,3.9C241.4,218.9,241.3,218.9,241.1,218.9z"/>
	<path class="st2_video-tutorial-68" d="M219.8,248.9h-15c0,0-1.6,11.4,7.9,11.4C217,260.3,219.8,255.6,219.8,248.9z"/>
	<path class="st0_video-tutorial-68" d="M212.7,262.1c-2.7,0.1-5.4-1-7.2-3c-3.4-3.9-2.6-10.2-2.5-10.5c0.1-0.9,0.9-1.6,1.8-1.6h15&#10;&#9;&#9;c1,0,1.9,0.8,1.9,1.9C221.6,256.8,218.1,262.1,212.7,262.1z M206.6,250.8c0,1.7,0.3,4.2,1.8,5.9c1.1,1.2,2.8,1.8,4.4,1.7&#10;&#9;&#9;c3.1,0,4.7-3.6,5.1-7.6H206.6z"/>
	<circle class="st0_video-tutorial-68" cx="105.7" cy="159.5" r="3.2"/>
	<circle class="st0_video-tutorial-68" cx="123.2" cy="159.5" r="3.2"/>
	<circle class="st0_video-tutorial-68" cx="140.7" cy="159.5" r="3.2"/>
	<polygon class="st1_video-tutorial-68 targetColor" points="163.4,337.7 143.2,303.8 125.8,312.9 137.5,337.7 &#9;" style="fill: rgb(153, 51, 51);"/>
	<path class="st0_video-tutorial-68" d="M163.4,339.6h-25.9c-0.7,0-1.4-0.4-1.7-1.1l-11.7-24.8c-0.4-0.9-0.1-2,0.8-2.5l17.4-9.1c0.9-0.5,2-0.1,2.5,0.7&#10;&#9;&#9;l20.2,33.9c0.5,0.9,0.2,2-0.6,2.6C164.1,339.5,163.7,339.6,163.4,339.6L163.4,339.6z M138.7,335.8h21.5l-17.6-29.5l-14.3,7.4&#10;&#9;&#9;L138.7,335.8z"/>
	<path class="st6_video-tutorial-68" d="M143.2,303.8c0,0-0.6-18.3-3-17.4s-3.4,7.5-3.4,7.5s-6.9-26-9.4-26s-4.3,0-4.7,4.9s3.7,18.2,3.7,18.2&#10;&#9;&#9;s-8.4,0.2-10.8,7s10.1,14.9,10.1,14.9L143.2,303.8z"/>
	<path class="st0_video-tutorial-68" d="M125.8,314.8c-0.4,0-0.7-0.1-1-0.3c-1.4-0.9-13.7-9.2-10.8-17.1c2-5.5,7.1-7.3,10.2-7.9&#10;&#9;&#9;c-1.2-4.1-3.5-12.8-3.2-16.9c0.5-6.1,3.4-6.6,6.5-6.6c1.3,0,3.5,0,9.5,21.2c0.5-1.1,1.5-2,2.6-2.6c0.7-0.3,1.5-0.2,2.2,0.2&#10;&#9;&#9;c0.7,0.5,2.8,1.9,3.4,18.9c0,0.7-0.4,1.4-1,1.7l-17.4,9.1C126.4,314.7,126.1,314.8,125.8,314.8z M126.9,269.8c-2,0.1-2,0.6-2.2,3.1&#10;&#9;&#9;c-0.3,3.7,2.6,13.9,3.7,17.6c0.2,0.6,0.1,1.2-0.3,1.6c-0.3,0.5-0.9,0.8-1.5,0.8c-0.1,0-7.2,0.3-9.2,5.8c-1.4,4,5.1,9.7,8.5,12.1&#10;&#9;&#9;l15.4-8c-0.1-4.4-0.6-8.9-1.3-13.2c-0.6,1.5-1.1,3.1-1.3,4.7c-0.1,1-1.1,1.7-2.1,1.6c-0.7-0.1-1.3-0.6-1.5-1.4&#10;&#9;&#9;C132.3,284,128.5,272.1,126.9,269.8z"/>
	<path class="st6_video-tutorial-68" d="M125.8,287.2c0,0,7.9,10.5,5.6,13.9s-11.1,8.7-16,3.8s-6.8-8.7-2.9-11.9S125.8,287.2,125.8,287.2z"/>
	<path class="st0_video-tutorial-68" d="M120.4,308.7c-2.3,0.1-4.6-0.8-6.3-2.5c-4-3.9-5.7-6.9-5.5-9.7c0.2-2,1.2-3.8,2.8-5c4.2-3.4,13.6-6,14-6.1&#10;&#9;&#9;c0.7-0.2,1.5,0.1,2,0.7c2.6,3.5,8.4,12,5.7,16c-1.9,2.8-6.8,6.1-11.4,6.6C121.2,308.6,120.8,308.7,120.4,308.7z M125.1,289.3&#10;&#9;&#9;c-3.1,1-8.8,3-11.4,5.1c-0.8,0.5-1.3,1.3-1.4,2.3c-0.1,1.6,1.4,3.8,4.4,6.9c1.2,1.1,2.8,1.6,4.5,1.4c3.4-0.5,6.5-2.3,8.7-4.9&#10;&#9;&#9;C130.6,298.9,128.3,293.9,125.1,289.3z"/>
	<polygon class="st1_video-tutorial-68 targetColor" points="259,336.6 286.4,307 303.7,320.8 293,337.7 &#9;" style="fill: rgb(153, 51, 51);"/>
	<path class="st0_video-tutorial-68" d="M293,339.6L293,339.6l-34-1.1c-0.7,0-1.4-0.5-1.7-1.1c-0.3-0.7-0.2-1.5,0.4-2l27.3-29.6&#10;&#9;&#9;c0.7-0.7,1.8-0.8,2.5-0.2l17.3,13.7c0.8,0.6,0.9,1.7,0.4,2.5l-10.7,16.9C294.2,339.2,293.6,339.6,293,339.6z M263.1,334.9l28.9,0.9&#10;&#9;&#9;l9.2-14.6l-14.6-11.6L263.1,334.9z"/>
	<path class="st6_video-tutorial-68" d="M285.5,308.4c0,0,12.6-16.9,15.7-13.4s-2.9,9.5-2.9,9.5s37-9.4,36.7-3s-33.8,20.9-33.8,20.9L285.5,308.4z"/>
	<path class="st0_video-tutorial-68" d="M301.2,324.2c-0.5,0-0.9-0.2-1.2-0.5l-15.7-14c-0.7-0.6-0.8-1.7-0.3-2.5c2.5-3.4,11.1-14.5,16-14.7&#10;&#9;&#9;c1-0.1,2,0.4,2.7,1.1c2,2.3,1.5,5.2,0.2,7.7c25.9-6.1,31.6-3.6,32.8-2.6c0.8,0.7,1.3,1.7,1.2,2.8c-0.4,6.8-24.5,18-34.9,22.5&#10;&#9;&#9;C301.7,324.2,301.5,324.2,301.2,324.2z M288,308.2l13.5,12c16.6-7.3,30.7-15.6,31.5-18.6c-2.5-1.5-18,0.6-34.3,4.7&#10;&#9;&#9;c-1,0.2-2-0.4-2.3-1.4c-0.2-0.6,0-1.3,0.5-1.7c1-1,4.2-4.9,3-6.8C298.1,296.7,292.9,301.9,288,308.2z"/>
	<rect x="282.9" y="257.9" class="st8_video-tutorial-68" width="68.4" height="46.8"/>
	<path class="st0_video-tutorial-68" d="M351.4,306.5h-68.4c-1,0-1.9-0.8-1.9-1.9v-46.8c0-1,0.8-1.9,1.9-1.9h68.4c1,0,1.9,0.8,1.9,1.9v46.8&#10;&#9;&#9;C353.2,305.7,352.4,306.5,351.4,306.5L351.4,306.5z M284.8,302.8h64.7v-43.1h-64.7L284.8,302.8z"/>
	<path class="st0_video-tutorial-68" d="M351.4,271.2h-68.4c-1-0.1-1.8-1-1.7-2c0.1-0.9,0.8-1.7,1.7-1.7h68.4c1,0.1,1.8,1,1.7,2&#10;&#9;&#9;C353,270.4,352.3,271.2,351.4,271.2z"/>
</g>
</svg>