<svg version="1.1" id="Layer_1" xmlns="http://www.w3.org/2000/svg" xmlns:xlink="http://www.w3.org/1999/xlink" x="0px" y="0px" viewBox="0 0 500 500" style="width: 166px;" xml:space="preserve" data-imageid="reading-a-book-72" imageName="Reading a Book" class="illustrations_image">
<style type="text/css">
	.st0_reading-a-book-72{fill:#FFFFFF;}
	.st1_reading-a-book-72{fill:#231F20;}
	.st2_reading-a-book-72{fill:#D1D3D4;}
	.st3_reading-a-book-72{fill:#68E1FD;}
</style>
<polygon class="st0_reading-a-book-72" points="400,101.7 400,354.1 433.7,389.2 433.7,101.7 "/>
<path class="st1_reading-a-book-72" d="M433.7,389.9c-0.2,0-0.4-0.1-0.5-0.2l-33.6-35c-0.1-0.1-0.2-0.3-0.2-0.5V101.7c0-0.4,0.3-0.7,0.7-0.7&#10;&#9;c0,0,0,0,0,0h33.7c0.4,0,0.7,0.3,0.7,0.7c0,0,0,0,0,0v287.5c0,0.3-0.2,0.5-0.4,0.6C433.8,389.9,433.7,389.9,433.7,389.9z&#10;&#9; M400.7,353.9l32.3,33.6v-285h-32.3L400.7,353.9z"/>
<polygon class="st0_reading-a-book-72" points="433.7,389.2 66.3,389.2 100,354.1 400,354.1 "/>
<path class="st1_reading-a-book-72" d="M433.7,389.9H66.3c-0.4,0-0.7-0.3-0.7-0.7c0-0.2,0.1-0.3,0.2-0.5l33.7-35c0.1-0.1,0.3-0.2,0.5-0.2h300&#10;&#9;c0.2,0,0.4,0.1,0.5,0.2l33.7,35c0.3,0.3,0.3,0.7,0,1C434,389.8,433.8,389.9,433.7,389.9z M68,388.5h364l-32.3-33.6H100.3L68,388.5z"/>
<polygon class="st0_reading-a-book-72" points="66.3,101.7 66.3,389.2 100,354.1 100,101.7 "/>
<path class="st1_reading-a-book-72" d="M66.3,389.9c-0.1,0-0.2,0-0.3,0c-0.3-0.1-0.4-0.4-0.4-0.6V101.7c0-0.4,0.3-0.7,0.7-0.7c0,0,0,0,0,0H100&#10;&#9;c0.4,0,0.7,0.3,0.7,0.7c0,0,0,0,0,0v252.4c0,0.2-0.1,0.4-0.2,0.5l-33.7,35C66.7,389.8,66.5,389.9,66.3,389.9z M67,102.4v285&#10;&#9;l32.3-33.5V102.4H67z"/>
<rect x="66.3" y="389.2" class="st0_reading-a-book-72" width="367.3" height="9.1"/>
<path class="st1_reading-a-book-72" d="M433.7,399H66.3c-0.4,0-0.7-0.3-0.7-0.7c0,0,0,0,0,0v-9.1c0-0.4,0.3-0.7,0.7-0.7h367.3c0.4,0,0.7,0.3,0.7,0.7&#10;&#9;v9.1C434.4,398.7,434.1,399,433.7,399C433.7,399,433.7,399,433.7,399z M67,397.6h366v-7.7H67V397.6z"/>
<g id="Window_reading-a-book-72">
	<rect x="100" y="101.7" class="st0_reading-a-book-72" width="300" height="252.4"/>
	<path class="st1_reading-a-book-72" d="M400,354.9H100c-0.4,0-0.7-0.3-0.7-0.7l0,0V101.7c0-0.4,0.3-0.7,0.7-0.7h300c0.4,0,0.7,0.3,0.7,0.7v0v252.4&#10;&#9;&#9;C400.7,354.5,400.4,354.9,400,354.9L400,354.9z M100.7,353.5h298.6v-251H100.7V353.5z"/>
	<path class="st2_reading-a-book-72" d="M243,347.3H116.8c-0.4,0-0.7-0.3-0.7-0.7l0,0V114.4c0-0.4,0.3-0.7,0.7-0.7H243c0.4,0,0.7,0.3,0.7,0.7v232.2&#10;&#9;&#9;C243.7,347,243.4,347.3,243,347.3C243,347.3,243,347.3,243,347.3z M117.6,345.9h124.7V115.1H117.5L117.6,345.9z"/>
	<path class="st2_reading-a-book-72" d="M383.2,347.3H257c-0.4,0-0.7-0.3-0.7-0.7v0V114.4c0-0.4,0.3-0.7,0.7-0.7l0,0h126.2c0.4,0,0.7,0.3,0.7,0.7v0&#10;&#9;&#9;v232.2C383.9,347,383.6,347.3,383.2,347.3L383.2,347.3z M257.7,345.9h124.7V115.1H257.7V345.9z"/>
	<path class="st2_reading-a-book-72" d="M176,165.2c-0.2,0-0.4-0.1-0.5-0.2c-0.2-0.3-0.2-0.8,0.1-1c0,0,0,0,0,0l31.4-26c0.3-0.2,0.8-0.2,1,0.1&#10;&#9;&#9;c0,0,0,0,0,0c0.3,0.3,0.2,0.7-0.1,1c0,0,0,0,0,0l-31.4,26C176.3,165.1,176.2,165.2,176,165.2z"/>
	<path class="st2_reading-a-book-72" d="M292.1,182c-0.2,0-0.4-0.1-0.5-0.2c-0.3-0.3-0.2-0.7,0.1-1c0,0,0,0,0,0l40.1-33.6c0.3-0.3,0.7-0.2,1,0.1&#10;&#9;&#9;c0.3,0.3,0.2,0.7-0.1,1c0,0,0,0,0,0l-40.1,33.6C292.5,181.9,292.3,182,292.1,182z"/>
	<path class="st2_reading-a-book-72" d="M191.8,202.9c-0.2,0-0.4-0.1-0.5-0.2c-0.3-0.3-0.2-0.7,0.1-1c0,0,0,0,0,0l24.8-20.9c0.3-0.2,0.7-0.2,1,0.1&#10;&#9;&#9;c0.2,0.3,0.2,0.7-0.1,0.9l-24.8,20.9C192.1,202.8,191.9,202.9,191.8,202.9z"/>
	<path class="st2_reading-a-book-72" d="M353,299.6c-0.2,0-0.4-0.1-0.5-0.2c-0.3-0.3-0.2-0.7,0-1c0,0,0,0,0,0l15.9-13.8c0.3-0.3,0.7-0.2,1,0&#10;&#9;&#9;c0,0,0,0,0,0c0.3,0.3,0.2,0.7-0.1,1l-15.9,13.8C353.3,299.5,353.2,299.6,353,299.6z"/>
	<path class="st2_reading-a-book-72" d="M301.5,251.7c-0.2,0-0.4-0.1-0.5-0.3c-0.3-0.3-0.2-0.7,0.1-1c0,0,0,0,0,0l45.1-37.5c0.3-0.3,0.7-0.2,1,0&#10;&#9;&#9;c0.3,0.3,0.2,0.7,0,1c0,0,0,0-0.1,0L302,251.6C301.9,251.7,301.7,251.7,301.5,251.7z"/>
</g>
<g id="Pilow_reading-a-book-72">
	<path class="st1_reading-a-book-72" d="M100.6,284c-3,0.5-24.1,0.2-23.6,4.4s10.7,46.2,13.6,57.5s10.8,21,18.3,25.2s30.2-14.1,35.3-15.3&#10;&#9;&#9;S100.6,284,100.6,284z"/>
	<path class="st1_reading-a-book-72" d="M111.6,372.4c-1.1,0-2.1-0.2-3.1-0.7c-7-4-15.5-13.4-18.6-25.6c-3-11.4-13.2-53.3-13.6-57.6&#10;&#9;&#9;c0-0.6,0.1-1.1,0.5-1.5c2.1-2.4,10.6-3,19.2-3.3c2-0.1,3.8-0.2,4.5-0.3c0.3,0,0.5,0.1,0.7,0.3c7.7,11.1,45.9,66.9,44,72.1&#10;&#9;&#9;c-0.1,0.4-0.4,0.6-0.8,0.7c-1.5,0.4-4.9,2.5-8.9,5C127.9,366.1,117.9,372.4,111.6,372.4z M100.3,284.8c-0.9,0.1-2.3,0.2-4.2,0.2&#10;&#9;&#9;c-5.7,0.2-16.4,0.7-18.2,2.9c-0.1,0.1-0.2,0.3-0.2,0.5c0.4,4.1,10.7,46.3,13.6,57.4c3.1,11.8,11.2,21,18,24.8&#10;&#9;&#9;c4.8,2.7,17.2-5.1,25.5-10.3c4.1-2.6,7.4-4.6,9.1-5.1C144.6,350.9,117.8,310,100.3,284.8L100.3,284.8z"/>
	<path class="st0_reading-a-book-72" d="M179.7,258.2c0,0-98.2-4-98.6,3s48.5,110.2,55.7,111.7s7.9-5.3,10.6-4.6s30.4-7.8,39.2-15.3&#10;&#9;&#9;s-14.8-64.7-13.7-71.8S187.7,259.2,179.7,258.2z"/>
	<path class="st1_reading-a-book-72" d="M138.7,373.8c-0.7,0-1.4-0.1-2.1-0.2c-4.8-1-23.4-38.2-31.2-54.1c-12.3-25.3-25.3-54.3-25.1-58.3&#10;&#9;&#9;c0.1-1.5,0.3-5.1,50.2-4.8c24.3,0.1,48.9,1.1,49.2,1.1h0.1c1.2,0,2.2,0.7,2.8,1.7c1.3,2.6-1.5,7.3-4.4,12.3&#10;&#9;&#9;c-2.1,3.6-4.3,7.3-4.6,9.9c-0.3,2.3,2.4,11.1,5.5,21.3c6.2,20.4,14,45.8,8,50.9c-8.8,7.6-36.8,16.2-39.8,15.5&#10;&#9;&#9;c-0.6-0.1-1.2,0.4-2.1,1.4C143.9,371.8,142.1,373.8,138.7,373.8z M127.4,257.7c-29.1,0-45.6,1.5-45.7,3.6c-0.2,3.1,11,29,24.9,57.6&#10;&#9;&#9;c17.6,36.2,27.9,52.9,30.2,53.4c4,0.8,5.7-1.1,7.2-2.8c1-1.1,2-2.2,3.5-1.9c2.4,0.6,29.8-7.7,38.5-15.2c5.3-4.6-3-31.6-8.4-49.5&#10;&#9;&#9;c-3.3-10.8-5.9-19.3-5.5-21.9c0.4-2.8,2.6-6.6,4.8-10.4c2.5-4.2,5.3-9.1,4.4-11c-0.4-0.6-1-0.9-1.7-0.9&#10;&#9;&#9;C159.4,258.1,141.8,257.7,127.4,257.7z"/>
	<path class="st2_reading-a-book-72" d="M136.7,360.5c-0.3,0-0.6-0.2-0.7-0.5c-7.9-24.7-45.7-92.8-46.1-93.4c-0.2-0.3-0.1-0.8,0.3-0.9c0,0,0,0,0,0&#10;&#9;&#9;c0.3-0.2,0.8-0.1,1,0.2c0,0,0,0,0,0.1c0.4,0.7,38.3,68.9,46.2,93.7c0.1,0.4-0.1,0.8-0.4,0.9C136.9,360.5,136.8,360.5,136.7,360.5z"/>
</g>
<g id="Character_reading-a-book-72">
	<path class="st0_reading-a-book-72" d="M358.4,350.6c0,0,15-0.4,16.9-1.4s13.2-15.5,15.8-19s3.3-7.5,5.1-8.3s2.9-2.2,3.6,0s-3,18.2-5.5,26.9&#10;&#9;&#9;s-5.4,20.4-7.5,21.8s-7.6-0.4-9.2-1.9c-1.7-1.4-3.6-2.6-5.5-3.6c0,0-17.9,0.1-18.2-0.3S358.4,350.6,358.4,350.6z"/>
	<path class="st1_reading-a-book-72" d="M384.8,371.7c-2.8,0-6.3-1.4-7.5-2.6c-1.6-1.3-3.4-2.5-5.2-3.4c-18.1,0.1-18.3-0.2-18.6-0.6s-0.5-0.7,4.4-14.8&#10;&#9;&#9;c0.1-0.3,0.3-0.5,0.6-0.5c5.7-0.2,15.3-0.7,16.6-1.3s10-11.4,15.6-18.8c1-1.4,1.9-3,2.6-4.6c0.9-1.9,1.6-3.4,2.8-3.9&#10;&#9;&#9;c0.3-0.2,0.7-0.4,1-0.6c0.8-0.5,1.6-0.9,2.3-0.6c0.6,0.3,1,0.9,1.2,1.6c0.9,2.7-3.5,20.4-5.5,27.4c-0.4,1.4-0.8,2.9-1.2,4.5&#10;&#9;&#9;c-2.8,9.9-4.7,16.5-6.5,17.7C386.5,371.6,385.6,371.8,384.8,371.7z M372.2,364.3c0.1,0,0.2,0,0.3,0.1c2,1,4,2.3,5.7,3.7&#10;&#9;&#9;c1.4,1.4,6.6,3,8.3,1.9c1.5-1,4.1-10.2,6-16.9c0.4-1.5,0.8-3,1.2-4.5c2.9-10.2,6.1-24.7,5.5-26.5c-0.2-0.6-0.4-0.7-0.4-0.7&#10;&#9;&#9;s-0.8,0.3-1.1,0.5s-0.7,0.4-1.2,0.6c-0.7,0.3-1.4,1.7-2.1,3.2c-0.7,1.7-1.7,3.4-2.8,4.9c-0.6,0.7-13.7,18-16.1,19.2&#10;&#9;&#9;c-1.9,0.9-13.8,1.4-16.7,1.5c-1.5,4.4-3.7,10.9-4.2,12.9C357.2,364.3,366.4,364.4,372.2,364.3L372.2,364.3z"/>
	<path class="st1_reading-a-book-72" d="M196.2,371.7c0,0,76.2-9.7,81.7-10.1s82.8,5.4,85.5,5s3.5-17.9,3.5-17.9s-74.9-20.2-96.1-19.1&#10;&#9;&#9;c-12.3,0.6-52.1,0-52.1,0L196.2,371.7z"/>
	<path class="st1_reading-a-book-72" d="M196.2,372.4c-0.2,0-0.4-0.1-0.6-0.3c-0.1-0.2-0.1-0.5,0-0.7l22.6-42.2c0.1-0.2,0.4-0.4,0.6-0.4&#10;&#9;&#9;c0.4,0,39.9,0.6,52,0c21.1-1,93.2,18.3,96.3,19.2c0.3,0.1,0.5,0.4,0.5,0.7c-0.3,5.4-1.2,18.1-4.1,18.6c-1.3,0.2-15.2-0.7-37.9-2.2&#10;&#9;&#9;c-21-1.4-44.8-3-47.7-2.8C272.6,362.6,197,372.2,196.2,372.4L196.2,372.4z M219.2,330.2l-21.7,40.6c10.5-1.3,75.3-9.6,80.3-10&#10;&#9;&#9;c2.9-0.2,25.8,1.3,47.9,2.8c17.9,1.2,36.3,2.4,37.6,2.2s2.5-7.9,2.9-16.7c-6.8-1.8-75.4-19.9-95.3-19&#10;&#9;&#9;C259.4,330.7,223.5,330.2,219.2,330.2L219.2,330.2z"/>
	<path class="st0_reading-a-book-72" d="M301.2,344c0,0,7.5,12.1,8.3,14.6s0.8,9.4,2.5,12.5s48.9,2.5,48.7,0.6s-20.4-10.2-25.7-14S315.8,334,315.8,334&#10;&#9;&#9;L301.2,344z"/>
	<path class="st1_reading-a-book-72" d="M336.1,373.9c-11.8,0-23.7-0.6-24.7-2.5s-1.5-5.3-1.8-8.3c-0.1-1.5-0.4-2.9-0.7-4.3&#10;&#9;&#9;c-0.6-1.9-5.7-10.3-8.2-14.4c-0.2-0.3-0.1-0.7,0.2-0.9l14.6-10c0.3-0.2,0.7-0.2,1,0.1c0,0,0,0,0,0c0.1,0.2,13.9,19.9,19.1,23.5&#10;&#9;&#9;c2.3,1.6,7.7,4.2,12.9,6.8c10,4.9,13,6.5,13.1,7.7c0,0.5-0.3,0.9-1,1.1C358.4,373.3,347.2,373.9,336.1,373.9z M302.1,344.2&#10;&#9;&#9;c1.5,2.5,7.3,11.9,8,14.1c0.4,1.5,0.6,3,0.8,4.6c0.3,2.8,0.7,6,1.7,7.8c0.8,0.8,8.5,1.8,23.6,1.8c11.6,0.1,21-0.5,23.4-1.1&#10;&#9;&#9;c-1.5-1.2-7.5-4.1-12-6.3c-5.2-2.5-10.6-5.2-13.1-6.9c-4.9-3.5-16.7-20-19-23.3L302.1,344.2z"/>
	<path class="st1_reading-a-book-72" d="M165.8,362c1.2,0.8,6.8,8.9,30.4,9.7s62.6-70.7,62.6-70.7l41.1,48.2l18.9-11.9c0,0-25.8-71.7-37.5-79.1&#10;&#9;&#9;s-30.8-2-39.1,3.5s-48.7,60.8-48.7,60.8L165.8,362z"/>
	<path class="st1_reading-a-book-72" d="M196.6,372.4h-0.4c-21.2-0.8-28-7.2-30.2-9.4c-0.2-0.2-0.3-0.3-0.5-0.5c-0.2-0.1-0.3-0.3-0.3-0.5&#10;&#9;&#9;c0-0.2,0-0.4,0.1-0.5l27.6-39.5c1.7-2.3,40.6-55.5,48.9-61c7.8-5.1,27.5-11.3,39.9-3.5c11.7,7.4,36.7,76.5,37.7,79.4&#10;&#9;&#9;c0.1,0.3,0,0.7-0.3,0.8l-18.9,11.9c-0.3,0.2-0.7,0.1-0.9-0.1l-40.4-47.4c-6.7,12-14.1,23.6-22,34.9&#10;&#9;&#9;C220.2,360.5,206.6,372.4,196.6,372.4z M166.7,361.8l0.2,0.2c2.1,2,8.6,8.3,29.3,9h0.4c23,0,61.1-69.6,61.5-70.3&#10;&#9;&#9;c0.1-0.2,0.3-0.3,0.5-0.4c0.2,0,0.5,0.1,0.6,0.2l40.7,47.8l17.9-11.3c-2.4-6.5-26.2-71.4-37-78.2c-5.8-3.7-23.1-6.5-38.4,3.5&#10;&#9;&#9;c-8.1,5.3-48.1,60-48.5,60.6L166.7,361.8z"/>
	<path class="st0_reading-a-book-72" d="M186,313c0-0.8,10.3-14.4,12.8-15.6c2.5-1.3,4.9-2.8,7.2-4.4l-3.8-8.7c0,0-3,1.2-2.4-1.5s-4.8-6.5-4.8-6.5&#10;&#9;&#9;s-7.1,6.3-7.3,13.6c-0.1,5.8-15.8,15.2-15.8,15.2L186,313z"/>
	<path class="st1_reading-a-book-72" d="M186,313.6c-0.1,0-0.2,0-0.3-0.1l-14.1-7.9c-0.2-0.1-0.3-0.4-0.4-0.6c0-0.3,0.1-0.5,0.3-0.6&#10;&#9;&#9;c4.3-2.5,15.4-10.1,15.5-14.6c0.2-7.5,7.2-13.8,7.5-14.1c0.2-0.2,0.6-0.2,0.9,0c0.6,0.4,5.8,4.1,5.1,7.2c-0.1,0.5,0,0.8,0,0.8&#10;&#9;&#9;s0.9,0.1,1.4-0.1c0.4-0.1,0.7,0,0.9,0.4l3.8,8.7c0.1,0.3,0,0.7-0.2,0.9c-2.3,1.6-4.7,3.1-7.2,4.4c-2.3,1.1-11.9,13.8-12.4,15.1&#10;&#9;&#9;c0,0.2-0.2,0.4-0.3,0.5C186.2,313.6,186.1,313.6,186,313.6z M173.2,305l12.5,7c2-3.5,10.5-14.2,12.8-15.3c2.3-1.2,4.5-2.6,6.6-4&#10;&#9;&#9;l-3.4-7.6c-0.8,0.3-1.6,0.1-2.2-0.3c-0.6-0.6-0.7-1.4-0.5-2.2c0.4-1.5-2.1-4-4.1-5.4c-1.5,1.5-6.5,6.8-6.6,12.7&#10;&#9;&#9;C188.3,295.2,177,302.7,173.2,305z"/>
	<path class="st0_reading-a-book-72" d="M166,206.6c-13.8-17-36.8-8.4-43.5,10c-2.7,7.3-5.2,13.9-10.2,20.1c-4.4,5.5-11.3,10.3-11.6,18&#10;&#9;&#9;c-0.2,5.4,3.4,10.3,8,13.1s10.1,3.6,15.5,3.9c12,0.7,23.9-1.2,35.2-5.5c4.6-1.7,9.9-4.5,12.3-9c3-5.5-0.3-9.7-1.5-15.4&#10;&#9;&#9;c-1-4.7,0.5-9.5,1.5-14.2C173.3,219.9,171,212.8,166,206.6z"/>
	<path class="st1_reading-a-book-72" d="M128.8,272.5c-1.6,0-3.1,0-4.7-0.1c-4.7-0.2-10.7-0.9-15.8-4s-8.5-8.5-8.4-13.7c0.2-6,4.2-10.3,8.2-14.4&#10;&#9;&#9;c1.3-1.4,2.5-2.6,3.6-4c4.8-5.9,7.3-12.2,10.1-19.9c3.7-10.1,12.4-17.7,22.1-19.3c8.6-1.4,16.6,1.8,22.6,9.1l0,0&#10;&#9;&#9;c5.5,6.8,7.4,14,5.8,21.6c-0.2,0.8-0.4,1.6-0.5,2.3c-0.9,3.8-1.8,7.8-1,11.5c0.3,1.5,0.7,2.9,1.2,4.4c1.3,3.8,2.5,7.3,0.2,11.6&#10;&#9;&#9;c-2,3.8-6.3,6.9-12.7,9.4C149.7,270.6,139.3,272.5,128.8,272.5z M147.9,198.1c-1.2,0-2.5,0.1-3.7,0.3c-9.3,1.6-17.6,8.8-21.1,18.4&#10;&#9;&#9;c-2.8,7.8-5.4,14.2-10.3,20.3c-1.1,1.4-2.4,2.8-3.7,4.1c-3.7,3.9-7.6,8-7.8,13.5c-0.2,4.7,2.9,9.6,7.7,12.5s10.7,3.5,15.2,3.8&#10;&#9;&#9;c11.9,0.6,23.7-1.2,34.9-5.4c6.1-2.3,10.1-5.2,11.9-8.7c2-3.8,0.9-6.9-0.3-10.5c-0.5-1.5-1-2.9-1.3-4.4c-0.9-4.1,0.1-8.2,1-12.1&#10;&#9;&#9;c0.2-0.8,0.4-1.5,0.5-2.3c1.5-7.2-0.3-14.1-5.5-20.5l0,0C160.7,201.2,154.6,198.1,147.9,198.1L147.9,198.1z"/>
	<path class="st3_reading-a-book-72 targetColor" d="M114.6,258.2c-5.6,7.2-4.6,40.8,8.7,58.3s20.3,40.2,50.5,51.9l23.9-48.8c0,0-19.8-17.5-20.6-23s3-14,0.3-21.4&#10;&#9;&#9;C165.8,244.2,120.2,251,114.6,258.2z" style="fill: rgb(153, 51, 51);"/>
	<path class="st0_reading-a-book-72" d="M152.6,250.9l-0.1,13.6c0,0,1.1,5.6-8,3.5s-13.1-13.3-13.1-13.3l0.8-19.8c0,0,14.2-7.6,12.1-22.2&#10;&#9;&#9;c0,0,5.5,11.4,19,9.7c0,0,0.2,13-0.9,20S152.6,250.9,152.6,250.9z"/>
	<path class="st1_reading-a-book-72" d="M148.2,269.1c-1.3,0-2.6-0.2-3.8-0.5c-9.3-2.2-13.4-13.2-13.6-13.7c0-0.1,0-0.2,0-0.3l0.8-19.8&#10;&#9;&#9;c0-0.2,0.1-0.5,0.4-0.6c0.1-0.1,13.7-7.6,11.8-21.4c0-0.3,0.2-0.7,0.5-0.8c0.3-0.1,0.7,0,0.8,0.4c3.5,6.7,10.8,10.4,18.3,9.3&#10;&#9;&#9;c0.2,0,0.4,0,0.5,0.2c0.2,0.1,0.2,0.3,0.2,0.5c0,0.5,0.2,13.1-0.9,20.1c-1,6.4-7.9,8.5-10,9l-0.1,13l0,0c0.2,1.2-0.2,2.5-1.1,3.4&#10;&#9;&#9;C151.1,268.8,149.7,269.2,148.2,269.1z M132.2,254.5c0.5,1.2,4.5,10.8,12.6,12.7c3.1,0.8,5.4,0.6,6.4-0.4c0.6-0.6,0.8-1.4,0.7-2.3&#10;&#9;&#9;l0.1-13.7c0-0.3,0.2-0.6,0.6-0.7c0.1,0,8.4-1.5,9.4-7.9c0.9-5.9,0.9-16.2,0.8-19.1c-6.8,0.7-13.4-2.3-17.4-7.8&#10;&#9;&#9;c0.1,11.9-10.3,18.7-12.4,19.9L132.2,254.5z"/>
	<path class="st0_reading-a-book-72" d="M136.6,234c-1-3.2-4-5.2-7.3-4.9c-3.9,0.6-3.9,5.1-2.7,7.9c0.8,1.8,2.2,3.1,4,3.8c1.8,0.7,3.8,0.6,5.5-0.1"/>
	<path class="st1_reading-a-book-72" d="M133.2,242.1c-3.1,0-6-1.9-7.2-4.8c-0.8-1.8-1.3-4.6-0.1-6.7c0.7-1.2,1.9-2,3.3-2.2c3.6-0.4,7,1.9,8.1,5.4&#10;&#9;&#9;c0.1,0.4-0.1,0.8-0.5,0.8c-0.4,0.1-0.8-0.1-0.8-0.5c-0.9-2.8-3.6-4.6-6.5-4.4c-1,0.1-1.8,0.7-2.3,1.5c-0.8,1.5-0.5,3.8,0.2,5.5&#10;&#9;&#9;c1.4,3.3,5.2,4.8,8.5,3.4c0,0,0.1,0,0.1,0c0.4-0.2,0.8,0,0.9,0.4c0.2,0.4,0,0.8-0.4,0.9C135.4,241.9,134.3,242.1,133.2,242.1z"/>
	<path class="st0_reading-a-book-72" d="M154.8,229.3c0,0,5,6.9,3.9,8.2s-4.3,0.6-4.3,0.6"/>
	<path class="st1_reading-a-book-72" d="M156.3,239c-0.7,0-1.3-0.1-2-0.2c-0.4-0.1-0.6-0.5-0.4-0.9c0.1-0.3,0.4-0.5,0.7-0.5c0.9,0.2,3,0.4,3.6-0.4&#10;&#9;&#9;c0.2-0.6-1.6-4.1-4-7.3c-0.2-0.3-0.2-0.7,0.1-1c0,0,0,0,0,0c0.3-0.2,0.7-0.2,1,0.1c0,0,0,0,0,0c2.4,3.4,5.1,7.6,3.9,9&#10;&#9;&#9;C158.4,238.7,157.4,239.1,156.3,239z"/>
	
		<ellipse transform="matrix(0.9996 -2.931733e-02 2.931733e-02 0.9996 -6.551 4.5169)" class="st1_reading-a-book-72" cx="150.8" cy="225.7" rx="1.1" ry="2.6"/>
	
		<ellipse transform="matrix(0.9996 -2.931733e-02 2.931733e-02 0.9996 -6.5791 4.7932)" class="st1_reading-a-book-72" cx="160.2" cy="226.8" rx="1.1" ry="2.6"/>
	<path class="st1_reading-a-book-72" d="M152.6,250.9c0,0-5.2,0.9-11.3-3.1c0,0,2.3,9.5,11.2,10.4L152.6,250.9z"/>
	<path class="st1_reading-a-book-72" d="M152.6,258.9L152.6,258.9c-9.4-0.9-11.9-10.9-11.9-11c-0.1-0.3,0-0.6,0.3-0.7c0.2-0.2,0.5-0.2,0.8,0&#10;&#9;&#9;c5.8,3.8,10.7,3,10.8,3c0.2,0,0.4,0,0.6,0.2c0.2,0.1,0.2,0.3,0.2,0.5v7.3c0,0.2-0.1,0.4-0.2,0.5C153,258.8,152.8,258.9,152.6,258.9&#10;&#9;&#9;z M142.6,249.3c1,2.6,3.7,7.2,9.3,8.1v-5.8C148.6,251.7,145.4,250.9,142.6,249.3L142.6,249.3z"/>
	<path class="st0_reading-a-book-72" d="M147,234c0,0,0,13.8,12.1,9.3"/>
	<path class="st1_reading-a-book-72" d="M154.7,245c-1.5,0-3-0.4-4.3-1.3c-4.1-2.8-4.1-9.4-4.1-9.6c0-0.4,0.3-0.7,0.7-0.7l0,0c0.4,0,0.7,0.3,0.7,0.7&#10;&#9;&#9;c0,0.1,0.1,6.1,3.5,8.5c1.9,1.3,4.4,1.4,7.6,0.2c0.4-0.2,0.8,0,0.9,0.3c0.2,0.4,0,0.8-0.3,0.9c0,0-0.1,0-0.1,0&#10;&#9;&#9;C157.8,244.6,156.3,245,154.7,245z"/>
	<path class="st0_reading-a-book-72" d="M230.2,301c-0.6-0.2-16.4-4.2-16.4-4.2s26.4-41.8,27.1-42s22.7-4.6,22.7-4.6L230.2,301z"/>
	<path class="st1_reading-a-book-72" d="M230.2,301.7H230c-0.5-0.2-10.1-2.6-16.4-4.1c-0.4-0.1-0.6-0.5-0.5-0.8c0-0.1,0.1-0.2,0.1-0.2&#10;&#9;&#9;c26.6-42,27.1-42.2,27.4-42.3c0.6-0.2,19.1-3.9,22.8-4.6c0.4-0.1,0.7,0.2,0.8,0.5c0,0.2,0,0.4-0.1,0.5l-33.3,50.8&#10;&#9;&#9;C230.7,301.6,230.5,301.7,230.2,301.7z M214.9,296.4c3.2,0.8,12.7,3.2,15,3.8l32.1-49c-8.2,1.6-19.3,3.9-20.8,4.2&#10;&#9;&#9;C239.6,257.4,224.9,280.5,214.9,296.4z"/>
	<polygon class="st0_reading-a-book-72" points="213.8,296.8 194.9,286.6 220.4,249.6 240.9,254.8 &#9;"/>
	<path class="st1_reading-a-book-72" d="M213.8,297.5c-0.1,0-0.2,0-0.3-0.1l-18.9-10.2c-0.2-0.1-0.3-0.3-0.4-0.5c0-0.2,0-0.4,0.1-0.5l25.5-37&#10;&#9;&#9;c0.2-0.2,0.5-0.4,0.8-0.3l20.4,5.2c0.2,0.1,0.4,0.2,0.5,0.4c0.1,0.2,0.1,0.4-0.1,0.6l-27.1,42C214.2,297.4,214,297.5,213.8,297.5z&#10;&#9;&#9; M196,286.3l17.6,9.6l26.2-40.7l-19-4.8L196,286.3z"/>
	<path class="st0_reading-a-book-72" d="M136.6,307c0,0,18.6,30.8,33.4,36.4s56.6-37.4,56.6-37.4s5.1,2.4,10.4-4.6c3.2-4.3,5.8-9,7.6-14.1&#10;&#9;&#9;c0,0,2.7-5.5,1.7-9c-0.9-2.9-3.7,2.9-3.7,2.9s-4.7,7.3-7.5,6.6s-0.4-8.1-1.2-10.3s-5,5.6-5.9,8.9s-6.1,9.4-8.3,11.4&#10;&#9;&#9;s-35.4,24.5-38.3,24.3s-23-24.8-23-24.8L136.6,307z"/>
	<path class="st1_reading-a-book-72" d="M172.9,344.5c-1.1,0-2.1-0.2-3.2-0.5c-14.7-5.6-32.9-35.4-33.7-36.6c-0.1-0.2-0.1-0.4-0.1-0.6&#10;&#9;&#9;c0.1-0.2,0.2-0.3,0.4-0.4l21.8-9.6c0.3-0.1,0.6,0,0.8,0.2c9.7,11.8,20.7,24.2,22.5,24.5c2.8,0,34.9-21.6,37.8-24.2&#10;&#9;&#9;c2.2-2,7.2-8,8.1-11c0.7-2.3,4-9.7,6.1-9.8c0.5,0,1,0.3,1.1,0.8c0.3,1.4,0.3,2.9,0.1,4.4c-0.2,2.2-0.5,5.2,0.7,5.5&#10;&#9;&#9;c1.6,0.4,4.9-3.4,6.7-6.3c0.7-1.5,2.2-4.1,3.6-4c0.4,0,1,0.3,1.3,1.3c1.1,3.6-1.6,9.2-1.7,9.5c-1.8,5.1-4.4,9.9-7.7,14.2&#10;&#9;&#9;c-4.7,6.2-9.3,5.4-10.8,5C222.8,310.8,189.1,344.5,172.9,344.5z M137.6,307.3c2.8,4.5,19.5,30.4,32.6,35.4&#10;&#9;&#9;c5.8,2.2,17.2-3.5,33.1-16.5c12.1-9.9,22.6-20.6,22.7-20.7c0.2-0.2,0.5-0.3,0.8-0.1c0.2,0.1,4.7,2,9.6-4.4&#10;&#9;&#9;c3.2-4.2,5.7-8.9,7.5-13.9c0.1-0.1,2.6-5.4,1.7-8.6c0-0.1-0.1-0.3-0.2-0.4c-0.9,1-1.7,2.1-2.2,3.3c-0.9,1.4-5.2,7.7-8.3,7&#10;&#9;&#9;c-2.3-0.6-2-4-1.8-7c0.2-1.2,0.2-2.4,0.1-3.5c-1.1,0.9-3.8,5.8-4.7,8.7c-1,3.5-6.2,9.6-8.5,11.7c-1.8,1.6-35,24.5-38.7,24.5h-0.1&#10;&#9;&#9;c-2.9-0.2-18-18.4-23.1-24.6L137.6,307.3z"/>
	<path class="st1_reading-a-book-72" d="M158.4,298.1c-0.3,0-0.5-0.2-0.6-0.4l-10.9-22.5c-0.2-0.3,0-0.8,0.3-0.9c0.3-0.2,0.8,0,0.9,0.3c0,0,0,0,0,0&#10;&#9;&#9;l10.9,22.5c0.2,0.3,0,0.8-0.3,0.9c0,0,0,0,0,0C158.6,298.1,158.5,298.1,158.4,298.1z"/>
	<path class="st1_reading-a-book-72" d="M136.6,307.7c-0.3,0-0.5-0.1-0.6-0.4c-0.1-0.3-13.5-27.9-16.2-31.3c-0.3-0.3-0.3-0.7,0-1c0.3-0.3,0.7-0.3,1,0&#10;&#9;&#9;c0,0,0.1,0.1,0.1,0.1c2.8,3.5,15.8,30.4,16.4,31.6c0.2,0.3,0,0.8-0.3,0.9c0,0,0,0,0,0C136.8,307.7,136.7,307.7,136.6,307.7z"/>
	<path class="st0_reading-a-book-72" d="M199.7,371.8c-0.4,0-0.7-0.3-0.7-0.7c0-0.3,0.2-0.6,0.5-0.7c16.3-5.3,40.8-40.7,41-41.1c0.2-0.3,0.7-0.3,1-0.1&#10;&#9;&#9;c0.3,0.2,0.3,0.6,0.2,0.9c-1,1.5-25,36.1-41.7,41.6C199.9,371.7,199.8,371.7,199.7,371.8z"/>
	<path class="st0_reading-a-book-72" d="M194.9,276.3c1.7-1.3,3.6-2.3,5.5-3.2c4.6-2,10.7-1.5,9.1,0.5s-11.9,6.3-11.9,6.3s0.9,4.7-4.5,6.8"/>
	<path class="st1_reading-a-book-72" d="M193.3,287.3c-0.4,0-0.7-0.4-0.6-0.8c0-0.2,0.2-0.5,0.4-0.6c4.8-1.8,4.1-5.9,4.1-6c-0.1-0.3,0.1-0.6,0.4-0.8&#10;&#9;&#9;c4.1-1.7,10.6-4.7,11.6-6.1c0,0,0.1-0.1,0.1-0.2c-0.4-0.6-4.6-0.9-8.4,0.8c-1.9,0.8-3.7,1.8-5.3,3c-0.3,0.3-0.7,0.3-1,0&#10;&#9;&#9;c0,0,0,0,0,0c-0.3-0.3-0.3-0.7,0-1c0,0,0,0,0,0c1.8-1.3,3.7-2.5,5.8-3.3c3.8-1.7,8.9-1.8,10.1-0.3c0.4,0.6,0.4,1.3-0.1,1.8&#10;&#9;&#9;c-1.4,1.9-9.4,5.4-11.7,6.3c0.1,1.4-0.3,5.2-5,7C193.4,287.3,193.3,287.3,193.3,287.3z"/>
</g>
</svg>