<svg id="_0016_files_and_folder" xmlns="http://www.w3.org/2000/svg" xmlns:xlink="http://www.w3.org/1999/xlink" viewBox="0 0 500 500" data-imageid="files-and-folder-16" imageName="Files and Folder" class="illustrations_image" style="width: 151px;"><defs><style>.cls-1_files-and-folder-16{fill:url(#linear-gradient);}.cls-1_files-and-folder-16,.cls-2_files-and-folder-16,.cls-3_files-and-folder-16,.cls-4_files-and-folder-16,.cls-5_files-and-folder-16,.cls-6_files-and-folder-16,.cls-7_files-and-folder-16,.cls-8_files-and-folder-16,.cls-9_files-and-folder-16,.cls-10_files-and-folder-16,.cls-11_files-and-folder-16,.cls-12_files-and-folder-16,.cls-13_files-and-folder-16,.cls-14_files-and-folder-16,.cls-15_files-and-folder-16,.cls-16_files-and-folder-16,.cls-17_files-and-folder-16,.cls-18_files-and-folder-16,.cls-19_files-and-folder-16,.cls-20_files-and-folder-16,.cls-21_files-and-folder-16,.cls-22_files-and-folder-16,.cls-23_files-and-folder-16,.cls-24_files-and-folder-16,.cls-25_files-and-folder-16,.cls-26_files-and-folder-16,.cls-27_files-and-folder-16,.cls-28_files-and-folder-16,.cls-29_files-and-folder-16,.cls-30_files-and-folder-16,.cls-31_files-and-folder-16,.cls-32_files-and-folder-16,.cls-33_files-and-folder-16,.cls-34_files-and-folder-16,.cls-35_files-and-folder-16,.cls-36_files-and-folder-16{stroke-width:0px;}.cls-2_files-and-folder-16{isolation:isolate;opacity:.18;}.cls-2_files-and-folder-16,.cls-36_files-and-folder-16{fill:#68e1fd;}.cls-3_files-and-folder-16{fill:url(#linear-gradient-29-files-and-folder-16);}.cls-4_files-and-folder-16{fill:url(#linear-gradient-30-files-and-folder-16);}.cls-5_files-and-folder-16{fill:url(#linear-gradient-31-files-and-folder-16);}.cls-6_files-and-folder-16{fill:url(#linear-gradient-28-files-and-folder-16);}.cls-7_files-and-folder-16{fill:url(#linear-gradient-25-files-and-folder-16);}.cls-8_files-and-folder-16{fill:url(#linear-gradient-11-files-and-folder-16);}.cls-9_files-and-folder-16{fill:url(#linear-gradient-12-files-and-folder-16);}.cls-10_files-and-folder-16{fill:url(#linear-gradient-13-files-and-folder-16);}.cls-11_files-and-folder-16{fill:url(#linear-gradient-10-files-and-folder-16);}.cls-12_files-and-folder-16{fill:url(#linear-gradient-17-files-and-folder-16);}.cls-13_files-and-folder-16{fill:url(#linear-gradient-16-files-and-folder-16);}.cls-14_files-and-folder-16{fill:url(#linear-gradient-19-files-and-folder-16);}.cls-15_files-and-folder-16{fill:url(#linear-gradient-15-files-and-folder-16);}.cls-16_files-and-folder-16{fill:url(#linear-gradient-23-files-and-folder-16);}.cls-17_files-and-folder-16{fill:url(#linear-gradient-21-files-and-folder-16);}.cls-18_files-and-folder-16{fill:url(#linear-gradient-18-files-and-folder-16);}.cls-19_files-and-folder-16{fill:url(#linear-gradient-14-files-and-folder-16);}.cls-20_files-and-folder-16{fill:url(#linear-gradient-22-files-and-folder-16);}.cls-21_files-and-folder-16{fill:url(#linear-gradient-20-files-and-folder-16);}.cls-22_files-and-folder-16{fill:url(#linear-gradient-27-files-and-folder-16);}.cls-23_files-and-folder-16{fill:url(#linear-gradient-24-files-and-folder-16);}.cls-24_files-and-folder-16{fill:url(#linear-gradient-26-files-and-folder-16);}.cls-25_files-and-folder-16{fill:url(#linear-gradient-4-files-and-folder-16);}.cls-26_files-and-folder-16{fill:url(#linear-gradient-2-files-and-folder-16);}.cls-27_files-and-folder-16{fill:url(#linear-gradient-3-files-and-folder-16);}.cls-28_files-and-folder-16{fill:url(#linear-gradient-8-files-and-folder-16);}.cls-29_files-and-folder-16{fill:url(#linear-gradient-9-files-and-folder-16);}.cls-30_files-and-folder-16{fill:url(#linear-gradient-7-files-and-folder-16);}.cls-31_files-and-folder-16{fill:url(#linear-gradient-5-files-and-folder-16);}.cls-32_files-and-folder-16{fill:url(#linear-gradient-6-files-and-folder-16);}.cls-33_files-and-folder-16{fill:#231f20;}.cls-34_files-and-folder-16{fill:#222a72;}.cls-35_files-and-folder-16{fill:#ffaa71;}</style><linearGradient id="linear-gradient-files-and-folder-16" x1="-170.87" y1="93.63" x2="33.4" y2="395.93" gradientTransform="translate(408.97 337.03) scale(1 -1)" gradientUnits="userSpaceOnUse"><stop offset=".03" stop-color="#fff"/><stop offset=".09" stop-color="#fff" stop-opacity=".84"/><stop offset=".18" stop-color="#fff" stop-opacity=".64"/><stop offset=".28" stop-color="#fff" stop-opacity=".47"/><stop offset=".37" stop-color="#fff" stop-opacity=".33"/><stop offset=".47" stop-color="#fff" stop-opacity=".21"/><stop offset=".58" stop-color="#fff" stop-opacity=".12"/><stop offset=".69" stop-color="#fff" stop-opacity=".05"/><stop offset=".82" stop-color="#fff" stop-opacity="0"/><stop offset=".98" stop-color="#fff" stop-opacity="0"/></linearGradient><linearGradient id="linear-gradient-2-files-and-folder-16" x1="2.66" y1="369.45" x2="-221.49" y2="35.62" gradientTransform="translate(408.97 337.03) scale(1 -1)" gradientUnits="userSpaceOnUse"><stop offset="0" stop-color="#000"/><stop offset=".1" stop-color="#000" stop-opacity=".77"/><stop offset=".97" stop-color="#000" stop-opacity="0"/></linearGradient><linearGradient id="linear-gradient-3-files-and-folder-16" x1="4.88" y1="73.58" x2="-505.11" y2="61.93" gradientTransform="translate(408.97 327.46) scale(1 -1)" xlink:href="#linear-gradient-2-files-and-folder-16"/><linearGradient id="linear-gradient-4-files-and-folder-16" x1="-147.61" y1="-491.32" x2="-249.63" y2="-735.09" gradientTransform="translate(408.97 912.5)" xlink:href="#linear-gradient-2-files-and-folder-16"/><linearGradient id="linear-gradient-5-files-and-folder-16" x1="-205.82" y1="221.35" x2="-209.93" y2="69.17" gradientTransform="translate(408.97 327.46) scale(1 -1)" xlink:href="#linear-gradient-files-and-folder-16"/><linearGradient id="linear-gradient-6-files-and-folder-16" x1="-226.4" y1="151.26" x2="-265.73" y2="148.34" gradientTransform="translate(408.97 327.46) scale(1 -1)" gradientUnits="userSpaceOnUse"><stop offset="0" stop-color="#fff"/><stop offset=".97" stop-color="#fff" stop-opacity="0"/></linearGradient><linearGradient id="linear-gradient-7-files-and-folder-16" x1="-208.58" y1="151.26" x2="-247.91" y2="148.34" xlink:href="#linear-gradient-6-files-and-folder-16"/><linearGradient id="linear-gradient-8-files-and-folder-16" x1="-190.77" y1="151.26" x2="-230.1" y2="148.34" xlink:href="#linear-gradient-6-files-and-folder-16"/><linearGradient id="linear-gradient-9-files-and-folder-16" x1="-172.95" y1="151.26" x2="-212.28" y2="148.34" xlink:href="#linear-gradient-6-files-and-folder-16"/><linearGradient id="linear-gradient-10-files-and-folder-16" x1="-155.13" y1="151.26" x2="-194.47" y2="148.35" xlink:href="#linear-gradient-6-files-and-folder-16"/><linearGradient id="linear-gradient-11-files-and-folder-16" x1="-137.32" y1="151.26" x2="-176.65" y2="148.34" xlink:href="#linear-gradient-6-files-and-folder-16"/><linearGradient id="linear-gradient-12-files-and-folder-16" x1="-119.5" y1="151.26" x2="-158.83" y2="148.35" xlink:href="#linear-gradient-6-files-and-folder-16"/><linearGradient id="linear-gradient-13-files-and-folder-16" x1="-101.68" y1="151.26" x2="-141.02" y2="148.35" xlink:href="#linear-gradient-6-files-and-folder-16"/><linearGradient id="linear-gradient-14-files-and-folder-16" x1="-46.11" y1="68.35" x2="-46.52" y2="100.45" gradientTransform="translate(408.97 327.46) scale(1 -1)" xlink:href="#linear-gradient-2-files-and-folder-16"/><linearGradient id="linear-gradient-15-files-and-folder-16" x1="-5.45" y1="45.19" x2="-3.78" y2="131.96" gradientTransform="translate(408.97 327.46) scale(1 -1)" xlink:href="#linear-gradient-2-files-and-folder-16"/><linearGradient id="linear-gradient-16-files-and-folder-16" x1="1.5" y1="138.96" x2="-39.39" y2="-119.67" xlink:href="#linear-gradient-files-and-folder-16"/><linearGradient id="linear-gradient-17-files-and-folder-16" x1="-5.76" y1="254.53" x2="25.63" y2="254.53" gradientTransform="translate(409 537.03) scale(1 -1)" xlink:href="#linear-gradient-2-files-and-folder-16"/><linearGradient id="linear-gradient-18-files-and-folder-16" x1="-74.49" y1="336.54" x2="-64.05" y2="277.58" gradientTransform="translate(409 537.03) scale(1 -1)" xlink:href="#linear-gradient-2-files-and-folder-16"/><linearGradient id="linear-gradient-19-files-and-folder-16" x1="-75.86" y1="-728.62" x2="-74.87" y2="-422.56" gradientTransform="translate(408.97 912.5)" xlink:href="#linear-gradient-6-files-and-folder-16"/><linearGradient id="linear-gradient-20-files-and-folder-16" x1="-57.98" y1="-713.11" x2="-56.98" y2="-407.06" gradientTransform="translate(408.97 912.5)" xlink:href="#linear-gradient-6-files-and-folder-16"/><linearGradient id="linear-gradient-21-files-and-folder-16" x1="-40.16" y1="-713.17" x2="-39.17" y2="-407.12" gradientTransform="translate(408.97 912.5)" xlink:href="#linear-gradient-6-files-and-folder-16"/><linearGradient id="linear-gradient-22-files-and-folder-16" x1="-22.34" y1="-713.22" x2="-21.35" y2="-407.17" gradientTransform="translate(408.97 912.5)" xlink:href="#linear-gradient-6-files-and-folder-16"/><linearGradient id="linear-gradient-23-files-and-folder-16" x1="-4.53" y1="-713.28" x2="-3.54" y2="-407.23" gradientTransform="translate(408.97 912.5)" xlink:href="#linear-gradient-6-files-and-folder-16"/><linearGradient id="linear-gradient-24-files-and-folder-16" x1="13.28" y1="-713.34" x2="14.27" y2="-407.29" gradientTransform="translate(408.97 912.5)" xlink:href="#linear-gradient-6-files-and-folder-16"/><linearGradient id="linear-gradient-25-files-and-folder-16" x1="31.1" y1="-713.4" x2="32.09" y2="-407.35" gradientTransform="translate(408.97 912.5)" xlink:href="#linear-gradient-6-files-and-folder-16"/><linearGradient id="linear-gradient-26-files-and-folder-16" x1="48.92" y1="-713.46" x2="49.91" y2="-407.4" gradientTransform="translate(408.97 912.5)" xlink:href="#linear-gradient-6-files-and-folder-16"/><linearGradient id="linear-gradient-27-files-and-folder-16" x1="11.25" y1="258.59" x2="3.19" y2="230.11" gradientTransform="translate(409 537.03) scale(1 -1)" xlink:href="#linear-gradient-2-files-and-folder-16"/><linearGradient id="linear-gradient-28-files-and-folder-16" x1="-27.02" y1="-7.76" x2="-74.77" y2="-156.37" xlink:href="#linear-gradient-2-files-and-folder-16"/><linearGradient id="linear-gradient-29-files-and-folder-16" x1="-3.41" y1=".97" x2="31.85" y2="-157.9" xlink:href="#linear-gradient-2-files-and-folder-16"/><linearGradient id="linear-gradient-30-files-and-folder-16" x1="-62.79" y1="-56.51" x2="-60.11" y2="-170.76" gradientTransform="translate(408.97 327.46) scale(1 -1)" xlink:href="#linear-gradient-2-files-and-folder-16"/><linearGradient id="linear-gradient-31-files-and-folder-16" x1="13.56" y1="-54.72" x2="16.24" y2="-168.97" gradientTransform="translate(408.97 327.46) scale(1 -1)" xlink:href="#linear-gradient-2-files-and-folder-16"/></defs><g id="background_files-and-folder-16"><path class="cls-2_files-and-folder-16 targetColor" d="M10.21,383.35c-1.21,1.01-2.48,2.09-2.94,3.59-.79,2.45.81,5.01,2.56,6.89,9.11,9.76,23.5,12.04,36.77,13.5,59.95,6.46,120.39,6.96,180.44,1.48-.49.37-.95.78-1.37,1.23-8.02,8.45-2.35,22.49,9.29,23.39,74.49,5.73,149.59-1.24,224.1-8.23,5.97-.59,10.75-11.25,15.72-14.59,4.98-3.35,8.05-10.32,5.08-15.52-3.96-6.92-15.63-6.85-18.51-14.29-2.84-7.31,5.26-13.91,7.99-21.26,3.58-9.67-3.12-20.71-12.22-25.55s-19.88-5.02-30.19-5.05c-116.28-.34-232.49,5.18-348.21,16.56-13.53,1.32-22.77,1.5-33.62,8.78-12.35,8.28-23.49,19.58-34.9,29.07Z" style="fill: rgb(144, 51, 43);"/></g><path id="shadow_files-and-folder-16" class="cls-2_files-and-folder-16 targetColor" d="M372.65,424.64c2.56-.51,5.38-1.03,7.68.21,1.18.63,2.11,1.66,3.33,2.18,2.26.96,4.82-.05,7.19-.69,9.03-2.42,18.5.88,27.83,1.32,8.86.42,17.65-1.76,26.23-3.94,2.24-.59,5.01-1.82,4.82-4.12-.28-3.29-5.78-2.94-7.59-5.69l15.65-8.23c1.76-.91,3.61-1.98,4.28-3.82.78-2.16-.51-4.63-2.43-5.88-1.92-1.25-4.3-1.52-6.59-1.58-10.75-.26-21.13,3.48-31.64,5.74-12.13,2.61-24.6,3.28-36.94,1.98-2.84-.31-5.72-.71-8.52-.22-7.12,1.25-13.05,7.38-19.24,10.78-5.01,2.75-10.31,4.89-15.6,6.99-5.88,2.35-17.19,4.42-21.12,9.58,5.33,2.45,14.19.38,19.94-.08,10.99-.87,21.92-2.38,32.74-4.54Z" style="fill: rgb(144, 51, 43);"/><g id="other_document_files-and-folder-16"><rect class="cls-36_files-and-folder-16 targetColor" x="160.48" y="100.88" width="241.03" height="158.07" style="fill: rgb(144, 51, 43);"/><rect class="cls-1_files-and-folder-16" x="160.48" y="100.88" width="241.03" height="158.07"/><polygon class="cls-26_files-and-folder-16" points="160.48 131.97 341.07 131.97 364.42 247.57 159.09 156.56 160.48 131.97"/></g><g id="document_folder_files-and-folder-16"><path class="cls-36_files-and-folder-16 targetColor" d="M345.13,209.78v132.8c0,5.85-4.74,10.59-10.59,10.59H49.34c-5.85,0-10.59-4.74-10.59-10.59v-167.25c0-5.85,4.74-10.59,10.59-10.59h74.86c6.28,0,11.5,4.84,11.99,11.1l.76,10c.58,7.54,6.87,13.36,14.43,13.36h183.18c5.14,0,9.54,3.71,10.42,8.78.1.59.15,1.2.15,1.8Z" style="fill: rgb(144, 51, 43);"/><path class="cls-27_files-and-folder-16" d="M345.13,209.78v132.8c0,5.85-4.74,10.59-10.59,10.59H49.34c-5.85,0-10.59-4.74-10.59-10.59v-167.25c0-5.85,4.74-10.59,10.59-10.59h74.86c6.28,0,11.5,4.84,11.99,11.1l.76,10c.58,7.54,6.87,13.36,14.43,13.36h183.18c5.14,0,9.54,3.71,10.42,8.78.1.59.15,1.2.15,1.8Z"/><path class="cls-34_files-and-folder-16" d="M155.54,199.2h-4.16c-7.56,0-13.85-5.82-14.43-13.36l-.76-10c-.06-.8-.2-1.58-.41-2.35h5.88c6.28,0,11.51,4.83,11.99,11.1l.76,10c.12,1.59.5,3.15,1.13,4.62Z"/><path class="cls-36_files-and-folder-16 targetColor" d="M345.13,209.78v132.8c0,5.85-4.74,10.59-10.59,10.59H56.39c-.1-.59-.15-1.19-.15-1.79v-167.3c0-5.85,4.74-10.59,10.59-10.59h68.95c.22.77.35,1.56.41,2.35l.76,10c.58,7.54,6.87,13.36,14.43,13.36h4.16c2.28,5.32,7.51,8.77,13.3,8.78h176.13c.1.59.15,1.2.15,1.8Z" style="fill: rgb(144, 51, 43);"/><path class="cls-25_files-and-folder-16" d="M345.13,205.39v132.78c0,5.85-4.74,10.59-10.59,10.59H56.39c-.1-.59-.15-1.19-.15-1.79v-167.27c0-5.85,4.74-10.59,10.59-10.59h68.95c.21.77.35,1.56.41,2.35l.76,10c.58,7.54,6.86,13.37,14.43,13.37h4.16c2.28,5.32,7.51,8.77,13.3,8.78h176.13c.1.59.15,1.18.15,1.78Z"/><path class="cls-36_files-and-folder-16 targetColor" d="M330.29,135.68v63.53h-178.92c-7.56,0-13.85-5.83-14.43-13.37l-.76-10c-.48-6.26-5.7-11.1-11.99-11.1h-51.51v-29.06h257.6Z" style="fill: rgb(144, 51, 43);"/><path class="cls-31_files-and-folder-16" d="M330.29,135.68v63.53h-178.92c-7.56,0-13.85-5.83-14.43-13.37l-.76-10c-.48-6.26-5.7-11.1-11.99-11.1h-51.51v-29.06h257.6Z"/><path class="cls-32_files-and-folder-16" d="M159.23,158.64v40.59h-3.69v-40.59c0-1.02.82-1.84,1.84-1.85h0c1.01,0,1.84.8,1.85,1.81h0s.01.04.01.04Z"/><path class="cls-30_files-and-folder-16" d="M177.05,158.64v40.59h-3.69v-40.59c0-1.02.83-1.85,1.85-1.85,1.02,0,1.84.83,1.85,1.85Z"/><path class="cls-28_files-and-folder-16" d="M194.86,158.64v40.59h-3.7v-40.59c0-1.02.83-1.85,1.85-1.85,1.02,0,1.84.83,1.85,1.85h0Z"/><path class="cls-29_files-and-folder-16" d="M212.68,158.64v40.59h-3.69v-40.59c0-1.02.82-1.84,1.84-1.85h0c.49,0,.96.19,1.31.54.35.35.55.82.55,1.31Z"/><path class="cls-11_files-and-folder-16" d="M230.5,158.64v40.59h-3.69v-40.59c0-1.02.83-1.85,1.85-1.85,1.02,0,1.85.83,1.85,1.85h0Z"/><path class="cls-8_files-and-folder-16" d="M248.31,158.64v40.59h-3.69v-40.59c0-1.01.81-1.84,1.82-1.85,0,0,0,0,.01,0h0c.49,0,.96.19,1.31.54.35.35.55.82.55,1.31Z"/><path class="cls-9_files-and-folder-16" d="M266.13,158.64v40.59h-3.69v-40.59c0-1.02.83-1.85,1.85-1.85,1.02,0,1.85.83,1.85,1.85h0Z"/><path class="cls-10_files-and-folder-16" d="M283.95,158.64v40.59h-3.69v-40.59c0-1.02.83-1.85,1.85-1.85,1.02,0,1.85.83,1.85,1.85h0Z"/></g><g id="character_files-and-folder-16"><path class="cls-36_files-and-folder-16 targetColor" d="M367.62,239.04c-2.05,1.13-4.16,2.23-6.47,2.58-5.88.9-11.52-3.25-17.5-3.28-5.13.06-9.77,3.07-11.91,7.75,5.45.99,11.05.81,16.59.63l30.68-1.03c2.24-.08,4.76-.28,6.21-1.98.92-1.08,1.18-2.54,1.76-3.82.99-2.17,2.82-3.83,4.12-5.83,1.44-2.23,2.94-6.35,2.01-9.04-1.32-3.71-4.89.7-6.89,2.16-5.93,4.35-12.14,8.32-18.59,11.87Z" style="fill: rgb(144, 51, 43);"/><path class="cls-19_files-and-folder-16" d="M367.62,239.04c-2.05,1.13-4.16,2.23-6.47,2.58-5.88.9-11.52-3.25-17.5-3.28-5.13.06-9.77,3.07-11.91,7.75,5.45.99,11.05.81,16.59.63l30.68-1.03c2.24-.08,4.76-.28,6.21-1.98.92-1.08,1.18-2.54,1.76-3.82.99-2.17,2.82-3.83,4.12-5.83,1.44-2.23,2.94-6.35,2.01-9.04-1.32-3.71-4.89.7-6.89,2.16-5.93,4.35-12.14,8.32-18.59,11.87Z"/><path class="cls-35_files-and-folder-16" d="M395.89,170.35c0,1.68,1.18,3.14,1.5,4.79.45,2.17-.54,4.61.53,6.55,1.18,2.16,4.12,2.39,6.41,3.36,3.59,1.62,5.74,5.35,5.35,9.26-.12.45-.07.93.13,1.35.34.36.82.56,1.32.55l5.73.59c.66.13,1.35.07,1.98-.18.57-.38,1-.95,1.21-1.6,1.65-3.96,1.35-8.45,2.35-12.63,1.28-5.54,4.76-10.44,5.65-16.06.55-3.56.04-7.2-1.47-10.46-.94-2.02-2.35-3.94-4.38-4.86-1.44-.56-2.98-.84-4.53-.83-5.82-.28-13.82.4-15.42,7.32-.54,2.35-.16,4.19-1.7,6.26s-4.65,3.65-4.66,6.6Z"/><path class="cls-33_files-and-folder-16" d="M399.57,146.89c-.49,3.62,2.46,6.73,5.36,8.93,2.91,2.2,12.53,6.76,13.15,9.58s.42,5.75.22,8.63c.42,1.76,3.19-3.31,3.74-3.49,2.07-1.41,2.64.69,2.81,1.46.13.75.02,1.52-.32,2.2-.86,2.12-4.43,7.24-3.38,11.11,3.18.59,4.15-7.41,7.06-8.76,4.12-1.9,7.65-3.78,8.82-8.15,1.38-5.18,2.56-10.96.05-15.7-.38-.77-.92-1.44-1.58-1.98-.59-.44-1.26-.72-1.88-1.11-1.66-1.04-2.71-2.8-3.95-4.32-2.95-3.64-7.1-6.12-11.7-7-3.88-.73-8.65-.39-12.14,1.62-2.52,1.45-5.88,3.95-6.28,6.98Z"/><path class="cls-36_files-and-folder-16 targetColor" d="M429.18,259.55c1.41-2.85,2.67-5.77,3.76-8.75,4.15-11.89,3.13-24.89,1.86-37.43-.12-1.9-.45-3.78-.97-5.62-.78-2.15-1.85-4.18-3.18-6.03-1.84-2.79-3.76-5.54-5.76-8.23-.51-.68-1.09-1.41-1.92-1.61-.59-.09-1.2-.03-1.76.16l-4.83,1.23c-4.32,1.1-9,2.44-11.56,6.09-7.88,11.18-14.8,23.97-19.11,36.96-3.92,11.84-7.84,23.68-11.76,35.52-1.54,4.63-2.99,10.03-.35,14.12,3.12,4.82,10,5.03,15.72,4.71l10.18-.59c4.28-.24,9.01-.68,11.98-3.78.9-1.03,1.68-2.16,2.32-3.38,5.23-9.11,10.9-13.82,15.4-23.37Z" style="fill: rgb(144, 51, 43);"/><path class="cls-15_files-and-folder-16" d="M429.18,259.55c1.41-2.85,2.67-5.77,3.76-8.75,4.15-11.89,3.13-24.89,1.86-37.43-.12-1.9-.45-3.78-.97-5.62-.78-2.15-1.85-4.18-3.18-6.03-1.84-2.79-3.76-5.54-5.76-8.23-.51-.68-1.09-1.41-1.92-1.61-.59-.09-1.2-.03-1.76.16l-4.83,1.23c-4.32,1.1-9,2.44-11.56,6.09-7.88,11.18-14.8,23.97-19.11,36.96-3.92,11.84-7.84,23.68-11.76,35.52-1.54,4.63-2.99,10.03-.35,14.12,3.12,4.82,10,5.03,15.72,4.71l10.18-.59c4.28-.24,9.01-.68,11.98-3.78.9-1.03,1.68-2.16,2.32-3.38,5.23-9.11,10.9-13.82,15.4-23.37Z"/><rect class="cls-36_files-and-folder-16 targetColor" x="295.13" y="244.87" width="196.58" height="122" style="fill: rgb(144, 51, 43);"/><rect class="cls-13_files-and-folder-16" x="295.13" y="244.87" width="196.58" height="122"/><path class="cls-12_files-and-folder-16" d="M403.34,317.89c.88.28,1.81.37,2.73.27-.52,1.22,1.18,2.3,2.51,2.05s2.42-1.18,3.74-1.31c.71-.06,1.45.09,2.11-.16.58-.28,1.07-.74,1.38-1.3,1.44-2.13,2.35-4.57,3.2-6.98,1.98-5.49,3.42-11.22,5.95-16.47,8.82-18.34,9.79-45.04,9.65-49.21-1.5.05-6.04.2-7.52.46-.5.05-.97.23-1.38.51-.38.36-.66.82-.79,1.34-1.53,4.41-1.14,9.22-1.62,13.86-1.15,11.13-7.25,21.08-10.32,31.83-1.32,4.63-2.08,9.94-5.22,13.76-.73.89-1.99,1.76-2.48,2.78-.65,1.38.29,1.92.21,3.29-.04.54-2.84,5.06-2.16,5.28Z"/><path class="cls-18_files-and-folder-16" d="M337.51,253.48c1.56.21,3.14.08,4.63-.39,1.49-.47,3.04-.73,4.61-.76,1.28.05,2.81.35,3.63-.62,1.08-1.28-.18-3.56.96-4.79.28-.31.68-.49.96-.79.32-.28.38-.76.13-1.11-.2-.15-.45-.22-.7-.21-5.02-.27-10.06-.19-15.07.26-1.26.11-2.71.35-3.39,1.43-1.61,2.56,1.85,6.5,4.24,6.98Z"/><path class="cls-14_files-and-folder-16" d="M333.51,349.28h0c-1.02,0-1.84-.83-1.85-1.85v-81.13c0-1.02.83-1.84,1.85-1.85h0c1.02,0,1.84.82,1.85,1.84h0v81.17c-.02,1.01-.84,1.81-1.85,1.82Z"/><path class="cls-21_files-and-folder-16" d="M351.34,349.28h0c-1.02,0-1.84-.83-1.85-1.85v-81.13c0-1.02.83-1.84,1.85-1.85h0c1.02,0,1.84.82,1.85,1.84h0v81.17c-.02,1.01-.84,1.81-1.85,1.82Z"/><path class="cls-17_files-and-folder-16" d="M369.16,349.28h0c-1.02,0-1.84-.83-1.85-1.85v-81.13c0-1.02.83-1.84,1.85-1.85h0c1.02,0,1.84.82,1.85,1.84h0v81.17c-.02,1.01-.84,1.81-1.85,1.82Z"/><path class="cls-20_files-and-folder-16" d="M386.98,349.28h0c-1.02,0-1.84-.83-1.85-1.85v-81.13c0-1.02.83-1.84,1.85-1.85h0c1.02,0,1.84.82,1.85,1.84h0v81.17c-.02,1.01-.84,1.81-1.85,1.82Z"/><path class="cls-16_files-and-folder-16" d="M404.79,349.28h0c-1.02,0-1.84-.83-1.85-1.85h0v-81.13c0-1.02.82-1.84,1.84-1.85h0c1.02,0,1.84.83,1.85,1.85h0v81.13c0,1.01-.82,1.83-1.84,1.85Z"/><path class="cls-23_files-and-folder-16" d="M422.61,349.28h0c-1.02,0-1.84-.83-1.85-1.85h0v-81.13c0-1.02.82-1.84,1.84-1.85h0c1.02,0,1.84.83,1.85,1.85h0v81.13c0,1.01-.82,1.83-1.84,1.85Z"/><path class="cls-7_files-and-folder-16" d="M440.42,349.28h0c-1.02,0-1.84-.83-1.85-1.85h0v-81.13c0-1.02.82-1.84,1.84-1.85h0c1.02,0,1.84.83,1.85,1.85h0v81.13c0,1.01-.82,1.83-1.84,1.85Z"/><path class="cls-24_files-and-folder-16" d="M458.24,264.45h0c1.02,0,1.84.83,1.85,1.85v81.13c0,1.02-.83,1.84-1.85,1.85h0c-1.02,0-1.84-.83-1.85-1.85v-81.13c0-1.02.83-1.84,1.85-1.85Z"/><path class="cls-36_files-and-folder-16 targetColor" d="M410.56,235.87c-.64,16.08-1.87,32.11-3.69,48.1-.36,3.19-.74,6.47.13,9.56.35,1.27,1.18,4.86,2.02,5.88,1.18,1.49,2.61.21,4.49.41,2.81.3,3.85,1.9,5.49-.4,1.64-2.3,4.02-8.43,4.71-11.18,5.14-21.62,6.56-43.95,4.21-66.04-.37-3.49-.86-7.06-2.46-10.19s-4.51-5.8-8.01-6.19c-5.41-.59-8.65,3.97-8.23,8.71.66,7.26,1.63,14,1.35,21.35Z" style="fill: rgb(144, 51, 43);"/><path class="cls-35_files-and-folder-16" d="M334.44,243.3c-.59.28-1.09.71-1.45,1.25-.26.52-.41,1.09-.44,1.66-.26,2.21-.51,4.57.47,6.57.05.14.15.26.28.35.13.04.26.04.39,0,.47-.14.85-.47,1.05-.92.19-.44.31-.91.36-1.39.31-1.94.59-3.88.91-5.82-.38,1.31-.51,2.69-.38,4.05.13,1.37.71,2.66,1.65,3.66.15.18.36.31.59.38.59.11,1.01-.49,1.25-1.03.92-2.08,1.33-4.34,1.21-6.61-.28,2.23.14,4.48,1.18,6.47.09.19.22.37.38.52.32.2.69.29,1.06.26.36.05.72-.03,1.02-.22.2-.19.35-.44.41-.71.64-1.94.89-3.98.72-6.02.17,2.2.62,4.38,1.33,6.47.09.41.31.77.62,1.05.64.35,1.45.16,1.86-.45.38-.6.59-1.29.59-2.01.09-.93-.3-1.89-.04-2.79,2.86-9.66-13.16-5.8-15.03-4.73Z"/><path class="cls-35_files-and-folder-16" d="M403.16,307.84c-.97.44-2.12,1.24-1.85,2.27.21.8,1.21,1.12,2.03,1s1.56-.54,2.35-.68c.31-.09.65-.03.92.16.14.16.22.35.25.55.27,1.43-.49,2.84-1.38,4-.88,1.16-1.92,2.25-2.35,3.64,1.05.53,2.31-.11,3.15-.93s1.52-1.85,2.58-2.35l-2.71,4.82c-.25.44-.48,1.02-.16,1.4.44.51,1.25.05,1.72-.43,1.4-1.42,2.65-2.97,3.75-4.62-.82,1.66-1.34,3.45-1.52,5.29.82.09,1.4-.73,1.8-1.45l2.35-4.28c-.02,1.32-.35,2.62-.95,3.8,1.23-.26,1.82-1.63,2.22-2.82,1.11-3.27,2.22-6.63,2.08-10.09-.03-.75-.18-1.61-.81-2.02-.41-.22-.88-.32-1.34-.28-4.6-.06-7.95,1.09-12.13,3Z"/><path class="cls-36_files-and-folder-16 targetColor" d="M408.67,300.33c.08-.52.31-1,.66-1.39.51-.38,1.13-.59,1.76-.59l4.51-.52c1.12-.13,2.51-.14,3.12.82.28.54.37,1.16.27,1.76-.11,1.53-.39,3.03-.84,4.49-.12.38-7.59,1.14-8.27.97-2.57-.69-1.82-3.04-1.21-5.55Z" style="fill: rgb(144, 51, 43);"/><path class="cls-22_files-and-folder-16" d="M408.67,300.33c.08-.52.31-1,.66-1.39.51-.38,1.13-.59,1.76-.59l4.51-.52c1.12-.13,2.51-.14,3.12.82.28.54.37,1.16.27,1.76-.11,1.53-.39,3.03-.84,4.49-.12.38-7.59,1.14-8.27.97-2.57-.69-1.82-3.04-1.21-5.55Z"/><polygon class="cls-36_files-and-folder-16 targetColor" points="362.59 366.88 348.86 413.08 361.27 413.08 387.12 366.88 362.59 366.88" style="fill: rgb(144, 51, 43);"/><polygon class="cls-36_files-and-folder-16 targetColor" points="422.93 366.88 436.66 413.08 424.25 413.08 398.4 366.88 422.93 366.88" style="fill: rgb(144, 51, 43);"/><path class="cls-36_files-and-folder-16 targetColor" d="M360.59,422.83c-1.18.3-2.42.59-3.58.24s-2.12-1.62-1.68-2.8c-2.8.74-5.39,2.14-8.19,2.88-4.59,1.21-9.41.59-14.12-.07.82-3.26,2.97-6.03,5.92-7.65,2.94-1.58,6.36-1.86,9.68-2.11l6.37-.48c1.28-.09,4.04-.87,5.15.04s1.2,9.74.46,9.95Z" style="fill: rgb(144, 51, 43);"/><path class="cls-36_files-and-folder-16 targetColor" d="M437.03,422.83c-1.18.3-2.43.59-3.59.24s-2.14-1.62-1.71-2.8c-2.81.74-5.4,2.14-8.2,2.88-4.59,1.21-9.41.59-14.12-.07.82-3.26,2.97-6.04,5.93-7.65,2.94-1.58,6.35-1.86,9.67-2.11l6.33-.47c1.28-.09,4.04-.87,5.15.04,1.11.91,1.22,9.73.53,9.94Z" style="fill: rgb(144, 51, 43);"/><polygon class="cls-6_files-and-folder-16" points="362.59 366.88 348.86 413.08 361.27 413.08 387.12 366.88 362.59 366.88"/><polygon class="cls-3_files-and-folder-16" points="422.93 366.88 436.66 413.08 424.25 413.08 398.4 366.88 422.93 366.88"/><path class="cls-4_files-and-folder-16" d="M360.59,422.83c-1.18.3-2.42.59-3.58.24s-2.12-1.62-1.68-2.8c-2.8.74-5.39,2.14-8.19,2.88-4.59,1.21-9.41.59-14.12-.07.82-3.26,2.97-6.03,5.92-7.65,2.94-1.58,6.36-1.86,9.68-2.11l6.37-.48c1.28-.09,4.04-.87,5.15.04s1.2,9.74.46,9.95Z"/><path class="cls-5_files-and-folder-16" d="M437.03,422.83c-1.18.3-2.43.59-3.59.24s-2.14-1.62-1.71-2.8c-2.81.74-5.4,2.14-8.2,2.88-4.59,1.21-9.41.59-14.12-.07.82-3.26,2.97-6.04,5.93-7.65,2.94-1.58,6.35-1.86,9.67-2.11l6.33-.47c1.28-.09,4.04-.87,5.15.04,1.11.91,1.22,9.73.53,9.94Z"/></g></svg>