<svg version="1.1" id="Layer_1" xmlns="http://www.w3.org/2000/svg" xmlns:xlink="http://www.w3.org/1999/xlink" x="0px" y="0px" viewBox="0 0 500 500" style="width: 166px;" xml:space="preserve" data-imageid="book-lover-85" imageName="Book Lover" class="illustrations_image">
<style type="text/css">
	.st0_book-lover-85{fill:#725858;}
	.st1_book-lover-85{fill:#093F68;}
	.st2_book-lover-85{fill:#FFBC0E;}
	.st3_book-lover-85{fill:#FFC9B0;}
	.st4_book-lover-85{fill:#F56132;}
	.st5_book-lover-85{fill:#FFFFFF;}
	.st6_book-lover-85{fill:#68E1FD;}
	.st7_book-lover-85{fill:none;}
	.st8_book-lover-85{fill:#70CC40;}
</style>
<g id="character_book-lover-85">
	<path class="st0_book-lover-85" d="M174.7,225.6c0,0-10.1-57.8,0-95.1c6.5-24,30.9-45.3,47.9-37c0,0,35-27.7,76.2-4.8&#10;&#9;&#9;c50.9,28.3,28.1,136.4,28.1,136.4L174.7,225.6z"/>
	<path class="st1_book-lover-85" d="M174.7,227.4c-0.9,0-1.6-0.6-1.8-1.5c-0.4-2.4-10.1-58.6,0-95.9c4.3-15.9,16.7-31.3,30-37.4&#10;&#9;&#9;c7-3.2,13.7-3.6,19.5-1.2c5.9-4.2,39.2-25.5,77.3-4.3c21.4,11.9,33.2,39.7,34.1,80.4c0.3,19.5-1.4,38.9-5.1,58&#10;&#9;&#9;c-0.2,0.8-0.9,1.4-1.8,1.4L174.7,227.4L174.7,227.4z M214.6,93.5c-3.5,0.1-7,0.9-10.1,2.4c-12.4,5.7-23.9,20.1-28,35&#10;&#9;&#9;c-9,33.2-1.7,83.5-0.2,92.8l149.2-0.5c2.4-12.9,18.5-107.5-27.5-133c-39.6-22-73.8,4.4-74.1,4.6c-0.5,0.4-1.3,0.5-1.9,0.2&#10;&#9;&#9;C219.6,94,217.1,93.5,214.6,93.5z"/>
	<rect x="196.2" y="322.6" class="st2_book-lover-85" width="101.1" height="72.5"/>
	<path class="st1_book-lover-85" d="M297.3,397H196.2c-1,0-1.8-0.8-1.8-1.8v-72.6c0-1,0.8-1.8,1.8-1.8h101.1c1,0,1.8,0.8,1.8,1.8v72.5&#10;&#9;&#9;C299.2,396.1,298.4,397,297.3,397C297.3,397,297.3,397,297.3,397z M198.1,393.4h97.4v-68.9h-97.4V393.4z"/>
	<path class="st3_book-lover-85" d="M251.7,414.3c0,0-66.1,10.2-67.3,1.9s24.8-35.5,58.5-29.9L251.7,414.3z"/>
	<path class="st1_book-lover-85" d="M199.1,421.2c-7.1,0-12.7-0.6-15-2.3c-0.9-0.6-1.4-1.5-1.6-2.5c-0.5-3.7,2.7-9.4,8.5-15.1&#10;&#9;&#9;c10.8-10.5,30.1-20.5,52-16.9c0.7,0.1,1.2,0.6,1.4,1.2l8.9,28c0.2,0.5,0.1,1.1-0.2,1.5c-0.3,0.5-0.7,0.8-1.3,0.8&#10;&#9;&#9;C247.6,416.8,218.1,421.2,199.1,421.2z M233.9,387.4c-17,0-31.5,8.1-40.2,16.6c-5.3,5.2-7.8,9.9-7.5,12c1.5,2.4,22.6,3,63.1-3.1&#10;&#9;&#9;l-7.9-24.9C239,387.6,236.4,387.4,233.9,387.4z"/>
	<path class="st4_book-lover-85" d="M248.4,409.5l101.2-19.4c10.3-3.7,15.6-15.1,11.9-25.4c0,0,0,0,0,0l-0.4-1c-3.7-10.3-15.1-15.6-25.4-11.9&#10;&#9;&#9;c0,0,0,0,0,0l-107.3,23.3L248.4,409.5z"/>
	<path class="st1_book-lover-85" d="M248.4,411.3c-0.7,0-1.3-0.3-1.6-0.9l-20-34.5c-0.3-0.5-0.3-1.1-0.1-1.6c0.2-0.5,0.7-0.9,1.3-1L335.2,350&#10;&#9;&#9;c11.2-4,23.5,1.8,27.6,13l0.4,1c4.1,11.2-1.7,23.6-13,27.7c0,0,0,0,0,0l-0.3,0.1l-101.2,19.5C248.6,411.3,248.5,411.3,248.4,411.3z&#10;&#9;&#9; M231.2,376.3l18.1,31.2l99.8-19.2c9.3-3.4,14-13.7,10.7-23l-0.4-1c-3.4-9.3-13.7-14.2-23-10.8c-0.1,0-0.2,0-0.2,0.1L231.2,376.3z"/>
	<path class="st3_book-lover-85" d="M268.6,387.6c0,0,66.5,7.6,73,10.9c4.7,2.3-40.3,28.7-61,18.9c-10.7-5.1-20-9.3-20-9.3L268.6,387.6z"/>
	<path class="st1_book-lover-85" d="M291.5,421.2c-4,0.1-8.1-0.7-11.8-2.3c-10.5-5-19.9-9.2-20-9.3c-0.9-0.4-1.3-1.4-0.9-2.3l8-20.4&#10;&#9;&#9;c0.3-0.8,1.1-1.2,1.9-1.1c6.8,0.8,67,7.8,73.6,11c1.2,0.6,1.7,2,1.1,3.2c0,0.1-0.1,0.1-0.1,0.2&#10;&#9;&#9;C340.7,405.9,312.3,421.2,291.5,421.2z M262.9,407.1c3.1,1.4,10.4,4.8,18.4,8.6c7.2,3.4,18.9,2.4,33-2.7&#10;&#9;&#9;c12.5-4.6,22.2-10.7,25-13.4c-8.5-2.4-44.8-7.1-69.6-10L262.9,407.1z"/>
	<path class="st4_book-lover-85" d="M264.5,419.4l-107-26c-10.6-2.8-16.9-13.7-14.1-24.2l0.3-1.1c2.8-10.6,13.6-16.9,24.2-14.1c0,0,0.1,0,0.1,0&#10;&#9;&#9;l105.8,30.5L264.5,419.4z"/>
	<path class="st1_book-lover-85" d="M264.5,421.3c-0.1,0-0.3,0-0.4,0l-107-26c-11.6-3-18.5-14.9-15.4-26.4c0,0,0,0,0-0.1l0.3-1.1&#10;&#9;&#9;c3.1-11.6,14.9-18.4,26.5-15.4l105.8,30.5c1,0.3,1.5,1.3,1.3,2.2l-9.2,34.9C266,420.7,265.3,421.3,264.5,421.3z M162.9,355.2&#10;&#9;&#9;c-8.2,0-15.3,5.5-17.4,13.4l-0.3,1.1c-2.5,9.6,3.2,19.5,12.8,22l105.2,25.6l8.3-31.4l-104.1-30&#10;&#9;&#9;C165.9,355.4,164.4,355.2,162.9,355.2z"/>
	<path class="st2_book-lover-85" d="M221.7,238.9h62.4c14.5,0,26.3,11.8,26.3,26.3l0,0V331c0,7.9-6.4,14.2-14.2,14.2l0,0h-86.6&#10;&#9;&#9;c-7.9,0-14.2-6.4-14.2-14.2l0,0v-65.8C195.4,250.7,207.2,238.9,221.7,238.9z"/>
	<path class="st1_book-lover-85" d="M310.5,347H195.4c-1,0-1.8-0.8-1.8-1.8c0,0,0,0,0,0V261c0-13.2,10.7-23.9,23.9-23.9h70.9&#10;&#9;&#9;c13.2,0,23.9,10.7,23.9,23.9v84.1C312.3,346.1,311.5,347,310.5,347C310.5,347,310.5,347,310.5,347z M197.2,343.4h111.4V261&#10;&#9;&#9;c0-11.2-9.1-20.3-20.3-20.3h-70.9c-11.2,0-20.3,9.1-20.3,20.3L197.2,343.4z"/>
	<path class="st3_book-lover-85" d="M242.8,232.6h17.8l0,0v13.7c0,2.3-1.9,4.1-4.1,4.1l0,0h-9.5c-2.3,0-4.1-1.9-4.1-4.1L242.8,232.6L242.8,232.6z"/>
	<path class="st1_book-lover-85" d="M253,252.2h-2.7c-5.2,0-9.4-4.2-9.4-9.4v-10.2c0-1,0.8-1.8,1.8-1.8l0,0h17.8c1,0,1.8,0.8,1.8,1.8c0,0,0,0,0,0&#10;&#9;&#9;v10.2C262.4,248,258.2,252.2,253,252.2z M244.6,234.4v8.4c0,3.2,2.6,5.7,5.7,5.7h2.7c3.2,0,5.7-2.6,5.7-5.7v-8.4H244.6z"/>
	<ellipse class="st3_book-lover-85" cx="200.7" cy="186.3" rx="17.3" ry="14.9"/>
	<path class="st1_book-lover-85" d="M200.7,203.1c-10.6,0-19.1-7.5-19.1-16.8s8.6-16.7,19.1-16.7s19.1,7.5,19.1,16.7S211.3,203.1,200.7,203.1z&#10;&#9;&#9; M200.7,173.2c-8.5,0-15.5,5.9-15.5,13.1s6.9,13.1,15.5,13.1s15.5-5.9,15.5-13.1S209.3,173.2,200.7,173.2z"/>
	<ellipse class="st3_book-lover-85" cx="301.7" cy="186.3" rx="17.3" ry="14.9"/>
	<path class="st1_book-lover-85" d="M301.7,203.1c-10.6,0-19.1-7.5-19.1-16.8s8.6-16.7,19.1-16.7s19.1,7.5,19.1,16.7S312.2,203.1,301.7,203.1z&#10;&#9;&#9; M301.7,173.2c-8.5,0-15.5,5.9-15.5,13.1s7,13.1,15.5,13.1s15.5-5.9,15.5-13.1S310.2,173.2,301.7,173.2z"/>
	<path class="st3_book-lover-85" d="M251.7,234.9L251.7,234.9c-28.8,0-52.2-23.4-52.2-52.2c0,0,0,0,0,0v-24.2c0-12.6,19.1-36,31.7-36&#10;&#9;&#9;c0,0,26.9,40.1,72.7,24.7v35.5C303.9,211.5,280.5,234.9,251.7,234.9C251.7,234.9,251.7,234.9,251.7,234.9z"/>
	<path class="st1_book-lover-85" d="M251.7,236.8c-29.8-0.1-53.9-24.2-54-54v-24.2c0-13.4,19.7-37.8,33.5-37.8c0.6,0,1.2,0.3,1.5,0.8&#10;&#9;&#9;c1.1,1.6,26.7,38.8,70.6,24c1-0.3,2,0.2,2.3,1.2c0.1,0.2,0.1,0.4,0.1,0.6v35.5C305.7,212.6,281.5,236.7,251.7,236.8z M230.2,124.4&#10;&#9;&#9;c-10.3,1.2-29,21.1-29,34.1v24.2c-0.4,27.8,21.8,50.7,49.7,51.1c27.8,0.4,50.7-21.8,51.1-49.7c0-0.5,0-0.9,0-1.4v-33&#10;&#9;&#9;C260.6,162.1,234.5,130.2,230.2,124.4z"/>
	<circle class="st1_book-lover-85" cx="227.5" cy="175.1" r="4.8"/>
	<circle class="st1_book-lover-85" cx="277.4" cy="175.1" r="4.8"/>
	<path class="st5_book-lover-85" d="M270.7,198.4c0,10.5-8.5,19.1-19.1,19.1c-10.5,0-19.1-8.5-19.1-19.1H270.7z"/>
	<path class="st1_book-lover-85" d="M251.7,219.3c-11.5,0-20.9-9.4-20.9-20.9c0-1,0.8-1.8,1.8-1.8h38.1c1,0,1.8,0.8,1.8,1.8v0&#10;&#9;&#9;C272.5,210,263.2,219.3,251.7,219.3z M234.5,200.3c1,9.5,9.5,16.3,18.9,15.3c8.1-0.9,14.5-7.2,15.3-15.3H234.5z"/>
	<path class="st1_book-lover-85" d="M251.4,193.2c-1.6,0-3.2-0.1-4.8-0.4c-1-0.1-1.7-1.1-1.6-2.1c0.1-1,1.1-1.7,2.1-1.6c0.1,0,0.1,0,0.2,0&#10;&#9;&#9;c2.3,0.4,4.5,0.4,6.8,0.1c0.1-1.6-1.7-6.5-4.1-11c-0.5-0.9-0.2-2,0.6-2.5s2-0.2,2.5,0.6c0,0.1,0.1,0.1,0.1,0.2&#10;&#9;&#9;c1.7,3.3,5.5,11.3,4.1,14.5c-0.4,0.8-1.1,1.5-2,1.7C254.1,193.1,252.7,193.2,251.4,193.2z"/>
	<path class="st1_book-lover-85" d="M214.3,164c-2,0-3.7-1.6-3.7-3.6c0-2,1.6-3.7,3.7-3.7l0,0l23-0.3c2,0,3.6,1.6,3.7,3.6c0,2-1.6,3.7-3.6,3.7&#10;&#9;&#9;c0,0,0,0,0,0L214.3,164L214.3,164z"/>
	<path class="st1_book-lover-85" d="M291.1,163.6L291.1,163.6l-23.1-0.1c-2-0.1-3.6-1.8-3.5-3.8c0.1-1.9,1.6-3.4,3.5-3.5l0,0l23,0.1&#10;&#9;&#9;c2,0.1,3.6,1.8,3.5,3.8C294.4,162,292.9,163.5,291.1,163.6L291.1,163.6z"/>
	<polygon class="st5_book-lover-85" points="367.3,247.7 355.7,241.5 252.9,256.2 150.2,241.5 138.6,247.7 150.2,339 252.9,353.7 355.7,339 &#9;"/>
	<path class="st1_book-lover-85" d="M253,355.5h-0.3L150,340.8c-0.8-0.1-1.4-0.8-1.6-1.6l-11.6-91.3c-0.1-0.8,0.3-1.5,0.9-1.8l11.6-6.2&#10;&#9;&#9;c0.3-0.2,0.7-0.2,1.1-0.2L253,254.4l102.5-14.7c0.4-0.1,0.8,0,1.1,0.2l11.6,6.2c0.7,0.3,1.1,1.1,1,1.8l-11.6,91.3&#10;&#9;&#9;c-0.1,0.8-0.7,1.5-1.6,1.6l-102.8,14.7L253,355.5z M151.9,337.4L253,351.9l101-14.5l11.3-88.7l-10-5.3L253.2,258&#10;&#9;&#9;c-0.2,0-0.3,0-0.5,0l-102.1-14.6l-10,5.3L151.9,337.4z"/>
	<polygon class="st6_book-lover-85 targetColor" points="237.7,372.6 138.6,356.2 138.6,247.7 237.7,264 &#9;" style="fill: rgb(153, 51, 51);"/>
	<path class="st1_book-lover-85" d="M237.7,374.4h-0.3l-99-16.4c-0.9-0.2-1.5-0.9-1.5-1.8V247.7c0-1,0.8-1.8,1.8-1.8c0.1,0,0.2,0,0.3,0l99.1,16.4&#10;&#9;&#9;c0.9,0.1,1.5,0.9,1.5,1.8v108.5c0,0.5-0.2,1-0.6,1.4C238.5,374.3,238.1,374.4,237.7,374.4z M140.4,354.6l95.4,15.8V265.6&#10;&#9;&#9;l-95.4-15.8V354.6z"/>
	<polygon class="st6_book-lover-85 targetColor" points="367.3,356.2 268.2,372.6 268.2,264 367.3,247.7 &#9;" style="fill: rgb(153, 51, 51);"/>
	<path class="st1_book-lover-85" d="M268.2,374.4c-0.4,0-0.9-0.2-1.2-0.4c-0.4-0.3-0.7-0.9-0.6-1.4V264c0-0.9,0.6-1.7,1.5-1.8l99.1-16.4&#10;&#9;&#9;c0.5-0.1,1.1,0.1,1.5,0.4c0.4,0.3,0.6,0.9,0.6,1.4v108.5c0,0.9-0.6,1.7-1.5,1.8l-99.1,16.4C268.4,374.4,268.3,374.4,268.2,374.4z&#10;&#9;&#9; M270.1,265.6v104.8l95.4-15.8V249.8L270.1,265.6z M367.3,356.2L367.3,356.2z"/>
	<rect x="237.7" y="264" class="st6_book-lover-85 targetColor" width="30.6" height="108.5" style="fill: rgb(153, 51, 51);"/>
	<path class="st1_book-lover-85" d="M268.2,374.4h-30.6c-1,0-1.8-0.8-1.8-1.8V264c0-1,0.8-1.8,1.8-1.8h30.6c1,0,1.8,0.8,1.8,1.8c0,0,0,0,0,0v108.5&#10;&#9;&#9;C270.1,373.6,269.2,374.4,268.2,374.4C268.2,374.4,268.2,374.4,268.2,374.4z M239.5,370.7h26.9V265.9h-26.9L239.5,370.7z"/>
	<polygon class="st6_book-lover-85 targetColor" points="288.1,280.5 288.1,310.1 352.5,298.1 352.5,269.3 &#9;" style="fill: rgb(153, 51, 51);"/>
	<path class="st1_book-lover-85" d="M288.1,312c-0.4,0-0.8-0.1-1.2-0.4c-0.4-0.3-0.7-0.9-0.7-1.4v-29.7c0-0.9,0.6-1.6,1.5-1.8l64.4-11.2&#10;&#9;&#9;c0.5-0.1,1.1,0.1,1.5,0.4c0.4,0.3,0.6,0.9,0.6,1.4v28.8c0,0.9-0.6,1.6-1.5,1.8l-64.4,12L288.1,312z M290,282v25.9l60.8-11.3v-25.1&#10;&#9;&#9;L290,282z"/>
	<line class="st7_book-lover-85" x1="252.9" y1="256.2" x2="252.9" y2="264"/>
	<path class="st1_book-lover-85" d="M253,265.9c-1,0-1.8-0.8-1.8-1.8c0,0,0,0,0,0v-7.8c0-1,0.8-1.8,1.8-1.8s1.8,0.8,1.8,1.8v7.8&#10;&#9;&#9;C254.8,265.1,254,265.9,253,265.9C253,265.9,253,265.9,253,265.9z"/>
	<path class="st1_book-lover-85" d="M225.3,361.7c-0.1,0-0.2,0-0.3,0l-19.4-3.6c-1-0.1-1.7-1-1.6-2c0.1-1,1-1.7,2-1.6c0.1,0,0.2,0,0.2,0l19.4,3.6&#10;&#9;&#9;c1,0.2,1.6,1.2,1.4,2.2C226.9,361.1,226.2,361.7,225.3,361.7L225.3,361.7z"/>
	<path class="st3_book-lover-85" d="M129.8,332.8l17.7-2.7c1.2-0.2,2.3,0.6,2.5,1.8l0.8,5.4c0.2,1.2-0.6,2.3-1.8,2.5l-17.7,2.7&#10;&#9;&#9;c-1.2,0.2-2.3-0.6-2.5-1.8l-0.8-5.4C127.8,334.1,128.6,333,129.8,332.8z"/>
	<path class="st1_book-lover-85" d="M132.5,343.4c-2.9,0-5.3-2.1-5.7-4.9l-0.3-1.8c-0.5-3.2,1.7-6.1,4.8-6.6l14.1-2.1l0,0c3.2-0.5,6.1,1.7,6.6,4.8&#10;&#9;&#9;l0.3,1.8c0.5,3.2-1.7,6.1-4.8,6.6l-14.1,2.1C133.1,343.4,132.8,343.4,132.5,343.4z M146,331.6l-14,2.1c-1.2,0.2-2,1.3-1.8,2.4&#10;&#9;&#9;l0.3,1.8c0.2,1.2,1.3,2,2.4,1.8c0,0,0,0,0,0l14.1-2.1c1.2-0.2,2-1.3,1.8-2.4c0,0,0,0,0,0l-0.3-1.8&#10;&#9;&#9;C148.3,332.2,147.2,331.4,146,331.6L146,331.6z"/>
	<path class="st3_book-lover-85" d="M128,321.2l17.7-2.7c1.2-0.2,2.3,0.6,2.5,1.8l0.8,5.4c0.2,1.2-0.6,2.3-1.8,2.5l-17.7,2.7&#10;&#9;&#9;c-1.2,0.2-2.3-0.6-2.5-1.8l-0.8-5.4C126,322.5,126.8,321.4,128,321.2z"/>
	<path class="st1_book-lover-85" d="M130.8,331.9c-1.2,0-2.4-0.4-3.4-1.1c-1.2-0.9-2.1-2.3-2.3-3.8l-0.3-1.8c-0.5-3.1,1.7-6.1,4.8-6.6c0,0,0,0,0,0&#10;&#9;&#9;l14.1-2.1l0,0c3.2-0.5,6.1,1.7,6.6,4.8l0.3,1.8c0.5,3.2-1.7,6.1-4.8,6.6l-14.1,2.2C131.4,331.8,131.1,331.9,130.8,331.9z&#10;&#9;&#9; M144.3,320l-14.1,2.1c-0.6,0.1-1.1,0.4-1.4,0.9c-0.3,0.5-0.5,1-0.4,1.6l0.3,1.8c0.1,0.6,0.4,1.1,0.9,1.4c0.5,0.3,1,0.5,1.6,0.4&#10;&#9;&#9;l14.1-2.2c1.2-0.2,2-1.3,1.8-2.4l-0.3-1.8C146.5,320.6,145.4,319.8,144.3,320L144.3,320z"/>
	<path class="st3_book-lover-85" d="M126.3,309.1l17.6-2.7c1.2-0.2,2.3,0.6,2.5,1.8l0.8,5.4c0.2,1.2-0.6,2.3-1.8,2.5l-17.6,2.7&#10;&#9;&#9;c-1.2,0.2-2.3-0.6-2.5-1.8l-0.8-5.4C124.3,310.3,125.2,309.2,126.3,309.1z"/>
	<path class="st1_book-lover-85" d="M129,320.3c-2.9,0-5.3-2.1-5.7-4.9l-0.3-1.8c-0.5-3.1,1.7-6.1,4.8-6.6c0,0,0,0,0,0l14.1-2.2&#10;&#9;&#9;c3.2-0.5,6.1,1.7,6.6,4.8l0.3,1.8c0.5,3.2-1.7,6.1-4.8,6.6l-14.1,2.1C129.6,320.3,129.3,320.3,129,320.3z M142.8,308.4h-0.3l0,0&#10;&#9;&#9;l-14.1,2.1c-1.2,0.2-2,1.3-1.8,2.4c0,0,0,0,0,0l0.3,1.8c0.2,1.2,1.3,2,2.4,1.8l14.1-2.2c1.2-0.2,2-1.3,1.8-2.4c0,0,0,0,0,0&#10;&#9;&#9;l-0.3-1.8C144.8,309.2,143.9,308.4,142.8,308.4L142.8,308.4z M142.2,306.6L142.2,306.6z"/>
	<path class="st3_book-lover-85" d="M124.6,297.5l17.6-2.7c1.2-0.2,2.3,0.6,2.5,1.8l0.8,5.4c0.2,1.2-0.6,2.3-1.8,2.5l-17.6,2.7&#10;&#9;&#9;c-1.2,0.2-2.3-0.6-2.5-1.8l-0.8-5.4C122.6,298.8,123.4,297.7,124.6,297.5z"/>
	<path class="st1_book-lover-85" d="M127.2,308.7c-2.9,0-5.3-2.1-5.7-4.9l-0.3-1.8c-0.5-3.2,1.7-6.1,4.8-6.6l14.1-2.1l0,0c3.1-0.5,6.1,1.7,6.6,4.8&#10;&#9;&#9;c0,0,0,0,0,0l0.3,1.8c0.5,3.2-1.7,6.1-4.8,6.6l-14.1,2.1C127.8,308.7,127.5,308.7,127.2,308.7z M141.1,296.8c-0.1,0-0.2,0-0.3,0&#10;&#9;&#9;l0,0l-14.1,2.2c-1.2,0.2-2,1.3-1.8,2.4c0,0,0,0,0,0l0.3,1.8c0.2,1.2,1.3,2,2.4,1.8l14.1-2.1c1.2-0.2,2-1.3,1.8-2.4c0,0,0,0,0,0&#10;&#9;&#9;l-0.3-1.8c-0.1-0.6-0.4-1.1-0.8-1.4C141.9,297,141.5,296.8,141.1,296.8z M140.5,295L140.5,295z"/>
	<path class="st3_book-lover-85" d="M374.8,341.9l-17.6-2.7c-1.2-0.2-2-1.3-1.8-2.5l0.8-5.4c0.2-1.2,1.3-2,2.5-1.8l17.6,2.7c1.2,0.2,2,1.3,1.8,2.5&#10;&#9;&#9;l-0.8,5.4C377,341.2,375.9,342,374.8,341.9z"/>
	<path class="st1_book-lover-85" d="M373.6,343.4c-0.3,0-0.6,0-0.9-0.1l-14.1-2.1c-3.2-0.5-5.3-3.4-4.8-6.6l0.3-1.8c0.5-3.1,3.4-5.3,6.6-4.8l0,0&#10;&#9;&#9;l14.1,2.1c3.2,0.5,5.3,3.4,4.8,6.6l-0.3,1.8C378.9,341.4,376.5,343.4,373.6,343.4L373.6,343.4z M359.8,331.6&#10;&#9;&#9;c-1.1,0-1.9,0.8-2.1,1.8l-0.3,1.8c-0.2,1.2,0.6,2.2,1.8,2.4c0,0,0,0,0,0l14.1,2.1c0.6,0.1,1.1-0.1,1.6-0.4c0.5-0.3,0.8-0.8,0.8-1.4&#10;&#9;&#9;l0.3-1.8c0.2-1.2-0.6-2.2-1.8-2.4c0,0,0,0,0,0l-14.1-2.1C360,331.6,359.9,331.6,359.8,331.6z"/>
	<path class="st3_book-lover-85" d="M376.5,330.3l-17.6-2.7c-1.2-0.2-2-1.3-1.8-2.5l0.8-5.4c0.2-1.2,1.3-2,2.5-1.8l17.6,2.7c1.2,0.2,2,1.3,1.8,2.5&#10;&#9;&#9;l-0.8,5.4C378.8,329.6,377.7,330.5,376.5,330.3z"/>
	<path class="st1_book-lover-85" d="M375.4,331.9c-0.3,0-0.6,0-0.9-0.1l-14.1-2.2c-3.2-0.5-5.3-3.4-4.8-6.6l0.3-1.8c0.5-3.1,3.4-5.3,6.6-4.8l0,0&#10;&#9;&#9;l14.1,2.1c3.2,0.5,5.3,3.4,4.8,6.6l-0.3,1.8C380.6,329.8,378.2,331.8,375.4,331.9z M361.6,320c-1,0-1.9,0.8-2.1,1.8l-0.3,1.8&#10;&#9;&#9;c-0.1,1.2,0.7,2.2,1.8,2.4l14.1,2.1c1.2,0.2,2.2-0.6,2.4-1.8l0.3-1.8c0.2-1.2-0.6-2.2-1.8-2.4l-14.1-2.1H361.6z"/>
	<path class="st3_book-lover-85" d="M378.3,318.7l-17.6-2.7c-1.2-0.2-2-1.3-1.8-2.5l0.8-5.4c0.2-1.2,1.3-2,2.5-1.8l17.6,2.7c1.2,0.2,2,1.3,1.8,2.5&#10;&#9;&#9;l-0.8,5.4C380.6,318.1,379.5,318.9,378.3,318.7z"/>
	<path class="st1_book-lover-85" d="M377.2,320.3c-0.3,0-0.6,0-0.9-0.1l-14.1-2.1c-3.2-0.5-5.3-3.4-4.8-6.6l0.3-1.8c0.2-1.5,1-2.9,2.3-3.8&#10;&#9;&#9;c1.2-0.9,2.8-1.3,4.3-1.1l14.1,2.2c3.1,0.5,5.3,3.4,4.8,6.6c0,0,0,0,0,0l-0.3,1.8C382.4,318.2,380,320.3,377.2,320.3L377.2,320.3z&#10;&#9;&#9; M363.3,308.4c-0.4,0-0.9,0.1-1.2,0.4c-0.5,0.3-0.8,0.8-0.8,1.4L361,312c-0.2,1.2,0.6,2.3,1.8,2.4l14.1,2.1&#10;&#9;&#9;c1.2,0.2,2.2-0.6,2.4-1.8c0,0,0,0,0,0l0.3-1.8c0.2-1.2-0.6-2.2-1.8-2.4c0,0,0,0,0,0l-14.1-2.1l0,0L363.3,308.4z"/>
	<path class="st3_book-lover-85" d="M380.1,307.1l-17.6-2.7c-1.2-0.2-2-1.3-1.8-2.5l0.8-5.4c0.2-1.2,1.3-2,2.5-1.8l17.6,2.7c1.2,0.2,2,1.3,1.8,2.5&#10;&#9;&#9;l-0.8,5.4C382.3,306.5,381.2,307.3,380.1,307.1z"/>
	<path class="st1_book-lover-85" d="M378.9,308.7c-0.3,0-0.6,0-0.9-0.1l-14-2.1c-3.1-0.5-5.3-3.4-4.8-6.6l0.3-1.8c0.5-3.2,3.4-5.3,6.6-4.8&#10;&#9;&#9;c0,0,0,0,0,0l14.1,2.1c3.1,0.5,5.3,3.5,4.8,6.6l-0.3,1.8C384.2,306.6,381.8,308.7,378.9,308.7z M365.1,296.8&#10;&#9;&#9;c-0.5,0-0.9,0.2-1.2,0.4c-0.5,0.3-0.8,0.8-0.8,1.4l-0.3,1.8c-0.2,1.2,0.6,2.2,1.8,2.4l14.1,2.1c1.2,0.2,2.2-0.6,2.4-1.8l0.3-1.8&#10;&#9;&#9;c0.2-1.2-0.6-2.2-1.8-2.4c0,0,0,0,0,0l-14.1-2.1l0,0C365.3,296.8,365.2,296.8,365.1,296.8L365.1,296.8z"/>
</g>
<g id="speech_book-lover-85">
	<path class="st5_book-lover-85" d="M134.9,137.8H95c-11,0-20,9-20,20v15.8c0,11,9,20,20,20h26.1l13.2,18.7v-18.6h0.6c11,0,20-9,20-20v-15.8&#10;&#9;&#9;C154.9,146.9,146,137.9,134.9,137.8C134.9,137.8,134.9,137.8,134.9,137.8z"/>
	<path class="st1_book-lover-85" d="M134.3,214.2c-0.6,0-1.2-0.3-1.5-0.8l-12.6-17.9H95c-12.1,0-21.9-9.8-21.9-21.9v-15.8&#10;&#9;&#9;c0-12.1,9.8-21.9,21.9-21.9h39.9c12.1,0,21.9,9.8,21.9,21.9v15.8c0,11.6-9.1,21.2-20.6,21.8v16.9c0,0.8-0.5,1.5-1.3,1.8&#10;&#9;&#9;C134.6,214.2,134.5,214.2,134.3,214.2z M95,139.7c-10.1,0-18.2,8.2-18.2,18.2v15.8c0,10.1,8.2,18.2,18.2,18.2h26.1&#10;&#9;&#9;c0.6,0,1.2,0.3,1.5,0.8l9.9,14v-12.9c0-1,0.8-1.8,1.8-1.8l0,0h0.6c10.1,0,18.2-8.2,18.2-18.2v-15.8c0-10.1-8.2-18.2-18.2-18.2&#10;&#9;&#9;L95,139.7z"/>
	<g id="sF2efm_book-lover-85">
		<path class="st4_book-lover-85" d="M114.9,181.7c-0.8-0.7-1.5-1.4-2.3-2.1l-6.5-5.7c-1.5-1.3-2.9-2.6-4.2-4c-1.2-1.2-2.2-2.7-2.8-4.3&#10;&#9;&#9;&#9;c-0.4-1.1-0.7-2.2-0.9-3.4c-0.1-1-0.2-2.1-0.2-3.1c0.1-3.5,2.4-6.7,5.7-7.8c3.3-1.2,7-0.3,9.5,2.3c0.6,0.6,1.2,1.3,1.6,2&#10;&#9;&#9;&#9;c0,0.1,0.1,0.1,0.1,0.1l0.1-0.2c1-1.6,2.3-2.9,4-3.8c1.5-0.8,3.1-1.1,4.7-0.9c4,0.3,7.2,3.2,7.9,7.1c0.2,1,0.2,2.1,0.1,3.1&#10;&#9;&#9;&#9;c-0.1,1.1-0.2,2.2-0.6,3.3c-0.5,1.6-1.3,3.2-2.4,4.5c-1.1,1.4-2.4,2.6-3.7,3.8c-2,1.8-4,3.5-6,5.2c-1.4,1.2-2.7,2.4-4,3.7&#10;&#9;&#9;&#9;L114.9,181.7z"/>
		<path class="st1_book-lover-85" d="M114.9,183.4c-0.4,0-0.9-0.1-1.2-0.4l-0.7-0.7l-1.5-1.4l-5.2-4.5l-1.4-1.2c-1.5-1.3-3-2.7-4.3-4.1&#10;&#9;&#9;&#9;c-1.3-1.4-2.4-3-3.2-4.8c-0.5-1.2-0.8-2.5-1-3.8c-0.2-1.1-0.2-2.3-0.2-3.4c0.1-4.3,2.9-8.1,7-9.4c4-1.4,8.4-0.4,11.3,2.7&#10;&#9;&#9;&#9;c0.2,0.1,0.3,0.3,0.4,0.5c0.9-1,2.1-1.9,3.3-2.6c3.8-1.9,8.4-1.4,11.7,1.3c1.9,1.6,3.1,3.8,3.5,6.2c0.2,1.2,0.2,2.4,0.1,3.6&#10;&#9;&#9;&#9;c-0.1,1.3-0.3,2.5-0.6,3.7c-0.6,1.9-1.5,3.6-2.8,5.1c-1.2,1.4-2.5,2.8-3.9,4l-2.7,2.4l-3.3,2.9c-0.9,0.8-1.8,1.7-2.8,2.5l-1.2,1.1&#10;&#9;&#9;&#9;C115.9,183.2,115.4,183.4,114.9,183.4z M106.9,152.6c-0.9,0-1.7,0.2-2.5,0.4c-2.6,0.9-4.4,3.4-4.5,6.1c0,0.9,0,1.9,0.1,2.8&#10;&#9;&#9;&#9;c0.1,1,0.4,2,0.8,2.9c0.6,1.4,1.4,2.6,2.5,3.7c1.3,1.3,2.6,2.6,4.1,3.8l1.4,1.2c1.7,1.5,3.4,3,5.2,4.5l1.1,1l0.1-0.1&#10;&#9;&#9;&#9;c0.9-0.9,1.9-1.7,2.8-2.6s2.2-1.9,3.3-2.9l2.7-2.4c1.3-1.1,2.4-2.3,3.5-3.6c0.9-1.1,1.7-2.4,2.1-3.8c0.3-0.9,0.4-1.9,0.5-2.9&#10;&#9;&#9;&#9;c0.1-0.9,0.1-1.8-0.1-2.7c-0.5-3.1-3.1-5.5-6.2-5.6c-1.3-0.1-2.6,0.1-3.8,0.7c-1.4,0.7-2.5,1.8-3.3,3.1c-0.3,0.6-0.9,0.9-1.6,0.9&#10;&#9;&#9;&#9;c-0.6,0.1-1.2-0.2-1.6-0.7l-0.1-0.2c-0.4-0.6-0.8-1.2-1.3-1.7C110.6,153.5,108.8,152.6,106.9,152.6L106.9,152.6z"/>
	</g>
</g>
<g id="plant_book-lover-85">
	<path class="st8_book-lover-85" d="M393.5,395c0,0-12.5-25.4-10.7-42.5c0,0,10,4.5,14.8,17.9c7.4,20.4,5.7,24.7,5.7,24.7L393.5,395z"/>
	<path class="st1_book-lover-85" d="M403.3,396.9L403.3,396.9h-9.8c-0.7,0-1.3-0.4-1.6-1c-0.5-1.1-12.7-26.1-10.9-43.5c0.1-0.6,0.4-1.1,0.9-1.4&#10;&#9;&#9;c0.5-0.3,1.1-0.3,1.7-0.1c0.4,0.2,10.8,5,15.8,19c7.2,20.1,6,25.1,5.6,26C404.7,396.5,404.1,396.9,403.3,396.9z M394.7,393.2h7&#10;&#9;&#9;c0-2.3-0.8-8.4-5.8-22.2c-2.1-6.2-6.1-11.6-11.5-15.4C384.4,369.9,392.6,388.7,394.7,393.2L394.7,393.2z"/>
	<path class="st8_book-lover-85" d="M399.5,393.8c0,0-9.4-36.2,4.1-60.4c0,0,7.7,8.9,9.6,30.3c1,10.2-1,20.5-5.6,29.6L399.5,393.8z"/>
	<path class="st1_book-lover-85" d="M399.5,395.6c-0.8,0-1.6-0.6-1.8-1.4c-0.4-1.5-9.4-37.2,4.3-61.8c0.5-0.9,1.6-1.2,2.5-0.7&#10;&#9;&#9;c0.2,0.1,0.4,0.2,0.5,0.4c0.3,0.4,8.1,9.5,10,31.3c1.5,17.8-5.5,30.2-5.8,30.7c-0.3,0.5-0.9,0.9-1.5,0.9l-8.1,0.5H399.5z&#10;&#9;&#9; M403.8,336.9c-9.6,20.5-4.4,48.3-2.9,54.9l5.5-0.4c4.1-8.6,5.8-18.2,4.9-27.7C410.1,349.4,406,340.8,403.8,336.9z"/>
	<path class="st8_book-lover-85" d="M403.5,392.7c0,0,2.9-24.2,22.4-39.9c0,0,5.8,18-10.4,42.1L403.5,392.7z"/>
	<path class="st1_book-lover-85" d="M415.5,396.6h-0.3l-12-2.1c-0.9-0.2-1.6-1-1.5-2c0.1-1,3.2-25.1,23.1-41.1c0.8-0.6,1.9-0.5,2.6,0.3&#10;&#9;&#9;c0.1,0.2,0.3,0.4,0.3,0.6c0.2,0.8,5.8,19.1-10.6,43.6C416.7,396.4,416.1,396.6,415.5,396.6z M405.6,391.2l9.1,1.6&#10;&#9;&#9;c11.1-17.1,10.8-30.9,10.1-36.6C410.9,368.8,406.6,385.8,405.6,391.2L405.6,391.2z"/>
	<polygon class="st5_book-lover-85" points="416.9,419.8 392.3,419.8 388.7,389.9 420.5,389.9 &#9;"/>
	<path class="st1_book-lover-85" d="M416.9,421.6h-24.6c-0.9,0-1.7-0.7-1.8-1.6l-3.6-29.9c-0.1-0.5,0.1-1,0.5-1.4c0.3-0.4,0.8-0.6,1.4-0.6h31.9&#10;&#9;&#9;c1,0,1.8,0.8,1.8,1.8c0,0.1,0,0.2,0,0.2l-3.6,29.9C418.6,420.9,417.8,421.6,416.9,421.6z M393.9,418h21.3l3.2-26.3h-27.7L393.9,418&#10;&#9;&#9;z"/>
</g>
</svg>