<svg version="1.1" id="Layer_1" xmlns="http://www.w3.org/2000/svg" xmlns:xlink="http://www.w3.org/1999/xlink" x="0px" y="0px" viewBox="0 0 500 500" style="width: 166px;" xml:space="preserve" data-imageid="marketing-campaign-78" imageName="Marketing Campaign" class="illustrations_image">
<style type="text/css">
	.st0_marketing-campaign-78{fill:#231F20;}
	.st1_marketing-campaign-78{fill:#FFFFFF;}
	.st2_marketing-campaign-78{fill:#D1D3D4;}
	.st3_marketing-campaign-78{fill:none;}
	.st4_marketing-campaign-78{fill:#68E1FD;}
</style>
<g id="Laptop_marketing-campaign-78">
	<polygon class="st0_marketing-campaign-78" points="104.2,300.2 104.2,309.3 215,411.6 443.5,333.3 443.5,324.4 &#9;"/>
	<path class="st0_marketing-campaign-78" d="M215,412.3c-0.2,0-0.3-0.1-0.5-0.2L103.7,309.8c-0.1-0.1-0.2-0.3-0.2-0.5v-9c0-0.2,0.1-0.4,0.2-0.5&#10;&#9;&#9;c0.1-0.1,0.3-0.2,0.5-0.2l339.3,24.2c0.4,0,0.7,0.3,0.6,0.7v8.9c0,0.3-0.2,0.6-0.5,0.7l-228.4,78.2&#10;&#9;&#9;C215.2,412.3,215.1,412.3,215,412.3z M104.8,309l110.4,101.8l227.6-77.9V325l-337.9-24V309z"/>
	<polygon class="st1_marketing-campaign-78" points="104.2,300.2 56.5,136.7 291.5,88.4 325,232.3 &#9;"/>
	<path class="st0_marketing-campaign-78" d="M104.2,300.9c-0.1,0-0.2,0-0.3-0.1c-0.2-0.1-0.3-0.2-0.3-0.4L55.9,136.9c-0.1-0.2,0-0.4,0.1-0.6&#10;&#9;&#9;c0.1-0.2,0.3-0.3,0.5-0.3l235-48.3c0.4-0.1,0.7,0.2,0.8,0.5c0,0,0,0,0,0l33.5,143.9c0.1,0.4-0.1,0.7-0.5,0.8l-220.9,67.9&#10;&#9;&#9;L104.2,300.9L104.2,300.9z M57.4,137.2l47.2,162.1l219.6-67.5L291,89.2L57.4,137.2L57.4,137.2z"/>
	<polygon class="st1_marketing-campaign-78" points="325,232.3 104.2,300.2 215.2,399.9 443.5,324.4 &#9;"/>
	<path class="st0_marketing-campaign-78" d="M215.2,400.6c-0.2,0-0.3-0.1-0.5-0.2l-111-99.7c-0.2-0.2-0.3-0.4-0.2-0.7c0.1-0.2,0.2-0.4,0.5-0.5l220.8-67.9&#10;&#9;&#9;c0.2-0.1,0.5,0,0.6,0.1l118.5,92.1c0.2,0.2,0.3,0.4,0.3,0.7c-0.1,0.3-0.2,0.5-0.5,0.5l-228.3,75.5&#10;&#9;&#9;C215.3,400.6,215.3,400.6,215.2,400.6L215.2,400.6z M105.5,300.5l109.8,98.6L442,324.1l-117.1-91.1L105.5,300.5L105.5,300.5z"/>
	<polygon class="st1_marketing-campaign-78" points="321.4,245.1 130.3,307.4 181.1,352.1 377.7,286.8 &#9;"/>
	<path class="st2_marketing-campaign-78" d="M181.1,352.8c-0.2,0-0.3-0.1-0.5-0.2l-50.8-44.7c-0.3-0.3-0.3-0.7-0.1-1c0.1-0.1,0.2-0.2,0.3-0.2l191.1-62.2&#10;&#9;&#9;c0.2-0.1,0.4,0,0.6,0.1l56.4,41.7c0.2,0.2,0.3,0.4,0.3,0.7c0,0.3-0.2,0.5-0.5,0.5l-196.6,65.3C181.3,352.7,181.2,352.7,181.1,352.8&#10;&#9;&#9;L181.1,352.8z M131.7,307.6l49.6,43.6l194.9-64.7l-55-40.6L131.7,307.6L131.7,307.6z"/>
	<polygon class="st1_marketing-campaign-78" points="334.7,311.7 261,334.5 294.3,360.5 366.9,336.1 &#9;"/>
	<path class="st2_marketing-campaign-78" d="M294.3,361.2c-0.2,0-0.3-0.1-0.4-0.1l-33.4-26c-0.2-0.2-0.3-0.4-0.3-0.7c0-0.3,0.2-0.5,0.5-0.5l73.8-22.8&#10;&#9;&#9;c0.2-0.1,0.4,0,0.6,0.1l32.1,24.4c0.2,0.2,0.3,0.4,0.3,0.7c0,0.3-0.2,0.5-0.5,0.5l-72.5,24.4C294.5,361.2,294.4,361.2,294.3,361.2z&#10;&#9;&#9; M262.5,334.8l32,25l70.9-23.9l-30.8-23.4L262.5,334.8L262.5,334.8z"/>
</g>
<g id="Screen_marketing-campaign-78">
	<polygon class="st1_marketing-campaign-78" points="111,286.8 68.6,145.6 283.1,99.8 313.9,227.3 &#9;"/>
	<path class="st0_marketing-campaign-78" d="M111,287.5c-0.3,0-0.6-0.2-0.7-0.5L67.9,145.8c-0.1-0.2,0-0.4,0.1-0.6c0.1-0.2,0.3-0.3,0.5-0.3L283,99.1&#10;&#9;&#9;c0.4-0.1,0.7,0.2,0.8,0.5l30.8,127.5c0.1,0.4-0.1,0.7-0.5,0.8l-202.9,59.5C111.1,287.5,111.1,287.5,111,287.5L111,287.5z&#10;&#9;&#9; M69.5,146.1l42,139.8l201.6-59.1l-30.5-126.2L69.5,146.1L69.5,146.1z"/>
	<line class="st3_marketing-campaign-78" x1="72.8" y1="159.7" x2="286.3" y2="112.9"/>
	<path class="st0_marketing-campaign-78" d="M72.8,160.4c-0.4,0-0.7-0.3-0.7-0.7c0-0.3,0.2-0.6,0.5-0.7l213.5-46.8c0.4-0.1,0.8,0.1,0.9,0.4&#10;&#9;&#9;c0.1,0.4-0.1,0.8-0.4,0.9c0,0-0.1,0-0.1,0L73,160.4L72.8,160.4L72.8,160.4z"/>
	<circle class="st4_marketing-campaign-78 targetColor" cx="82.8" cy="149.9" r="2.8" style="fill: rgb(153, 51, 51);"/>
	<circle class="st2_marketing-campaign-78" cx="92.9" cy="147.3" r="2.8"/>
	<circle class="st2_marketing-campaign-78" cx="102.6" cy="145.1" r="2.8"/>
	<path class="st2_marketing-campaign-78" d="M123.6,169.9l130.8-30.7c2.9-0.7,5.7,1.1,6.4,4l1,4.2c0.7,2.9-1.1,5.7-4,6.4l-130.8,30.7&#10;&#9;&#9;c-2.9,0.7-5.7-1.1-6.4-4l-1-4.2C119,173.5,120.8,170.6,123.6,169.9z"/>
</g>
<g id="Stars_marketing-campaign-78">
	<path class="st1_marketing-campaign-78" d="M279.9,213c0,0-60,23.6-116.6,9.6s-90.4-62.9-90.4-62.9l30.3,101.1c0,0,21.5,13.3,74.6,12.6&#10;&#9;&#9;c67.8-0.8,113.5-34.6,113.5-34.6l-15.5-26.5"/>
	<path class="st0_marketing-campaign-78" d="M174.3,274.2c-50.2,0-71.2-12.6-71.4-12.8c-0.1-0.1-0.3-0.2-0.3-0.4L72.2,159.9c-0.1-0.4,0.1-0.8,0.5-0.9&#10;&#9;&#9;c0.3-0.1,0.6,0,0.8,0.3c0.3,0.5,34.3,48.8,90,62.6c47.7,11.8,98.3-3.4,112.4-8.2l-0.6-1c-0.2-0.3-0.1-0.8,0.2-1&#10;&#9;&#9;c0.3-0.2,0.8-0.1,1,0.2l0.7,1.2c1.6-0.6,2.4-0.9,2.5-0.9c0.4-0.1,0.8,0,0.9,0.4s0,0.8-0.4,0.9c-0.1,0-0.9,0.3-2.3,0.8l14,24.1&#10;&#9;&#9;c0.2,0.3,0.1,0.7-0.2,0.9c-0.5,0.3-46.7,33.9-113.9,34.7L174.3,274.2L174.3,274.2z M103.8,260.4c2.4,1.4,24.5,13,74,12.4&#10;&#9;&#9;c63-0.7,107.4-30.4,112.6-34.1L276.5,215c-13.9,4.8-65.1,20.2-113.4,8.3c-47.9-11.8-79.8-48.9-88.4-60L103.8,260.4z"/>
	<path class="st2_marketing-campaign-78" d="M195,248.9c-21.6,0-46.4-3.6-69-15.5c-0.3-0.2-0.5-0.6-0.3-0.9c0.2-0.3,0.6-0.5,1-0.3l0,0&#10;&#9;&#9;c54.8,29,123.4,8,124.1,7.8c0.4-0.1,0.8,0.1,0.9,0.5c0.1,0.4-0.1,0.8-0.5,0.9c0,0,0,0,0,0C232.9,246.3,214,248.9,195,248.9z"/>
	<path class="st2_marketing-campaign-78" d="M182.9,262.2c-45.1,0-74.5-20.9-74.9-21.1c-0.3-0.2-0.4-0.7-0.2-1c0.2-0.3,0.7-0.4,1-0.2l0,0&#10;&#9;&#9;c0.4,0.3,41,29,99.8,18.6c0.4-0.1,0.7,0.2,0.8,0.5c0,0,0,0,0,0c0.1,0.4-0.2,0.7-0.6,0.8c0,0,0,0,0,0&#10;&#9;&#9;C200.3,261.4,191.6,262.2,182.9,262.2L182.9,262.2z"/>
	<path class="st2_marketing-campaign-78" d="M138.2,227.4c-0.1,0-0.2,0-0.3-0.1c-44.1-20-54.8-44.6-55-44.9c-0.2-0.4,0-0.8,0.4-0.9c0.4-0.2,0.8,0,0.9,0.4&#10;&#9;&#9;c0,0.1,2.6,6.1,10.6,14.6c7.3,7.8,20.9,19.3,43.6,29.6c0.4,0.2,0.5,0.6,0.4,0.9C138.7,227.2,138.5,227.4,138.2,227.4L138.2,227.4z"/>
	<path class="st2_marketing-campaign-78" d="M217,235.3c-0.4,0-0.7-0.3-0.7-0.7c0-0.4,0.3-0.7,0.7-0.7c0.2,0,24.5-0.1,35.6-5.4c0.4-0.2,0.8,0,0.9,0.3&#10;&#9;&#9;s0,0.8-0.3,0.9C241.9,235.3,218,235.3,217,235.3L217,235.3z"/>
	<polygon class="st1_marketing-campaign-78" points="264.9,216.7 283.6,245.7 299.9,240.2 276.6,204.2 &#9;"/>
	<path class="st0_marketing-campaign-78" d="M283.6,246.4c-0.2,0-0.5-0.1-0.6-0.3l-18.8-29c-0.2-0.3-0.1-0.6,0.1-0.9l11.7-12.5c0.1-0.2,0.4-0.2,0.6-0.2&#10;&#9;&#9;c0.2,0,0.4,0.1,0.5,0.3l23.2,36c0.2,0.3,0.1,0.8-0.3,1c0,0-0.1,0-0.1,0l-16.2,5.5C283.8,246.4,283.7,246.4,283.6,246.4L283.6,246.4&#10;&#9;&#9;z M265.8,216.8l18.1,28.1l14.8-5l-22.3-34.5L265.8,216.8L265.8,216.8z"/>
	<path class="st4_marketing-campaign-78 targetColor" d="M352.8,226.6c0,0,0.3,21.4-12.1,36.9s-50.9,23.2-50.9,23.2l12.1-47.1L352.8,226.6L352.8,226.6z" style="fill: rgb(153, 51, 51);"/>
	<path class="st0_marketing-campaign-78" d="M289.8,287.5c-0.2,0-0.4-0.1-0.5-0.2c-0.2-0.2-0.2-0.4-0.2-0.7l12.1-47.1c0.1-0.2,0.3-0.4,0.5-0.5l50.9-13&#10;&#9;&#9;c0.2,0,0.4,0,0.6,0.1c0.2,0.1,0.3,0.3,0.3,0.6c0,0.2,0.2,21.8-12.3,37.3s-49.7,23.2-51.3,23.5L289.8,287.5L289.8,287.5z&#10;&#9;&#9; M302.5,240.3l-11.8,45.6c6.4-1.4,38.4-9.1,49.4-22.8c10.7-13.4,11.9-31.4,12-35.5L302.5,240.3z"/>
	<path class="st4_marketing-campaign-78 targetColor" d="M310.3,160.8c0,0-19.3-9.1-38.6-4.1s-42.1,36.8-42.1,36.8l47.9,8.3L310.3,160.8L310.3,160.8z" style="fill: rgb(153, 51, 51);"/>
	<path class="st0_marketing-campaign-78" d="M277.5,202.5h-0.1l-47.9-8.3c-0.4-0.1-0.6-0.4-0.6-0.8c0-0.1,0.1-0.2,0.1-0.3c0.9-1.3,23.2-32.1,42.5-37.1&#10;&#9;&#9;s38.9,4.1,39.1,4.2c0.2,0.1,0.3,0.3,0.4,0.5c0.1,0.2,0,0.4-0.1,0.6l-32.9,41C277.9,202.5,277.7,202.6,277.5,202.5L277.5,202.5z&#10;&#9;&#9; M230.8,193l46.4,8l32-39.9c-3.9-1.6-20.7-8-37.3-3.7C254.9,161.7,234.7,187.7,230.8,193L230.8,193z"/>
	<path class="st4_marketing-campaign-78 targetColor" d="M266.9,200.7c13.2-19.3,36.4-41,65.6-59.8c44.3-28.6,83.1-19,96.2-14.4c2.9,1,4.8,3.9,4.5,7&#10;&#9;&#9;c-1.2,13.9-8.5,53.2-52.7,81.8c-29.2,18.9-58.5,31-81.5,35.1c0,0-8.7-5.1-19.9-22.4S266.9,200.7,266.9,200.7L266.9,200.7z" style="fill: rgb(153, 51, 51);"/>
	<path class="st0_marketing-campaign-78" d="M299,251.2c-0.1,0-0.2,0-0.4-0.1c-0.4-0.2-8.9-5.4-20.1-22.6s-12.3-27.2-12.4-27.6c0-0.2,0-0.3,0.1-0.5&#10;&#9;&#9;c13.7-20,37.7-41.9,65.8-60c44-28.4,82.4-19.6,96.8-14.4c3.2,1.1,5.3,4.3,5,7.8c-1.3,15.3-9,53.9-53,82.3&#10;&#9;&#9;c-28.1,18.1-57.9,31-81.8,35.3L299,251.2L299,251.2z M267.6,200.9c0.3,1.6,2.1,11.3,12.1,26.8s18,21.2,19.4,22.1&#10;&#9;&#9;c23.7-4.3,53.2-17,81-35c43.5-28.1,51.1-66.2,52.4-81.2c0.2-2.8-1.4-5.4-4.1-6.3c-14.3-5-52.1-13.8-95.6,14.3&#10;&#9;&#9;C305.1,159.5,281.3,181.1,267.6,200.9z"/>
	<path class="st1_marketing-campaign-78" d="M433.2,133.6c-1.7,17.2-7.8,33.7-17.6,48l-37.9-58.8c17-3.1,34.6-1.8,51,3.7&#10;&#9;&#9;C431.6,127.6,433.5,130.5,433.2,133.6z"/>
	<path class="st0_marketing-campaign-78" d="M415.7,182.3L415.7,182.3c-0.2,0-0.5-0.1-0.6-0.3l-38-58.8c-0.1-0.2-0.1-0.4,0-0.7c0.1-0.2,0.3-0.4,0.5-0.4&#10;&#9;&#9;c23.8-4.1,42.4,0.6,51.4,3.8c3.2,1.1,5.3,4.3,5,7.8l0,0c-0.8,9.5-4.2,28.4-17.7,48.4C416.1,182.2,415.9,182.3,415.7,182.3&#10;&#9;&#9;L415.7,182.3z M378.9,123.3l36.8,57c12.9-19.4,16.1-37.6,16.9-46.8c0.2-2.8-1.4-5.4-4.1-6.3C419.8,124.1,401.9,119.5,378.9,123.3&#10;&#9;&#9;L378.9,123.3z M433.3,133.6L433.3,133.6z"/>
	<circle class="st1_marketing-campaign-78" cx="362.8" cy="172" r="27"/>
	<path class="st0_marketing-campaign-78" d="M362.9,199.7c-15.3,0-27.7-12.4-27.7-27.7s12.4-27.7,27.7-27.7s27.7,12.4,27.7,27.7c0,9.4-4.8,18.2-12.7,23.3&#10;&#9;&#9;C373.4,198.1,368.2,199.7,362.9,199.7z M362.8,145.7c-14.6,0-26.4,11.8-26.4,26.4c0,14.6,11.8,26.4,26.4,26.4&#10;&#9;&#9;c14.6,0,26.4-11.8,26.4-26.4c0-12.4-8.7-23.1-20.8-25.8C366.5,145.9,364.7,145.7,362.8,145.7L362.8,145.7z"/>
	<circle class="st0_marketing-campaign-78" cx="362.8" cy="172" r="16.7"/>
	<path class="st0_marketing-campaign-78" d="M362.9,189.4c-9.6,0-17.4-7.8-17.4-17.3c0-9.6,7.8-17.4,17.3-17.4c9.6,0,17.4,7.8,17.4,17.3&#10;&#9;&#9;c0,5.9-3,11.4-8,14.6C369.5,188.4,366.2,189.3,362.9,189.4z M362.8,156c-3.1,0-6.1,0.9-8.6,2.6l0,0c-7.4,4.8-9.6,14.7-4.8,22.1&#10;&#9;&#9;c4.8,7.4,14.7,9.6,22.1,4.8c7.4-4.8,9.6-14.7,4.8-22.1C373.3,158.8,368.3,156,362.8,156L362.8,156z M353.8,158L353.8,158z"/>
	<path class="st1_marketing-campaign-78" d="M374,165.5c-0.3,0-0.5-0.1-0.6-0.4c-0.2-0.4-5.4-9.4-16.2-4.4c-0.3,0.2-0.8,0-0.9-0.3c-0.2-0.3,0-0.8,0.3-0.9&#10;&#9;&#9;c12-5.5,17.9,4.9,18,5c0.2,0.3,0.1,0.8-0.3,0.9C374.2,165.4,374.1,165.4,374,165.5L374,165.5z"/>
	<path class="st1_marketing-campaign-78" d="M375.9,171.3L375.9,171.3c-0.4,0-0.7-0.4-0.7-0.8c0-0.9-0.1-1.8-0.5-2.6c-0.2-0.3-0.1-0.8,0.3-1&#10;&#9;&#9;c0.3-0.2,0.8-0.1,1,0.3c0,0,0,0.1,0,0.1c0.5,1,0.7,2.1,0.6,3.3C376.5,171,376.2,171.3,375.9,171.3z"/>
	<path class="st1_marketing-campaign-78" d="M275.4,199.9c-0.2,0-0.3-0.1-0.4-0.1c-0.3-0.2-0.4-0.7-0.1-1c0,0,0,0,0,0c10-12,20.7-23.4,32-34.1&#10;&#9;&#9;c0.3-0.3,0.7-0.3,1,0c0.3,0.3,0.3,0.7,0,1c0,0,0,0,0,0c-11.3,10.7-21.9,22-31.9,34C275.8,199.7,275.6,199.8,275.4,199.9&#10;&#9;&#9;L275.4,199.9z"/>
	<path class="st4_marketing-campaign-78 targetColor" d="M306.8,219.1c-19.5,12.6-44.6,24.9-46.8,21.6s19.4-21.2,38.9-33.8s31.7-11.8,31.7-11.8&#10;&#9;&#9;S326.3,206.5,306.8,219.1L306.8,219.1z" style="fill: rgb(153, 51, 51);"/>
	<path class="st0_marketing-campaign-78" d="M261.6,241.8c-0.8,0.1-1.6-0.2-2.2-0.8c-0.5-0.7-1.9-3,11.5-14.4c8.8-7.4,18-14.2,27.7-20.4&#10;&#9;&#9;c19.5-12.6,31.6-11.9,32.1-11.9c0.2,0,0.4,0.1,0.5,0.3c0.1,0.2,0.1,0.4,0.1,0.6c-0.2,0.5-4.6,11.8-24.1,24.4l0,0&#10;&#9;&#9;C294.3,228,269.4,241.9,261.6,241.8L261.6,241.8z M329.6,195.8c-3.3,0.1-14.4,1.4-30.2,11.7c-9.6,6.2-18.8,13-27.5,20.3&#10;&#9;&#9;c-9.8,8.4-11.6,11.9-11.2,12.5c1.6,2.4,24.1-7.7,45.9-21.8C322.4,208.3,328.1,198.7,329.6,195.8L329.6,195.8z M306.9,219.1&#10;&#9;&#9;L306.9,219.1z"/>
</g>
<g id="Stars-2_marketing-campaign-78">
	<polygon class="st4_marketing-campaign-78 targetColor" points="186.3,210.2 182.8,206.6 177.8,207.3 180.3,202.9 178,198.4 183,199.4 186.6,195.8 187.2,200.8 &#10;&#9;&#9;191.6,203.1 187.1,205.3 &#9;" style="fill: rgb(153, 51, 51);"/>
	<polygon class="st4_marketing-campaign-78 targetColor" points="232.1,214.7 229.9,212.4 226.9,212.9 228.4,210.2 227,207.4 230,208 232.2,205.8 232.6,208.9 &#10;&#9;&#9;235.4,210.3 232.6,211.6 &#9;" style="fill: rgb(153, 51, 51);"/>
	<polygon class="st4_marketing-campaign-78 targetColor" points="211.3,301.2 204,296.9 196.3,300.5 198.1,292.2 192.3,286 200.8,285.1 204.9,277.7 208.3,285.5 &#10;&#9;&#9;216.6,287.1 210.3,292.7 &#9;" style="fill: rgb(153, 51, 51);"/>
	<polygon class="st4_marketing-campaign-78 targetColor" points="160.2,249 155.6,244.1 149,245.1 152.2,239.3 149.2,233.3 155.8,234.6 160.5,229.9 161.4,236.5 &#10;&#9;&#9;167.3,239.6 161.2,242.4 &#9;" style="fill: rgb(153, 51, 51);"/>
</g>
</svg>