<svg version="1.1" id="Layer_1" xmlns="http://www.w3.org/2000/svg" xmlns:xlink="http://www.w3.org/1999/xlink" x="0px" y="0px" viewBox="0 0 500 500" style="width: 166px;" xml:space="preserve" data-imageid="online-class-72" imageName="Online Class" class="illustrations_image">
<style type="text/css">
	.st0_online-class-72{fill:#FFFFFF;}
	.st1_online-class-72{fill:#231F20;}
	.st2_online-class-72{fill:#D1D3D4;}
	.st3_online-class-72{fill:#68E1FD;}
</style>
<g id="Desk_online-class-72">
	<polygon class="st0_online-class-72" points="37.6,380.2 37.6,396.6 382.6,396.6 427.4,339.6 427.4,320 &#9;"/>
	<path class="st1_online-class-72" d="M382.6,397.2h-345c-0.4,0-0.6-0.3-0.6-0.6l0,0v-16.4c0-0.3,0.2-0.6,0.5-0.6l389.8-60.2c0.2,0,0.4,0,0.5,0.1&#10;&#9;&#9;c0.1,0.1,0.2,0.3,0.2,0.5v19.7c0,0.1-0.1,0.3-0.1,0.4L383.1,397C383,397.2,382.8,397.2,382.6,397.2L382.6,397.2z M38.2,396h344.1&#10;&#9;&#9;l44.4-56.5v-18.7l-388.5,60L38.2,396L38.2,396z"/>
	<polygon class="st0_online-class-72" points="387.4,369 32.1,369 79.6,316.8 430.2,313.8 &#9;"/>
	<path class="st1_online-class-72" d="M387.4,369.6H32.1c-0.3,0-0.5-0.2-0.6-0.4c-0.1-0.2-0.1-0.5,0.1-0.7l47.5-52.2c0.1-0.1,0.3-0.2,0.5-0.2&#10;&#9;&#9;l350.5-3l0,0c0.4,0,0.6,0.3,0.6,0.7c0,0.1,0,0.2-0.1,0.3l-42.8,55.1C387.7,369.4,387.5,369.5,387.4,369.6L387.4,369.6z M33.6,368.3&#10;&#9;&#9;H387l41.8-53.8l-348.9,3L33.6,368.3z"/>
	<rect x="32.1" y="369" class="st0_online-class-72" width="355.2" height="11.2"/>
	<path class="st1_online-class-72" d="M387.4,380.8H32.1c-0.4,0-0.6-0.3-0.6-0.6l0,0v-11.2c0-0.4,0.3-0.6,0.6-0.6c0,0,0,0,0,0h355.2&#10;&#9;&#9;c0.4,0,0.6,0.3,0.6,0.6v0v11.2C388,380.5,387.7,380.8,387.4,380.8z M32.8,379.5h354v-10h-354V379.5z"/>
	<polygon class="st0_online-class-72" points="387.4,380.2 430.2,323.8 430.2,313.8 387.4,369 &#9;"/>
	<path class="st1_online-class-72" d="M387.4,380.8c-0.3,0-0.6-0.3-0.6-0.6c0,0,0,0,0,0v-11.2c0-0.1,0-0.3,0.1-0.4l42.8-55.1&#10;&#9;&#9;c0.2-0.2,0.5-0.3,0.7-0.2c0.3,0.1,0.4,0.3,0.4,0.6v9.9c0,0.1,0,0.3-0.1,0.4l-42.8,56.5C387.7,380.7,387.6,380.8,387.4,380.8&#10;&#9;&#9;L387.4,380.8z M388,369.2v9.1l41.5-54.8v-7.9L388,369.2L388,369.2z"/>
	<path class="st1_online-class-72" d="M382.6,397.2c-0.4,0-0.6-0.3-0.6-0.6v0v-16.4c0-0.4,0.3-0.6,0.6-0.6c0.4,0,0.6,0.3,0.6,0.6c0,0,0,0,0,0v16.4&#10;&#9;&#9;C383.3,396.9,383,397.2,382.6,397.2z"/>
</g>
<g id="Paper_online-class-72">
	<polygon class="st0_online-class-72" points="283.7,358.8 310.9,322.2 184.4,322.2 146.5,360.6 &#9;"/>
	<path class="st1_online-class-72" d="M146.5,361.3c-0.3,0-0.5-0.2-0.6-0.4c-0.1-0.3-0.1-0.6,0.1-0.8l37.9-38.4c0.1-0.1,0.3-0.2,0.5-0.2h126.5&#10;&#9;&#9;c0.3,0,0.5,0.2,0.6,0.4c0.1,0.2,0.1,0.5-0.1,0.7l-27.2,36.6c-0.1,0.2-0.3,0.3-0.5,0.3L146.5,361.3L146.5,361.3L146.5,361.3z&#10;&#9;&#9; M184.7,322.9l-36.5,37l135.1-1.8l26.2-35.2L184.7,322.9L184.7,322.9z M283.7,358.8L283.7,358.8z"/>
	<polygon class="st0_online-class-72" points="300,328 281.1,353 159.2,353 187.7,329 &#9;"/>
	<path class="st2_online-class-72" d="M281.1,353.7H159.2c-0.4,0-0.7-0.3-0.7-0.7c0-0.2,0.1-0.4,0.3-0.5l28.5-24c0.1-0.1,0.3-0.2,0.4-0.2l112.3-1.1&#10;&#9;&#9;c0.3,0,0.5,0.1,0.6,0.4c0.1,0.2,0.1,0.5-0.1,0.7l-18.9,25.1C281.6,353.6,281.4,353.7,281.1,353.7L281.1,353.7z M161.1,352.3h119.6&#10;&#9;&#9;l17.8-23.6l-110.6,1L161.1,352.3L161.1,352.3z"/>
</g>
<g id="Character_Male_online-class-72">
	<path class="st0_online-class-72" d="M110.9,228.2c-5.2,0-10.3-2.1-13.4-6.9c-2.1-3.2-2.9-7-3.5-10.7c-1.3-8.5-2.6-16.9-1.3-25.5&#10;&#9;&#9;c0.3-2.4,1-4.8,2.1-7c1.2-2.2,3.3-3.8,5.8-4.2c0.7-3.6,3.4-6.7,6.4-8.7c4.7-3.2,10.5-4.5,16.1-3.5c-1.2,0-2.3-0.3-3.3-0.9&#10;&#9;&#9;c-1-0.7-1.3-2-0.7-3c0.7-0.9,2-0.9,3.2-0.7c5.9,0.9,11.5,2.9,16.6,5.9c-0.3-2.1,1.9-3.8,4-3.7s3.9,1.3,5.6,2.6&#10;&#9;&#9;c2.8,2.1,5.6,4.5,7.4,7.6c2.1,3.7,1.8,9.5,0.3,13.4c-0.4,1.3-1.2,2.4-2.3,3.1c-0.8,0.6-1.9,0.8-2.7,1.4c-1.6,1.1-1.2,0.5-1.9,2.5&#10;&#9;&#9;c-1.5,4.4-2.3,8.6-4.7,12.8c-2.3,4-5,7.7-8,11.2c-4.4,5.5-10.1,9.8-16.5,12.5C117,227.6,114,228.2,110.9,228.2L110.9,228.2z"/>
	<path class="st1_online-class-72" d="M111.1,228.9h-0.2c-6,0-11-2.6-14-7.2c-2.2-3.4-3.1-7.4-3.6-11c-1.3-7.8-2.7-16.7-1.3-25.7&#10;&#9;&#9;c0.3-2.5,1-5,2.2-7.3c1.2-2.2,3.3-3.9,5.8-4.5c1.1-3.6,3.4-6.7,6.6-8.7c3.6-2.4,7.8-3.8,12.2-3.9c-0.3-0.4-0.5-0.9-0.6-1.5&#10;&#9;&#9;c-0.1-0.6,0-1.3,0.4-1.8c1-1.4,3.2-1.1,3.8-1c5.6,0.8,10.9,2.7,15.8,5.5c0.2-0.6,0.5-1.1,0.9-1.6c1-1.1,2.4-1.7,3.8-1.7&#10;&#9;&#9;c2.3,0.1,4.2,1.4,6,2.7c3.3,2.5,5.9,4.8,7.6,7.8c2.3,4,1.9,10,0.3,14c-0.4,1.4-1.4,2.6-2.6,3.4c-0.5,0.3-1,0.6-1.6,0.8&#10;&#9;&#9;c-0.4,0.2-0.8,0.4-1.2,0.6c-0.3,0.2-0.6,0.4-0.8,0.5c-0.3,0.2-0.5,0.5-0.6,0.9l-0.2,0.8c-0.4,1.3-0.8,2.6-1.2,3.8&#10;&#9;&#9;c-0.9,3.1-2.1,6.2-3.6,9c-2.4,4-5.1,7.8-8.1,11.3c-4.5,5.6-10.2,9.9-16.8,12.7C117.3,228.2,114.1,228.9,111.1,228.9L111.1,228.9z&#10;&#9;&#9; M119.3,162.1c-4.3,0-8.5,1.3-12,3.7c-3,1.9-5.2,4.8-6.1,8.3c-0.1,0.3-0.3,0.5-0.6,0.6c-2.2,0.4-4.2,1.8-5.2,3.8&#10;&#9;&#9;c-1.1,2.1-1.8,4.4-2,6.8c-1.3,8.8,0.1,17.5,1.3,25.2c0.5,3.4,1.4,7.3,3.4,10.4c2.7,4.2,7.3,6.5,12.9,6.5l0,0c3,0,6-0.6,8.8-1.7&#10;&#9;&#9;c6.4-2.7,11.9-6.9,16.2-12.3c3-3.5,5.6-7.2,7.9-11.1c1.5-2.8,2.6-5.7,3.4-8.8c0.4-1.3,0.8-2.6,1.2-3.9l0.2-0.7&#10;&#9;&#9;c0.1-0.7,0.5-1.3,1.2-1.6l0.7-0.5c0.4-0.3,0.9-0.5,1.4-0.7c0.4-0.2,0.9-0.4,1.3-0.6c1-0.7,1.7-1.7,2.1-2.8&#10;&#9;&#9;c1.4-3.6,1.8-9.2-0.2-12.8c-1.6-2.8-4-5-7.2-7.4c-1.6-1.2-3.3-2.4-5.2-2.4c-1,0-2,0.4-2.7,1.2c-0.4,0.5-0.7,1.1-0.6,1.7&#10;&#9;&#9;c0,0.3-0.1,0.5-0.3,0.7c-0.2,0.1-0.5,0.1-0.8,0c-5-3-10.5-5-16.3-5.9c-1.3-0.2-2.1,0-2.5,0.4c-0.2,0.2-0.2,0.5-0.2,0.8&#10;&#9;&#9;c0.1,0.5,0.4,0.9,0.8,1.2c0.4,0.3,0.8,0.4,1.2,0.5c0.6,0.1,1.2,0.1,1.8,0.2c0.4,0,0.7,0.4,0.6,0.8c0,0.4-0.4,0.7-0.8,0.6&#10;&#9;&#9;c-0.6,0-1.2-0.1-1.8-0.2C120.5,162.1,119.9,162.1,119.3,162.1L119.3,162.1z"/>
	<path class="st0_online-class-72" d="M153.1,203c0,0,8.2,12,6.5,14.5s-7.1,0.9-7.1,0.9"/>
	<path class="st1_online-class-72" d="M155.9,219.6c-1.2,0-2.5-0.2-3.7-0.5c-0.4-0.1-0.6-0.5-0.5-0.9c0.1-0.4,0.5-0.6,0.9-0.5&#10;&#9;&#9;c1.4,0.4,5.3,1.1,6.4-0.6c0.9-1.3-2.7-8.2-6.5-13.8c-0.2-0.3-0.1-0.8,0.2-1c0.3-0.2,0.8-0.1,1,0.2c2,2.9,8.3,12.6,6.5,15.3&#10;&#9;&#9;C159.3,219.2,157.5,219.6,155.9,219.6L155.9,219.6z"/>
	<path class="st0_online-class-72" d="M151.1,187c5.1,4.1,3.8,12.9,3.8,18.6c0,8-0.1,16.1-0.4,24.1c-0.2,5.1-13.4,5.4-15.8,3.9l2.5,13.4l-30.4-3.3&#10;&#9;&#9;v-15.5c0,0,12.2-1.5,17.3-11.9c5-10.4,4.8-30,4.8-30S146.1,183,151.1,187L151.1,187z"/>
	<path class="st1_online-class-72" d="M141.3,247.7L141.3,247.7l-30.4-3.3c-0.4,0-0.6-0.3-0.6-0.7v-15.6c0-0.4,0.3-0.7,0.6-0.7&#10;&#9;&#9;c0.1,0,11.9-1.6,16.7-11.5c4.9-10.2,4.8-29.5,4.8-29.6c0-0.3,0.2-0.6,0.5-0.7c0.6-0.1,13.5-3.4,18.8,0.8l0,0&#10;&#9;&#9;c4.6,3.6,4.3,10.5,4.1,16.1c0,1.1-0.1,2.1-0.1,3.1c0,8-0.1,16.1-0.4,24.1c0,1-0.6,2.5-2.8,3.6c-3.5,1.8-9.8,2-12.8,1.3l2.3,12.2&#10;&#9;&#9;c0,0.2,0,0.4-0.2,0.6C141.7,247.7,141.5,247.7,141.3,247.7L141.3,247.7z M111.6,243.1l28.8,3.1l-2.3-12.5c0-0.3,0.1-0.6,0.3-0.7&#10;&#9;&#9;c0.2-0.2,0.5-0.2,0.8,0c1.5,1,8.9,1.1,12.7-0.9c1.3-0.7,2-1.5,2-2.5c0.3-8,0.5-16.1,0.4-24.1c0-1,0-2,0.1-3.1&#10;&#9;&#9;c0.2-5.2,0.4-11.7-3.6-14.9l0,0c-4.1-3.3-14.5-1.2-17-0.7c0,3.3-0.3,20.1-4.9,29.7c-4.5,9.4-14.6,11.8-17.2,12.2L111.6,243.1&#10;&#9;&#9;L111.6,243.1z"/>
	<path class="st0_online-class-72" d="M137.7,208.3c-0.1-2-1.2-3.8-2.3-5.5c-0.8-1.3-1.8-2.6-3-3.6c-1.2-1.1-2.8-1.5-4.4-1.3&#10;&#9;&#9;c-1.4,0.4-2.5,1.3-3.1,2.5c-0.6,1.2-0.9,2.6-0.9,4c-0.2,6.2,2.9,11.9,8.2,15.2l-0.4-0.5"/>
	<path class="st1_online-class-72" d="M132.2,220.4c-0.1,0-0.3,0-0.4-0.1c-5.4-3.4-8.7-9.4-8.5-15.8c0-1.5,0.3-3,1-4.3c0.7-1.4,2-2.5,3.6-2.9&#10;&#9;&#9;c1.8-0.3,3.6,0.2,4.9,1.4c1.2,1.1,2.3,2.4,3.1,3.8c1.1,1.6,2.4,3.6,2.4,5.9c0,0.4-0.3,0.7-0.7,0.7c0,0,0,0,0,0&#10;&#9;&#9;c-0.4,0-0.7-0.3-0.7-0.7c-0.1-1.9-1.2-3.7-2.2-5.1c-0.8-1.3-1.7-2.4-2.8-3.4c-1-0.9-2.4-1.3-3.8-1.1c-1.2,0.3-2.1,1.1-2.7,2.2&#10;&#9;&#9;c-0.6,1.2-0.9,2.4-0.9,3.7c-0.2,5.5,2.4,10.8,6.9,14c0.2,0,0.4,0.1,0.6,0.2l0.4,0.5c0.3,0.3,0.3,0.7,0,1&#10;&#9;&#9;C132.5,220.3,132.3,220.4,132.2,220.4L132.2,220.4z"/>
	
		<ellipse transform="matrix(0.9976 -6.982913e-02 6.982913e-02 0.9976 -13.3703 11.0596)" class="st1_online-class-72" cx="151.5" cy="196.8" rx="1.1" ry="2.9"/>
	<path class="st0_online-class-72" d="M104.3,249.8l2.2-11l39,2.4l2.4,7.9C147.9,249.1,126.4,260.1,104.3,249.8L104.3,249.8z"/>
	<path class="st1_online-class-72" d="M124.5,254.9c-7.1,0-14.1-1.5-20.5-4.5c-0.3-0.1-0.5-0.5-0.4-0.8l2.2-11c0.1-0.3,0.4-0.6,0.7-0.6l39,2.4&#10;&#9;&#9;c0.3,0,0.5,0.2,0.6,0.5l2.4,7.9c0.1,0.3-0.1,0.7-0.4,0.8C140.8,253.1,132.7,254.9,124.5,254.9L124.5,254.9z M105.1,249.4&#10;&#9;&#9;c19.5,8.8,38.6,0.9,42-0.6l-2.1-6.9l-38-2.3L105.1,249.4z"/>
	<path class="st0_online-class-72" d="M154.7,223.4c0,0-2.2,4.2-9,0"/>
	<path class="st1_online-class-72" d="M151.1,225.9c-2.1-0.1-4-0.8-5.7-2c-0.3-0.2-0.5-0.6-0.3-1c0,0,0,0,0,0c0.2-0.3,0.6-0.5,0.9-0.3c0,0,0,0,0.1,0&#10;&#9;&#9;c2.4,1.5,4.5,2,6.1,1.6c0.8-0.2,1.5-0.7,1.9-1.4c0.2-0.3,0.6-0.5,0.9-0.3c0.3,0.2,0.5,0.6,0.3,0.9c-0.6,1-1.6,1.8-2.7,2.1&#10;&#9;&#9;C152.2,225.8,151.7,225.9,151.1,225.9L151.1,225.9z"/>
	<path class="st0_online-class-72" d="M249.6,346.8c4.9,1.2,11.2-3.6,13.8-7.2c0.3-0.6,0.9-1.1,1.5-1.5c0.4-0.1,0.9-0.2,1.3-0.2&#10;&#9;&#9;c2.8,0,5.5-0.3,8.2-0.9c2.6-0.5,5.5-1.6,6.5-4.1s-0.5-5.3-2.6-7.1c-4.6-3.9-11.4-3.7-17.3-4.8c-2.5-0.5-5-1.1-7.5-0.7&#10;&#9;&#9;s-4.2,2-5.7,3.9c-1.5,1.7-3.1,3.1-4.9,4.4c-2.7,2.1-5.3,4.2-7.9,6.4c4.2,3.5,8.4,8.4,13.1,11.2C248.5,346.5,249,346.7,249.6,346.8&#10;&#9;&#9;L249.6,346.8z"/>
	<path class="st1_online-class-72" d="M251.2,347.7c-0.6,0-1.2-0.1-1.8-0.2l0,0c-0.6-0.2-1.2-0.4-1.8-0.7c-3.2-2.1-6.2-4.6-8.9-7.3&#10;&#9;&#9;c-1.5-1.4-2.9-2.7-4.3-3.9c-0.2-0.1-0.3-0.3-0.2-0.5c0-0.2,0.1-0.4,0.2-0.5c2.6-2.2,5.3-4.3,7.9-6.4l1-0.8c1.4-1,2.7-2.1,3.8-3.5&#10;&#9;&#9;c1.4-2.1,3.6-3.6,6.2-4.2c2.1-0.2,4.3-0.1,6.4,0.5l1.3,0.3c1.4,0.3,2.9,0.4,4.3,0.6c4.7,0.6,9.6,1.2,13.3,4.3&#10;&#9;&#9;c2.2,1.8,3.9,5,2.8,7.9c-0.9,2.3-3.2,3.8-7,4.6c-2.7,0.6-5.5,0.9-8.4,0.9c-0.3,0-0.7,0-1,0.1c-0.4,0.3-0.8,0.6-1.1,1.1l-0.1,0.1&#10;&#9;&#9;C261.5,343.4,256.1,347.7,251.2,347.7L251.2,347.7z M249.8,346.1c4.4,1.1,10.5-3.4,13-6.9l0.1-0.1c0.4-0.7,1-1.2,1.7-1.5&#10;&#9;&#9;c0.5-0.2,1-0.2,1.5-0.2c2.7,0,5.4-0.3,8.1-0.9c3.3-0.7,5.3-1.9,6-3.7c0.9-2.2-0.6-4.8-2.4-6.3c-3.4-2.9-8.1-3.4-12.6-4&#10;&#9;&#9;c-1.5-0.2-3-0.4-4.4-0.6l-1.4-0.3c-1.9-0.5-3.9-0.7-5.9-0.5c-2.2,0.5-4.1,1.8-5.3,3.7c-1.2,1.4-2.6,2.7-4.1,3.7l-1,0.8&#10;&#9;&#9;c-2.4,1.9-4.8,3.8-7.2,5.8c1.2,1.1,2.5,2.3,3.7,3.4c2.6,2.7,5.5,5.1,8.7,7.1C248.8,345.8,249.2,346,249.8,346.1L249.8,346.1&#10;&#9;&#9;L249.8,346.1z"/>
	<path class="st3_online-class-72 targetColor" d="M56.1,387.6c0,0-5.7-120.2,25-136.5c9.6-5.1,86.6-8.5,104.8,6.8s19.7,77.5,19.7,77.5l33.8-8l13.5,24.5&#10;&#9;&#9;c0,0-49.8,22.9-59.4,27.4C177.2,386.9,56.1,387.6,56.1,387.6L56.1,387.6z" style="fill: rgb(153, 51, 51);"/>
	<path class="st1_online-class-72" d="M159.2,335.7L159.2,335.7c-0.4,0-0.7-0.4-0.7-0.8l6.2-68.3c0.1-0.4,0.4-0.6,0.8-0.6c0.3,0.1,0.6,0.4,0.6,0.7&#10;&#9;&#9;l-6.2,68.3C159.9,335.4,159.6,335.7,159.2,335.7L159.2,335.7z"/>
	<path class="st3_online-class-72 targetColor" d="M213,356.5c1.9,0,3.5-1.6,3.5-3.5s-1.6-3.5-3.5-3.5s-3.5,1.6-3.5,3.5C209.5,354.9,211.1,356.5,213,356.5z" style="fill: rgb(153, 51, 51);"/>
	<path class="st3_online-class-72 targetColor" d="M214,356.5c1.9,0,3.5-1.6,3.5-3.5s-1.6-3.5-3.5-3.5s-3.5,1.6-3.5,3.5C210.5,354.9,212.1,356.5,214,356.5z" style="fill: rgb(153, 51, 51);"/>
</g>
<path id="Chair_online-class-72" class="st1_online-class-72" d="M139.7,271.2H69.8c-19.8,0-35.8,16-35.8,35.8c0,1.6,0.1,3.2,0.3,4.7l11.3,84.9h142.1l-12.5-94.3&#10;&#9;C172.8,284.5,157.7,271.2,139.7,271.2z"/>
<g id="Screen_online-class-72">
	<path class="st0_online-class-72" d="M204.3,136.1H429v121.6c0,2-1.6,3.5-3.5,3.5H207.9c-2,0-3.6-1.6-3.6-3.5L204.3,136.1L204.3,136.1z"/>
	<path class="st1_online-class-72" d="M424,262H209.3c-3.1,0-5.6-2.5-5.6-5.6V136.1c0-0.4,0.3-0.6,0.6-0.6H429c0.4,0,0.6,0.3,0.6,0.6v0v120.2&#10;&#9;&#9;C429.7,259.4,427.2,262,424,262C424,262,424,262,424,262L424,262z M205,136.8v119.6c0,2.4,1.9,4.3,4.3,4.3H424&#10;&#9;&#9;c2.4,0,4.3-1.9,4.3-4.3V136.8H205z"/>
	<path class="st0_online-class-72" d="M207.9,116.9h217.6c2,0,3.5,1.6,3.5,3.6v16H204.3v-16C204.3,118.5,205.9,116.9,207.9,116.9L207.9,116.9z"/>
	<path class="st1_online-class-72" d="M429,137.1H204.3c-0.4,0-0.6-0.3-0.6-0.6v-14.6c0-3.1,2.5-5.6,5.6-5.6h214.8c3.1,0,5.6,2.5,5.6,5.6v14.6&#10;&#9;&#9;C429.7,136.8,429.4,137.1,429,137.1L429,137.1L429,137.1z M205,135.8h223.4v-14c0-2.4-1.9-4.3-4.3-4.3H209.3&#10;&#9;&#9;c-2.4,0-4.3,1.9-4.3,4.3L205,135.8L205,135.8z"/>
	<rect x="215.1" y="151.9" class="st0_online-class-72" width="106.9" height="70"/>
	<path class="st2_online-class-72" d="M322,222.6H215.1c-0.4,0-0.7-0.3-0.7-0.7v-70c0-0.4,0.3-0.7,0.7-0.7H322c0.4,0,0.7,0.3,0.7,0.7c0,0,0,0,0,0v70&#10;&#9;&#9;C322.7,222.3,322.4,222.6,322,222.6L322,222.6z M215.8,221.2h105.5v-68.6H215.8L215.8,221.2z"/>
	<circle class="st0_online-class-72" cx="227.8" cy="177.4" r="3.9"/>
	<path class="st2_online-class-72" d="M227.8,182c-2.5,0-4.6-2-4.6-4.6s2-4.6,4.6-4.6s4.6,2,4.6,4.6C232.4,180,230.3,182,227.8,182z M227.8,174.2&#10;&#9;&#9;c-1.8,0-3.2,1.4-3.2,3.2s1.4,3.2,3.2,3.2c1.8,0,3.2-1.4,3.2-3.2l0,0C231,175.7,229.5,174.3,227.8,174.2L227.8,174.2z"/>
	<path class="st2_online-class-72" d="M309.6,178.1h-69.7c-0.4,0-0.7-0.3-0.7-0.7c0-0.4,0.3-0.7,0.7-0.7c0,0,0,0,0,0h69.7c0.4,0,0.7,0.3,0.7,0.7&#10;&#9;&#9;C310.3,177.8,310,178.1,309.6,178.1L309.6,178.1z"/>
	<circle class="st0_online-class-72" cx="227.8" cy="191.2" r="3.9"/>
	<path class="st2_online-class-72" d="M227.8,195.8c-2.5,0-4.6-2-4.6-4.6s2-4.6,4.6-4.6s4.6,2,4.6,4.6C232.4,193.7,230.3,195.7,227.8,195.8z&#10;&#9;&#9; M227.8,188c-1.8,0-3.2,1.4-3.2,3.2s1.4,3.2,3.2,3.2c1.8,0,3.2-1.4,3.2-3.2l0,0C231,189.4,229.6,188,227.8,188z"/>
	<path class="st2_online-class-72" d="M292.9,191.9h-53c-0.4,0-0.7-0.3-0.7-0.7c0-0.4,0.3-0.7,0.7-0.7c0,0,0,0,0,0h53c0.4,0,0.7,0.3,0.7,0.7&#10;&#9;&#9;S293.3,191.9,292.9,191.9C292.9,191.9,292.9,191.9,292.9,191.9z"/>
	<circle class="st0_online-class-72" cx="227.8" cy="204.9" r="3.9"/>
	<path class="st2_online-class-72" d="M227.8,209.5c-2.5,0-4.6-2-4.6-4.6s2-4.6,4.6-4.6s4.6,2,4.6,4.6C232.4,207.4,230.3,209.5,227.8,209.5z&#10;&#9;&#9; M227.8,201.7c-1.8,0-3.2,1.4-3.2,3.2s1.4,3.2,3.2,3.2c1.8,0,3.2-1.4,3.2-3.2l0,0C231,203.1,229.6,201.7,227.8,201.7z"/>
	<path class="st2_online-class-72" d="M302.1,205.6h-62.2c-0.4,0-0.7-0.3-0.7-0.7c0-0.4,0.3-0.7,0.7-0.7c0,0,0,0,0,0h62.2c0.4,0,0.7,0.3,0.7,0.7&#10;&#9;&#9;C302.8,205.3,302.5,205.6,302.1,205.6z"/>
	<rect x="223.9" y="161.8" class="st2_online-class-72" width="36.9" height="5.7"/>
	<circle class="st2_online-class-72" cx="224.4" cy="126.7" r="2.8"/>
	<circle class="st2_online-class-72" cx="237.4" cy="126.7" r="2.8"/>
	<circle class="st2_online-class-72" cx="250.4" cy="126.7" r="2.8"/>
</g>
<g id="Character_Female_online-class-72">
	<path class="st0_online-class-72" d="M293.8,218.2c-1.4-1.8-3-4-4.5-5.7c-0.6-8.4-2.5-13.1-3.6-13.7c-1.5-0.9-3.3,0.5-4.9,1.1&#10;&#9;&#9;c-0.3,0.1-0.6,0.2-0.9,0.1c-0.2-0.1-0.5-0.2-0.6-0.4c-3.7-3.3-7.1-9.6-9.5-10.3c-1.6-0.4-3.9,2.9-0.4,6.7c1.9,2.1,5.8,6.1,5.9,6.3&#10;&#9;&#9;s-1.7,5.5-2,7.6c-0.5,3.8,10.7,16,13,18.9L293.8,218.2L293.8,218.2z"/>
	<path class="st1_online-class-72" d="M286.2,229.5c-0.2,0-0.4-0.1-0.5-0.3c-0.4-0.5-1-1.2-1.8-2.1c-5.7-6.7-11.8-14-11.4-17.2&#10;&#9;&#9;c0.3-1.7,0.8-3.5,1.3-5.1c0.2-0.8,0.5-1.8,0.6-2.2c-0.4-0.4-1.5-1.6-2.5-2.7s-2.3-2.4-3.2-3.4c-2.4-2.7-2.3-5.2-1.4-6.6&#10;&#9;&#9;c0.5-0.9,1.5-1.5,2.6-1.2c1.6,0.4,3.3,2.6,5.3,5.2c1.4,1.9,2.9,3.6,4.5,5.2c0.1,0.1,0.2,0.2,0.4,0.3c0.2,0,0.3,0,0.5-0.1&#10;&#9;&#9;c0.3-0.1,0.7-0.3,1-0.5c1.4-0.7,3-1.5,4.5-0.6s3.3,5.9,3.9,14.1c0.8,0.9,1.5,2,2.3,3s1.4,1.8,2,2.6c0.2,0.3,0.2,0.6,0,0.9&#10;&#9;&#9;l-7.5,10.6C286.6,229.4,286.4,229.6,286.2,229.5L286.2,229.5L286.2,229.5z M269.3,190c-0.4,0.1-0.7,0.3-0.9,0.6&#10;&#9;&#9;c-0.6,1-0.6,2.8,1.3,4.9c0.8,0.9,2,2.2,3.1,3.3c2.8,2.9,2.8,3,2.9,3.2s0,0.6-0.7,3c-0.5,1.6-0.9,3.2-1.3,4.9&#10;&#9;&#9;c-0.4,2.9,7.6,12.2,11,16.2l1.2,1.5l6.7-9.4c-0.5-0.7-1.1-1.4-1.7-2.2c-0.8-1.1-1.7-2.2-2.4-3.1c-0.1-0.1-0.1-0.3-0.2-0.4&#10;&#9;&#9;c-0.6-8.4-2.5-12.8-3.2-13.2c-0.9-0.5-2,0.1-3.2,0.7c-0.4,0.2-0.8,0.4-1.1,0.5c-0.8,0.4-1.7,0.3-2.3-0.4c-1.7-1.7-3.3-3.5-4.7-5.4&#10;&#9;&#9;c-1.7-2.1-3.4-4.4-4.5-4.7L269.3,190L269.3,190z"/>
	<path class="st3_online-class-72 targetColor" d="M292.7,213.9c0,0,24.4,21.8,26.9,21.4c4.2-5.4,19.1-27.9,19.1-27.9c3.8-5,14.7-8.9,30.4-6.7&#10;&#9;&#9;c0,0,34.7,0.7,41.4,11.7c3.9,6.4,7.1,23.3,9.3,48.3H304.1c-9.4-14.3-25.5-33.3-25.5-33.3L292.7,213.9L292.7,213.9z" style="fill: rgb(153, 51, 51);"/>
	<polygon class="st1_online-class-72" points="363.6,205.9 364.4,253.3 385.2,203.4 &#9;"/>
	<path class="st1_online-class-72" d="M364.4,254h-0.1c-0.3-0.1-0.6-0.3-0.6-0.7l-0.8-47.3c0-0.4,0.3-0.7,0.6-0.7l21.6-2.6c0.2,0,0.5,0.1,0.6,0.3&#10;&#9;&#9;c0.1,0.2,0.2,0.5,0.1,0.7L365,253.6C364.9,253.8,364.6,254,364.4,254L364.4,254z M364.3,206.6l0.7,43.4l19.1-45.7L364.3,206.6&#10;&#9;&#9;L364.3,206.6z"/>
	<path class="st0_online-class-72" d="M352.3,154.1l0.1-0.2c2.1-3.6,7.1-7.2,10.9-8.9c9.2-4,20.8-1.8,28.2,4.8c2.8,2.3,4.8,5.5,5.7,9.1&#10;&#9;&#9;c0.9,3.4,2.9,6.8,3.6,10.2c0.5,2.6-0.5,5.2-0.4,7.8c0.2,5.6,4.9,9.9,9.7,12.8c-7,6.4-17,8.4-26.5,9c-16.6,1-33.2-1.5-48.8-7.3&#10;&#9;&#9;c4.9-3.8,7.7-9.6,7.7-15.8c0-1.9-0.2-3.9,0.8-5.4c0.9-1.3,2.6-1.9,3.9-3C351.3,164,350,158.2,352.3,154.1L352.3,154.1z"/>
	<path class="st1_online-class-72" d="M376.5,199.6c-14.3,0-28.5-2.6-41.9-7.5c-0.2-0.1-0.4-0.3-0.5-0.6c0-0.3,0.1-0.5,0.3-0.7&#10;&#9;&#9;c4.7-3.7,7.4-9.3,7.5-15.2v-0.8c0-1.6-0.1-3.5,1-5c0.7-0.9,1.6-1.6,2.6-2.1c0.5-0.3,1-0.6,1.4-1c2.2-1.8,2.6-4.4,3.1-7.2&#10;&#9;&#9;c0.3-2,0.8-3.9,1.7-5.8l0,0l0.6,0.4l-0.6-0.4l0.1-0.1c2.2-3.8,7.3-7.4,11.2-9.1c9.2-4,21.1-2,29,4.9c2.9,2.4,5,5.7,5.9,9.4&#10;&#9;&#9;c0.4,1.5,1,3,1.6,4.5c0.8,1.9,1.5,3.8,1.9,5.8c0.2,1.6,0.2,3.2-0.1,4.7c-0.2,1-0.2,2.1-0.2,3.1c0.2,5.6,5.2,9.7,9.4,12.2&#10;&#9;&#9;c0.3,0.2,0.4,0.6,0.3,1c0,0.1-0.1,0.1-0.1,0.2c-6,5.5-14.5,8.4-26.9,9.1C381.4,199.5,379,199.6,376.5,199.6L376.5,199.6z&#10;&#9;&#9; M336.3,191.2c15.2,5.5,31.3,7.8,47.4,6.8c11.5-0.7,19.6-3.3,25.3-8.2c-4.3-2.7-9-7-9.2-12.9c0-1.1,0.1-2.3,0.3-3.4&#10;&#9;&#9;c0.3-1.4,0.3-2.8,0.1-4.3c-0.4-1.9-1.1-3.7-1.9-5.5c-0.7-1.5-1.2-3.1-1.7-4.7c-0.8-3.4-2.7-6.5-5.5-8.7c-7.5-6.6-18.8-8.5-27.5-4.7&#10;&#9;&#9;c-3.7,1.6-8.5,5.1-10.6,8.6l-0.1,0.1l-0.6-0.3l0.6,0.3c-0.8,1.7-1.3,3.5-1.6,5.3c-0.5,2.9-1.1,5.9-3.6,8c-0.5,0.4-1,0.8-1.6,1.1&#10;&#9;&#9;c-0.8,0.4-1.6,1-2.1,1.7c-0.8,1.1-0.8,2.6-0.7,4.2v0.8C343.3,181.6,340.7,187.2,336.3,191.2L336.3,191.2z"/>
	<path class="st0_online-class-72" d="M358.8,176.3c-0.3-1.1-0.9-2.2-1.7-3.1c-0.8-0.9-2.1-1.2-3.2-0.8c-0.8,0.5-1.3,1.3-1.3,2.2&#10;&#9;&#9;c0,0.9,0.1,1.8,0.4,2.6c0.5,1.6,1.4,3,2.5,4.2c1.2,1.2,2.8,1.8,4.5,1.7"/>
	<path class="st1_online-class-72" d="M359.7,183.9c-1.7,0-3.4-0.7-4.6-1.9c-1.2-1.2-2.2-2.8-2.7-4.4c-0.4-0.9-0.5-1.9-0.5-2.9&#10;&#9;&#9;c0.1-1.1,0.7-2.2,1.7-2.7c1.4-0.6,3-0.2,4,0.9c0.8,1,1.5,2.1,1.8,3.3c0.2,0.4,0,0.8-0.4,0.9s-0.8,0-0.9-0.4c0,0,0,0,0-0.1&#10;&#9;&#9;c-0.3-1-0.8-2-1.5-2.8c-0.6-0.7-1.5-0.9-2.4-0.6c-0.6,0.3-0.9,0.9-1,1.6c0,0.8,0.1,1.6,0.4,2.3c0.5,1.5,1.3,2.8,2.4,3.9&#10;&#9;&#9;c1,1,2.5,1.6,3.9,1.6c0.4,0,0.7,0.3,0.8,0.6c0,0.4-0.3,0.7-0.6,0.7c0,0,0,0,0,0L359.7,183.9L359.7,183.9z"/>
	<path class="st0_online-class-72" d="M365,192l-1.4,14c0,0,0.7,7.9,9.4,6.4c5.2-1,9.7-4.3,12.2-8.9c0,0,1.3-24.2,1.3-24.2c0.1-1-3.7-5.3-2.7-14.1&#10;&#9;&#9;c-6-0.6-11.5-3.7-15.2-8.6c0,0-4,5-5.7,6.5c-1.4,1.1-2.6,2.5-3.6,3.9c-2.7,4.1-3,9.7-2.3,14.3C357.6,185,360.2,192.2,365,192&#10;&#9;&#9;L365,192z"/>
	<path class="st1_online-class-72" d="M370.8,213.2c-1.7,0.1-3.4-0.5-4.8-1.5c-1.7-1.4-2.8-3.5-3.1-5.7l1.3-13.3c-4.7-0.6-7.3-7.2-7.9-11.5&#10;&#9;&#9;c-0.5-3.4-0.8-9.9,2.4-14.8c1.1-1.5,2.3-2.8,3.7-4c1.6-1.5,5.6-6.4,5.7-6.4c0.1-0.2,0.4-0.3,0.6-0.3c0.2,0,0.4,0.1,0.5,0.3&#10;&#9;&#9;c3.5,4.7,8.8,7.7,14.6,8.3c0.4,0,0.7,0.4,0.6,0.8c-0.6,4.3,0.2,8.6,2.1,12.4c0.3,0.5,0.5,1.1,0.6,1.7l0,0c0,0,0,0.5-1.3,24.2&#10;&#9;&#9;c0,0.1,0,0.2-0.1,0.3c-2.6,4.9-7.3,8.3-12.7,9.3C372.4,213.1,371.6,213.2,370.8,213.2L370.8,213.2z M364.3,206&#10;&#9;&#9;c0.3,1.8,1.2,3.4,2.5,4.6c1.5,1.1,3.5,1.5,6,1c4.9-1,9.2-4,11.6-8.4c0.1-2,1.3-23.9,1.3-24.1c-0.1-0.3-0.3-0.7-0.5-1&#10;&#9;&#9;c-2-3.8-2.8-8.2-2.3-12.5c-5.7-0.8-10.8-3.7-14.4-8.1c-1.2,1.4-3.9,4.7-5.2,5.9c-1.3,1.1-2.5,2.4-3.5,3.8c-3,4.5-2.7,10.6-2.2,13.8&#10;&#9;&#9;c0.5,3.4,2.9,10.3,7.2,10.3h0.1c0.2,0,0.4,0.1,0.5,0.2c0.1,0.1,0.2,0.3,0.2,0.5L364.3,206L364.3,206L364.3,206z"/>
	<path class="st0_online-class-72" d="M370.8,168.1c0,0-5.1,6.3-4.2,7.6s4,0.8,4,0.8"/>
	<path class="st1_online-class-72" d="M369.4,177.2c-1.2,0.1-2.4-0.3-3.3-1.2c-1.1-1.4,1.7-5.4,4.2-8.4c0.2-0.3,0.7-0.4,1-0.1c0,0,0,0,0,0&#10;&#9;&#9;c0.3,0.2,0.4,0.7,0.1,1c0,0,0,0,0,0c-2.4,2.9-4.3,6.1-4.1,6.7c0.5,0.6,2.5,0.6,3.3,0.4c0.4,0,0.7,0.2,0.8,0.6&#10;&#9;&#9;c0,0.4-0.2,0.7-0.5,0.8C370.3,177.1,369.8,177.2,369.4,177.2L369.4,177.2z"/>
	
		<ellipse transform="matrix(0.1302 -0.9915 0.9915 0.1302 147.7669 507.6959)" class="st1_online-class-72" cx="363.2" cy="169.6" rx="1.4" ry="0.8"/>
	
		<ellipse transform="matrix(9.999500e-03 -0.9999 0.9999 9.999500e-03 203.8017 543.8763)" class="st1_online-class-72" cx="376.6" cy="169" rx="1.5" ry="0.8"/>
	<path class="st0_online-class-72" d="M382.5,173.8c0.3-1.2,0.8-2.3,1.6-3.3c0.8-1.2,2.2-1.8,3.6-1.8c0.9,0,1.7,0.5,2.2,1.2c0.3,0.5,0.5,1.1,0.6,1.7&#10;&#9;&#9;c0.5,3.1-0.6,7.1-3.5,8.7c-1,0.6-2.3,0.6-3.3,0"/>
	<path class="st1_online-class-72" d="M385.1,181.4c-0.7,0-1.3-0.2-1.9-0.6c-0.3-0.2-0.4-0.7-0.1-1c0,0,0,0,0,0c0.2-0.3,0.7-0.4,1-0.2c0,0,0,0,0,0&#10;&#9;&#9;c0.8,0.4,1.8,0.4,2.5-0.1c2.6-1.4,3.6-5.1,3.1-8c0-0.5-0.2-1-0.5-1.4c-0.4-0.5-1-0.9-1.7-0.9c-1.2,0-2.3,0.6-3,1.6&#10;&#9;&#9;c-0.7,0.9-1.2,2-1.4,3.1c-0.1,0.4-0.5,0.6-0.9,0.4c-0.3-0.1-0.5-0.5-0.4-0.8c0.3-1.3,0.9-2.5,1.7-3.6c1-1.3,2.6-2.1,4.2-2.1&#10;&#9;&#9;c1.1,0,2.1,0.6,2.8,1.5c0.4,0.6,0.6,1.3,0.7,1.9c0.5,3.4-0.7,7.7-3.9,9.5C386.6,181.2,385.9,181.4,385.1,181.4z"/>
	<path class="st1_online-class-72" d="M338.7,257L338.7,257c-0.4,0-0.7-0.3-0.7-0.7c0-1,5.3-29.2,6.3-34.8c0.1-0.4,0.4-0.6,0.8-0.6&#10;&#9;&#9;c0.4,0.1,0.6,0.4,0.6,0.8c-2.5,13.4-6.2,33.6-6.3,34.6C339.4,256.7,339.1,257,338.7,257L338.7,257z"/>
	<path class="st1_online-class-72" d="M394.8,259.2c-0.4,0-0.7-0.3-0.7-0.7v0v-38.3c0-0.4,0.3-0.7,0.7-0.7c0.4,0,0.7,0.3,0.7,0.7v38.3&#10;&#9;&#9;C395.5,258.9,395.2,259.2,394.8,259.2z"/>
	<path class="st0_online-class-72" d="M375.8,178.2l-11.4,1.1c0,0,0,8.1,4.8,7.6S375.4,183.2,375.8,178.2L375.8,178.2z"/>
	<path class="st1_online-class-72" d="M368.7,187.6c-1,0-1.9-0.3-2.6-1c-2.4-2.1-2.5-7.1-2.5-7.3c0-0.4,0.3-0.7,0.6-0.7l11.4-1.1&#10;&#9;&#9;c0.2,0,0.4,0.1,0.6,0.2c0.1,0.1,0.2,0.3,0.2,0.6c-0.3,4.4-1.4,8.7-7.2,9.3L368.7,187.6L368.7,187.6z M365.1,179.9&#10;&#9;&#9;c0.1,1.3,0.5,4.3,2,5.6c0.6,0.5,1.3,0.7,2,0.6c3.7-0.4,5.4-2.4,5.9-7.2L365.1,179.9L365.1,179.9z"/>
	<path class="st1_online-class-72" d="M365,192c4.6,0.1,9.1-0.7,13.3-2.5c0,0-7.9,9.5-13.9,13L365,192z"/>
	<path class="st1_online-class-72" d="M364.4,203.2c-0.4,0-0.7-0.3-0.7-0.7c0,0,0,0,0,0l0.6-10.5c0-0.4,0.3-0.7,0.6-0.7c0,0,0.1,0,0.1,0&#10;&#9;&#9;c4.5,0.1,8.9-0.7,13-2.4c0.4-0.2,0.8,0,0.9,0.4c0.1,0.2,0.1,0.5-0.1,0.7c-0.3,0.4-8,9.6-14.1,13.2&#10;&#9;&#9;C364.6,203.2,364.5,203.3,364.4,203.2L364.4,203.2z M365.7,192.7l-0.5,8.5c3.9-2.6,8.4-7.3,10.8-10.1&#10;&#9;&#9;C372.6,192.2,369.2,192.7,365.7,192.7z"/>
	<path class="st1_online-class-72" d="M358.9,234.3c-0.2,0-0.4-0.1-0.5-0.2l-9.1-9.6c-0.1-0.2-0.2-0.4-0.2-0.6c0-0.2,0.1-0.4,0.3-0.5l8.3-5.7&#10;&#9;&#9;l-8.3-6.2c-0.2-0.1-0.3-0.3-0.3-0.6c0-0.2,0.1-0.4,0.3-0.6l10.2-7c0.3-0.2,0.8-0.1,1,0.3c0.2,0.3,0.1,0.7-0.2,0.9l-9.4,6.5l8.3,6.2&#10;&#9;&#9;c0.3,0.2,0.4,0.7,0.1,1c0,0.1-0.1,0.1-0.1,0.1l-8.4,5.8l8.5,9c0.3,0.3,0.3,0.7,0,1C359.3,234.3,359.1,234.4,358.9,234.3&#10;&#9;&#9;L358.9,234.3z"/>
	<path class="st1_online-class-72" d="M376.3,235c-0.2,0-0.5-0.1-0.6-0.3c-0.2-0.3-0.1-0.8,0.2-1c0,0,0,0,0,0l13.2-7.9l-7.2-8.2&#10;&#9;&#9;c-0.2-0.2-0.2-0.4-0.2-0.6c0-0.2,0.2-0.4,0.4-0.5l9-4.2l-5.2-5.7c-0.2-0.3-0.1-0.8,0.2-1c0.2-0.2,0.6-0.2,0.8,0l5.9,6.4&#10;&#9;&#9;c0.2,0.2,0.2,0.4,0.2,0.6c0,0.2-0.2,0.4-0.4,0.5l-9,4.2l7.2,8.1c0.1,0.2,0.2,0.4,0.2,0.6c0,0.2-0.1,0.4-0.3,0.5l-13.9,8.3&#10;&#9;&#9;C376.6,235,376.4,235,376.3,235L376.3,235z"/>
	<path class="st1_online-class-72" d="M283.4,212.6c-0.2,0-0.3-0.1-0.5-0.2c-1.2-1-1.9-2.4-2.1-3.9c-1.1,1.2-2.7,1.7-4.3,1.4&#10;&#9;&#9;c-0.7-0.1-1.3-0.6-1.5-1.2c-0.8-2.6,4.2-8.2,5.2-9.3c0.3-0.3,0.7-0.3,1,0s0.3,0.7,0,1l0,0c-2.7,2.9-5.3,6.7-4.9,7.9&#10;&#9;&#9;c0,0.1,0.1,0.2,0.5,0.3c2,0.4,3.5-1.4,4.3-2.8c0.2-0.6,0.4-1.1,0.8-1.6c0.2-0.3,0.6-0.4,1-0.2c0.3,0.2,0.4,0.5,0.3,0.8&#10;&#9;&#9;c-0.2,0.5-0.4,1-0.7,1.5c-0.6,1.8-0.1,3.8,1.4,5.1c0.3,0.3,0.3,0.7,0.1,1C283.7,212.6,283.5,212.6,283.4,212.6L283.4,212.6z"/>
</g>
</svg>