<svg version="1.1" id="Layer_1" xmlns="http://www.w3.org/2000/svg" xmlns:xlink="http://www.w3.org/1999/xlink" x="0px" y="0px" viewBox="0 0 500 500" style="width: 166px;" xml:space="preserve" data-imageid="online-class-33" imageName="Online Class" class="illustrations_image">
<style type="text/css">
	.st0_online-class-33{fill:#093F68;}
	.st1_online-class-33{fill:#FFFFFF;}
	.st2_online-class-33{fill:#DFEAEF;}
	.st3_online-class-33{fill:#70CC40;}
	.st4_online-class-33{fill:#FFC9B0;}
	.st5_online-class-33{fill:#68E1FD;}
	.st6_online-class-33{fill:none;}
	.st7_online-class-33{fill:#725858;}
	.st8_online-class-33{fill:#FFBC0E;}
</style>
<g id="board_online-class-33">
	<path class="st0_online-class-33" d="M452.3,124.3v162c0,6.1-4.3,11.1-9.7,11.1H211.9c-5.4,0-9.7-5-9.7-11.1v-162c0-6.1,4.3-11.1,9.7-11.1h230.7&#10;&#9;&#9;C448,113.2,452.3,118.2,452.3,124.3z"/>
	<path class="st0_online-class-33" d="M442.6,299.2H211.9c-6.3,0-11.5-5.8-11.5-12.9v-162c0-7.1,5.2-12.9,11.5-12.9h230.7c6.4,0,11.5,5.8,11.5,12.9&#10;&#9;&#9;v162C454.2,293.4,449,299.2,442.6,299.2z M211.9,115c-4.3,0-7.9,4.2-7.9,9.3v162c0,5.1,3.5,9.3,7.9,9.3h230.7&#10;&#9;&#9;c4.4,0,7.9-4.2,7.9-9.3v-162c0-5.1-3.5-9.3-7.9-9.3H211.9z"/>
	<path class="st1_online-class-33" d="M452.3,124.3v158.4H202.2V124.3c0-6.1,4.3-11.1,9.7-11.1h230.7C448,113.2,452.3,118.2,452.3,124.3z"/>
	<path class="st0_online-class-33" d="M452.3,284.5H202.2c-1,0-1.8-0.8-1.8-1.8c0,0,0,0,0,0V124.3c0-7.1,5.2-12.9,11.5-12.9h230.7&#10;&#9;&#9;c6.4,0,11.5,5.8,11.5,12.9v158.4C454.2,283.7,453.4,284.5,452.3,284.5C452.4,284.5,452.3,284.5,452.3,284.5z M204.1,280.9h246.5&#10;&#9;&#9;V124.3c0-5.1-3.5-9.3-7.9-9.3H211.9c-4.3,0-7.9,4.2-7.9,9.3L204.1,280.9z"/>
	<path class="st2_online-class-33" d="M322.6,154.4h-21.4c-1,0-1.8-0.8-1.8-1.8s0.8-1.8,1.8-1.8c0,0,0,0,0,0h21.4c1,0,1.8,0.8,1.8,1.8&#10;&#9;&#9;S323.6,154.4,322.6,154.4C322.6,154.4,322.6,154.4,322.6,154.4L322.6,154.4z"/>
	<path class="st2_online-class-33" d="M286.2,154.4h-40.5c-1,0-1.8-0.8-1.8-1.8c0-1,0.8-1.8,1.8-1.8h40.5c1,0,1.8,0.8,1.8,1.8&#10;&#9;&#9;C288.1,153.6,287.2,154.4,286.2,154.4z"/>
	<path class="st2_online-class-33" d="M314.5,173.1h-75.8c-1,0-1.8-0.8-1.8-1.8c0-1,0.8-1.8,1.8-1.8h75.8c1,0,1.8,0.8,1.8,1.8&#10;&#9;&#9;C316.4,172.2,315.6,173,314.5,173.1z"/>
	<path class="st2_online-class-33" d="M322.6,191.7h-78.3c-1-0.1-1.8-0.9-1.7-1.9c0.1-0.9,0.8-1.6,1.7-1.7h78.3c1-0.1,1.9,0.7,1.9,1.7&#10;&#9;&#9;c0.1,1-0.7,1.9-1.7,1.9C322.8,191.7,322.7,191.7,322.6,191.7z"/>
	<path class="st2_online-class-33" d="M273.3,210.3h-34.5c-1,0.1-1.9-0.7-1.9-1.7s0.7-1.9,1.7-1.9c0.1,0,0.2,0,0.3,0h34.5c1-0.1,1.9,0.7,1.9,1.7&#10;&#9;&#9;c0.1,1-0.7,1.9-1.7,1.9C273.5,210.3,273.4,210.3,273.3,210.3z"/>
	<path class="st2_online-class-33" d="M339.4,224.9H221.9c-1,0-1.8-0.8-1.8-1.8v0v-87.4c0-1,0.8-1.8,1.8-1.8h0h117.6c1,0,1.8,0.8,1.8,1.8&#10;&#9;&#9;c0,0,0,0,0,0V223C341.3,224,340.5,224.8,339.4,224.9C339.5,224.8,339.5,224.9,339.4,224.9z M223.7,221.2h113.9v-83.8H223.7V221.2z"/>
	<path class="st3_online-class-33" d="M254.1,282.7h-9.7c-2.8-6.7-7.8-20.2-6.8-30.2c0,0,6.8,3.1,10.9,11.8c0.4,0.8,0.8,1.7,1.1,2.6&#10;&#9;&#9;C252.5,274.9,253.6,279.7,254.1,282.7z"/>
	<path class="st0_online-class-33" d="M254.1,284.5h-9.7c-0.7,0-1.4-0.4-1.7-1.1c-3-7.2-8-20.8-7-31.1c0.1-1,1-1.7,2-1.6c0.2,0,0.4,0.1,0.6,0.2&#10;&#9;&#9;c0.3,0.1,7.4,3.5,11.8,12.7c0.4,0.9,0.8,1.8,1.2,2.8c2,5.2,3.5,10.6,4.6,16.1c0.1,0.5-0.1,1.1-0.4,1.5&#10;&#9;&#9;C255.1,284.3,254.6,284.5,254.1,284.5z M245.6,280.9h6.3c-1-4.5-2.4-9-4-13.3c-0.3-0.8-0.6-1.7-1-2.5c-1.7-3.7-4.3-7-7.6-9.4&#10;&#9;&#9;C239.4,264.2,243,274.6,245.6,280.9L245.6,280.9z"/>
	<path class="st3_online-class-33" d="M262.3,264.1c0.2,6.4-0.9,12.7-3.4,18.5h-8.6c-1.2-6.1-1.8-12.2-1.9-18.4c0-8.8,1.2-19,5.9-27.3&#10;&#9;&#9;c0,0,6.2,7.2,7.7,24.5C262.2,262.4,262.2,263.3,262.3,264.1z"/>
	<path class="st0_online-class-33" d="M258.9,284.5h-8.6c-0.9,0-1.6-0.6-1.8-1.5c-1.2-6.2-1.8-12.5-1.9-18.8c-0.1-11.3,2-20.8,6.1-28.2&#10;&#9;&#9;c0.3-0.5,0.8-0.9,1.4-0.9c0.6-0.1,1.2,0.2,1.6,0.6c0.3,0.3,6.7,7.8,8.2,25.6c0.1,1,0.1,1.9,0.1,2.8c0.2,6.6-1,13.2-3.5,19.3&#10;&#9;&#9;C260.3,284.1,259.7,284.5,258.9,284.5z M251.9,280.9h5.8c2-5.3,2.9-11,2.8-16.7l0,0c0-0.8-0.1-1.7-0.1-2.6c-0.9-11-3.9-17.7-5.7-21&#10;&#9;&#9;c-2.9,6.4-4.3,14.4-4.3,23.6C250.4,269.9,250.9,275.4,251.9,280.9L251.9,280.9z"/>
	<path class="st3_online-class-33" d="M266.5,282.7h-11.8c1.4-6.6,3.9-12.9,7.5-18.5c2.8-4.4,6.2-8.2,10.2-11.5C272.5,252.7,276.5,265.3,266.5,282.7&#10;&#9;&#9;z"/>
	<path class="st0_online-class-33" d="M266.5,284.5h-11.8c-0.5,0-1.1-0.2-1.4-0.7c-0.3-0.4-0.5-1-0.4-1.5c1.4-6.8,4.1-13.3,7.8-19.2&#10;&#9;&#9;c2.9-4.5,6.4-8.6,10.6-11.9c0.8-0.6,1.9-0.5,2.6,0.3c0.1,0.2,0.2,0.4,0.3,0.6c0.2,0.5,4.1,13.6-6.1,31.5&#10;&#9;&#9;C267.8,284.2,267.2,284.5,266.5,284.5z M257,280.9h8.5c6.2-11.3,6.3-20.4,5.8-24.8c-2.9,2.7-5.4,5.7-7.5,9&#10;&#9;&#9;C260.7,270,258.4,275.3,257,280.9z"/>
	<path class="st2_online-class-33" d="M323.8,209.7h-20.1c-1,0-1.8-0.8-1.8-1.8s0.8-1.8,1.8-1.8c0,0,0,0,0,0h20.1c1,0,1.8,0.8,1.8,1.8&#10;&#9;&#9;C325.6,208.9,324.8,209.7,323.8,209.7z"/>
</g>
<g id="character-2_online-class-33">
	<path class="st4_online-class-33" d="M320.4,235.7c-4.1,4.4-7.9,9.1-11.8,13.8l-17.5-15.8c-4.3-3.9-13-12-7.4-18c1-0.9,2.1-1.6,3.3-2.1&#10;&#9;&#9;c2.6-1.4,5.2-3.4,8.1-3c1.8,0.5,3.4,1.4,4.6,2.7c2.3,1.9,4.4,3.9,6.4,6.1c1.6,1.9,1.2,3,2.3,5.1s3.7,3.8,5.5,5.4L320.4,235.7z"/>
	<path class="st0_online-class-33" d="M308.6,251.2c-0.5,0-0.9-0.2-1.2-0.5l-10.8-9.8l-6.8-6.1c-3-2.8-9.5-8.6-9.7-14.5c-0.1-2.2,0.7-4.4,2.3-6&#10;&#9;&#9;c0.9-0.9,2-1.6,3.1-2.1l0.7-0.3c0.5-0.3,1-0.6,1.5-0.9c2.2-1.3,4.7-2.8,7.7-2.3c2.1,0.5,4.1,1.6,5.5,3.2c0.5,0.4,1,0.9,1.5,1.3&#10;&#9;&#9;c1.8,1.5,3.5,3.2,5.1,4.9c0.9,1.1,1.6,2.3,1.9,3.7c0.2,0.6,0.4,1.2,0.6,1.8c0.9,1.3,2.1,2.5,3.4,3.4c0.6,0.5,1.2,0.9,1.7,1.4&#10;&#9;&#9;l6.5,5.9c0.7,0.7,0.8,1.8,0.1,2.6c0,0,0,0,0,0c-3.9,4.1-7.5,8.6-11.1,13l-0.6,0.7c-0.3,0.4-0.8,0.6-1.3,0.7L308.6,251.2z&#10;&#9;&#9; M294.3,212.2c-1.5,0-3.1,0.9-4.7,1.9c-0.5,0.3-1.1,0.6-1.6,0.9l-0.7,0.4c-0.8,0.3-1.5,0.8-2.1,1.4c-0.9,0.9-1.4,2.1-1.3,3.4&#10;&#9;&#9;c0.2,4.4,6.1,9.8,8.6,12.1l6.7,6.1l9.4,8.5c3-3.7,6.1-7.4,9.4-11l-5.1-4.6c-0.4-0.4-1-0.8-1.5-1.3c-1.6-1.3-3.5-2.8-4.4-4.6&#10;&#9;&#9;c-0.4-0.8-0.7-1.6-0.9-2.4c-0.2-0.9-0.6-1.7-1.1-2.4c-1.5-1.6-3-3.1-4.7-4.5l-1.5-1.4c-1-1.1-2.3-1.9-3.7-2.3&#10;&#9;&#9;C294.7,212.3,294.5,212.3,294.3,212.2z"/>
	<path class="st0_online-class-33" d="M302.2,236.5c-0.6,0-1.2-0.3-1.5-0.8l-44.1-63.3c-0.6-0.8-0.4-2,0.5-2.5c0.8-0.6,2-0.4,2.5,0.5l0,0l44.1,63.3&#10;&#9;&#9;c0.6,0.8,0.4,2-0.5,2.5C303,236.4,302.6,236.5,302.2,236.5L302.2,236.5z"/>
	<path class="st4_online-class-33" d="M296.8,216.1c-1.2,0.2-6.3,0.4-7.3,1.1c-1.1,0.7-1.5,2-1,3.2c0.7,0.8,1.7,1.3,2.8,1.2c2.7,0.2,5.4,0.1,8-0.3&#10;&#9;&#9;c-0.4,3.5,1.4,6.9,4.4,8.6"/>
	<path class="st0_online-class-33" d="M303.7,231.7c-0.3,0-0.6-0.1-0.9-0.2c-3-1.7-5-4.7-5.4-8.1c-2.1,0.2-4.2,0.2-6.3,0c-0.8-0.1-3-0.3-4.2-2.1&#10;&#9;&#9;c-1.2-2-0.2-4.5,1.5-5.7c1-0.6,2.7-0.9,6.3-1.2c0.8-0.1,1.4-0.1,1.7-0.2c1-0.2,2,0.4,2.2,1.4c0.2,1-0.4,2-1.4,2.2&#10;&#9;&#9;c-0.1,0-0.1,0-0.2,0c-0.4,0.1-1.1,0.1-2,0.2c-1.6,0.1-3.1,0.3-4.6,0.6c-0.2,0.2-0.4,0.4-0.4,0.7l0,0c0,0,0.2,0.2,1.4,0.4&#10;&#9;&#9;c2.5,0.2,5,0.1,7.5-0.3c1-0.2,1.9,0.5,2.1,1.5c0,0.2,0,0.3,0,0.5c-0.3,2.7,1.1,5.4,3.5,6.7c0.9,0.5,1.2,1.6,0.7,2.5&#10;&#9;&#9;C305,231.3,304.4,231.7,303.7,231.7L303.7,231.7z"/>
	<path class="st5_online-class-33 targetColor" d="M313.5,228.4c0,0,18.1,12.1,21.4,13.8c0,0,19.2-23.5,39.5-23.5h22.2c12.9,0,23.3,11.5,23.3,25.7v39.9h-65.6&#10;&#9;&#9;v-26c-9.1,5.2-14.3,8.2-18.4,9.2c-5.9,1.4-12.8-3.2-31.9-22.9L313.5,228.4z" style="fill: rgb(153, 51, 51);"/>
	<path class="st0_online-class-33" d="M420,286.1h-65.6c-1,0-1.8-0.8-1.8-1.8l0,0v-22.9c-7.5,4.3-12.2,6.9-16.2,7.8c-6.9,1.6-14.5-3.6-33.6-23.4&#10;&#9;&#9;c-0.6-0.6-0.7-1.5-0.3-2.2l9.5-16.2c0.3-0.4,0.7-0.7,1.2-0.9c0.5-0.1,1,0,1.4,0.3c5.5,3.7,15.9,10.6,20,13c4.3-4.9,21.5-23,39.9-23&#10;&#9;&#9;h22.2c13.8,0,25.1,12.3,25.1,27.5v39.9C421.9,285.3,421.1,286.1,420,286.1C420.1,286.1,420,286.1,420,286.1z M356.2,282.5h62v-38.1&#10;&#9;&#9;c0-13.2-9.6-23.9-21.5-23.9h-22.3c-19.2,0-37.9,22.6-38.1,22.8c-0.5,0.7-1.5,0.8-2.2,0.5c-2.9-1.4-15.5-9.8-20-12.9l-7.8,13.4&#10;&#9;&#9;c16.9,17.4,24.1,22.6,29.3,21.4c3.7-0.8,8.5-3.6,16.4-8.1l1.6-0.9c0.9-0.5,2-0.2,2.5,0.7c0.2,0.3,0.2,0.6,0.2,0.9L356.2,282.5z"/>
	<line class="st6_online-class-33" x1="403.2" y1="283" x2="403.2" y2="233.6"/>
	<path class="st0_online-class-33" d="M403.2,284.8c-1,0-1.8-0.8-1.8-1.8v-49.4c-0.1-1,0.7-1.9,1.7-1.9c1-0.1,1.9,0.7,1.9,1.7c0,0.1,0,0.2,0,0.3V283&#10;&#9;&#9;C405,284,404.2,284.8,403.2,284.8z"/>
	<path class="st4_online-class-33" d="M385.2,226.6l-6.4-1.4c-1.5-0.3-2.5-1.8-2.2-3.4v0l2-9.2l0,0l11.9,2.6l0,0l-2,9.1&#10;&#9;&#9;C388.2,225.9,386.7,226.9,385.2,226.6L385.2,226.6L385.2,226.6z"/>
	<path class="st0_online-class-33" d="M384,228c-0.5,0-1-0.1-1.5-0.2l-1.8-0.4c-3.8-0.8-6.2-4.5-5.4-8.3l1.5-6.9c0.1-0.5,0.4-0.9,0.8-1.1&#10;&#9;&#9;c0.4-0.3,0.9-0.3,1.4-0.2l12,2.6c0.5,0.1,0.9,0.4,1.1,0.8c0.3,0.4,0.3,0.9,0.2,1.4l-1.5,6.9C390.2,225.7,387.3,228,384,228z&#10;&#9;&#9; M380,214.8l-1.1,5.1c-0.4,1.8,0.8,3.6,2.6,4c0,0,0,0,0,0l0,0l1.8,0.4c1.8,0.4,3.6-0.8,4-2.6l1.1-5.1L380,214.8z"/>
	
		<ellipse transform="matrix(0.2112 -0.9775 0.9775 0.2112 113.2462 490.6198)" class="st4_online-class-33" cx="360.6" cy="175.1" rx="10.2" ry="9.1"/>
	<path class="st0_online-class-33" d="M360.2,187.2c-0.7,0-1.4-0.1-2.1-0.2c-2.9-0.7-5.4-2.5-6.9-5.2c-3.1-5.6-1.6-12.7,3.6-16.5&#10;&#9;&#9;c2.4-1.8,5.5-2.5,8.4-1.9c5.9,1.3,9.6,7.6,8.2,14.1c-0.6,3-2.4,5.7-4.9,7.6C364.7,186.4,362.5,187.2,360.2,187.2z M361,166.8&#10;&#9;&#9;c-1.5,0-2.9,0.5-4.1,1.4c-1.8,1.3-3,3.3-3.4,5.4l0,0c-0.5,2.2-0.2,4.4,0.9,6.4c1.7,3.3,5.8,4.5,9,2.8c0.3-0.2,0.7-0.4,1-0.6&#10;&#9;&#9;c1.8-1.3,3-3.3,3.4-5.4c1-4.5-1.4-8.9-5.4-9.8C361.9,166.9,361.5,166.8,361,166.8z M351.6,173.2L351.6,173.2z"/>
	<path class="st4_online-class-33" d="M421.6,199.8c-9.5,11.6-24.1,19.9-37.3,17c-12.5-2.5-22.3-12-25.1-24.4c-1.4-5.8-1.4-11.8-0.1-17.6&#10;&#9;&#9;c0,0-0.2-4.4,4.1-20.2s6.7-24,38.4-22.3c24.5,1.3,35.5,15.1,34,25.2c-1.1,7.5-2.6,14.9-4.4,22.2c2.4,0.7,4.3,2.7,5,5.1&#10;&#9;&#9;C438.9,192.6,433,203.5,421.6,199.8z"/>
	<path class="st0_online-class-33" d="M389.7,219.2c-1.9,0-3.8-0.2-5.7-0.6c-13.1-2.6-23.5-12.7-26.5-25.8c-1.4-6-1.5-12.2-0.1-18.2&#10;&#9;&#9;c0-1.2,0.4-6.3,4.2-20.4c4.7-17.2,8.3-25.4,40.3-23.7c18.7,1,27.6,8.7,31.2,13.2s5.2,9.4,4.5,14.1c-0.9,5.9-2.2,13.6-4.1,20.8&#10;&#9;&#9;c2.2,1.2,3.8,3.2,4.5,5.6c1.7,5.1,0.5,10.7-3.2,14.6c-3.2,3.2-7.6,4.3-12.5,3.1C413,212.8,400.8,219.2,389.7,219.2z M393.8,133.8&#10;&#9;&#9;c-23,0-24.9,7.1-28.7,21.2c-4.1,15.1-4.1,19.6-4.1,19.6c0,0.1,0,0.3,0,0.4c-1.2,5.5-1.2,11.3,0.1,16.8&#10;&#9;&#9;c2.7,11.7,11.9,20.7,23.7,23.1c11.4,2.5,25.4-4,35.5-16.4c0.5-0.6,1.3-0.8,2-0.6c4,1.3,7.5,0.6,9.9-1.9c2.7-2.9,3.6-7.1,2.4-10.9&#10;&#9;&#9;c-0.5-1.9-1.9-3.4-3.8-4c-0.9-0.3-1.5-1.3-1.2-2.2c1.8-7.3,3.3-14.6,4.4-22c0.6-3.6-0.7-7.6-3.7-11.2c-5.5-6.9-16-11.2-28.6-11.8&#10;&#9;&#9;C398.7,133.9,396.1,133.8,393.8,133.8z"/>
	<ellipse class="st0_online-class-33" cx="397" cy="174.3" rx="3.3" ry="3.3"/>
	<circle class="st0_online-class-33" cx="371.2" cy="167.3" r="3.3"/>
	<path class="st0_online-class-33" d="M385.5,183.1h-0.2c-2.8-0.3-5.6-0.9-8.2-1.8c-0.9-0.4-1.6-1.2-1.8-2.2c-0.5-2.8,3.8-7,6.4-9.3&#10;&#9;&#9;c0.8-0.7,1.9-0.6,2.6,0.2c0.7,0.8,0.6,1.9-0.2,2.6l0,0c-1.9,1.6-3.6,3.5-5,5.6c2.1,0.6,4.3,1.1,6.5,1.3c1,0,1.8,0.9,1.7,1.9&#10;&#9;&#9;C387.3,182.4,386.5,183.1,385.5,183.1L385.5,183.1z"/>
	<path class="st1_online-class-33" d="M384.8,198.6l-12-2.8c0,0-1,10.1,3.8,11.8S384.8,198.6,384.8,198.6z"/>
	<path class="st0_online-class-33" d="M377.6,209.7c-0.6,0-1.1-0.1-1.6-0.3c-6-2.1-5.1-12.5-5-13.7c0-0.5,0.3-1,0.8-1.3c0.4-0.3,1-0.4,1.5-0.3&#10;&#9;&#9;l12,2.8c0.5,0.1,0.9,0.4,1.2,0.9c0.3,0.4,0.3,1,0.2,1.4c-0.3,0.8-2.6,7.9-6.6,9.9C379.2,209.5,378.4,209.7,377.6,209.7z&#10;&#9;&#9; M374.5,198.2c0,3,0.6,7.1,2.7,7.8c0.4,0.1,0.8,0.1,1.1-0.1c1.6-0.8,3.1-3.6,4.1-5.9L374.5,198.2z"/>
	<line class="st6_online-class-33" x1="354.4" y1="258.3" x2="354.4" y2="235.9"/>
	<path class="st0_online-class-33" d="M354.4,260.1c-1,0-1.8-0.8-1.8-1.8c0,0,0,0,0,0v-22.4c-0.1-1,0.7-1.9,1.7-1.9c1-0.1,1.9,0.7,1.9,1.7&#10;&#9;&#9;c0,0.1,0,0.2,0,0.3v22.4C356.2,259.3,355.4,260.1,354.4,260.1C354.4,260.1,354.4,260.1,354.4,260.1z"/>
	<path class="st7_online-class-33" d="M401,140.5c-2,5-1.8,10.6,0.5,15.4c-10.2-2.4-18.2-10.2-20.9-20.4c-2.9,3.9-4.9,8.5-5.9,13.2&#10;&#9;&#9;c-6.4-1-13.5-4.8-14.2-11.3c-0.5-4.5,2.5-8.8,6.3-11.1s8.5-3.1,12.9-3.4c15.4-1.2,30.9,1.2,45.1,7.2c5.3,2.2,10.8,5.3,13.3,10.5&#10;&#9;&#9;c2.9,6.1,0.7,12.6,0.5,19c-0.2,6.2-2.9,12.8-5.9,18.1c-1.2,2.1-3,4.3-5.4,4.2c-2-0.1-3.6-1.8-4.4-3.6c-0.6-1.9-1-3.9-1.3-5.9&#10;&#9;&#9;c-1.6-7.7-9-11.4-13.4-17.5C406.9,152.7,399.9,143.3,401,140.5z"/>
	<path class="st0_online-class-33" d="M427.7,183.8h-0.2c-2.5-0.1-4.9-2-6-4.8c-0.5-1.4-0.8-2.8-1-4.3c-0.1-0.6-0.2-1.2-0.3-1.9&#10;&#9;&#9;c-1-4.4-4.1-7.5-7.5-10.8c-2-1.9-3.9-3.9-5.6-6.1l-0.4-0.5c-1.9-2.5-3.6-5.1-5.3-7.8c0,2.6,0.6,5.2,1.7,7.5&#10;&#9;&#9;c0.3,0.6,0.2,1.4-0.2,1.9c-0.4,0.5-1.1,0.8-1.8,0.7c-9.5-2.2-17.4-8.9-21-18c-1.7,2.9-2.9,6.1-3.5,9.4c-0.2,0.9-1.1,1.6-2,1.4&#10;&#9;&#9;c-7.3-1.1-14.9-5.5-15.7-12.9c-0.5-4.9,2.3-9.9,7.2-12.9c4.3-2.6,9.4-3.3,13.7-3.7c15.7-1.2,31.5,1.3,46,7.3&#10;&#9;&#9;c5.1,2.1,11.4,5.3,14.2,11.4c2.3,4.9,1.7,9.8,1.2,14.6c-0.2,1.8-0.4,3.5-0.5,5.2c-0.2,7.1-3.5,14.3-6.2,19&#10;&#9;&#9;C432.6,182,430.3,183.8,427.7,183.8z M402.7,141.2c-0.1,0.5,0.2,2.9,6.9,12.1l0.4,0.5c1.6,2,3.3,3.9,5.2,5.6&#10;&#9;&#9;c3.6,3.5,7.3,7.1,8.5,12.6c0.1,0.7,0.3,1.4,0.4,2.1c0.1,1.2,0.4,2.4,0.8,3.5c0.5,1.2,1.5,2.5,2.7,2.5c1.6,0,2.9-1.8,3.8-3.3&#10;&#9;&#9;c3.5-6.1,5.5-12.3,5.7-17.3c0.1-1.8,0.3-3.7,0.5-5.5c0.5-4.5,1-8.8-0.8-12.7c-2.3-4.9-7.8-7.7-12.4-9.6c-14-5.8-29.2-8.2-44.3-7&#10;&#9;&#9;c-4,0.3-8.5,0.9-12.1,3.2c-3,1.8-5.9,5.5-5.5,9.4c0.5,4.9,5.8,8.2,11,9.4c1.1-4.4,3.1-8.5,5.8-12.2c0.6-0.8,1.7-1,2.5-0.4&#10;&#9;&#9;c0.3,0.3,0.6,0.6,0.7,1c2.1,8.3,8.1,15,16.1,18c-1.2-4.4-1-9.1,0.8-13.3l0,0c0.4-0.9,1.4-1.4,2.4-1&#10;&#9;&#9;C402.6,139.2,403.1,140.2,402.7,141.2L402.7,141.2L402.7,141.2z"/>
	<path class="st8_online-class-33" d="M384,234.4l-5.6-0.4c-0.8-0.1-1.3-0.7-1.3-1.5l0.3-4.3c0.1-0.8,0.7-1.3,1.5-1.3l5.6,0.4&#10;&#9;&#9;c0.8,0.1,1.3,0.7,1.3,1.5l-0.3,4.3C385.4,233.9,384.8,234.5,384,234.4z"/>
	<path class="st0_online-class-33" d="M383.1,236.2h-0.4l-3.3-0.3c-2.4-0.2-4.2-2.3-4-4.7c0,0,0,0,0,0l0.2-2c0.2-2.4,2.2-4.2,4.6-4c0,0,0,0,0,0&#10;&#9;&#9;l3.3,0.3c2.4,0.2,4.2,2.2,4,4.6c0,0,0,0,0,0l-0.2,2C387.2,234.4,385.4,236.2,383.1,236.2L383.1,236.2z M379.9,228.8&#10;&#9;&#9;c-0.2,0-0.3,0.1-0.5,0.2c-0.1,0.1-0.2,0.3-0.2,0.5l-0.2,2c0,0.4,0.3,0.7,0.6,0.7c0,0,0,0,0,0l3.3,0.3c0.2,0,0.4,0,0.5-0.2&#10;&#9;&#9;c0.1-0.1,0.2-0.3,0.2-0.5l0.2-2c0-0.2,0-0.4-0.2-0.5c-0.1-0.1-0.3-0.2-0.5-0.2L379.9,228.8L379.9,228.8z"/>
	<polygon class="st8_online-class-33" points="382.9,234.4 386.3,269.4 377.1,275.8 370.9,268.2 379.5,234.1 &#9;"/>
	<path class="st0_online-class-33" d="M377.1,277.6c-0.5,0-1.1-0.2-1.4-0.7l-6.2-7.6c-0.4-0.4-0.5-1-0.4-1.6l8.6-34.1c0.2-0.9,1-1.4,1.9-1.4l3.3,0.3&#10;&#9;&#9;c0.9,0.1,1.6,0.8,1.7,1.6l3.4,35c0.1,0.7-0.2,1.3-0.8,1.7l-9.1,6.4C377.9,277.5,377.5,277.6,377.1,277.6z M372.9,267.7l4.6,5.6&#10;&#9;&#9;l6.9-4.8l-3.1-32.4h-0.3L372.9,267.7z"/>
</g>
<g id="character-1_online-class-33">
	<polygon class="st1_online-class-33" points="220.4,373.6 289,338.6 225.9,313.2 166.6,345.6 &#9;"/>
	<path class="st0_online-class-33" d="M220.4,375.4c-0.3,0-0.6-0.1-0.8-0.2l-53.9-28c-0.9-0.5-1.2-1.6-0.7-2.5c0.2-0.3,0.4-0.6,0.7-0.7l59.3-32.4&#10;&#9;&#9;c0.5-0.3,1-0.3,1.6-0.1l63.1,25.4c0.7,0.3,1.1,0.9,1.1,1.6c0,0.7-0.4,1.4-1,1.7l-68.6,35C221,375.3,220.7,375.4,220.4,375.4z&#10;&#9;&#9; M170.4,345.5l50,26l64.2-32.8L226,315.2L170.4,345.5z"/>
	<path class="st4_online-class-33" d="M176.4,208.4c0,0,11.9,14.8,7.8,20.9s-14.6,1.6-14.6,1.6"/>
	<path class="st0_online-class-33" d="M177.2,234.4c-2.9-0.1-5.7-0.7-8.3-1.8c-0.9-0.5-1.2-1.6-0.8-2.5c0.4-0.8,1.4-1.2,2.2-0.9&#10;&#9;&#9;c0.1,0,9.1,3.8,12.4-1c2.6-3.8-4.1-14.3-7.7-18.8c-0.6-0.8-0.4-2,0.4-2.5c0.8-0.5,1.8-0.4,2.4,0.3c1.3,1.6,12.6,16,7.9,23.1&#10;&#9;&#9;C183.6,233.5,180.3,234.4,177.2,234.4z"/>
	<ellipse class="st4_online-class-33" cx="72.3" cy="225.6" rx="18.6" ry="16"/>
	<path class="st0_online-class-33" d="M72.3,243.4c-11.2,0-20.4-8-20.4-17.8s9.2-17.8,20.4-17.8s20.4,8,20.4,17.8S83.6,243.4,72.3,243.4z&#10;&#9;&#9; M72.3,211.4c-9.2,0-16.8,6.4-16.8,14.2s7.5,14.2,16.8,14.2s16.8-6.4,16.8-14.2S81.6,211.4,72.3,211.4L72.3,211.4z"/>
	<path class="st4_online-class-33" d="M141.9,152.6c18.9,25.4,28,8.9,30.6,3.1l6.4,58c3.2,28.9-16.2,55.4-44.7,61.1l1.3,11.9c0.7,5.2-3,10-8.2,10.7&#10;&#9;&#9;c-5.2,0.7-10-3-10.7-8.2c0-0.1,0-0.3,0-0.4l-1.2-11.2c-33.9,2.5-53.6-24.8-56.5-50.7l3-52.5C61.8,174.5,85.9,189.2,141.9,152.6z"/>
	<path class="st0_online-class-33" d="M126,299.1c-5.8,0-10.7-4.3-11.3-10.1l-1-9.5c-15.4,0.7-29.1-4.6-39.6-15.4c-9.3-9.5-15.5-23-17.1-37&#10;&#9;&#9;c0-0.1,0-0.2,0-0.3l3-52.5c0-0.6,0.4-1.2,1-1.5c0.6-0.3,1.2-0.3,1.8,0.1c0.2,0.1,24,13.6,78.1-21.8c0.8-0.5,1.9-0.3,2.4,0.4&#10;&#9;&#9;c6.7,9,12.8,13.5,17.7,13c3.8-0.4,7.1-3.6,9.8-9.5c0.4-0.9,1.5-1.3,2.4-0.9c0.6,0.3,1,0.8,1.1,1.5l6.4,58c3,29.1-16,56-44.6,62.7&#10;&#9;&#9;l1.1,10.2c0.6,6.2-3.9,11.7-10.1,12.4C126.8,299.1,126.4,299.1,126,299.1z M115.3,275.8c0.9,0,1.7,0.7,1.8,1.6l1.2,11.2&#10;&#9;&#9;c0.6,4.2,4.5,7.2,8.7,6.6c4.1-0.6,7-4.2,6.7-8.3l-1.4-11.9c-0.1-0.9,0.5-1.8,1.4-2c27.5-5.6,46.2-31.2,43.3-59.1l-5.8-52.4&#10;&#9;&#9;c-2.8,4-6.1,6.2-9.9,6.6c-6.1,0.6-12.8-3.8-19.9-13.1c-45.8,29.5-70.3,24.9-78,22.1l-2.9,49.8c2.9,26.1,22.6,51.2,54.5,48.9&#10;&#9;&#9;L115.3,275.8z"/>
	<path class="st5_online-class-33 targetColor" d="M235.1,354.8l-41.1-4.5c-6.6-27.6-26.8-68.6-43.8-68.6H80.7c-11.8,0-21.3,9.5-21.3,21.3c0,0,0,0,0,0v83.8&#10;&#9;&#9;h153.4l36.4-10.7L235.1,354.8z" style="fill: rgb(153, 51, 51);"/>
	<path class="st0_online-class-33" d="M212.8,388.6H59.4c-1,0-1.8-0.8-1.8-1.8v-83.8c0-12.8,10.4-23.1,23.1-23.1h69.5c18.9,0,38.9,43.4,45.3,68.8&#10;&#9;&#9;l39.9,4.3c0.5,0.1,1,0.4,1.3,0.8l14.1,21.3c0.3,0.5,0.4,1.1,0.2,1.6c-0.2,0.5-0.6,1-1.2,1.1l-36.4,10.7&#10;&#9;&#9;C213.1,388.6,213,388.6,212.8,388.6z M61.2,385h151.3l33.8-10l-12.3-18.5l-40.3-4.4c-0.8-0.1-1.4-0.6-1.6-1.4&#10;&#9;&#9;c-6.4-26.8-26.4-67.2-42-67.2H80.7c-10.8,0-19.5,8.7-19.5,19.5L61.2,385z"/>
	<line class="st6_online-class-33" x1="157.6" y1="386.8" x2="149.2" y2="337.8"/>
	<path class="st0_online-class-33" d="M157.6,388.6c-0.9,0-1.6-0.6-1.8-1.5l-8.4-49c-0.2-1,0.4-2,1.4-2.2c1-0.2,2,0.4,2.2,1.4c0,0.1,0,0.1,0,0.2&#10;&#9;&#9;l8.4,49c0.2,1-0.5,1.9-1.5,2.1L157.6,388.6z"/>
	<circle class="st0_online-class-33" cx="169" cy="202.3" r="3.2"/>
	<path class="st0_online-class-33" d="M160.9,195.5c-2,0-3.6-1.6-3.6-3.6c0-1.2,0.5-2.3,1.5-2.9c7.8-5.7,17.3-0.5,17.7-0.3c1.8,1,2.4,3.2,1.4,4.9&#10;&#9;&#9;s-3.2,2.4-4.9,1.4l0,0c-0.1,0-5.9-3.1-9.9-0.2C162.5,195.2,161.7,195.5,160.9,195.5z"/>
	<path class="st0_online-class-33" d="M160.6,248.2c-2.1,0-4.1-0.7-5.7-2c-0.7-0.7-0.7-1.9,0-2.6c0.7-0.7,1.7-0.7,2.4-0.2c0.4,0.4,4.3,3.4,9.5-2.5&#10;&#9;&#9;c0.7-0.7,1.8-0.8,2.6-0.1c0.7,0.7,0.8,1.8,0.1,2.6C166.2,247.2,163.1,248.2,160.6,248.2z"/>
	<path class="st0_online-class-33" d="M200.9,375.4c-0.8,0-1.5-0.5-1.7-1.3l-10.5-35c-0.4-0.9,0.1-2,1-2.4c0.9-0.4,2,0.1,2.4,1&#10;&#9;&#9;c0,0.1,0.1,0.2,0.1,0.4l10.5,35c0.3,1-0.3,2-1.2,2.3c0,0,0,0,0,0C201.3,375.4,201.1,375.4,200.9,375.4z"/>
	<path class="st0_online-class-33" d="M79.8,388.6c-0.9,0-1.7-0.7-1.8-1.6l-5.1-52.5c-0.1-1,0.7-1.9,1.7-1.9c0.9-0.1,1.8,0.6,1.9,1.6l5.1,52.5&#10;&#9;&#9;c0.1,1-0.6,1.9-1.6,2c0,0,0,0,0,0L79.8,388.6z"/>
	<path class="st7_online-class-33" d="M145,175.7c3.5,0,30,3.5,32.3,0.6c2.1-2.9,3.3-6.3,3.5-9.8c0.7-9.5-2.7-18.8-9.4-25.7&#10;&#9;&#9;c-17.6-18.4-47.8-23.6-70.2-11.2c-2.6,1.4-5.2,3.1-8.1,3.7c-2.6,0.5-5.3,0.1-8,0.2c-7.6,0.3-14.6,4.7-19.7,10.4&#10;&#9;&#9;c-12.5,14.1-15.1,31.3-16.1,49.5c-1.4,27.5-2.6,55.1-8.1,82c-2.8,13.4-6.6,26.6-7.7,40.2s0.8,28,8.5,39.2&#10;&#9;&#9;c3.9,5.7,9.3,10.5,15.8,12.6c4.6,1.5,9.4,1.7,14.2,1.8c15.4,0.4,31.3,0.2,45.8-5.2c13.5-5,26.3-16.5,32.9-29.4&#10;&#9;&#9;c19.7-38.7-10.3-79.6-4.5-120C146.8,211.6,146,175.7,145,175.7z"/>
	<path class="st0_online-class-33" d="M80.8,371c-2.9,0-5.8,0-8.7-0.1c-5.3-0.1-10.1-0.4-14.8-1.9c-6.3-2.1-12.3-6.8-16.7-13.3&#10;&#9;&#9;c-8.9-13-9.7-29.1-8.8-40.4c0.8-9.9,3-19.6,5.2-29.1c0.8-3.7,1.7-7.5,2.5-11.3c5.2-25.5,6.6-52,7.9-77.6l0.2-4.1&#10;&#9;&#9;c1-20.4,4.2-36.8,16.5-50.6c6-6.7,13.6-10.7,21-11c1,0,2,0,2.9,0c1.6,0.1,3.2,0,4.8-0.2c2.2-0.6,4.3-1.5,6.2-2.8l1.3-0.7&#10;&#9;&#9;c22.8-12.7,53.9-7.7,72.4,11.6c7,7.2,10.6,17.1,9.8,27.1c-0.2,3.9-1.6,7.7-3.9,10.8c-1.8,2.3-8.3,2.4-27.8,0.6l-3.8-0.3&#10;&#9;&#9;c1.1,9.5,1,36.8,1,37.1c-2.4,16.6,1.5,33.8,5.3,50.4c5.3,23.2,10.7,47.2-1,70.2c-6.7,13.2-20,25.1-33.9,30.2&#10;&#9;&#9;C106.4,370.1,93.5,371,80.8,371z M86.1,135.2h-0.9c-6.4,0.2-13.1,3.8-18.4,9.8c-11.6,13-14.6,28.8-15.6,48.4l-0.2,4.1&#10;&#9;&#9;c-1.3,25.8-2.7,52.5-8,78.2c-0.8,3.8-1.7,7.6-2.5,11.4c-2.1,9.3-4.3,19-5.1,28.6c-0.9,10.7-0.2,25.9,8.1,38&#10;&#9;&#9;c4,5.8,9.3,10.1,14.9,11.9c4.5,1.5,9.6,1.6,13.7,1.7c15,0.3,30.8,0.2,45.1-5.1c13-4.8,25.6-16,31.9-28.5c11.1-21.9,6-44.2,0.7-67.8&#10;&#9;&#9;c-3.8-16.9-7.8-34.4-5.3-51.7c0.4-2.6-0.3-33.9-1.1-37.6c-0.5-0.9-0.3-2,0.6-2.5c0.3-0.2,0.6-0.3,0.9-0.3l0,0c1,0,3.2,0.2,6.3,0.5&#10;&#9;&#9;c6.1,0.6,22.5,2.1,24.7,0.6c1.8-2.6,2.9-5.6,3-8.7c0.6-9-2.6-17.8-8.8-24.3c-17.3-18.1-46.5-22.8-68-10.9c-0.4,0.2-0.8,0.5-1.3,0.7&#10;&#9;&#9;c-2.2,1.4-4.7,2.5-7.3,3.2c-1.9,0.3-3.7,0.4-5.6,0.3C87.3,135.3,86.7,135.2,86.1,135.2L86.1,135.2z M145,177.5L145,177.5z"/>
	<path class="st4_online-class-33" d="M152.8,201.1c-7.9-1.9-20.1,0.8-18.2,17c1,8.8,7.1,15.8,15.3,15.5"/>
	<path class="st0_online-class-33" d="M149.3,235.5c-8.5,0-15.4-7.1-16.6-17.1c-1-8.8,2-13.5,4.7-15.9c4.6-4,11.1-4.2,15.8-3.1&#10;&#9;&#9;c1,0.2,1.6,1.1,1.5,2.1c-0.2,1-1.1,1.6-2.1,1.5c-0.1,0-0.1,0-0.2-0.1c-3.7-0.9-9-0.8-12.5,2.3c-3,2.6-4.1,6.9-3.5,12.7&#10;&#9;&#9;c0.9,8.3,6.5,14.1,13.4,13.9c1,0,1.8,0.7,1.9,1.7c0,0,0,0,0,0.1c0,1-0.7,1.8-1.7,1.9c0,0,0,0,0,0L149.3,235.5z"/>
	<path class="st4_online-class-33" d="M235.1,354.8c0,0,13.9-14.7,18.4-12.6s-2.4,10.6-2.4,10.6s10.9,0.5,19.8-4.4s11.2-2.8,9.9,2.6&#10;&#9;&#9;s-11.1,19.1-31.6,25.1L235.1,354.8z"/>
	<path class="st0_online-class-33" d="M249.2,377.9c-0.6,0-1.2-0.3-1.5-0.8l-14.1-21.3c-0.5-0.7-0.4-1.6,0.2-2.2c4.5-4.7,15.4-15.4,20.4-13&#10;&#9;&#9;c1.2,0.5,2.1,1.6,2.4,2.9c0.5,2.3-0.8,5.2-2.1,7.4c3.8-0.2,10-1.1,15.4-4c5.6-3.1,9.2-3.7,11.3-2.1c1.6,1.2,2,3.5,1.2,6.8&#10;&#9;&#9;c-1.5,5.9-11.4,20.1-32.8,26.4C249.6,377.9,249.4,377.9,249.2,377.9z M237.5,355l12.5,19c18.8-6,27.8-18.5,29-23.4&#10;&#9;&#9;c0.5-2.1,0.2-2.9,0.1-3s-1.3-0.9-7.4,2.4c-9.2,5-20.3,4.6-20.7,4.6c-1-0.1-1.8-0.9-1.7-1.9c0-0.4,0.2-0.7,0.4-1&#10;&#9;&#9;c1.6-2,3.8-5.8,3.4-7.4c0-0.2-0.2-0.4-0.4-0.4C251.1,343.1,244,348.3,237.5,355z"/>
	<path class="st0_online-class-33" d="M467.2,388.6H35.6c-1,0-1.8-0.8-1.8-1.8s0.8-1.8,1.8-1.8h431.6c1,0,1.8,0.8,1.8,1.8S468.2,388.6,467.2,388.6z"/>
</g>
</svg>