<svg id="_0283_neutral_face" xmlns="http://www.w3.org/2000/svg" viewBox="0 0 500 500" data-imageid="neutral-face-89" imageName="Neutral Face" class="illustrations_image" style="width: 151px;"><defs><style>.cls-1_neutral-face-89{fill:#a5a5a5;}.cls-2_neutral-face-89{fill:#e6e6e6;}.cls-3_neutral-face-89{fill:none;opacity:.03;}.cls-4_neutral-face-89{opacity:.09;}.cls-4_neutral-face-89,.cls-5_neutral-face-89{fill:#000001;}.cls-6_neutral-face-89{opacity:.44;}.cls-6_neutral-face-89,.cls-7_neutral-face-89{fill:#fff;}.cls-8_neutral-face-89{opacity:.58;}.cls-8_neutral-face-89,.cls-9_neutral-face-89,.cls-10_neutral-face-89{fill:#68e1fd;}.cls-11_neutral-face-89{fill:#24285b;}.cls-9_neutral-face-89{opacity:.73;}.cls-7_neutral-face-89{opacity:.36;}.cls-12_neutral-face-89{fill:#ffd200;}</style></defs><g id="sd_neutral-face-89" class="cls-3_neutral-face-89"><ellipse class="cls-5_neutral-face-89" cx="250" cy="458.22" rx="212.94" ry="18.11"/></g><g id="plant_neutral-face-89"><path class="cls-8_neutral-face-89 targetColor" d="m421.12,438.97s-14.19-3.88-17.28-17.08c0,0,21.99-4.44,22.61,18.25l-5.34-1.17Z" style="fill: rgb(144, 51, 43);"/><path class="cls-9_neutral-face-89 targetColor" d="m422.86,437.57s-9.91-15.67-1.19-30.33c0,0,16.72,10.62,9.29,30.36l-8.1-.03Z" style="fill: rgb(144, 51, 43);"/><path class="cls-10_neutral-face-89 targetColor" d="m425.41,437.58s5.24-16.55,21.07-19.69c0,0,2.97,10.75-10.25,19.73l-10.82-.05Z" style="fill: rgb(144, 51, 43);"/><polygon class="cls-11_neutral-face-89" points="415.12 437.2 417.99 456.89 436.11 456.96 438.78 437.3 415.12 437.2"/></g><g id="neutral_neutral-face-89"><path class="cls-11_neutral-face-89" d="m377.24,385.11c-.25,0-.5-.01-.76-.04-4.36-.41-7.55-4.28-7.14-8.64,6.76-71.25-28.76-136.53-29.12-137.18-2.11-3.83-.72-8.65,3.11-10.77,3.83-2.11,8.65-.73,10.77,3.11,1.56,2.83,38.24,70.27,31.02,146.34-.39,4.1-3.84,7.18-7.88,7.18Z"/><path class="cls-12_neutral-face-89" d="m361.29,379.13s-25.06,2.78-22.26,16.42c2.81,13.64,13.72,13.17,13.72,13.17,0,0-8.81,27.05,15.41,26.66,24.21-.39,35.62-31.48,27.78-49.79-7.84-18.3-34.65-6.46-34.65-6.46Z"/><path class="cls-12_neutral-face-89" d="m398.17,358.59s-55.06-16.16-52.31,6.39c2.75,22.55,31.87,17.85,48.16,20.43,16.3,2.58,24.33-18.41,4.15-26.82Z"/><path class="cls-6_neutral-face-89" d="m398.17,358.59s-55.06-16.16-52.31,6.39c2.75,22.55,31.87,17.85,48.16,20.43,16.3,2.58,24.33-18.41,4.15-26.82Z"/><path class="cls-11_neutral-face-89" d="m122.76,385.11c-4.04,0-7.49-3.07-7.88-7.18-7.22-76.07,29.46-143.5,31.02-146.34,2.11-3.83,6.94-5.22,10.77-3.11,3.83,2.12,5.22,6.94,3.11,10.77-.5.9-35.85,66.24-29.12,137.18.41,4.36-2.78,8.22-7.14,8.64-.25.02-.51.04-.76.04Z"/><path class="cls-12_neutral-face-89" d="m138.71,379.13s25.06,2.78,22.26,16.42c-2.81,13.64-13.72,13.17-13.72,13.17,0,0,8.81,27.05-15.41,26.66-24.21-.39-35.62-31.48-27.78-49.79,7.84-18.3,34.65-6.46,34.65-6.46Z"/><path class="cls-11_neutral-face-89" d="m299.07,431.38c-.72,0-1.46-.1-2.19-.31-4.21-1.21-6.64-5.6-5.43-9.8,11.59-40.36-2.49-99.43-2.63-100.02-1.03-4.25,1.58-8.54,5.83-9.57,4.25-1.03,8.54,1.57,9.57,5.83.63,2.58,15.23,63.71,2.47,108.14-1,3.48-4.17,5.74-7.61,5.74Z"/><polygon class="cls-12_neutral-face-89" points="323.43 380.53 281.55 380.53 281.55 460.43 361.4 460.43 318.9 434.37 323.43 380.53"/><path class="cls-11_neutral-face-89" d="m198.59,431.38c-3.45,0-6.61-2.26-7.61-5.74-12.76-44.43,1.84-105.56,2.47-108.14,1.03-4.25,5.33-6.86,9.57-5.83,4.25,1.03,6.86,5.32,5.83,9.57-.14.59-14.22,59.66-2.63,100.02,1.21,4.21-1.22,8.6-5.43,9.8-.73.21-1.47.31-2.19.31Z"/><circle class="cls-10_neutral-face-89 targetColor" cx="250.23" cy="227.54" r="123.25" style="fill: rgb(144, 51, 43);"/><path class="cls-4_neutral-face-89" d="m342.54,146.17c8.94,17.07,14.03,36.48,14.03,57.09,0,68.07-55.18,123.25-123.25,123.25-36.87,0-69.94-16.21-92.53-41.88,20.59,39.32,61.76,66.16,109.22,66.16,68.07,0,123.25-55.18,123.25-123.25,0-31.19-11.61-59.66-30.72-81.37Z"/><ellipse class="cls-11_neutral-face-89" cx="213.53" cy="198.18" rx="11.89" ry="26.23"/><ellipse class="cls-11_neutral-face-89" cx="286.15" cy="198.18" rx="11.89" ry="26.23"/><ellipse class="cls-7_neutral-face-89" cx="186.18" cy="233.85" rx="17.83" ry="9.43"/><ellipse class="cls-7_neutral-face-89" cx="315.87" cy="233.85" rx="17.83" ry="9.43"/><polygon class="cls-12_neutral-face-89" points="174.23 380.53 216.11 380.53 216.11 460.43 136.26 460.43 178.76 434.37 174.23 380.53"/><path class="cls-12_neutral-face-89" d="m101.83,358.59s55.06-16.16,52.31,6.39c-2.75,22.55-31.87,17.85-48.16,20.43-16.3,2.58-24.33-18.41-4.15-26.82Z"/><path class="cls-6_neutral-face-89" d="m101.83,358.59s55.06-16.16,52.31,6.39c-2.75,22.55-31.87,17.85-48.16,20.43-16.3,2.58-24.33-18.41-4.15-26.82Z"/><path class="cls-11_neutral-face-89" d="m329.75,276.21h-156.89c-1.64,0-2.97-1.33-2.97-2.97s1.33-2.97,2.97-2.97h156.89c1.64,0,2.97,1.33,2.97,2.97s-1.33,2.97-2.97,2.97Z"/></g><g id="speech_neutral-face-89"><rect class="cls-2_neutral-face-89" x="218.16" y="23.67" width="61.67" height="43.26"/><polygon class="cls-2_neutral-face-89" points="256.86 60.55 249.25 81.81 242.47 60.55 256.86 60.55"/><circle class="cls-1_neutral-face-89" cx="231.98" cy="44.98" r="4.48"/><circle class="cls-1_neutral-face-89" cx="248.5" cy="44.98" r="4.48"/><circle class="cls-1_neutral-face-89" cx="265.49" cy="44.98" r="4.48"/></g></svg>